<?xml version="1.0" encoding="UTF-8" standalone="no"?>
<svg
   xmlns:dc="http://purl.org/dc/elements/1.1/"
   xmlns:cc="http://creativecommons.org/ns#"
   xmlns:rdf="http://www.w3.org/1999/02/22-rdf-syntax-ns#"
   xmlns:svg="http://www.w3.org/2000/svg"
   xmlns="http://www.w3.org/2000/svg"
   xmlns:xlink="http://www.w3.org/1999/xlink"
   xmlns:sodipodi="http://sodipodi.sourceforge.net/DTD/sodipodi-0.dtd"
   xmlns:inkscape="http://www.inkscape.org/namespaces/inkscape"
   width="512"
   height="512"
   viewBox="0 0 135.46666 135.46667"
   version="1.1"
   id="svg8"
   sodipodi:docname="armour-natural.svg"
   inkscape:version="1.0.2 (e86c870879, 2021-01-15)">
  <defs
     id="defs2">
    <linearGradient
       inkscape:collect="always"
       id="linearGradient869">
      <stop
         style="stop-color:#ffffff;stop-opacity:1"
         offset="0"
         id="stop865" />
      <stop
         style="stop-color:#000000;stop-opacity:1"
         offset="1"
         id="stop867" />
    </linearGradient>
    <marker
       style="overflow:visible;"
       id="Arrow1Mend"
       refX="0.0"
       refY="0.0"
       orient="auto"
       inkscape:stockid="Arrow1Mend"
       inkscape:isstock="true">
      <path
         transform="scale(0.4) rotate(180) translate(10,0)"
         style="fill-rule:evenodd;stroke:#ffffff;stroke-width:1pt;stroke-opacity:1;fill:#ffffff;fill-opacity:1"
         d="M 0.0,0.0 L 5.0,-5.0 L -12.5,0.0 L 5.0,5.0 L 0.0,0.0 z "
         id="path868" />
    </marker>
    <marker
       style="overflow:visible;"
       id="marker1227"
       refX="0.0"
       refY="0.0"
       orient="auto"
       inkscape:stockid="Arrow1Lend"
       inkscape:isstock="true">
      <path
         transform="scale(0.8) rotate(180) translate(12.5,0)"
         style="fill-rule:evenodd;stroke:#ffffff;stroke-width:1pt;stroke-opacity:1;fill:#ffffff;fill-opacity:1"
         d="M 0.0,0.0 L 5.0,-5.0 L -12.5,0.0 L 5.0,5.0 L 0.0,0.0 z "
         id="path1225" />
    </marker>
    <marker
       style="overflow:visible;"
       id="Arrow1Lend"
       refX="0.0"
       refY="0.0"
       orient="auto"
       inkscape:stockid="Arrow1Lend"
       inkscape:isstock="true">
      <path
         transform="scale(0.8) rotate(180) translate(12.5,0)"
         style="fill-rule:evenodd;stroke:#ffffff;stroke-width:1pt;stroke-opacity:1;fill:#ffffff;fill-opacity:1"
         d="M 0.0,0.0 L 5.0,-5.0 L -12.5,0.0 L 5.0,5.0 L 0.0,0.0 z "
         id="path862" />
    </marker>
    <radialGradient
       inkscape:collect="always"
       xlink:href="#linearGradient869"
       id="radialGradient871"
       cx="30"
       cy="30"
       fx="30"
       fy="30"
       r="21.058332"
       gradientUnits="userSpaceOnUse"
       gradientTransform="matrix(1.4246148,1.4246136,-0.94974288,0.94974278,6.2355135,-24.323931)" />
    <radialGradient
       inkscape:collect="always"
       xlink:href="#linearGradient869"
       id="radialGradient871-3"
       cx="30"
       cy="30"
       fx="30"
       fy="30"
       r="21.058332"
       gradientUnits="userSpaceOnUse"
       gradientTransform="matrix(1.4246148,1.4246136,-0.94974288,0.94974278,45.027238,-11.492723)" />
    <radialGradient
       inkscape:collect="always"
       xlink:href="#linearGradient869"
       id="radialGradient871-35"
       cx="30"
       cy="30"
       fx="30"
       fy="30"
       r="21.058332"
       gradientUnits="userSpaceOnUse"
       gradientTransform="matrix(1.4246148,1.4246136,-0.94974288,0.94974278,27.907157,16.840602)" />
    <radialGradient
       inkscape:collect="always"
       xlink:href="#linearGradient869"
       id="radialGradient871-1"
       cx="30"
       cy="30"
       fx="30"
       fy="30"
       r="21.058332"
       gradientUnits="userSpaceOnUse"
       gradientTransform="matrix(1.4246148,1.4246136,-0.94974288,0.94974278,66.479906,29.264429)" />
    <radialGradient
       inkscape:collect="always"
       xlink:href="#linearGradient869"
       id="radialGradient871-2"
       cx="30"
       cy="30"
       fx="30"
       fy="30"
       r="21.058332"
       gradientUnits="userSpaceOnUse"
       gradientTransform="matrix(1.4246148,1.4246136,-0.94974288,0.94974278,83.061674,-0.02301746)" />
    <radialGradient
       inkscape:collect="always"
       xlink:href="#linearGradient869"
       id="radialGradient871-7"
       cx="30"
       cy="30"
       fx="30"
       fy="30"
       r="21.058332"
       gradientUnits="userSpaceOnUse"
       gradientTransform="matrix(1.4246148,1.4246136,-0.94974288,0.94974278,20.301724,-53.357851)" />
    <radialGradient
       inkscape:collect="always"
       xlink:href="#linearGradient869"
       id="radialGradient871-37"
       cx="30"
       cy="30"
       fx="30"
       fy="30"
       r="21.058332"
       gradientUnits="userSpaceOnUse"
       gradientTransform="matrix(1.4246148,1.4246136,-0.94974288,0.94974278,58.463933,-41.822912)" />
  </defs>
  <sodipodi:namedview
     id="base"
     pagecolor="#000000"
     bordercolor="#666666"
     borderopacity="1.0"
     inkscape:pageopacity="0"
     inkscape:pageshadow="2"
     inkscape:zoom="1.979899"
     inkscape:cx="186.93013"
     inkscape:cy="374.0373"
     inkscape:document-units="mm"
     inkscape:current-layer="layer1"
     inkscape:document-rotation="0"
     showgrid="true"
     inkscape:window-width="1706"
     inkscape:window-height="895"
     inkscape:window-x="2331"
     inkscape:window-y="470"
     inkscape:window-maximized="0"
     inkscape:snap-grids="false"
     units="px">
    <inkscape:grid
       type="xygrid"
       id="grid876"
       empcolor="#ffffff"
       empopacity="0.61176471"
       color="#ffffff"
       opacity="0.1254902" />
  </sodipodi:namedview>
  <metadata
     id="metadata5">
    <rdf:RDF>
      <cc:Work
         rdf:about="">
        <dc:format>image/svg+xml</dc:format>
        <dc:type
           rdf:resource="http://purl.org/dc/dcmitype/StillImage" />
        <dc:title />
      </cc:Work>
    </rdf:RDF>
  </metadata>
  <g
     inkscape:label="Layer 1"
     inkscape:groupmode="layer"
     id="layer1">
    <path
       style="fill:url(#radialGradient871-3);fill-opacity:1;stroke:#ffffff;stroke-width:2.11667;stroke-linecap:butt;stroke-linejoin:miter;stroke-miterlimit:4;stroke-dasharray:none;stroke-opacity:1"
       d="m 89.273394,89.737968 c 2e-6,-9.999998 -9.999998,-29.999998 -9.999998,-29.999998 0,0 -20,-10 -30,-10 0,10 10,30 10,30 0,0 20,10 29.999998,9.999998 z"
       id="path22-5"
       sodipodi:nodetypes="ccccc" />
    <path
       style="fill:none;stroke:#000000;stroke-width:1.9;stroke-linecap:round;stroke-linejoin:miter;stroke-miterlimit:4;stroke-dasharray:none;stroke-opacity:1"
       d="M 100.72606,100.49512 H 81.76155"
       id="path885" />
    <path
       style="fill:none;stroke:#000000;stroke-width:1.9;stroke-linecap:round;stroke-linejoin:miter;stroke-miterlimit:4;stroke-dasharray:none;stroke-opacity:1"
       d="M 100.72606,110.49512 H 81.76155"
       id="path887" />
    <path
       style="fill:none;stroke:#000000;stroke-width:1.9;stroke-linecap:round;stroke-linejoin:miter;stroke-miterlimit:4;stroke-dasharray:none;stroke-opacity:1"
       d="M 100.72606,120.49512 H 81.76155"
       id="path889" />
    <path
       style="fill:url(#radialGradient871);fill-opacity:1;stroke:#ffffff;stroke-width:2.11667;stroke-linecap:butt;stroke-linejoin:miter;stroke-miterlimit:4;stroke-dasharray:none;stroke-opacity:1"
       d="m 50.48167,76.90676 c 2e-6,-9.999998 -9.999998,-29.999998 -9.999998,-29.999998 0,0 -20,-10 -30,-10 0,10 10,30 10,30 0,0 20,10 29.999998,9.999998 z"
       id="path22"
       sodipodi:nodetypes="ccccc" />
    <path
       style="fill:url(#radialGradient871-35);fill-opacity:1;stroke:#ffffff;stroke-width:2.11667;stroke-linecap:butt;stroke-linejoin:miter;stroke-miterlimit:4;stroke-dasharray:none;stroke-opacity:1"
       d="m 72.153313,118.07129 c 2e-6,-10 -9.999998,-29.999996 -9.999998,-29.999996 0,0 -20,-10 -30,-10 0,10 10,29.999996 10,29.999996 0,0 20,10 29.999998,10 z"
       id="path22-9"
       sodipodi:nodetypes="ccccc" />
    <path
       style="fill:url(#radialGradient871-1);fill-opacity:1;stroke:#ffffff;stroke-width:2.11667;stroke-linecap:butt;stroke-linejoin:miter;stroke-miterlimit:4;stroke-dasharray:none;stroke-opacity:1"
       d="m 110.72606,130.49512 c 0,-10 -10,-30 -10,-30 0,0 -19.999996,-9.999998 -29.999996,-9.999998 0,9.999998 10,29.999998 10,29.999998 0,0 19.999996,10 29.999996,10 z"
       id="path22-0"
       sodipodi:nodetypes="ccccc" />
    <path
       style="fill:url(#radialGradient871-2);fill-opacity:1;stroke:#ffffff;stroke-width:2.11667;stroke-linecap:butt;stroke-linejoin:miter;stroke-miterlimit:4;stroke-dasharray:none;stroke-opacity:1"
       d="m 127.30783,101.20767 c 0,-9.999995 -10,-29.999995 -10,-29.999995 0,0 -19.999998,-10 -30,-10 0,10 10.000002,30 10.000002,30 0,0 19.999998,10.000005 29.999998,9.999995 z"
       id="path22-8"
       sodipodi:nodetypes="ccccc" />
    <path
       style="fill:url(#radialGradient871-7);fill-opacity:1;stroke:#ffffff;stroke-width:2.11667;stroke-linecap:butt;stroke-linejoin:miter;stroke-miterlimit:4;stroke-dasharray:none;stroke-opacity:1"
       d="m 64.54788,47.87284 c 0,-9.999998 -10,-29.999998 -10,-29.999998 0,0 -20,-9.9999998 -29.999998,-9.9999998 0,9.9999998 9.999998,29.9999998 9.999998,29.9999998 0,0 20,10 30,9.999998 z"
       id="path22-02"
       sodipodi:nodetypes="ccccc" />
    <path
       style="fill:url(#radialGradient871-37);fill-opacity:1;stroke:#ffffff;stroke-width:2.11667;stroke-linecap:butt;stroke-linejoin:miter;stroke-miterlimit:4;stroke-dasharray:none;stroke-opacity:1"
       d="m 102.71009,59.407779 c 0,-9.999998 -9.999999,-29.999997 -9.999999,-29.999997 0,0 -20,-10 -30,-10 0,10 10,29.999999 10,29.999999 0,0 20,10 29.999999,9.999998 z"
       id="path22-2"
       sodipodi:nodetypes="ccccc" />
  </g>
</svg>
