<?xml version="1.0" encoding="UTF-8" standalone="no"?>
<svg
   width="512"
   height="512"
   viewBox="0 0 135.46666 135.46667"
   version="1.1"
   id="svg8"
   sodipodi:docname="gun-slug.svg"
   inkscape:version="1.1.2 (0a00cf5339, 2022-02-04)"
   xmlns:inkscape="http://www.inkscape.org/namespaces/inkscape"
   xmlns:sodipodi="http://sodipodi.sourceforge.net/DTD/sodipodi-0.dtd"
   xmlns="http://www.w3.org/2000/svg"
   xmlns:svg="http://www.w3.org/2000/svg"
   xmlns:rdf="http://www.w3.org/1999/02/22-rdf-syntax-ns#"
   xmlns:cc="http://creativecommons.org/ns#"
   xmlns:dc="http://purl.org/dc/elements/1.1/">
  <defs
     id="defs2">
    <marker
       style="overflow:visible;"
       id="Arrow1Mend"
       refX="0.0"
       refY="0.0"
       orient="auto"
       inkscape:stockid="Arrow1Mend"
       inkscape:isstock="true">
      <path
         transform="scale(0.4) rotate(180) translate(10,0)"
         style="fill-rule:evenodd;stroke:#ffffff;stroke-width:1pt;stroke-opacity:1;fill:#ffffff;fill-opacity:1"
         d="M 0.0,0.0 L 5.0,-5.0 L -12.5,0.0 L 5.0,5.0 L 0.0,0.0 z "
         id="path868" />
    </marker>
    <marker
       style="overflow:visible;"
       id="marker1227"
       refX="0.0"
       refY="0.0"
       orient="auto"
       inkscape:stockid="Arrow1Lend"
       inkscape:isstock="true">
      <path
         transform="scale(0.8) rotate(180) translate(12.5,0)"
         style="fill-rule:evenodd;stroke:#ffffff;stroke-width:1pt;stroke-opacity:1;fill:#ffffff;fill-opacity:1"
         d="M 0.0,0.0 L 5.0,-5.0 L -12.5,0.0 L 5.0,5.0 L 0.0,0.0 z "
         id="path1225" />
    </marker>
    <marker
       style="overflow:visible;"
       id="Arrow1Lend"
       refX="0.0"
       refY="0.0"
       orient="auto"
       inkscape:stockid="Arrow1Lend"
       inkscape:isstock="true">
      <path
         transform="scale(0.8) rotate(180) translate(12.5,0)"
         style="fill-rule:evenodd;stroke:#ffffff;stroke-width:1pt;stroke-opacity:1;fill:#ffffff;fill-opacity:1"
         d="M 0.0,0.0 L 5.0,-5.0 L -12.5,0.0 L 5.0,5.0 L 0.0,0.0 z "
         id="path862" />
    </marker>
  </defs>
  <sodipodi:namedview
     id="base"
     pagecolor="#ffffff"
     bordercolor="#666666"
     borderopacity="1.0"
     inkscape:pageopacity="0"
     inkscape:pageshadow="2"
     inkscape:zoom="0.98994949"
     inkscape:cx="424.26407"
     inkscape:cy="190.91883"
     inkscape:document-units="mm"
     inkscape:current-layer="layer1"
     inkscape:document-rotation="0"
     showgrid="true"
     inkscape:window-width="1821"
     inkscape:window-height="987"
     inkscape:window-x="1927"
     inkscape:window-y="470"
     inkscape:window-maximized="0"
     inkscape:snap-grids="true"
     units="px"
     inkscape:pagecheckerboard="false">
    <inkscape:grid
       type="xygrid"
       id="grid876"
       empcolor="#ffffff"
       empopacity="0.61176471"
       color="#ffffff"
       opacity="0.1254902"
       empspacing="4"
       units="px"
       spacingx="2.1166666"
       spacingy="2.1166666" />
  </sodipodi:namedview>
  <metadata
     id="metadata5">
    <rdf:RDF>
      <cc:Work
         rdf:about="">
        <dc:format>image/svg+xml</dc:format>
        <dc:type
           rdf:resource="http://purl.org/dc/dcmitype/StillImage" />
      </cc:Work>
    </rdf:RDF>
  </metadata>
  <g
     inkscape:groupmode="layer"
     id="layer2"
     inkscape:label="Background"
     sodipodi:insensitive="true">
    <rect
       style="fill:#2a8eff;fill-opacity:1;stroke:#000000;stroke-width:2.11667;stroke-linecap:round;stroke-linejoin:round;stroke-miterlimit:4;stroke-dasharray:none;stroke-opacity:1;stop-color:#000000"
       id="rect14474"
       width="131.233"
       height="131.23332"
       x="2.1166813"
       y="2.1166666"
       ry="66.674995"
       rx="66.611931" />
  </g>
  <g
     inkscape:label="Icon"
     inkscape:groupmode="layer"
     id="layer1">
    <path
       id="rect833"
       style="fill:#ffffff;fill-opacity:1;stroke:#000000;stroke-width:1;stop-color:#000000"
       d="m 21.506676,41.000263 36.976692,-0.16636 -1.81e-4,5.635784 24.584018,-7.86e-4 1.76e-4,-5.63578 19.323239,-6.23e-4 7.49673,14.988729 -88.487644,0.16801 z"
       sodipodi:nodetypes="ccccccccc" />
    <path
       id="rect875"
       style="fill:#ffffff;fill-opacity:1;stroke:#ffffff;stroke-width:1;stop-color:#000000"
       d="m 76.199998,67.733331 2.595539,0.523376 c 0,0 -1.761169,4.806099 -3.712319,6.226991 -0.689071,0.501796 -2.065111,1.309096 -2.490689,0.569384 -0.74653,-1.297602 2.061855,-0.70615 3.048267,-3.294613 0.482445,-1.265325 0.559202,-4.025138 0.559202,-4.025138 z"
       sodipodi:nodetypes="ccaasc" />
    <path
       id="rect833-3"
       style="fill:#ffffff;fill-opacity:1;stroke:#000000;stroke-width:1;stop-color:#000000"
       d="m 21.365947,56.851831 88.511783,-0.0029 -3.7e-4,11.636803 -6.52826,3.888377 6.50619,24.093214 -17.458553,-0.10551 -7.421137,-27.875311 -25.187753,-0.11417 3.30943,9.658871 24.476144,-0.05356 0.546226,2.264642 -27.394268,-0.102322 -4.374668,-11.75946 -34.985137,0.107772 z"
       sodipodi:nodetypes="ccccccccccccccc" />
    <rect
       style="fill:#ffffff;fill-opacity:1;stroke:#000000;stroke-width:1;stop-color:#000000"
       id="rect877"
       width="6.5523295"
       height="11.477124"
       x="13.785869"
       y="42.76091"
       transform="matrix(1,-3.2067633e-5,-3.2066418e-5,1,0,0)" />
    <rect
       style="fill:#ffffff;fill-opacity:1;stroke:#ffffff;stroke-width:1;stop-color:#000000"
       id="rect881"
       width="19.328981"
       height="3.1124592"
       x="61.232792"
       y="41.507435"
       transform="matrix(1,-3.2067633e-5,-3.2066418e-5,1,0,0)" />
  </g>
</svg>
