<?xml version="1.0" encoding="UTF-8" standalone="no"?>
<svg
   xmlns:dc="http://purl.org/dc/elements/1.1/"
   xmlns:cc="http://creativecommons.org/ns#"
   xmlns:rdf="http://www.w3.org/1999/02/22-rdf-syntax-ns#"
   xmlns:svg="http://www.w3.org/2000/svg"
   xmlns="http://www.w3.org/2000/svg"
   xmlns:sodipodi="http://sodipodi.sourceforge.net/DTD/sodipodi-0.dtd"
   xmlns:inkscape="http://www.inkscape.org/namespaces/inkscape"
   width="512"
   height="512"
   viewBox="0 0 135.46666 135.46667"
   version="1.1"
   id="svg8"
   sodipodi:docname="slug-weapon.svg"
   inkscape:version="1.0.2 (e86c870879, 2021-01-15)">
  <defs
     id="defs2" />
  <sodipodi:namedview
     id="base"
     pagecolor="#000000"
     bordercolor="#666666"
     borderopacity="1.0"
     inkscape:pageopacity="0"
     inkscape:pageshadow="2"
     inkscape:zoom="0.7"
     inkscape:cx="127.85018"
     inkscape:cy="139.78835"
     inkscape:document-units="mm"
     inkscape:current-layer="layer1"
     inkscape:document-rotation="0"
     showgrid="true"
     inkscape:window-width="2560"
     inkscape:window-height="1357"
     inkscape:window-x="1200"
     inkscape:window-y="240"
     inkscape:window-maximized="1"
     inkscape:snap-grids="false"
     units="px" />
  <metadata
     id="metadata5">
    <rdf:RDF>
      <cc:Work
         rdf:about="">
        <dc:format>image/svg+xml</dc:format>
        <dc:type
           rdf:resource="http://purl.org/dc/dcmitype/StillImage" />
        <dc:title />
      </cc:Work>
    </rdf:RDF>
  </metadata>
  <g
     inkscape:label="Layer 1"
     inkscape:groupmode="layer"
     id="layer1">
    <path
       id="rect833"
       style="fill:#ffffff;fill-opacity:1;stroke:#000000;stroke-width:0.999998;stop-color:#000000"
       d="m 32.965005,5.1370822 44.931902,25.6726098 -3.943828,6.830404 29.796211,17.201577 3.94382,-6.830404 23.42007,13.520579 -1.4023,23.412027 L 22.346907,23.22876 Z"
       sodipodi:nodetypes="ccccccccc" />
    <path
       id="rect875"
       style="fill:#ffffff;fill-opacity:1;stroke:#ffffff;stroke-width:1;stop-color:#000000"
       d="m 80.546613,75.808727 2.779546,2.450542 c 0,0 -5.497565,4.59259 -8.856608,4.949394 -1.186278,0.126 -3.418933,0.141566 -3.41712,-1.052756 0.0032,-2.095065 2.993078,0.586923 5.999866,-1.86004 1.470123,-1.195976 3.494316,-4.48714 3.494316,-4.48714 z"
       sodipodi:nodetypes="ccaasc" />
    <path
       id="rect833-3"
       style="fill:#ffffff;fill-opacity:1;stroke:#000000;stroke-width:0.999998;stop-color:#000000"
       d="m 21.702394,24.250598 107.277656,61.932198 -8.14324,14.103464 -10.63308,0.14457 -8.97364,33.75348 L 80.144288,121.83988 90.655524,82.862296 60.208032,65.098932 57.460296,79.121172 87.162687,96.18331 86.240039,99.31026 53.110008,80.0172 56.036558,62.703666 13.559403,38.353628 Z"
       sodipodi:nodetypes="ccccccccccccccc" />
    <rect
       style="fill:#ffffff;fill-opacity:1;stroke:#000000;stroke-width:1;stop-color:#000000"
       id="rect877"
       width="9.1699133"
       height="16.062109"
       x="20.30966"
       y="-9.5696211"
       transform="matrix(0.86604144,0.49997223,-0.50002777,0.86600937,0,0)" />
    <rect
       style="fill:#ffffff;fill-opacity:1;stroke:#ffffff;stroke-width:1;stop-color:#000000"
       id="rect881"
       width="27.050697"
       height="4.3558526"
       x="86.711105"
       y="-11.323847"
       transform="matrix(0.86604144,0.49997223,-0.50002777,0.86600937,0,0)" />
  </g>
</svg>
