<?xml version="1.0" encoding="UTF-8" standalone="no"?>
<svg
   xmlns:dc="http://purl.org/dc/elements/1.1/"
   xmlns:cc="http://creativecommons.org/ns#"
   xmlns:rdf="http://www.w3.org/1999/02/22-rdf-syntax-ns#"
   xmlns:svg="http://www.w3.org/2000/svg"
   xmlns="http://www.w3.org/2000/svg"
   xmlns:sodipodi="http://sodipodi.sourceforge.net/DTD/sodipodi-0.dtd"
   xmlns:inkscape="http://www.inkscape.org/namespaces/inkscape"
   width="512"
   height="512"
   viewBox="0 0 135.46666 135.46667"
   version="1.1"
   id="svg8"
   sodipodi:docname="melee-blade.svg"
   inkscape:version="1.0.2 (e86c870879, 2021-01-15)">
  <defs
     id="defs2">
    <marker
       style="overflow:visible;"
       id="Arrow1Mend"
       refX="0.0"
       refY="0.0"
       orient="auto"
       inkscape:stockid="Arrow1Mend"
       inkscape:isstock="true">
      <path
         transform="scale(0.4) rotate(180) translate(10,0)"
         style="fill-rule:evenodd;stroke:#ffffff;stroke-width:1pt;stroke-opacity:1;fill:#ffffff;fill-opacity:1"
         d="M 0.0,0.0 L 5.0,-5.0 L -12.5,0.0 L 5.0,5.0 L 0.0,0.0 z "
         id="path868" />
    </marker>
    <marker
       style="overflow:visible;"
       id="marker1227"
       refX="0.0"
       refY="0.0"
       orient="auto"
       inkscape:stockid="Arrow1Lend"
       inkscape:isstock="true">
      <path
         transform="scale(0.8) rotate(180) translate(12.5,0)"
         style="fill-rule:evenodd;stroke:#ffffff;stroke-width:1pt;stroke-opacity:1;fill:#ffffff;fill-opacity:1"
         d="M 0.0,0.0 L 5.0,-5.0 L -12.5,0.0 L 5.0,5.0 L 0.0,0.0 z "
         id="path1225" />
    </marker>
    <marker
       style="overflow:visible;"
       id="Arrow1Lend"
       refX="0.0"
       refY="0.0"
       orient="auto"
       inkscape:stockid="Arrow1Lend"
       inkscape:isstock="true">
      <path
         transform="scale(0.8) rotate(180) translate(12.5,0)"
         style="fill-rule:evenodd;stroke:#ffffff;stroke-width:1pt;stroke-opacity:1;fill:#ffffff;fill-opacity:1"
         d="M 0.0,0.0 L 5.0,-5.0 L -12.5,0.0 L 5.0,5.0 L 0.0,0.0 z "
         id="path862" />
    </marker>
  </defs>
  <sodipodi:namedview
     id="base"
     pagecolor="#000000"
     bordercolor="#666666"
     borderopacity="1.0"
     inkscape:pageopacity="0"
     inkscape:pageshadow="2"
     inkscape:zoom="1.4"
     inkscape:cx="483.08768"
     inkscape:cy="342.37564"
     inkscape:document-units="mm"
     inkscape:current-layer="layer1"
     inkscape:document-rotation="0"
     showgrid="true"
     inkscape:window-width="2560"
     inkscape:window-height="1357"
     inkscape:window-x="1200"
     inkscape:window-y="240"
     inkscape:window-maximized="1"
     inkscape:snap-grids="false"
     units="px" />
  <metadata
     id="metadata5">
    <rdf:RDF>
      <cc:Work
         rdf:about="">
        <dc:format>image/svg+xml</dc:format>
        <dc:type
           rdf:resource="http://purl.org/dc/dcmitype/StillImage" />
        <dc:title></dc:title>
      </cc:Work>
    </rdf:RDF>
  </metadata>
  <g
     inkscape:label="Layer 1"
     inkscape:groupmode="layer"
     id="layer1">
    <g
       id="g1012"
       style="fill:#000000"
       transform="matrix(0.26458333,0,0,0.26458333,2.0286714,-0.2547333)">
</g>
    <g
       id="g1014"
       style="fill:#000000"
       transform="matrix(0.26458333,0,0,0.26458333,2.0286714,-0.2547333)">
</g>
    <g
       id="g1016"
       style="fill:#000000"
       transform="matrix(0.26458333,0,0,0.26458333,2.0286714,-0.2547333)">
</g>
    <g
       id="g1018"
       style="fill:#000000"
       transform="matrix(0.26458333,0,0,0.26458333,2.0286714,-0.2547333)">
</g>
    <g
       id="g1020"
       style="fill:#000000"
       transform="matrix(0.26458333,0,0,0.26458333,2.0286714,-0.2547333)">
</g>
    <g
       id="g1022"
       style="fill:#000000"
       transform="matrix(0.26458333,0,0,0.26458333,2.0286714,-0.2547333)">
</g>
    <g
       id="g1024"
       style="fill:#000000"
       transform="matrix(0.26458333,0,0,0.26458333,2.0286714,-0.2547333)">
</g>
    <g
       id="g1026"
       style="fill:#000000"
       transform="matrix(0.26458333,0,0,0.26458333,2.0286714,-0.2547333)">
</g>
    <g
       id="g1028"
       style="fill:#000000"
       transform="matrix(0.26458333,0,0,0.26458333,2.0286714,-0.2547333)">
</g>
    <g
       id="g1030"
       style="fill:#000000"
       transform="matrix(0.26458333,0,0,0.26458333,2.0286714,-0.2547333)">
</g>
    <g
       id="g1032"
       style="fill:#000000"
       transform="matrix(0.26458333,0,0,0.26458333,2.0286714,-0.2547333)">
</g>
    <g
       id="g1034"
       style="fill:#000000"
       transform="matrix(0.26458333,0,0,0.26458333,2.0286714,-0.2547333)">
</g>
    <g
       id="g1036"
       style="fill:#000000"
       transform="matrix(0.26458333,0,0,0.26458333,2.0286714,-0.2547333)">
</g>
    <g
       id="g1038"
       style="fill:#000000"
       transform="matrix(0.26458333,0,0,0.26458333,2.0286714,-0.2547333)">
</g>
    <g
       id="g1040"
       style="fill:#000000"
       transform="matrix(0.26458333,0,0,0.26458333,2.0286714,-0.2547333)">
</g>
    <path
       d="M 121.85525,13.42981 115.17061,33.483758 54.616048,88.531841 51.595419,83.877653 46.715631,80.710802 101.80131,20.11446 Z M 56.274257,112.137 61.001145,107.41012 47.976109,87.347821 27.913812,74.322783 23.186923,79.049666 36.299692,92.162441 21.986197,107.91022 c -1.865016,-0.24483 -3.817765,0.34259 -5.250801,1.77518 -2.447402,2.44742 -2.447402,6.41518 0,8.8626 2.447418,2.44742 6.415177,2.44742 8.862596,0 1.432183,-1.43218 2.019605,-3.3841 1.77561,-5.24829 L 43.122217,98.985381 Z"
       id="path1087"
       style="fill:#ffffff;stroke:#000000;stroke-width:1;stroke-miterlimit:4;stroke-dasharray:none" />
  </g>
</svg>
