<?xml version="1.0" encoding="UTF-8" standalone="no"?>
<svg
   xmlns:dc="http://purl.org/dc/elements/1.1/"
   xmlns:cc="http://creativecommons.org/ns#"
   xmlns:rdf="http://www.w3.org/1999/02/22-rdf-syntax-ns#"
   xmlns:svg="http://www.w3.org/2000/svg"
   xmlns="http://www.w3.org/2000/svg"
   xmlns:sodipodi="http://sodipodi.sourceforge.net/DTD/sodipodi-0.dtd"
   xmlns:inkscape="http://www.inkscape.org/namespaces/inkscape"
   width="512"
   height="512"
   viewBox="0 0 135.46666 135.46667"
   version="1.1"
   id="svg8"
   sodipodi:docname="melee-bludgeon.svg"
   inkscape:version="1.0.2 (e86c870879, 2021-01-15)">
  <defs
     id="defs2">
    <marker
       style="overflow:visible;"
       id="Arrow1Mend"
       refX="0.0"
       refY="0.0"
       orient="auto"
       inkscape:stockid="Arrow1Mend"
       inkscape:isstock="true">
      <path
         transform="scale(0.4) rotate(180) translate(10,0)"
         style="fill-rule:evenodd;stroke:#ffffff;stroke-width:1pt;stroke-opacity:1;fill:#ffffff;fill-opacity:1"
         d="M 0.0,0.0 L 5.0,-5.0 L -12.5,0.0 L 5.0,5.0 L 0.0,0.0 z "
         id="path868" />
    </marker>
    <marker
       style="overflow:visible;"
       id="marker1227"
       refX="0.0"
       refY="0.0"
       orient="auto"
       inkscape:stockid="Arrow1Lend"
       inkscape:isstock="true">
      <path
         transform="scale(0.8) rotate(180) translate(12.5,0)"
         style="fill-rule:evenodd;stroke:#ffffff;stroke-width:1pt;stroke-opacity:1;fill:#ffffff;fill-opacity:1"
         d="M 0.0,0.0 L 5.0,-5.0 L -12.5,0.0 L 5.0,5.0 L 0.0,0.0 z "
         id="path1225" />
    </marker>
    <marker
       style="overflow:visible;"
       id="Arrow1Lend"
       refX="0.0"
       refY="0.0"
       orient="auto"
       inkscape:stockid="Arrow1Lend"
       inkscape:isstock="true">
      <path
         transform="scale(0.8) rotate(180) translate(12.5,0)"
         style="fill-rule:evenodd;stroke:#ffffff;stroke-width:1pt;stroke-opacity:1;fill:#ffffff;fill-opacity:1"
         d="M 0.0,0.0 L 5.0,-5.0 L -12.5,0.0 L 5.0,5.0 L 0.0,0.0 z "
         id="path862" />
    </marker>
  </defs>
  <sodipodi:namedview
     id="base"
     pagecolor="#000000"
     bordercolor="#666666"
     borderopacity="1.0"
     inkscape:pageopacity="0"
     inkscape:pageshadow="2"
     inkscape:zoom="1.4"
     inkscape:cx="483.08768"
     inkscape:cy="342.37564"
     inkscape:document-units="mm"
     inkscape:current-layer="layer1"
     inkscape:document-rotation="0"
     showgrid="true"
     inkscape:window-width="2560"
     inkscape:window-height="1357"
     inkscape:window-x="1200"
     inkscape:window-y="240"
     inkscape:window-maximized="1"
     inkscape:snap-grids="false"
     units="px" />
  <metadata
     id="metadata5">
    <rdf:RDF>
      <cc:Work
         rdf:about="">
        <dc:format>image/svg+xml</dc:format>
        <dc:type
           rdf:resource="http://purl.org/dc/dcmitype/StillImage" />
        <dc:title />
      </cc:Work>
    </rdf:RDF>
  </metadata>
  <g
     inkscape:label="Layer 1"
     inkscape:groupmode="layer"
     id="layer1">
    <g
       id="g1012"
       style="fill:#000000"
       transform="matrix(0.26458333,0,0,0.26458333,2.0286714,-0.2547333)" />
    <g
       id="g1014"
       style="fill:#000000"
       transform="matrix(0.26458333,0,0,0.26458333,2.0286714,-0.2547333)" />
    <g
       id="g1016"
       style="fill:#000000"
       transform="matrix(0.26458333,0,0,0.26458333,2.0286714,-0.2547333)" />
    <g
       id="g1018"
       style="fill:#000000"
       transform="matrix(0.26458333,0,0,0.26458333,2.0286714,-0.2547333)" />
    <g
       id="g1020"
       style="fill:#000000"
       transform="matrix(0.26458333,0,0,0.26458333,2.0286714,-0.2547333)" />
    <g
       id="g1022"
       style="fill:#000000"
       transform="matrix(0.26458333,0,0,0.26458333,2.0286714,-0.2547333)" />
    <g
       id="g1024"
       style="fill:#000000"
       transform="matrix(0.26458333,0,0,0.26458333,2.0286714,-0.2547333)" />
    <g
       id="g1026"
       style="fill:#000000"
       transform="matrix(0.26458333,0,0,0.26458333,2.0286714,-0.2547333)" />
    <g
       id="g1028"
       style="fill:#000000"
       transform="matrix(0.26458333,0,0,0.26458333,2.0286714,-0.2547333)" />
    <g
       id="g1030"
       style="fill:#000000"
       transform="matrix(0.26458333,0,0,0.26458333,2.0286714,-0.2547333)" />
    <g
       id="g1032"
       style="fill:#000000"
       transform="matrix(0.26458333,0,0,0.26458333,2.0286714,-0.2547333)" />
    <g
       id="g1034"
       style="fill:#000000"
       transform="matrix(0.26458333,0,0,0.26458333,2.0286714,-0.2547333)" />
    <g
       id="g1036"
       style="fill:#000000"
       transform="matrix(0.26458333,0,0,0.26458333,2.0286714,-0.2547333)" />
    <g
       id="g1038"
       style="fill:#000000"
       transform="matrix(0.26458333,0,0,0.26458333,2.0286714,-0.2547333)" />
    <g
       id="g1040"
       style="fill:#000000"
       transform="matrix(0.26458333,0,0,0.26458333,2.0286714,-0.2547333)" />
    <rect
       style="fill:#ffffff;stroke:#000000;stroke-width:0.999997;stop-color:#000000"
       id="rect953"
       width="11.782199"
       height="82.04097"
       x="88.658394"
       y="-18.986038"
       transform="matrix(0.7078061,0.70640677,-0.70640308,0.70780978,0,0)" />
    <circle
       style="fill:#ffffff;stroke:#000000;stroke-width:1;stop-color:#000000"
       id="path951"
       cx="19.073349"
       cy="114.80689"
       r="11.633004" />
    <circle
       style="fill:#ffffff;stroke:#000000;stroke-width:1;stop-color:#000000"
       id="path955"
       cx="92.953674"
       cy="40.555206"
       r="29.270504" />
  </g>
</svg>
