<?xml version="1.0" encoding="UTF-8" standalone="no"?>
<svg
   style="height: 512px; width: 512px;"
   viewBox="0 0 512 512"
   version="1.1"
   id="svg8"
   sodipodi:docname="weight.svg"
   inkscape:version="1.1.2 (0a00cf5339, 2022-02-04)"
   xmlns:inkscape="http://www.inkscape.org/namespaces/inkscape"
   xmlns:sodipodi="http://sodipodi.sourceforge.net/DTD/sodipodi-0.dtd"
   xmlns="http://www.w3.org/2000/svg"
   xmlns:svg="http://www.w3.org/2000/svg">
  <defs
     id="defs12" />
  <sodipodi:namedview
     id="namedview10"
     pagecolor="#ffffff"
     bordercolor="#666666"
     borderopacity="1.0"
     inkscape:pageshadow="2"
     inkscape:pageopacity="0.0"
     inkscape:pagecheckerboard="0"
     showgrid="false"
     inkscape:zoom="1.2578125"
     inkscape:cx="114.48447"
     inkscape:cy="256"
     inkscape:window-width="2560"
     inkscape:window-height="1343"
     inkscape:window-x="1200"
     inkscape:window-y="146"
     inkscape:window-maximized="1"
     inkscape:current-layer="svg8" />
  <path
     d="M0 0h512v512H0z"
     fill="#ffffff"
     fill-opacity="0.03"
     id="path2" />
  <g
     class=""
     style="stroke:#000000;stroke-width:4;stroke-miterlimit:4;stroke-dasharray:none"
     transform="translate(0,-7)"
     id="g6">
    <path
       d="m 256,46 c -45.074,0 -82,36.926 -82,82 0,25.812 12.123,48.936 30.938,64 H 128 L 32,480 H 480 L 384,192 H 307.062 C 325.877,176.936 338,153.812 338,128 338,82.926 301.074,46 256,46 Z m 0,36 c 25.618,0 46,20.382 46,46 0,25.618 -20.382,46 -46,46 -25.618,0 -46,-20.382 -46,-46 0,-25.618 20.382,-46 46,-46 z m -82.215,202.95 h 23.5 v 33.263 l 33.873,-33.264 h 27.283 l -43.883,43.15 48.4,47.974 H 233.54 l -36.255,-35.888 v 35.888 h -23.5 z m 119.934,21.24 c 4.76,0 8.952,0.934 12.573,2.806 3.62,1.872 6.938,4.82 9.95,8.85 v -10.13 h 21.972 v 61.462 c 0,10.986 -3.48,19.368 -10.438,25.146 -6.917,5.82 -16.968,8.727 -30.152,8.727 -4.272,0 -8.4,-0.325 -12.39,-0.976 a 77.367,77.367 0 0 1 -12.024,-2.99 v -17.03 c 3.826,2.198 7.57,3.826 11.23,4.884 3.664,1.098 7.347,1.648 11.05,1.648 7.162,0 12.41,-1.566 15.746,-4.7 3.337,-3.132 5.006,-8.035 5.006,-14.708 v -4.7 c -3.01,3.986 -6.328,6.916 -9.95,8.788 -3.62,1.87 -7.813,2.808 -12.573,2.808 -8.343,0 -15.238,-3.275 -20.69,-9.826 -5.453,-6.592 -8.18,-14.974 -8.18,-25.146 0,-10.214 2.727,-18.576 8.18,-25.086 5.452,-6.55 12.347,-9.827 20.69,-9.827 z m 8.118,15.746 c -4.517,0 -8.038,1.67 -10.56,5.005 -2.523,3.338 -3.784,8.058 -3.784,14.162 0,6.266 1.22,11.026 3.662,14.28 2.442,3.215 6.003,4.823 10.682,4.823 4.557,0 8.096,-1.67 10.62,-5.006 2.522,-3.337 3.784,-8.036 3.784,-14.098 0,-6.104 -1.262,-10.824 -3.785,-14.16 -2.523,-3.337 -6.062,-5.006 -10.62,-5.006 z"
       fill="#ffffff"
       fill-opacity="1"
       id="path4"
       style="stroke:#000000;stroke-width:4;stroke-miterlimit:4;stroke-dasharray:none" />
  </g>
</svg>
