<?xml version="1.0" encoding="UTF-8" standalone="no"?>
<svg
   viewBox="0 0 512 512"
   style="height: 512px; width: 512px;"
   version="1.1"
   id="svg8"
   sodipodi:docname="fatigued.svg"
   inkscape:version="1.1.2 (0a00cf5339, 2022-02-04)"
   xmlns:inkscape="http://www.inkscape.org/namespaces/inkscape"
   xmlns:sodipodi="http://sodipodi.sourceforge.net/DTD/sodipodi-0.dtd"
   xmlns="http://www.w3.org/2000/svg"
   xmlns:svg="http://www.w3.org/2000/svg">
  <defs
     id="defs12" />
  <sodipodi:namedview
     id="namedview10"
     pagecolor="#ffffff"
     bordercolor="#666666"
     borderopacity="1.0"
     inkscape:pageshadow="2"
     inkscape:pageopacity="0.0"
     inkscape:pagecheckerboard="0"
     showgrid="true"
     inkscape:zoom="1.2578125"
     inkscape:cx="54.062112"
     inkscape:cy="231.35404"
     inkscape:window-width="2560"
     inkscape:window-height="1343"
     inkscape:window-x="1200"
     inkscape:window-y="114"
     inkscape:window-maximized="1"
     inkscape:current-layer="svg8"
     inkscape:snap-smooth-nodes="true">
    <inkscape:grid
       type="xygrid"
       id="grid120"
       units="px"
       spacingx="32"
       spacingy="32"
       empspacing="4" />
  </sodipodi:namedview>
  <path
     style="color:#000000;fill:#ffffff;stroke:#000000;stroke-width:4;stroke-linecap:round;stroke-miterlimit:4;stroke-dasharray:none;paint-order:markers fill stroke"
     d="m 234.1257,150.36832 a 7.80594,7.80594 0 0 0 -7.80594,7.80594 7.80594,7.80594 0 0 0 7.80594,7.80594 h 67.02131 l -83.26209,104.0792 h 99.50414 a 7.80594,7.80594 0 0 0 7.80594,-7.80594 7.80594,7.80594 0 0 0 -7.80594,-7.80594 h -67.02131 l 83.26209,-104.0792 z"
     id="path364" />
  <path
     style="color:#000000;fill:#ffffff;stroke:#000000;stroke-width:4;stroke-linecap:round;stroke-miterlimit:4;stroke-dasharray:none;paint-order:markers fill stroke"
     d="m 317.38906,108.73664 a 7.80594,7.80594 0 0 0 -7.80594,7.80594 7.80594,7.80594 0 0 0 7.80594,7.80594 h 50.36889 l -66.60967,83.26336 H 384 a 7.80594,7.80594 0 0 0 7.80594,-7.80594 A 7.80594,7.80594 0 0 0 384,192 h -50.36889 l 66.60967,-83.26336 z"
     id="path364-3" />
  <path
     style="color:#000000;fill:#ffffff;stroke:#000000;stroke-width:4;stroke-linecap:round;stroke-miterlimit:4;stroke-dasharray:none;paint-order:markers fill stroke"
     d="m 400.65242,67.104961 a 7.80594,7.80594 0 0 0 -7.80594,7.80594 7.80594,7.80594 0 0 0 7.80594,7.80594 h 33.71648 l -49.95726,62.447519 h 66.1993 a 7.80594,7.80594 0 0 0 7.80594,-7.80594 7.80594,7.80594 0 0 0 -7.80594,-7.80594 h -33.71647 l 49.95725,-62.447519 z"
     id="path364-6" />
  <path
     id="path141"
     style="color:#000000;fill:#ffffff;stroke:#000000;stroke-width:4;stroke-linecap:round;stroke-linejoin:bevel;stroke-miterlimit:4;stroke-dasharray:none;paint-order:markers fill stroke"
     d="m 144,244 c -33.0324,0 -60,26.9676 -60,60 0,33.0324 26.9676,60 60,60 13.48607,0 25.95819,-4.4988 36,-12.06641 v 59.09571 l -60.48438,60.48632 c -4.68509,4.68609 -4.68509,12.28267 0,16.96876 4.68609,4.68509 12.28267,4.68509 16.96876,0 l 64,-64 L 204,416 v -46.27539 l 97.81055,33.92578 -29.79493,75.69336 L 288,492 h 96 c 6.62742,0 12,-5.37258 12,-12 0,-6.62742 -5.37258,-12 -12,-12 h -73.57812 l 51.5625,-77.34375 -5.52735,-17.79883 -152.9668,-61.18554 C 203.81424,309.15703 204,306.6002 204,304 c 0,-33.0324 -26.9676,-60 -60,-60 z"
     sodipodi:nodetypes="ssscccccccccccsssccccss" />
</svg>
