<?xml version="1.0" encoding="UTF-8" standalone="no"?>
<svg
   style="height: 512px; width: 512px;"
   viewBox="0 0 512 512"
   version="1.1"
   id="svg8"
   sodipodi:docname="first-aid-kit.svg"
   inkscape:version="1.1.2 (0a00cf5339, 2022-02-04)"
   xmlns:inkscape="http://www.inkscape.org/namespaces/inkscape"
   xmlns:sodipodi="http://sodipodi.sourceforge.net/DTD/sodipodi-0.dtd"
   xmlns="http://www.w3.org/2000/svg"
   xmlns:svg="http://www.w3.org/2000/svg">
  <defs
     id="defs12" />
  <sodipodi:namedview
     id="namedview10"
     pagecolor="#ffffff"
     bordercolor="#666666"
     borderopacity="1.0"
     inkscape:pageshadow="2"
     inkscape:pageopacity="0.0"
     inkscape:pagecheckerboard="0"
     showgrid="false"
     inkscape:zoom="1.2578125"
     inkscape:cx="114.48447"
     inkscape:cy="256"
     inkscape:window-width="2560"
     inkscape:window-height="1403"
     inkscape:window-x="3760"
     inkscape:window-y="146"
     inkscape:window-maximized="1"
     inkscape:current-layer="svg8" />
  <path
     d="M0 0h512v512H0z"
     fill="#ffffff"
     fill-opacity="0.03"
     id="path2" />
  <g
     class=""
     style="stroke:#000000;stroke-width:4;stroke-miterlimit:4;stroke-dasharray:none"
     transform="translate(0,0)"
     id="g6">
    <path
       d="M256 73c-62.875 0-91.913 11.948-105.273 26.979-11.632 13.086-13.324 30.848-13.59 51.021h30.437c1.634-13.963 7.309-26.44 19.438-34.518C201.703 106.7 223.253 103 256 103c32.753 0 54.311 3.739 68.996 13.54 12.115 8.084 17.788 20.546 19.426 34.46h30.441c-.266-20.173-1.958-37.935-13.59-51.021C347.913 84.948 318.875 73 256 73zm-135 94v16h62v-16h-62zm208 0v16h62v-16h-62zM81.47 201c-13.866 0-28.232 6.837-38.97 17.412C31.762 228.988 25 243 25 256v192c0 14.5 3.485 23.754 9.37 29.633C40.253 483.51 49.53 487 64.063 487H448.45c14.253 0 23.382-3.463 29.219-9.342C483.507 471.78 487 462.5 487 448V256c0-13-6.777-27.05-17.363-37.637C459.05 207.777 445 201 432 201H81.47zM224 256h64v64h64v64h-64v64h-64v-64h-64v-64h64v-64z"
       fill="#fff"
       fill-opacity="1"
       id="path4"
       style="stroke:#000000;stroke-width:4;stroke-miterlimit:4;stroke-dasharray:none" />
  </g>
</svg>
