<?xml version="1.0" encoding="UTF-8" standalone="no"?>
<svg
   viewBox="0 0 512 512"
   style="height: 512px; width: 512px;"
   version="1.1"
   id="svg8"
   sodipodi:docname="inCover.svg"
   inkscape:version="1.1.2 (0a00cf5339, 2022-02-04)"
   xmlns:inkscape="http://www.inkscape.org/namespaces/inkscape"
   xmlns:sodipodi="http://sodipodi.sourceforge.net/DTD/sodipodi-0.dtd"
   xmlns="http://www.w3.org/2000/svg"
   xmlns:svg="http://www.w3.org/2000/svg">
  <defs
     id="defs12" />
  <sodipodi:namedview
     id="namedview10"
     pagecolor="#ffffff"
     bordercolor="#666666"
     borderopacity="1.0"
     inkscape:pageshadow="2"
     inkscape:pageopacity="0.0"
     inkscape:pagecheckerboard="0"
     showgrid="true"
     inkscape:zoom="1.2578125"
     inkscape:cx="54.062112"
     inkscape:cy="231.35404"
     inkscape:window-width="2560"
     inkscape:window-height="1343"
     inkscape:window-x="1200"
     inkscape:window-y="114"
     inkscape:window-maximized="1"
     inkscape:current-layer="svg8"
     inkscape:snap-smooth-nodes="true">
    <inkscape:grid
       type="xygrid"
       id="grid120"
       units="px"
       spacingx="32"
       spacingy="32"
       empspacing="4" />
  </sodipodi:namedview>
  <path
     style="fill:#ffffff;fill-opacity:0.999231;stroke:#000000;stroke-width:4;stroke-linecap:round;stroke-linejoin:bevel;stroke-miterlimit:4;stroke-dasharray:none;paint-order:markers fill stroke;stop-color:#000000"
     d="m 96,192 h 64 C 159.80419,274.92043 145.76174,359.99594 128,448 110.34972,360.44313 96.163578,275.29203 96,192 Z"
     id="path2809"
     sodipodi:nodetypes="cccc" />
  <path
     id="path283"
     style="color:#000000;fill:#ffffff;stroke:#000000;stroke-width:4;stroke-linecap:round;stroke-miterlimit:4;stroke-dasharray:none;paint-order:markers fill stroke"
     d="m 312.99805,86.367197 c -29.15441,-10e-7 -53,23.845593 -53,52.999993 0,20.13169 11.37304,37.72761 28.00977,46.69336 l -79.99414,53.33008 c -8.27113,5.51435 -10.50618,16.68956 -4.9922,24.96094 5.51435,8.27113 16.68957,10.50617 24.96095,4.99219 L 296,224 l -0.002,90.11719 -62.09961,124.19922 c -4.44625,8.89207 -0.84168,19.70491 8.05078,24.15039 8.89107,4.44521 19.70228,0.84177 24.14844,-8.04883 l 47.90039,-95.80078 47.90039,95.79883 c 4.44548,8.89246 15.25832,12.49703 24.15039,8.05078 8.89173,-4.44619 12.49536,-15.25884 8.04883,-24.15039 L 331.99805,314.11719 V 224 l 68.01562,45.34375 c 8.27137,5.51398 19.44658,3.27894 24.96094,-4.99218 5.51398,-8.27137 3.27894,-19.44658 -4.99218,-24.96094 l -80.91211,-53.94141 c 16.0426,-9.1368 26.92772,-26.39216 26.92773,-46.08203 0,-29.1544 -23.8456,-52.999996 -53,-52.999993 z"
     sodipodi:nodetypes="sscccccccccccscccccccss" />
</svg>
