<?xml version="1.0" encoding="UTF-8" standalone="no"?>
<svg
   viewBox="0 0 512 512"
   style="height: 512px; width: 512px;"
   version="1.1"
   id="svg8"
   sodipodi:docname="melee.svg"
   inkscape:version="1.1.2 (0a00cf5339, 2022-02-04)"
   xmlns:inkscape="http://www.inkscape.org/namespaces/inkscape"
   xmlns:sodipodi="http://sodipodi.sourceforge.net/DTD/sodipodi-0.dtd"
   xmlns="http://www.w3.org/2000/svg"
   xmlns:svg="http://www.w3.org/2000/svg">
  <defs
     id="defs12" />
  <sodipodi:namedview
     id="namedview10"
     pagecolor="#ffffff"
     bordercolor="#666666"
     borderopacity="1.0"
     inkscape:pageshadow="2"
     inkscape:pageopacity="0.0"
     inkscape:pagecheckerboard="0"
     showgrid="true"
     inkscape:zoom="1.2578125"
     inkscape:cx="145.49068"
     inkscape:cy="223.40373"
     inkscape:window-width="1946"
     inkscape:window-height="1101"
     inkscape:window-x="1956"
     inkscape:window-y="323"
     inkscape:window-maximized="0"
     inkscape:current-layer="g5116"
     inkscape:snap-smooth-nodes="true"
     inkscape:snap-grids="true">
    <inkscape:grid
       type="xygrid"
       id="grid120"
       units="px"
       spacingx="32"
       spacingy="32"
       empspacing="4" />
  </sodipodi:namedview>
  <g
     id="g5116"
     style="fill:#ffffff"
     transform="rotate(29.865195,303.95594,232.90551)">
    <g
       id="rect1264"
       transform="rotate(-29.865194,5.0000005,18.748449)">
      <path
         style="color:#000000;fill-opacity:0.999231;stroke-width:24;stroke-linecap:round;-inkscape-stroke:none;paint-order:markers fill stroke"
         d="m 34.656609,188.42822 c 22.714002,0 41.000004,18.286 41.000004,41.00001 0,22.714 -18.286002,41 -41.000004,41 -22.714002,0 -41.0000038,-18.286 -41.0000038,-41 0,-22.71401 18.2860018,-41.00001 41.0000038,-41.00001 z"
         id="path2335" />
    </g>
    <g
       id="path1838"
       style="fill:#ffffff;stroke:#000000;stroke-width:4;stroke-miterlimit:4;stroke-dasharray:none"
       transform="translate(6.9380674,-3.9839598)">
      <path
         style="color:#000000;fill:#ffffff;fill-opacity:0.999231;stroke:#000000;stroke-width:4;stroke-linecap:round;stroke-miterlimit:4;stroke-dasharray:none;paint-order:markers fill stroke"
         d="M 361.239,300.44449 472.24053,236.70547"
         id="path2192" />
      <path
         style="color:#000000;fill:#ffffff;stroke:#000000;stroke-width:4;stroke-linecap:round;stroke-miterlimit:4;stroke-dasharray:none;paint-order:markers fill stroke"
         d="m 472.2832,218.70508 a 18,18 0 0 0 -9.00586,2.39062 l -111.00195,63.73828 a 18,18 0 0 0 -6.64648,24.57422 18,18 0 0 0 24.57421,6.64649 l 111,-63.74024 a 18,18 0 0 0 6.64649,-24.57226 18,18 0 0 0 -15.56641,-9.03711 z"
         id="path2194" />
    </g>
    <g
       id="path2980"
       transform="translate(253.29694,-346.09343)"
       style="fill:#ffffff;stroke-width:4;stroke-miterlimit:4;stroke-dasharray:none">
      <path
         style="color:#000000;fill:#ffffff;fill-opacity:0.999231;stroke-width:4;stroke-linecap:round;stroke-miterlimit:4;stroke-dasharray:none;paint-order:markers fill stroke"
         d="M 83.735194,459.79202 147.47421,570.79354"
         id="path3072" />
      <path
         id="path3074"
         style="color:#000000;fill:#ffffff;stroke:#000000;stroke-width:4;stroke-linecap:round;stroke-miterlimit:4;stroke-dasharray:none;paint-order:markers fill stroke"
         d="m 0,302 a 18,18 0 0 0 -18,18 v 46 h -46 a 18,18 0 0 0 -18,18 18,18 0 0 0 18,18 h 46 v 46.00195 A 18,18 0 0 0 0,466 18,18 0 0 0 18,448 V 402 H 64 A 18,18 0 0 0 82,384 18,18 0 0 0 73,368.41211 18,18 0 0 0 64,366 H 18.001953 V 320 A 18,18 0 0 0 9,304.41211 18,18 0 0 0 0,302 Z"
         transform="rotate(-29.865195,303.95594,232.90551)" />
    </g>
    <g
       id="path2982">
      <path
         style="color:#000000;fill-opacity:0.999231;stroke-width:36;stroke-linecap:round;-inkscape-stroke:none;paint-order:markers fill stroke"
         d="M 60.103939,547.16228 171.10546,483.42327"
         id="path3066" />
    </g>
    <path
       d="m 88.235037,136.4442 50.459173,33.48663 106.94127,208.63934 -15.13057,4.87227 -12.40798,11.12629 L 91.721259,196.90352 Z m 223.920893,255.19666 -9.53651,-16.60788 -65.22497,21.01432 -51.02723,45.73971 9.53653,16.6079 46.07167,-26.45515 32.84414,51.36323 c -2.07209,4.97457 -1.90822,10.81429 0.98169,15.84892 4.93771,8.59895 15.91055,11.5668 24.50954,6.62916 8.599,-4.93769 11.56686,-15.91054 6.62916,-24.50953 -2.88944,-5.03197 -7.8481,-8.11651 -13.18601,-8.83614 l -27.80647,-54.25984 z"
       id="path1087"
       style="fill:#ffffff;stroke:#000000;stroke-width:3.77953;stroke-miterlimit:4;stroke-dasharray:none" />
  </g>
</svg>
