<?xml version="1.0" encoding="UTF-8" standalone="no"?>
<svg
   width="512"
   height="512"
   viewBox="0 0 135.46666 135.46667"
   version="1.1"
   id="svg8"
   sodipodi:docname="item.svg"
   inkscape:version="1.1.2 (0a00cf5339, 2022-02-04)"
   xmlns:inkscape="http://www.inkscape.org/namespaces/inkscape"
   xmlns:sodipodi="http://sodipodi.sourceforge.net/DTD/sodipodi-0.dtd"
   xmlns="http://www.w3.org/2000/svg"
   xmlns:svg="http://www.w3.org/2000/svg"
   xmlns:rdf="http://www.w3.org/1999/02/22-rdf-syntax-ns#"
   xmlns:cc="http://creativecommons.org/ns#"
   xmlns:dc="http://purl.org/dc/elements/1.1/">
  <defs
     id="defs2">
    <marker
       style="overflow:visible;"
       id="Arrow1Mend"
       refX="0.0"
       refY="0.0"
       orient="auto"
       inkscape:stockid="Arrow1Mend"
       inkscape:isstock="true">
      <path
         transform="scale(0.4) rotate(180) translate(10,0)"
         style="fill-rule:evenodd;stroke:#ffffff;stroke-width:1pt;stroke-opacity:1;fill:#ffffff;fill-opacity:1"
         d="M 0.0,0.0 L 5.0,-5.0 L -12.5,0.0 L 5.0,5.0 L 0.0,0.0 z "
         id="path868" />
    </marker>
    <marker
       style="overflow:visible;"
       id="marker1227"
       refX="0.0"
       refY="0.0"
       orient="auto"
       inkscape:stockid="Arrow1Lend"
       inkscape:isstock="true">
      <path
         transform="scale(0.8) rotate(180) translate(12.5,0)"
         style="fill-rule:evenodd;stroke:#ffffff;stroke-width:1pt;stroke-opacity:1;fill:#ffffff;fill-opacity:1"
         d="M 0.0,0.0 L 5.0,-5.0 L -12.5,0.0 L 5.0,5.0 L 0.0,0.0 z "
         id="path1225" />
    </marker>
    <marker
       style="overflow:visible;"
       id="Arrow1Lend"
       refX="0.0"
       refY="0.0"
       orient="auto"
       inkscape:stockid="Arrow1Lend"
       inkscape:isstock="true">
      <path
         transform="scale(0.8) rotate(180) translate(12.5,0)"
         style="fill-rule:evenodd;stroke:#ffffff;stroke-width:1pt;stroke-opacity:1;fill:#ffffff;fill-opacity:1"
         d="M 0.0,0.0 L 5.0,-5.0 L -12.5,0.0 L 5.0,5.0 L 0.0,0.0 z "
         id="path862" />
    </marker>
  </defs>
  <sodipodi:namedview
     id="base"
     pagecolor="#ffffff"
     bordercolor="#666666"
     borderopacity="1.0"
     inkscape:pageopacity="0"
     inkscape:pageshadow="2"
     inkscape:zoom="1.4"
     inkscape:cx="139.64286"
     inkscape:cy="356.78571"
     inkscape:document-units="mm"
     inkscape:current-layer="layer1"
     inkscape:document-rotation="0"
     showgrid="true"
     inkscape:window-width="2560"
     inkscape:window-height="1343"
     inkscape:window-x="1200"
     inkscape:window-y="137"
     inkscape:window-maximized="1"
     inkscape:snap-grids="true"
     units="px"
     inkscape:pagecheckerboard="false">
    <inkscape:grid
       type="xygrid"
       id="grid876"
       empcolor="#ffffff"
       empopacity="0.61176471"
       color="#ffffff"
       opacity="0.1254902"
       empspacing="4"
       units="px"
       spacingx="2.1166666"
       spacingy="2.1166666" />
  </sodipodi:namedview>
  <metadata
     id="metadata5">
    <rdf:RDF>
      <cc:Work
         rdf:about="">
        <dc:format>image/svg+xml</dc:format>
        <dc:type
           rdf:resource="http://purl.org/dc/dcmitype/StillImage" />
      </cc:Work>
    </rdf:RDF>
  </metadata>
  <g
     inkscape:groupmode="layer"
     id="layer2"
     inkscape:label="Background"
     sodipodi:insensitive="true">
    <rect
       style="fill:#f1511b;fill-opacity:1;stroke:#000000;stroke-width:2.11667;stroke-linecap:round;stroke-linejoin:round;stroke-miterlimit:4;stroke-dasharray:none;stroke-opacity:1;stop-color:#000000"
       id="rect14474"
       width="131.233"
       height="131.23332"
       x="2.1166813"
       y="2.1166666"
       ry="66.674995"
       rx="66.611931" />
  </g>
  <g
     inkscape:label="Icon"
     inkscape:groupmode="layer"
     id="layer1">
    <g
       id="g37"
       transform="matrix(0.19384398,0,0,0.19384398,18.109274,18.109274)"
       style="fill:#ffffff">
      <path
         d="M 0,0 H 512 V 512 H 0 Z"
         fill="#000000"
         fill-opacity="0.01"
         id="path22"
         style="fill:#ffffff" />
      <g
         class=""
         transform="translate(-3,10)"
         id="g26"
         style="fill:#ffffff">
        <path
           d="m 50,96 c -9.972,0 -18,8.028 -18,18 v 300 c 0,9.972 8.028,18 18,18 h 412 c 9.972,0 18,-8.028 18,-18 V 114 c 0,-9.972 -8.028,-18 -18,-18 z m 5,23 h 402 v 18 H 55 Z m 0,32 H 265 V 409 H 55 Z m 18,18 v 222 h 7.03 C 80.5,366.658 98.345,316.828 127.123,293.111 136.331,300.56 147.615,305 160,305 c 12.385,0 23.669,-4.44 32.877,-11.889 28.778,23.717 46.623,73.547 47.093,97.889 H 247 V 169 Z m 222,14 h 146 v 18 H 295 Z m -135,10 c 20.835,0 39,20.241 39,47 0,26.759 -18.165,47 -39,47 -20.835,0 -39,-20.241 -39,-47 0,-26.759 18.165,-47 39,-47 z m 135,22 h 114 v 18 H 295 Z m 0,32 h 50 v 18 h -50 z m 80,0 h 66 v 18 h -66 z m -16,96 h 98 v 18 h -98 z m -32,32 h 130 v 18 H 327 Z"
           fill="#ff7e00"
           fill-opacity="1"
           stroke="#040404"
           stroke-opacity="1"
           stroke-width="8"
           id="path24"
           style="fill:#ffffff" />
      </g>
    </g>
  </g>
</svg>
