<?xml version="1.0" encoding="UTF-8" standalone="no"?>
<svg
   width="512"
   height="512"
   viewBox="0 0 135.46666 135.46667"
   version="1.1"
   id="svg8"
   sodipodi:docname="armour-heavy.svg"
   inkscape:version="1.1.2 (0a00cf5339, 2022-02-04)"
   xmlns:inkscape="http://www.inkscape.org/namespaces/inkscape"
   xmlns:sodipodi="http://sodipodi.sourceforge.net/DTD/sodipodi-0.dtd"
   xmlns="http://www.w3.org/2000/svg"
   xmlns:svg="http://www.w3.org/2000/svg"
   xmlns:rdf="http://www.w3.org/1999/02/22-rdf-syntax-ns#"
   xmlns:cc="http://creativecommons.org/ns#"
   xmlns:dc="http://purl.org/dc/elements/1.1/">
  <defs
     id="defs2">
    <marker
       style="overflow:visible;"
       id="Arrow1Mend"
       refX="0.0"
       refY="0.0"
       orient="auto"
       inkscape:stockid="Arrow1Mend"
       inkscape:isstock="true">
      <path
         transform="scale(0.4) rotate(180) translate(10,0)"
         style="fill-rule:evenodd;stroke:#ffffff;stroke-width:1pt;stroke-opacity:1;fill:#ffffff;fill-opacity:1"
         d="M 0.0,0.0 L 5.0,-5.0 L -12.5,0.0 L 5.0,5.0 L 0.0,0.0 z "
         id="path868" />
    </marker>
    <marker
       style="overflow:visible;"
       id="marker1227"
       refX="0.0"
       refY="0.0"
       orient="auto"
       inkscape:stockid="Arrow1Lend"
       inkscape:isstock="true">
      <path
         transform="scale(0.8) rotate(180) translate(12.5,0)"
         style="fill-rule:evenodd;stroke:#ffffff;stroke-width:1pt;stroke-opacity:1;fill:#ffffff;fill-opacity:1"
         d="M 0.0,0.0 L 5.0,-5.0 L -12.5,0.0 L 5.0,5.0 L 0.0,0.0 z "
         id="path1225" />
    </marker>
    <marker
       style="overflow:visible;"
       id="Arrow1Lend"
       refX="0.0"
       refY="0.0"
       orient="auto"
       inkscape:stockid="Arrow1Lend"
       inkscape:isstock="true">
      <path
         transform="scale(0.8) rotate(180) translate(12.5,0)"
         style="fill-rule:evenodd;stroke:#ffffff;stroke-width:1pt;stroke-opacity:1;fill:#ffffff;fill-opacity:1"
         d="M 0.0,0.0 L 5.0,-5.0 L -12.5,0.0 L 5.0,5.0 L 0.0,0.0 z "
         id="path862" />
    </marker>
  </defs>
  <sodipodi:namedview
     id="base"
     pagecolor="#ffffff"
     bordercolor="#666666"
     borderopacity="1.0"
     inkscape:pageopacity="0"
     inkscape:pageshadow="2"
     inkscape:zoom="1.4"
     inkscape:cx="187.5"
     inkscape:cy="281.42857"
     inkscape:document-units="mm"
     inkscape:current-layer="layer1"
     inkscape:document-rotation="0"
     showgrid="true"
     inkscape:window-width="2560"
     inkscape:window-height="1355"
     inkscape:window-x="1200"
     inkscape:window-y="240"
     inkscape:window-maximized="1"
     inkscape:snap-grids="true"
     units="px"
     inkscape:pagecheckerboard="false">
    <inkscape:grid
       type="xygrid"
       id="grid876"
       empcolor="#ffffff"
       empopacity="0.61176471"
       color="#ffffff"
       opacity="0.1254902"
       empspacing="4"
       units="px"
       spacingx="2.1166666"
       spacingy="2.1166666" />
  </sodipodi:namedview>
  <metadata
     id="metadata5">
    <rdf:RDF>
      <cc:Work
         rdf:about="">
        <dc:format>image/svg+xml</dc:format>
        <dc:type
           rdf:resource="http://purl.org/dc/dcmitype/StillImage" />
      </cc:Work>
    </rdf:RDF>
  </metadata>
  <g
     inkscape:groupmode="layer"
     id="layer2"
     inkscape:label="Background"
     sodipodi:insensitive="true">
    <rect
       style="fill:#2a8eff;fill-opacity:1;stroke:#000000;stroke-width:2.11667;stroke-linecap:round;stroke-linejoin:round;stroke-miterlimit:4;stroke-dasharray:none;stroke-opacity:1;stop-color:#000000"
       id="rect14474"
       width="131.233"
       height="131.23332"
       x="2.1166813"
       y="2.1166666"
       ry="66.674995"
       rx="66.611931" />
  </g>
  <g
     inkscape:label="Icon"
     inkscape:groupmode="layer"
     id="layer1">
    <path
       id="rect874"
       style="fill:#ffffff;stroke:#000000;stroke-width:3.175;stop-color:#000000;stroke-miterlimit:4;stroke-dasharray:none"
       d="m 30.37807,21.966663 h 16.59275 c 13.709781,12.762821 27.286647,13.893916 40.691822,0 h 17.326288 c 1.49279,0 2.69457,1.201778 2.69457,2.69457 v 7.896668 c -10,9.408762 -4.72872,18.700021 0,28.991874 v 47.722315 c 0,1.49279 -1.37324,1.99994 -2.69457,2.69457 -24.281351,12.76476 -49.099628,13.89204 -74.61086,0 -1.31102,-0.71391 -2.69457,-1.20178 -2.69457,-2.69457 V 62.108515 c 8.83564,-10.704263 10,-20.141852 0,-29.878102 v -7.56918 c 0,-1.492792 1.20178,-2.69457 2.69457,-2.69457 z"
       sodipodi:nodetypes="sccssccssssccss" />
    <path
       style="fill:none;stroke:#000000;stroke-width:2;stroke-linecap:butt;stroke-linejoin:miter;stroke-miterlimit:4;stroke-dasharray:none;stroke-opacity:1"
       d="m 37.6835,21.966663 c 12.115305,25.475736 45.173837,27.834175 60,0"
       id="path877"
       sodipodi:nodetypes="cc" />
    <path
       style="fill:#ffffff;fill-opacity:0.999248;stroke:#000000;stroke-width:3.175;stroke-linecap:round;stroke-linejoin:round;stop-color:#000000;stroke-miterlimit:4;stroke-dasharray:none"
       d="M 33.866666,67.73333 H 16.933333 L 8.4666663,50.799997 25.399999,21.166666 h 21.166664 l 6.35,23.283331 z"
       id="path891" />
    <path
       style="fill:#ffffff;fill-opacity:0.999248;stroke:#000000;stroke-width:3.175;stroke-linecap:round;stroke-linejoin:round;stroke-miterlimit:4;stroke-dasharray:none;stop-color:#000000"
       d="m 101.6,67.73333 h 16.93333 L 127,50.799997 110.06666,21.166666 H 88.899999 l -6.35,23.283331 z"
       id="path891-3" />
    <path
       style="fill:#ffffff;fill-opacity:0.999248;stroke:#000000;stroke-width:2.11666667;stroke-linecap:round;stroke-linejoin:round;stroke-miterlimit:4;stroke-dasharray:none;stop-color:#000000"
       d="m 35.983333,74.08333 16.93333,-21.166667 h 12.7 V 95.249996 H 50.799997 L 35.983333,86.78333 Z"
       id="path1643" />
    <path
       style="fill:#ffffff;fill-opacity:0.999248;stroke:#000000;stroke-width:2.11666667;stroke-linecap:round;stroke-linejoin:round;stroke-miterlimit:4;stroke-dasharray:none;stop-color:#000000"
       d="M 99.483327,74.083332 82.549997,52.916665 h -12.7 v 42.333332 h 14.816666 l 14.816664,-8.466665 z"
       id="path1643-6" />
    <path
       style="fill:#ffffff;fill-opacity:0.999248;stroke:#000000;stroke-width:2.11667;stroke-linecap:round;stroke-linejoin:round;stroke-miterlimit:4;stroke-dasharray:none;stop-color:#000000"
       d="m 65.616663,101.6 v 14.81666 C 55.247307,115.89673 44.92298,115.16591 35.983333,107.95 l -1e-6,-12.700003 12.7,6.350003 16.933331,0"
       id="path1790"
       sodipodi:nodetypes="cccccc" />
    <path
       style="fill:#ffffff;fill-opacity:0.999248;stroke:#000000;stroke-width:2.11667;stroke-linecap:round;stroke-linejoin:round;stroke-miterlimit:4;stroke-dasharray:none;stop-color:#000000"
       d="m 69.849998,101.6 v 14.81666 c 10.369356,-0.51993 20.693683,-1.25075 29.63333,-8.46666 l 10e-7,-12.700007 -12.7,6.350007 H 69.849998"
       id="path1790-7"
       sodipodi:nodetypes="cccccc" />
    <path
       style="fill:none;fill-opacity:0.999248;stroke:#000000;stroke-width:2.11667;stroke-linecap:round;stroke-linejoin:round;stroke-miterlimit:4;stroke-dasharray:none;stop-color:#000000"
       d="M 14.816666,42.33333 H 25.399999 L 40.216666,21.166666"
       id="path2165" />
    <path
       style="fill:none;fill-opacity:0.999248;stroke:#000000;stroke-width:2.11667;stroke-linecap:round;stroke-linejoin:round;stroke-miterlimit:4;stroke-dasharray:none;stop-color:#000000"
       d="M 120.65,42.33333 H 110.06666 L 95.249997,21.166666"
       id="path2165-5" />
  </g>
</svg>
