<?xml version="1.0" encoding="UTF-8" standalone="no"?>
<svg
   width="512"
   height="512"
   viewBox="0 0 135.46666 135.46667"
   version="1.1"
   id="svg8"
   sodipodi:docname="gun-energy.svg"
   inkscape:version="1.1.2 (0a00cf5339, 2022-02-04)"
   xmlns:inkscape="http://www.inkscape.org/namespaces/inkscape"
   xmlns:sodipodi="http://sodipodi.sourceforge.net/DTD/sodipodi-0.dtd"
   xmlns="http://www.w3.org/2000/svg"
   xmlns:svg="http://www.w3.org/2000/svg"
   xmlns:rdf="http://www.w3.org/1999/02/22-rdf-syntax-ns#"
   xmlns:cc="http://creativecommons.org/ns#"
   xmlns:dc="http://purl.org/dc/elements/1.1/">
  <defs
     id="defs2">
    <marker
       style="overflow:visible;"
       id="Arrow1Mend"
       refX="0.0"
       refY="0.0"
       orient="auto"
       inkscape:stockid="Arrow1Mend"
       inkscape:isstock="true">
      <path
         transform="scale(0.4) rotate(180) translate(10,0)"
         style="fill-rule:evenodd;stroke:#ffffff;stroke-width:1pt;stroke-opacity:1;fill:#ffffff;fill-opacity:1"
         d="M 0.0,0.0 L 5.0,-5.0 L -12.5,0.0 L 5.0,5.0 L 0.0,0.0 z "
         id="path868" />
    </marker>
    <marker
       style="overflow:visible;"
       id="marker1227"
       refX="0.0"
       refY="0.0"
       orient="auto"
       inkscape:stockid="Arrow1Lend"
       inkscape:isstock="true">
      <path
         transform="scale(0.8) rotate(180) translate(12.5,0)"
         style="fill-rule:evenodd;stroke:#ffffff;stroke-width:1pt;stroke-opacity:1;fill:#ffffff;fill-opacity:1"
         d="M 0.0,0.0 L 5.0,-5.0 L -12.5,0.0 L 5.0,5.0 L 0.0,0.0 z "
         id="path1225" />
    </marker>
    <marker
       style="overflow:visible;"
       id="Arrow1Lend"
       refX="0.0"
       refY="0.0"
       orient="auto"
       inkscape:stockid="Arrow1Lend"
       inkscape:isstock="true">
      <path
         transform="scale(0.8) rotate(180) translate(12.5,0)"
         style="fill-rule:evenodd;stroke:#ffffff;stroke-width:1pt;stroke-opacity:1;fill:#ffffff;fill-opacity:1"
         d="M 0.0,0.0 L 5.0,-5.0 L -12.5,0.0 L 5.0,5.0 L 0.0,0.0 z "
         id="path862" />
    </marker>
  </defs>
  <sodipodi:namedview
     id="base"
     pagecolor="#ffffff"
     bordercolor="#666666"
     borderopacity="1.0"
     inkscape:pageopacity="0"
     inkscape:pageshadow="2"
     inkscape:zoom="0.98994949"
     inkscape:cx="424.26407"
     inkscape:cy="190.91883"
     inkscape:document-units="mm"
     inkscape:current-layer="layer1"
     inkscape:document-rotation="0"
     showgrid="true"
     inkscape:window-width="1821"
     inkscape:window-height="987"
     inkscape:window-x="1762"
     inkscape:window-y="461"
     inkscape:window-maximized="0"
     inkscape:snap-grids="true"
     units="px"
     inkscape:pagecheckerboard="false">
    <inkscape:grid
       type="xygrid"
       id="grid876"
       empcolor="#ffffff"
       empopacity="0.61176471"
       color="#ffffff"
       opacity="0.1254902"
       empspacing="4"
       units="px"
       spacingx="2.1166666"
       spacingy="2.1166666" />
  </sodipodi:namedview>
  <metadata
     id="metadata5">
    <rdf:RDF>
      <cc:Work
         rdf:about="">
        <dc:format>image/svg+xml</dc:format>
        <dc:type
           rdf:resource="http://purl.org/dc/dcmitype/StillImage" />
      </cc:Work>
    </rdf:RDF>
  </metadata>
  <g
     inkscape:groupmode="layer"
     id="layer2"
     inkscape:label="Background"
     sodipodi:insensitive="true">
    <rect
       style="fill:#2a8eff;fill-opacity:1;stroke:#000000;stroke-width:2.11667;stroke-linecap:round;stroke-linejoin:round;stroke-miterlimit:4;stroke-dasharray:none;stroke-opacity:1;stop-color:#000000"
       id="rect14474"
       width="131.233"
       height="131.23332"
       x="2.1166813"
       y="2.1166666"
       ry="66.674995"
       rx="66.611931" />
  </g>
  <g
     inkscape:label="Icon"
     inkscape:groupmode="layer"
     id="layer1">
    <rect
       style="fill:#ffffff;fill-opacity:0.993385;stroke:#000000;stroke-width:1;stop-color:#000000"
       id="rect990"
       width="23.802429"
       height="4.8417869"
       x="-39.312405"
       y="59.39463"
       rx="2.6804142"
       ry="2.6804147"
       transform="matrix(-1,3.2979461e-5,-3.2979461e-5,1,0,0)" />
    <path
       id="rect992"
       style="fill:#ffffff;fill-opacity:0.993385;stroke:#000000;stroke-width:1;stop-color:#000000"
       d="m 97.994838,55.266497 -5.752427,1.89e-4 -2.621831,9.766691 -11.475626,3.78e-4 0.341574,3.714523 9.910163,-3.27e-4 5.752427,-1.89e-4 z"
       sodipodi:nodetypes="cccccccc" />
    <path
       id="rect995"
       style="fill:#ffffff;fill-opacity:0.993385;stroke:#000000;stroke-width:1;stop-color:#000000"
       d="m 90.152854,52.862882 -3.453857,1.12e-4 c 0,0 0.05601,3.680788 -0.138475,5.299764 -0.194494,1.618976 -2.504189,3.005773 -1.766102,4.370395 0.64775,1.197613 1.958402,0.582832 3.016476,-0.136229 1.126583,-0.765625 1.855157,-2.309857 2.027419,-3.697273 0.236933,-1.908267 0.314539,-5.836769 0.314539,-5.836769 z"
       sodipodi:nodetypes="cczsssc" />
    <ellipse
       style="fill:#ffffff;fill-opacity:0.993385;stroke:#000000;stroke-width:1;stop-color:#000000"
       id="path1000"
       cx="-53.37384"
       cy="44.367359"
       rx="2.7562096"
       ry="2.844377"
       transform="matrix(-1,3.2979461e-5,-3.2979461e-5,1,0,0)" />
    <ellipse
       style="fill:#ffffff;fill-opacity:0.993385;stroke:#000000;stroke-width:1;stop-color:#000000"
       id="path1000-5"
       cx="-62.127079"
       cy="44.367359"
       rx="2.7562096"
       ry="2.844377"
       transform="matrix(-1,3.2979461e-5,-3.2979461e-5,1,0,0)" />
    <path
       id="rect940"
       style="fill:#ffffff;fill-opacity:0.993385;stroke:#000000;stroke-width:1;stop-color:#000000"
       d="m 73.886776,44.586575 -38.179071,0.0012 c -1.215777,4e-5 -3.105938,0.872936 -3.105983,2.096509 l -9.61e-4,29.206618 c -4e-5,1.223568 0.978694,2.208574 2.194463,2.208543 l 39.090442,-0.0013 c 1.215776,-3.9e-5 2.194576,-0.985111 2.194613,-2.208683 l 7.050332,-19.568874 25.947509,-8.24e-4 3.9e-4,-11.73439 z"
       sodipodi:nodetypes="csssssscccc" />
    <path
       id="rect943"
       style="fill:#ffffff;fill-opacity:0.993385;stroke:#000000;stroke-width:1;stop-color:#000000"
       d="m 108.83622,56.319804 -12.897508,4.32e-4 5.767048,26.464796 12.8975,-4.33e-4 z"
       sodipodi:nodetypes="ccccc" />
    <rect
       style="fill:#000000;fill-opacity:0.993385;stroke:#000000;stroke-width:1;stop-color:#000000"
       id="rect946"
       width="4.6332598"
       height="21.858027"
       x="-67.735008"
       y="50.802231"
       ry="2.6804023"
       rx="2.6804023"
       transform="matrix(-1,3.2979461e-5,-3.2979461e-5,1,0,0)" />
    <rect
       style="fill:#000000;fill-opacity:0.993385;stroke:#000000;stroke-width:1;stop-color:#000000"
       id="rect946-7"
       width="4.6332598"
       height="21.858027"
       x="-60.364807"
       y="50.802231"
       ry="2.6804023"
       rx="2.6804023"
       transform="matrix(-1,3.2979461e-5,-3.2979461e-5,1,0,0)" />
    <rect
       style="fill:#000000;fill-opacity:0.993385;stroke:#000000;stroke-width:1;stop-color:#000000"
       id="rect946-5"
       width="4.6332598"
       height="21.858027"
       x="-52.994606"
       y="50.802231"
       ry="2.6804023"
       rx="2.6804023"
       transform="matrix(-1,3.2979461e-5,-3.2979461e-5,1,0,0)" />
    <rect
       style="fill:#000000;fill-opacity:0.993385;stroke:#000000;stroke-width:1;stop-color:#000000"
       id="rect946-3"
       width="4.6332598"
       height="21.858027"
       x="-45.624409"
       y="50.802231"
       ry="2.6804023"
       rx="2.6804023"
       transform="matrix(-1,3.2979461e-5,-3.2979461e-5,1,0,0)" />
    <rect
       style="fill:#ffffff;fill-opacity:0.993385;stroke:#000000;stroke-width:1;stop-color:#000000"
       id="rect986"
       width="5.7572184"
       height="19.53253"
       x="-32.72147"
       y="52.049259"
       rx="2.6804142"
       ry="2.6804147"
       transform="matrix(-1,3.2979461e-5,-3.2979461e-5,1,0,0)" />
    <rect
       style="fill:#ffffff;fill-opacity:0.993385;stroke:#000000;stroke-width:1;stop-color:#000000"
       id="rect988"
       width="5.0454664"
       height="11.919689"
       x="-20.555431"
       y="55.855679"
       rx="2.6804142"
       ry="2.6804147"
       transform="matrix(-1,3.2979461e-5,-3.2979461e-5,1,0,0)" />
    <rect
       style="fill:#ffffff;fill-opacity:0.993385;stroke:#000000;stroke-width:1;stop-color:#000000"
       id="rect998"
       width="4.2818213"
       height="9.8021364"
       x="-113.62661"
       y="45.562874"
       transform="matrix(-1,3.2979461e-5,-3.2979461e-5,1,0,0)" />
    <rect
       style="fill:#000000;fill-opacity:0.993385;stroke:#000000;stroke-width:1;stop-color:#000000"
       id="rect1024"
       width="16.580183"
       height="3.9804633"
       x="-103.28092"
       y="48.885395"
       ry="1.0136936"
       rx="1.0136936"
       transform="matrix(-1,3.2979461e-5,-3.2979461e-5,1,0,0)" />
  </g>
</svg>
