<?xml version="1.0" encoding="UTF-8" standalone="no"?>
<svg
   width="512"
   height="512"
   viewBox="0 0 512 512"
   style="height: 512px; width: 512px;"
   version="1.1"
   id="svg19"
   sodipodi:docname="creature-gold.svg"
   inkscape:version="1.1.2 (0a00cf5339, 2022-02-04)"
   xmlns:inkscape="http://www.inkscape.org/namespaces/inkscape"
   xmlns:sodipodi="http://sodipodi.sourceforge.net/DTD/sodipodi-0.dtd"
   xmlns="http://www.w3.org/2000/svg"
   xmlns:svg="http://www.w3.org/2000/svg">
  <sodipodi:namedview
     id="namedview21"
     pagecolor="#ffffff"
     bordercolor="#666666"
     borderopacity="1.0"
     inkscape:pageshadow="2"
     inkscape:pageopacity="0.0"
     inkscape:pagecheckerboard="0"
     showgrid="false"
     inkscape:zoom="1.2929688"
     inkscape:cx="256"
     inkscape:cy="256"
     inkscape:window-width="2560"
     inkscape:window-height="1343"
     inkscape:window-x="1200"
     inkscape:window-y="381"
     inkscape:window-maximized="1"
     inkscape:current-layer="svg19" />
  <defs
     id="defs13">
    <filter
       id="shadow-1"
       height="1.1071144"
       width="1.1052273"
       x="-0.052632649"
       y="-0.053581542">
      <feFlood
         flood-color="rgba(0, 0, 0, 1)"
         result="flood"
         id="feFlood2" />
      <feComposite
         in="flood"
         in2="SourceGraphic"
         operator="atop"
         result="composite"
         id="feComposite4" />
      <feGaussianBlur
         in="composite"
         stdDeviation="9"
         result="blur"
         id="feGaussianBlur6" />
      <feOffset
         dx="0"
         dy="0"
         result="offset"
         id="feOffset8" />
      <feComposite
         in="SourceGraphic"
         in2="offset"
         operator="over"
         id="feComposite10" />
    </filter>
  </defs>
  <g
     class=""
     transform="translate(-0.99999924,-5.000001)"
     id="g17">
    <path
       d="M 150.25,19.97 C 35.77,19.396 10.278,204.92 170.813,232.094 c -29.5,0.534 -55.382,8.11 -91.75,25.97 C -19.2,306.313 0.665,462.966 100.874,446 c 34.48,-5.838 51.21,-50.325 0.875,-65.375 16.515,29.61 -27.968,47.1 -41.906,1.938 -11.262,-36.49 21.145,-74.914 52.468,-85 30.5,-9.82 55.244,-10.86 82.47,-5.844 -36.585,34.247 -56.547,80.465 -42.376,123.624 44.522,135.595 192.146,82.52 162.844,-6.72 -10.346,-31.506 -41.408,-46.505 -68,-10.155 35.164,-8.854 50.45,38.75 18.188,49.342 -26.355,8.655 -60.212,-13.527 -66.032,-41.343 -7.82,-37.39 19.77,-77.195 54.78,-95.25 22.176,35.37 38.812,48.68 83.22,72.186 85.843,45.436 212.957,-36.54 143.906,-110.53 -22.626,-24.244 -54.574,-30.02 -67.5,13.124 30.188,-20.09 60.748,26.8 33.875,47.563 -21.95,16.96 -61.503,19.135 -86.437,5.5 -30.797,-16.842 -53.79,-37.798 -70.188,-66.532 57.07,13.69 119.584,-1.065 143,-45.342 45.72,-86.45 -7.046,-152.467 -59.125,-153.375 -20.378,-0.356 -40.654,9.237 -54.875,31.5 -17.85,27.946 -9.815,61.533 35.157,59.124 -29.11,-21.628 -1.9,-63.623 26.717,-45.343 23.378,14.932 22.494,51.88 9.75,77.28 -15.165,30.23 -60.573,50.738 -95.062,24.657 -3.008,-5.71 -5.563,-11.683 -7.78,-17.843 8.99,-6.49 14.874,-17.028 14.874,-28.875 0,-17.772 -13.252,-32.64 -30.345,-35.218 -9.763,-47.134 -23.34,-92.648 -84.844,-112.594 -13.64,-4.424 -26.437,-6.472 -38.28,-6.53 z m 117.844,137.405 c 9.463,0 16.937,7.474 16.937,16.938 0,9.463 -7.473,16.937 -16.936,16.937 -9.463,0 -16.906,-7.474 -16.906,-16.938 0,-9.463 7.443,-16.937 16.906,-16.937 z m -65.406,10.5 c 9.463,0 16.937,7.474 16.937,16.938 0,9.463 -7.474,16.937 -16.938,16.937 -9.463,0 -16.937,-7.474 -16.937,-16.938 0,-9.463 7.474,-16.937 16.938,-16.937 z"
       fill="#ffc800"
       fill-opacity="1"
       stroke="#040404"
       stroke-opacity="1"
       stroke-width="8"
       filter="url(#shadow-1)"
       id="path15" />
  </g>
</svg>
