<?xml version="1.0" encoding="UTF-8" standalone="no"?>
<svg
   width="512"
   height="512"
   viewBox="0 0 512 512"
   style="height: 512px; width: 512px;"
   version="1.1"
   id="svg19"
   sodipodi:docname="creature-blue.svg"
   inkscape:version="1.1.2 (0a00cf5339, 2022-02-04)"
   xmlns:inkscape="http://www.inkscape.org/namespaces/inkscape"
   xmlns:sodipodi="http://sodipodi.sourceforge.net/DTD/sodipodi-0.dtd"
   xmlns="http://www.w3.org/2000/svg"
   xmlns:svg="http://www.w3.org/2000/svg">
  <sodipodi:namedview
     id="namedview21"
     pagecolor="#ffffff"
     bordercolor="#666666"
     borderopacity="1.0"
     inkscape:pageshadow="2"
     inkscape:pageopacity="0.0"
     inkscape:pagecheckerboard="0"
     showgrid="false"
     inkscape:zoom="1.2929688"
     inkscape:cx="256"
     inkscape:cy="256"
     inkscape:window-width="2560"
     inkscape:window-height="1403"
     inkscape:window-x="3760"
     inkscape:window-y="381"
     inkscape:window-maximized="1"
     inkscape:current-layer="g17" />
  <defs
     id="defs13">
    <filter
       id="shadow-1"
       height="1.1078367"
       width="1.1082374"
       x="-0.054145971"
       y="-0.05391836">
      <feFlood
         flood-color="rgba(0, 0, 0, 1)"
         result="flood"
         id="feFlood2" />
      <feComposite
         in="flood"
         in2="SourceGraphic"
         operator="atop"
         result="composite"
         id="feComposite4" />
      <feGaussianBlur
         in="composite"
         stdDeviation="9"
         result="blur"
         id="feGaussianBlur6" />
      <feOffset
         dx="0"
         dy="0"
         result="offset"
         id="feOffset8" />
      <feComposite
         in="SourceGraphic"
         in2="offset"
         operator="over"
         id="feComposite10" />
    </filter>
  </defs>
  <g
     class=""
     transform="translate(-1,-5)"
     style=""
     id="g17">
    <path
       d="m 246,18.843999 c -2.157,0.02 -4.292,0.068 -6.406,0.156 -73.28,3.064 -120.385,46.286 -139.406,94.094001 -11.706,29.42 -12.328,60.463 -1.813,84.78 10.515,24.32 31.522,42.552 66.906,47.845 18.85,2.818 37.402,5.89 55.314,9.5 59.88,-25.15 71.217,-72.16 86.625,-115.19 7.735,-21.602 16.277,-42.437001 33.874,-56.655001 12.758,-10.31 29.792,-16.212 52.47,-16.563 -28.51,-20.475 -62.022,-35.544 -99.095,-43.093 -17.22,-3.507 -33.372,-5.024 -48.47,-4.876 z m 147.47,66.53 c -19.04,0.243 -31.413,5.12 -40.626,12.564 C 340.026,108.294 332.316,125.358 324.814,146.312 c -13.216,36.904 -26.567,85.154 -75.752,115.282 42.035,10.47 78.926,24.997 105.188,47.5 21.364,18.306 35.342,42.586 37.406,72.75 1.54,22.492 -3.3,47.973 -15.25,77.187 C 477.462,385.23 506.27,291.847 488.844,209.75 479.011,163.428 454.197,120.595 418.5,87.249999 c -9.447,-1.382 -17.738,-1.968 -25.03,-1.875 z M 85.094,100.814 c -20.48,6.425 -42.002,17.384 -64.28,33.655 l -0.002,359.155 h 230.875 c 11.166,-23.298 19.82,-46.743 26.188,-69.97 -34.545,-1.148 -67.374,-12.59 -94.563,-31.06 C 134.4,359.362 102.825,302.827 111.062,243.374 97.62,233.166 87.607,220.054 81.219,205.28 c -12.89,-29.806 -11.65,-65.73 1.624,-99.093 0.717,-1.802 1.46,-3.587 2.25,-5.374 z m 144.656,27.124 c 23.412,0 42.406,18.968 42.406,42.374 0,23.407 -18.994,42.375 -42.406,42.375 -23.412,0 -42.375,-18.968 -42.375,-42.375 0,-23.406 18.963,-42.375 42.375,-42.375 z M 128.78,254.125 c -3.5,48.926 23.382,94.734 65.032,123.03 44.693,30.365 105.29,39.94 162.657,9.658 -6.057,-0.988 -11.844,-2.296 -17.376,-3.907 -13.214,-17.616 -20.057,-42.566 -18.688,-63.187 0.245,-3.687 0.764,-7.21 1.5,-10.533 -5.35,-3.108 -11.05,-6.05 -17.094,-8.812 -1.66,5.77 -2.648,11.858 -3.062,18.094 -1.14,17.168 2.01,35.7 9.188,52.592 -35.888,-20.445 -55.414,-55.432 -58.22,-88.875 -27.608,-7.465 -58.322,-13.202 -90.187,-17.968 -12.5,-1.87 -23.76,-5.332 -33.75,-10.095 z"
       fill="#005fe0"
       fill-opacity="1"
       stroke="#040404"
       stroke-opacity="1"
       stroke-width="8"
       filter="url(#shadow-1)"
       id="path15" />
  </g>
</svg>
