<?xml version="1.0" encoding="UTF-8" standalone="no"?>
<svg
   width="512"
   height="512"
   viewBox="0 0 512 512"
   style="height: 512px; width: 512px;"
   version="1.1"
   id="svg19"
   sodipodi:docname="creature-red.svg"
   inkscape:version="1.1.2 (0a00cf5339, 2022-02-04)"
   xmlns:inkscape="http://www.inkscape.org/namespaces/inkscape"
   xmlns:sodipodi="http://sodipodi.sourceforge.net/DTD/sodipodi-0.dtd"
   xmlns="http://www.w3.org/2000/svg"
   xmlns:svg="http://www.w3.org/2000/svg">
  <sodipodi:namedview
     id="namedview21"
     pagecolor="#ffffff"
     bordercolor="#666666"
     borderopacity="1.0"
     inkscape:pageshadow="2"
     inkscape:pageopacity="0.0"
     inkscape:pagecheckerboard="0"
     showgrid="false"
     inkscape:zoom="1.2929688"
     inkscape:cx="256"
     inkscape:cy="256"
     inkscape:window-width="2560"
     inkscape:window-height="1343"
     inkscape:window-x="1200"
     inkscape:window-y="381"
     inkscape:window-maximized="1"
     inkscape:current-layer="svg19" />
  <defs
     id="defs13">
    <filter
       id="shadow-1"
       height="1.1224677"
       width="1.1093171"
       x="-0.054597867"
       y="-0.060920622">
      <feFlood
         flood-color="rgba(0, 0, 0, 1)"
         result="flood"
         id="feFlood2" />
      <feComposite
         in="flood"
         in2="SourceGraphic"
         operator="atop"
         result="composite"
         id="feComposite4" />
      <feGaussianBlur
         in="composite"
         stdDeviation="9"
         result="blur"
         id="feGaussianBlur6" />
      <feOffset
         dx="0"
         dy="0"
         result="offset"
         id="feOffset8" />
      <feComposite
         in="SourceGraphic"
         in2="offset"
         operator="over"
         id="feComposite10" />
    </filter>
  </defs>
  <g
     class=""
     transform="translate(-0.99999858,-5.0000008)"
     id="g17">
    <path
       d="m 426.353,45.894 c -8.969,0.095 -19.91,4.567 -31.41,9.43 -25.134,10.628 -30.824,23.015 -37.95,37.133 8.482,4.036 15.74,10.27 21.727,17.762 8.672,10.848 15.098,24.363 20.451,39.345 9.563,26.764 15.67,58.434 21.848,88.18 l 28.812,3.615 c 0,0 38.02,-28.257 40.22,-47.99 0.65,-5.84 -9.27,-14.992 -9.27,-14.992 0,0 5.937,-6.614 4.83,-11.323 -1.252,-5.326 -10.38,-14.755 -10.38,-14.755 0,0 2.699,-6.325 0.099,-10.178 -3.468,-5.14 -18.98,-8.572 -18.98,-8.572 -1.734,-1.69 -1.576,-8.596 -0.006,-10.287 0,0 14.776,-12.887 10.903,-17.684 -7.036,-8.714 -18.633,-19.625 -18.633,-19.625 -0.26,-30.99 -9.153,-40.198 -22.261,-40.059 z m -102.4,58.86 c -47.7,0.281 -69.23,71.742 -94.848,86.466 C 185.617,215.05 119.594,179.757 83.902,213.265 47.19,247.732 36.309,282.031 51.855,348.895 L 32.918,405.23 c -7.483,37.268 -14.09,30.759 -9.463,60.877 38.011,-0.97 75.93,-1.63 113.888,0 l 2.664,-16.361 -26.021,-16.215 c 2.142,-13.369 6.033,-31.024 20.459,-51.959 14.426,-20.934 21.727,-36.387 21.836,-48.713 l 17.998,0.158 c -0.155,17.545 -8.409,34.347 -18.783,50.23 47.235,15.354 119.223,7.67 173.01,-47 -9.46,-29.17 -21.687,-58.052 -37.315,-79.72 l 14.598,-10.53 c 35.673,51.447 55.01,132.403 65.963,186.274 -6.292,2.041 -11.578,3.946 -17.47,6.602 0.338,9.09 1.043,18.16 1.65,27.234 31.173,-2.124 62.215,-0.722 93.612,0 17.246,-68.035 -10.26,-117.857 -38.76,-187.59 -20.847,-73.492 -18.395,-161.324 -74.122,-172.496 -4.437,-0.89 -8.667,-1.291 -12.71,-1.267 z m 10.12,249.748 c -5.42,5.297 -12.046,10.358 -19.609,15.297 -5.077,3.315 -10.599,6.528 -16.472,9.584 l -13.622,62.937 -10.905,4.906 -1.091,18.881 h 65.113 l -1.73,-38.625 14.767,-6.658 c -4.007,-18.973 -9.748,-42.998 -16.451,-66.322 z m -186.929,42.72 15.645,68.885 h 92.91 l -1.543,-18.615 -24.672,-5.783 -4.56,-38.51 c -26.065,3.93 -53.18,3.051 -77.78,-5.977 z"
       fill="#d10303"
       fill-opacity="1"
       stroke="#040404"
       stroke-opacity="1"
       stroke-width="8"
       filter="url(#shadow-1)"
       id="path15" />
  </g>
</svg>
