<?xml version="1.0" encoding="UTF-8" standalone="no"?>
<svg
   width="512"
   height="512"
   viewBox="0 0 512 512"
   style="height: 512px; width: 512px;"
   version="1.1"
   id="svg19"
   sodipodi:docname="creature-white.svg"
   inkscape:version="1.1.2 (0a00cf5339, 2022-02-04)"
   xmlns:inkscape="http://www.inkscape.org/namespaces/inkscape"
   xmlns:sodipodi="http://sodipodi.sourceforge.net/DTD/sodipodi-0.dtd"
   xmlns="http://www.w3.org/2000/svg"
   xmlns:svg="http://www.w3.org/2000/svg">
  <sodipodi:namedview
     id="namedview21"
     pagecolor="#ffffff"
     bordercolor="#666666"
     borderopacity="1.0"
     inkscape:pageshadow="2"
     inkscape:pageopacity="0.0"
     inkscape:pagecheckerboard="0"
     showgrid="false"
     inkscape:zoom="1.2929688"
     inkscape:cx="256"
     inkscape:cy="256"
     inkscape:window-width="2560"
     inkscape:window-height="1343"
     inkscape:window-x="1200"
     inkscape:window-y="381"
     inkscape:window-maximized="1"
     inkscape:current-layer="svg19" />
  <defs
     id="defs13">
    <filter
       id="shadow-1"
       height="1.1244448"
       width="1.1101121"
       x="-0.054551189"
       y="-0.057477262">
      <feFlood
         flood-color="rgba(0, 0, 0, 1)"
         result="flood"
         id="feFlood2" />
      <feComposite
         in="flood"
         in2="SourceGraphic"
         operator="atop"
         result="composite"
         id="feComposite4" />
      <feGaussianBlur
         in="composite"
         stdDeviation="9"
         result="blur"
         id="feGaussianBlur6" />
      <feOffset
         dx="0"
         dy="0"
         result="offset"
         id="feOffset8" />
      <feComposite
         in="SourceGraphic"
         in2="offset"
         operator="over"
         id="feComposite10" />
    </filter>
  </defs>
  <g
     class=""
     transform="translate(-0.99999934,-4.9999993)"
     id="g17">
    <path
       d="m 21.357,56.129 c 2.557,128.541 77.143,232.496 173.868,262.29 -9.76,-16.326 -11.79,-20.065 -13.545,-35.11 5.57,11.151 17.776,28.634 47.168,46.123 -15.459,6.144 -25.038,19.847 -27.389,42.843 -5.396,2.38 -12.07,-0.661 -15.805,8.78 -7.575,18.099 8.399,33.481 12.643,50.216 14.08,6.437 13.144,15.724 16.855,24.6 12.993,-5.169 25.986,-2.705 38.979,0 l -0.701,-14.416 -21.774,-3.162 3.865,-8.777 c -11.488,-4.736 -17.746,-12.8 -24.23,-20.72 0.351,-9.214 0.702,-18.61 1.053,-27.392 30.453,-7.134 51.72,-27.902 61.98,-39.681 2.98,-3.422 -1.105,-10.442 -5.443,-16.504 18.625,-19.95 15.037,-40.943 13.205,-61.237 8.929,13.296 13.891,34.978 4.568,63.145 28.73,-3.42 54.964,-12.9 75.242,-28.006 -4.611,-12.067 -5.113,-24.247 -1.486,-30.904 4.372,12.71 17.02,31.785 31.069,34.879 20.108,4.428 37.03,-2.155 54.78,-5.971 -6.746,14.86 -7.405,29.553 -8.077,43.545 12.925,-15.825 30.205,-30.033 30.552,-50.217 0.134,-7.764 -31.161,-11.645 -60.05,-5.267 -2.105,-10.317 -4.329,-20.432 -10.868,-30.194 5.292,-13.485 6.256,-28.722 5.196,-45.642 -12.62,-6.784 -17.92,-19.886 -20.77,-33.932 24.322,20.149 58.171,30.88 88.535,33.02 0.195,-5.546 2.602,-5.824 -2.363,-11.37 -21.92,-11.355 -47.134,-27.842 -46.555,-41.77 20.459,0.285 48.265,3.052 68.782,8.194 -0.673,-7.697 -0.04,-15.732 -6.21,-23.092 -4.021,-4.797 -33.602,-12.747 -50.404,-19.12 -0.627,-3.643 -2.934,-12.138 -9.437,-12.167 -36.318,-0.16 -70.229,15.264 -76.975,35.012 -3.305,9.675 -0.1,41.943 -0.027,62.914 -44.004,-6.438 -105.465,11.322 -149.111,32.71 C 55.353,200.283 52.28,140.525 21.357,56.128 Z m 392.815,64.396 c 5.525,0.056 8.536,6.67 7.517,10.3 -0.714,2.544 -18.077,-1.213 -17.42,-4.858 0.59,-3.267 2.831,-5.512 9.903,-5.442 z m 56.062,198.188 -8.136,12 c 7.284,4.115 4.85,8.81 9.261,18.322 2.964,-10.769 4.898,-19.553 -1.125,-30.322 z M 242.24,401.98 c -4.287,0.01 -11.218,1.745 -12.933,9.008 l 12.166,9.809 c -2.176,-13.427 14.83,-6.788 27.318,-2.36 -3.928,-6.695 -19.406,-16.471 -26.55,-16.457 z m 22.947,40.916 0.995,12.975 h 22.595 z"
       fill="#ffffff"
       fill-opacity="1"
       stroke="#040404"
       stroke-opacity="1"
       stroke-width="8"
       filter="url(#shadow-1)"
       id="path15" />
  </g>
</svg>
