<?xml version="1.0" encoding="UTF-8" standalone="no"?>
<svg
   width="256"
   height="256"
   viewBox="0 0 67.73333 67.733335"
   version="1.1"
   id="svg8"
   sodipodi:docname="world-rock.svg"
   inkscape:version="1.1.2 (0a00cf5339, 2022-02-04)"
   xmlns:inkscape="http://www.inkscape.org/namespaces/inkscape"
   xmlns:sodipodi="http://sodipodi.sourceforge.net/DTD/sodipodi-0.dtd"
   xmlns:xlink="http://www.w3.org/1999/xlink"
   xmlns="http://www.w3.org/2000/svg"
   xmlns:svg="http://www.w3.org/2000/svg"
   xmlns:rdf="http://www.w3.org/1999/02/22-rdf-syntax-ns#"
   xmlns:cc="http://creativecommons.org/ns#"
   xmlns:dc="http://purl.org/dc/elements/1.1/">
  <defs
     id="defs2">
    <linearGradient
       inkscape:collect="always"
       id="linearGradient6869">
      <stop
         style="stop-color:#000000;stop-opacity:0"
         offset="0"
         id="stop6865" />
      <stop
         style="stop-color:#000000;stop-opacity:0.29793757"
         offset="1"
         id="stop6867" />
    </linearGradient>
    <marker
       style="overflow:visible"
       id="Arrow1Mend"
       refX="0"
       refY="0"
       orient="auto"
       inkscape:stockid="Arrow1Mend"
       inkscape:isstock="true">
      <path
         transform="matrix(-0.4,0,0,-0.4,-4,0)"
         style="fill:#ffffff;fill-opacity:1;fill-rule:evenodd;stroke:#ffffff;stroke-width:1pt;stroke-opacity:1"
         d="M 0,0 5,-5 -12.5,0 5,5 Z"
         id="path868" />
    </marker>
    <marker
       style="overflow:visible"
       id="marker1227"
       refX="0"
       refY="0"
       orient="auto"
       inkscape:stockid="Arrow1Lend"
       inkscape:isstock="true">
      <path
         transform="matrix(-0.8,0,0,-0.8,-10,0)"
         style="fill:#ffffff;fill-opacity:1;fill-rule:evenodd;stroke:#ffffff;stroke-width:1pt;stroke-opacity:1"
         d="M 0,0 5,-5 -12.5,0 5,5 Z"
         id="path1225" />
    </marker>
    <marker
       style="overflow:visible"
       id="Arrow1Lend"
       refX="0"
       refY="0"
       orient="auto"
       inkscape:stockid="Arrow1Lend"
       inkscape:isstock="true">
      <path
         transform="matrix(-0.8,0,0,-0.8,-10,0)"
         style="fill:#ffffff;fill-opacity:1;fill-rule:evenodd;stroke:#ffffff;stroke-width:1pt;stroke-opacity:1"
         d="M 0,0 5,-5 -12.5,0 5,5 Z"
         id="path862" />
    </marker>
    <filter
       inkscape:collect="always"
       style="color-interpolation-filters:sRGB"
       id="filter3888"
       x="-0.05798756"
       y="-0.060312191"
       width="1.1159743"
       height="1.1206406">
      <feGaussianBlur
         inkscape:collect="always"
         stdDeviation="1.1853333"
         id="feGaussianBlur3890" />
    </filter>
    <filter
       inkscape:collect="always"
       style="color-interpolation-filters:sRGB"
       id="filter6632"
       x="-0.11643468"
       y="-0.11866191"
       width="1.2329213"
       height="1.2372603">
      <feGaussianBlur
         inkscape:collect="always"
         stdDeviation="0.063646035"
         id="feGaussianBlur6634" />
    </filter>
    <filter
       inkscape:collect="always"
       style="color-interpolation-filters:sRGB"
       id="filter6636"
       x="-0.10249077"
       y="-0.10349773"
       width="1.2049287"
       height="1.2071365">
      <feGaussianBlur
         inkscape:collect="always"
         stdDeviation="0.063646035"
         id="feGaussianBlur6638" />
    </filter>
    <filter
       inkscape:collect="always"
       style="color-interpolation-filters:sRGB"
       id="filter6640"
       x="-0.10249077"
       y="-0.10349773"
       width="1.2049287"
       height="1.2071365">
      <feGaussianBlur
         inkscape:collect="always"
         stdDeviation="0.063646035"
         id="feGaussianBlur6642" />
    </filter>
    <filter
       inkscape:collect="always"
       style="color-interpolation-filters:sRGB"
       id="filter6644"
       x="-0.10249077"
       y="-0.10349773"
       width="1.2049287"
       height="1.2071365">
      <feGaussianBlur
         inkscape:collect="always"
         stdDeviation="0.063646035"
         id="feGaussianBlur6646" />
    </filter>
    <filter
       inkscape:collect="always"
       style="color-interpolation-filters:sRGB"
       id="filter6648"
       x="-0.10249077"
       y="-0.10349773"
       width="1.2049287"
       height="1.2071365">
      <feGaussianBlur
         inkscape:collect="always"
         stdDeviation="0.063646035"
         id="feGaussianBlur6650" />
    </filter>
    <filter
       inkscape:collect="always"
       style="color-interpolation-filters:sRGB"
       id="filter6652"
       x="-0.15458669"
       y="-0.12831696"
       width="1.3057114"
       height="1.2575725">
      <feGaussianBlur
         inkscape:collect="always"
         stdDeviation="0.063646035"
         id="feGaussianBlur6654" />
    </filter>
    <filter
       inkscape:collect="always"
       style="color-interpolation-filters:sRGB"
       id="filter6656"
       x="-0.11054366"
       y="-0.12039936"
       width="1.2214292"
       height="1.2415324">
      <feGaussianBlur
         inkscape:collect="always"
         stdDeviation="0.063646035"
         id="feGaussianBlur6658" />
    </filter>
    <filter
       inkscape:collect="always"
       style="color-interpolation-filters:sRGB"
       id="filter6660"
       x="-0.18672288"
       y="-0.13879482"
       width="1.3719985"
       height="1.2769404">
      <feGaussianBlur
         inkscape:collect="always"
         stdDeviation="0.063646035"
         id="feGaussianBlur6662" />
    </filter>
    <filter
       inkscape:collect="always"
       style="color-interpolation-filters:sRGB"
       id="filter6664"
       x="-0.038070358"
       y="-0.045797632"
       width="1.076309"
       height="1.0920142">
      <feGaussianBlur
         inkscape:collect="always"
         stdDeviation="0.063646035"
         id="feGaussianBlur6666" />
    </filter>
    <filter
       inkscape:collect="always"
       style="color-interpolation-filters:sRGB"
       id="filter6668"
       x="-0.043600518"
       y="-0.058954678"
       width="1.0871082"
       height="1.1143615">
      <feGaussianBlur
         inkscape:collect="always"
         stdDeviation="0.063646035"
         id="feGaussianBlur6670" />
    </filter>
    <filter
       inkscape:collect="always"
       style="color-interpolation-filters:sRGB"
       id="filter6672"
       x="-0.056293185"
       y="-0.052010715"
       width="1.1130311"
       height="1.1030392">
      <feGaussianBlur
         inkscape:collect="always"
         stdDeviation="0.063646035"
         id="feGaussianBlur6674" />
    </filter>
    <filter
       inkscape:collect="always"
       style="color-interpolation-filters:sRGB"
       id="filter6676"
       x="-0.054441172"
       y="-0.048754075"
       width="1.1087828"
       height="1.0974933">
      <feGaussianBlur
         inkscape:collect="always"
         stdDeviation="0.063646035"
         id="feGaussianBlur6678" />
    </filter>
    <filter
       inkscape:collect="always"
       style="color-interpolation-filters:sRGB"
       id="filter6680"
       x="-0.042974748"
       y="-0.04583421"
       width="1.0859049"
       height="1.091442">
      <feGaussianBlur
         inkscape:collect="always"
         stdDeviation="0.063646035"
         id="feGaussianBlur6682" />
    </filter>
    <filter
       inkscape:collect="always"
       style="color-interpolation-filters:sRGB"
       id="filter6684"
       x="-0.036731692"
       y="-0.039279317"
       width="1.0734272"
       height="1.0787839">
      <feGaussianBlur
         inkscape:collect="always"
         stdDeviation="0.063646035"
         id="feGaussianBlur6686" />
    </filter>
    <filter
       inkscape:collect="always"
       style="color-interpolation-filters:sRGB"
       id="filter6688"
       x="-0.050508215"
       y="-0.057200988"
       width="1.1012688"
       height="1.1140122">
      <feGaussianBlur
         inkscape:collect="always"
         stdDeviation="0.063646035"
         id="feGaussianBlur6690" />
    </filter>
    <filter
       inkscape:collect="always"
       style="color-interpolation-filters:sRGB"
       id="filter6692"
       x="-0.052493298"
       y="-0.054642651"
       width="1.1053656"
       height="1.1091544">
      <feGaussianBlur
         inkscape:collect="always"
         stdDeviation="0.063646035"
         id="feGaussianBlur6694" />
    </filter>
    <filter
       inkscape:collect="always"
       style="color-interpolation-filters:sRGB"
       id="filter6696"
       x="-0.046752843"
       y="-0.04799075"
       width="1.0936242"
       height="1.0959527">
      <feGaussianBlur
         inkscape:collect="always"
         stdDeviation="0.063646035"
         id="feGaussianBlur6698" />
    </filter>
    <filter
       inkscape:collect="always"
       style="color-interpolation-filters:sRGB"
       id="filter6700"
       x="-0.056994961"
       y="-0.068099545"
       width="1.1140698"
       height="1.1350009">
      <feGaussianBlur
         inkscape:collect="always"
         stdDeviation="0.063646035"
         id="feGaussianBlur6702" />
    </filter>
    <filter
       inkscape:collect="always"
       style="color-interpolation-filters:sRGB"
       id="filter6704"
       x="-0.074856218"
       y="-0.079253028"
       width="1.149057"
       height="1.1587051">
      <feGaussianBlur
         inkscape:collect="always"
         stdDeviation="0.063646035"
         id="feGaussianBlur6706" />
    </filter>
    <filter
       inkscape:collect="always"
       style="color-interpolation-filters:sRGB"
       id="filter6708"
       x="-0.052775486"
       y="-0.034449557"
       width="1.1049635"
       height="1.0689773">
      <feGaussianBlur
         inkscape:collect="always"
         stdDeviation="0.063646035"
         id="feGaussianBlur6710" />
    </filter>
    <filter
       inkscape:collect="always"
       style="color-interpolation-filters:sRGB"
       id="filter6712"
       x="-0.058497875"
       y="-0.035034665"
       width="1.1167774"
       height="1.0664392">
      <feGaussianBlur
         inkscape:collect="always"
         stdDeviation="0.063646035"
         id="feGaussianBlur6714" />
    </filter>
    <radialGradient
       inkscape:collect="always"
       xlink:href="#linearGradient6869"
       id="radialGradient6871"
       cx="33.781776"
       cy="33.994724"
       fx="33.781776"
       fy="33.994724"
       r="29.624146"
       gradientTransform="matrix(-0.93784554,-0.00712081,0.00730453,-0.96204268,65.215565,66.97703)"
       gradientUnits="userSpaceOnUse" />
  </defs>
  <sodipodi:namedview
     id="base"
     pagecolor="#000000"
     bordercolor="#666666"
     borderopacity="1.0"
     inkscape:pageopacity="0"
     inkscape:pageshadow="2"
     inkscape:zoom="2.8284271"
     inkscape:cx="28.284271"
     inkscape:cy="112.07643"
     inkscape:document-units="mm"
     inkscape:current-layer="layer4"
     inkscape:document-rotation="0"
     showgrid="true"
     inkscape:window-width="2560"
     inkscape:window-height="1343"
     inkscape:window-x="1200"
     inkscape:window-y="146"
     inkscape:window-maximized="1"
     inkscape:snap-grids="false"
     units="px"
     inkscape:pagecheckerboard="false">
    <inkscape:grid
       type="xygrid"
       id="grid876"
       empcolor="#ffffff"
       empopacity="0.61176471"
       color="#ffffff"
       opacity="0.1254902"
       empspacing="4"
       units="px"
       spacingx="2.1166666"
       spacingy="2.1166666" />
  </sodipodi:namedview>
  <metadata
     id="metadata5">
    <rdf:RDF>
      <cc:Work
         rdf:about="">
        <dc:format>image/svg+xml</dc:format>
        <dc:type
           rdf:resource="http://purl.org/dc/dcmitype/StillImage" />
      </cc:Work>
    </rdf:RDF>
  </metadata>
  <g
     inkscape:groupmode="layer"
     id="layer2"
     inkscape:label="Background"
     style="display:inline;mix-blend-mode:normal;filter:url(#filter3888)" />
  <g
     inkscape:groupmode="layer"
     id="layer3"
     inkscape:label="Foreground"
     style="display:inline" />
  <g
     inkscape:groupmode="layer"
     id="layer1"
     inkscape:label="Surface"
     style="display:inline" />
  <g
     inkscape:groupmode="layer"
     id="layer4"
     inkscape:label="Shadow"
     style="display:inline">
    <g
       id="g136"
       transform="matrix(0.48588401,0,0,0.48588401,16.759472,16.870375)">
      <path
         style="display:inline;mix-blend-mode:normal;fill:#ffffff;stroke:#ffffff;stroke-width:1.05833;stroke-linecap:butt;stroke-linejoin:miter;stroke-miterlimit:4;stroke-dasharray:none;stroke-opacity:1;filter:url(#filter3888)"
         d="m 6.3499997,29.633333 c 0.473282,-4.555497 1.178306,-9.704061 4.3091893,-13.046833 5.818545,-6.212326 15.159699,-9.5128098 23.671125,-9.5767441 8.74346,-0.065677 18.318728,3.2489631 24.461478,9.4714211 3.64947,3.696822 4.99394,9.428532 5.43925,14.60413 0.3474,4.037592 -0.58733,8.247842 -2.23481,11.950362 -2.84289,6.389081 -6.8442,12.904725 -12.73694,16.670087 -2.387364,1.525483 -5.514519,1.310188 -8.296694,1.845068 -2.784423,0.535312 -5.571356,1.608888 -8.396173,1.363975 C 26.152042,62.35867 19.404635,60.530359 14.318564,56.582515 11.480332,54.379459 9.5957477,50.971406 8.3694087,47.594261 6.3130477,41.931366 5.7274287,35.625778 6.3499997,29.633333 Z"
         id="path230-3"
         sodipodi:nodetypes="aaaaaaaaaaaa" />
      <path
         style="display:inline;fill:#4d4d4d;stroke:#000000;stroke-width:1.05833;stroke-linecap:butt;stroke-linejoin:miter;stroke-miterlimit:4;stroke-dasharray:none;stroke-opacity:1"
         d="M 6.3499997,29.633333 C 6.8232822,25.077836 7.5283058,19.929272 10.659189,16.5865 16.477734,10.374174 25.818888,7.0736902 34.330314,7.0097559 c 8.74346,-0.065677 18.318724,3.2489631 24.461478,9.4714211 3.649469,3.696822 4.993941,9.428532 5.43925,14.60413 0.347395,4.037592 -0.587332,8.247842 -2.234809,11.950362 -2.842892,6.389081 -6.844199,12.904725 -12.736943,16.670087 -2.387362,1.525483 -5.514517,1.310188 -8.296692,1.845068 -2.784423,0.535312 -5.571356,1.608888 -8.396173,1.363975 C 26.152042,62.35867 19.404635,60.530359 14.318564,56.582515 11.480332,54.379459 9.5957478,50.971406 8.3694088,47.594261 6.3130482,41.931366 5.727429,35.625778 6.3499997,29.633333 Z"
         id="path230"
         sodipodi:nodetypes="aaaaaaaaaaaa" />
      <path
         style="display:inline;mix-blend-mode:normal;fill:#000000;fill-opacity:0.124127;stroke:#1a1a1a;stroke-width:0.205245px;stroke-linecap:butt;stroke-linejoin:miter;stroke-opacity:1;filter:url(#filter6712)"
         d="m 59.534309,43.651526 c -1.619341,0.547651 -2.722818,2.530371 -3.278501,4.934195 -0.09342,0.404128 -0.394958,0.788081 -0.480582,1.193522 -0.06645,0.314637 0.282335,1.052698 0.356665,1.287495 0.0651,0.205631 0.107511,0.655071 0.280694,0.706727 0.200961,0.05994 0.462898,-0.253895 0.67103,-0.416354 1.354932,-1.057619 2.719853,-3.447665 3.071496,-5.748737 0.05889,-0.385331 -0.515929,-1.574826 -0.620802,-1.956848 z"
         id="path1528" />
      <path
         style="display:inline;mix-blend-mode:normal;fill:#000000;fill-opacity:0.124127;stroke:#1a1a1a;stroke-width:0.264583px;stroke-linecap:butt;stroke-linejoin:miter;stroke-opacity:1;filter:url(#filter6708)"
         d="m 7.0328622,36.055043 c -0.066521,-1.624431 1.757126,-7.07172 3.6833538,-7.171825 0.9319,-0.04843 1.817138,1.22687 1.683478,2.038694 -0.07185,0.436412 -0.606084,0.812549 -0.576247,1.237779 0.11994,1.709394 1.31851,2.314104 -0.04517,3.974235 -0.67955,0.827275 -4.93796,1.851541 -4.7454108,-0.07888 z"
         id="path1530" />
      <path
         style="display:inline;mix-blend-mode:normal;fill:#000000;fill-opacity:0.124127;stroke:#1a1a1a;stroke-width:0.264583px;stroke-linecap:butt;stroke-linejoin:miter;stroke-opacity:1;filter:url(#filter6704)"
         d="m 53.101334,32.612181 c -0.72358,2.893552 3.177995,2.643647 3.683355,0.418655 0.135509,-0.596619 -0.293738,-0.610693 -0.57625,-1.013275 -0.169891,-0.242104 -0.11164,-0.555262 -0.361524,-0.734173 -0.774398,-0.554451 -2.210403,0.818864 -2.745581,1.328793 z"
         id="path1532" />
      <path
         style="display:inline;mix-blend-mode:normal;fill:#000000;fill-opacity:0.124127;stroke:#1a1a1a;stroke-width:0.264583px;stroke-linecap:butt;stroke-linejoin:miter;stroke-opacity:1;filter:url(#filter6700)"
         d="m 27.444369,36.903242 c -2.575171,0.783817 -3.052739,2.853454 -0.440637,3.695134 0.733062,0.236209 1.282512,0.730779 2.135441,0.485404 1.719263,-0.494604 1.231496,-3.258939 0.0565,-4.022778 -0.463642,-0.301405 -1.220901,-0.04555 -1.751306,-0.15776 z"
         id="path1534" />
      <path
         style="display:inline;mix-blend-mode:normal;fill:#000000;fill-opacity:0.124127;stroke:#1a1a1a;stroke-width:0.264583px;stroke-linecap:butt;stroke-linejoin:miter;stroke-opacity:1;filter:url(#filter6696)"
         d="m 46.6345,22.160387 c -1.172813,3.25478 -0.269076,2.583648 1.51402,4.223009 0.436274,0.401105 0.629732,1.298865 1.288015,1.383399 0.458243,0.05885 0.873744,-0.342751 1.288063,-0.497543 2.326169,-0.869067 1.169236,-0.890899 1.231562,-2.596905 0.02807,-0.768372 0.07751,-1.349547 -0.350245,-2.03262 -1.022935,-1.633515 -4.392832,-0.259998 -4.971415,-0.47934 z"
         id="path1538" />
      <path
         style="display:inline;mix-blend-mode:normal;fill:#000000;fill-opacity:0.124127;stroke:#1a1a1a;stroke-width:0.264583px;stroke-linecap:butt;stroke-linejoin:miter;stroke-opacity:1;filter:url(#filter6692)"
         d="m 15.41031,14.398178 c 0.751021,-0.6149 0.86403,-1.667378 1.457519,-2.384541 0.623147,-0.753002 3.449203,-1.859363 3.705964,-0.394389 0.129399,0.738301 -1.07598,2.32775 -1.536631,3.07624 -1.213146,1.971191 -4.788374,1.94834 -3.626852,-0.29731 z"
         id="path1540"
         transform="rotate(21.678134,19.681593,13.438116)" />
      <path
         style="display:inline;mix-blend-mode:normal;fill:#000000;fill-opacity:0.124127;stroke:#1a1a1a;stroke-width:0.264583px;stroke-linecap:butt;stroke-linejoin:miter;stroke-opacity:1;filter:url(#filter6688)"
         d="m 16.794862,54.445749 c -1.712172,-0.279213 -2.345112,-1.084363 -2.655188,-2.748595 -0.449405,-2.412034 3.440902,-2.133185 4.598562,-1.23171 0.310629,0.241888 0.53258,0.833814 0.734378,1.158902 1.035408,1.667994 -1.366815,4.132384 -2.677752,2.821403 z"
         id="path1544" />
      <path
         style="display:inline;mix-blend-mode:normal;fill:#000000;fill-opacity:0.124127;stroke:#1a1a1a;stroke-width:0.382106px;stroke-linecap:butt;stroke-linejoin:miter;stroke-opacity:1;filter:url(#filter6684)"
         d="m 38.050589,57.525093 c 1.160496,-0.961779 2.687331,-1.701769 3.413065,-3.064132 0.356587,-0.669378 -0.320107,-0.861834 -0.411915,-1.396018 -0.08987,-0.522922 0.450696,-1.216831 0.169155,-1.717715 -1.375841,-2.447701 -6.001676,-1.317638 -7.432759,0.219579 -0.632277,0.679175 -0.566391,1.382062 -0.94915,2.162854 -2.200367,4.488501 1.748066,6.346846 5.211604,3.795432 z"
         id="path1548" />
      <path
         style="display:inline;mix-blend-mode:normal;fill:#000000;fill-opacity:0.124127;stroke:#1a1a1a;stroke-width:0.264583px;stroke-linecap:butt;stroke-linejoin:miter;stroke-opacity:1;filter:url(#filter6680)"
         d="m 36.417727,12.762897 c -4.700754,0.923007 -2.935708,7.348498 1.536586,6.067535 0.670843,-0.192144 1.079846,-0.970868 1.434954,-1.504748 2.148946,-3.230801 0.05876,-4.382007 -2.97154,-4.562787 z"
         id="path1550" />
      <path
         style="display:inline;mix-blend-mode:normal;fill:#000000;fill-opacity:0.124127;stroke:#1a1a1a;stroke-width:0.264583px;stroke-linecap:butt;stroke-linejoin:miter;stroke-opacity:1;filter:url(#filter6676)"
         d="m 19.981079,25.200224 c -0.61679,0.409235 -0.840295,1.198121 -0.745706,1.917345 0.08218,0.624861 0.01576,1.945402 0.395417,2.47555 1.443462,2.015643 4.656492,-2.976139 4.81324,-4.210871 0.193065,-1.520814 -3.476388,-1.517152 -4.462951,-0.182024 z"
         id="path1552" />
      <path
         style="display:inline;mix-blend-mode:normal;fill:#000000;fill-opacity:0.124127;stroke:#1a1a1a;stroke-width:0.264583px;stroke-linecap:butt;stroke-linejoin:miter;stroke-opacity:1;filter:url(#filter6672)"
         d="m 43.832465,46.685371 c -0.532712,0.76194 -0.975342,1.578483 -1.378456,2.414876 -1.023604,2.123808 1.398387,4.030041 3.152325,2.433077 0.637646,-0.580575 1.728751,-1.995324 1.626976,-2.942752 -0.135869,-1.264867 -2.252342,-2.275281 -3.400845,-1.905201 z"
         id="path1554" />
      <path
         style="display:inline;mix-blend-mode:normal;fill:#000000;fill-opacity:0.124127;stroke:#1a1a1a;stroke-width:0.264583px;stroke-linecap:butt;stroke-linejoin:miter;stroke-opacity:1;filter:url(#filter6668)"
         d="m 46.526738,9.019959 c 1.085424,0.577676 2.073203,1.541699 3.367003,1.607896 1.980176,0.101315 3.526226,3.187237 0.700532,3.537373 -0.425977,0.05278 -0.878486,-0.176384 -1.276779,-0.303373 -0.547206,-0.174467 -1.2554,0.03052 -1.773872,-0.230567 -1.62152,-0.816549 -2.8823,-3.546875 -1.016884,-4.611329 z"
         id="path1556"
         transform="matrix(1.0568695,0,0,0.69744177,-3.1239836,2.6794407)" />
      <path
         style="display:inline;mix-blend-mode:normal;fill:#000000;fill-opacity:0.124127;stroke:#000000;stroke-width:0.264583px;stroke-linecap:butt;stroke-linejoin:miter;stroke-opacity:1;filter:url(#filter6664)"
         d="m 40.159455,36.281272 c -0.749196,-0.558802 -1.039169,-1.485749 -1.285914,-2.33952 -0.97776,-3.383179 5.282977,-4.300738 6.701414,-2.027518 2.440604,3.911365 -2.69676,6.130581 -5.4155,4.367038 z"
         id="path5615" />
      <path
         style="display:inline;mix-blend-mode:normal;fill:#000000;fill-opacity:0.124127;stroke:#000000;stroke-width:0.264583px;stroke-linecap:butt;stroke-linejoin:miter;stroke-opacity:1;filter:url(#filter6660)"
         d="m 27.054717,47.881299 c 0.345517,4.772361 3.333544,-1.404835 0,0 z"
         id="path5617" />
      <path
         style="display:inline;mix-blend-mode:normal;fill:#000000;fill-opacity:0.124127;stroke:#000000;stroke-width:0.264583px;stroke-linecap:butt;stroke-linejoin:miter;stroke-opacity:1;filter:url(#filter6656)"
         d="m 33.86306,29.72209 c -0.467675,0.255127 -1.050737,0.560835 -1.382257,0.99886 -1.017794,1.344777 1.47815,1.141757 2.006168,0.877748 0.463235,-0.231617 0.568966,-3.051522 -0.623911,-1.876608 z"
         id="path5619" />
      <path
         style="display:inline;mix-blend-mode:normal;fill:#000000;fill-opacity:0.124127;stroke:#000000;stroke-width:0.264583px;stroke-linecap:butt;stroke-linejoin:miter;stroke-opacity:1;filter:url(#filter6652)"
         d="m 59.407012,25.505247 c -1.826848,3.550895 2.431661,2.060732 1.148042,0.456212 -0.291472,-0.364341 -0.617376,-0.556213 -1.148042,-0.456212 z"
         id="path5621" />
      <path
         style="display:inline;mix-blend-mode:normal;fill:#000000;fill-opacity:0.124127;stroke:#000000;stroke-width:0.131019px;stroke-linecap:butt;stroke-linejoin:miter;stroke-opacity:1;filter:url(#filter6648)"
         d="m 18.22531,42.353568 c -1.663198,-0.573456 -0.130201,-2.740809 1.084994,-1.838789 0.862519,0.640233 -0.225073,2.177816 -1.084994,1.838789 z"
         id="path5627" />
      <path
         style="display:inline;mix-blend-mode:normal;fill:#000000;fill-opacity:0.124127;stroke:#000000;stroke-width:0.131019px;stroke-linecap:butt;stroke-linejoin:miter;stroke-opacity:1;filter:url(#filter6644)"
         d="m 41.853334,41.929205 c -1.663198,-0.573456 -0.130201,-2.740809 1.084994,-1.838789 0.862519,0.640233 -0.225073,2.177816 -1.084994,1.838789 z"
         id="path5627-6" />
      <path
         style="display:inline;mix-blend-mode:normal;fill:#000000;fill-opacity:0.124127;stroke:#000000;stroke-width:0.131019px;stroke-linecap:butt;stroke-linejoin:miter;stroke-opacity:1;filter:url(#filter6640)"
         d="m 41.853334,24.810591 c -1.663198,-0.573456 -0.130201,-2.740809 1.084994,-1.838789 0.862519,0.640233 -0.225073,2.177816 -1.084994,1.838789 z"
         id="path5627-7" />
      <path
         style="display:inline;mix-blend-mode:normal;fill:#000000;fill-opacity:0.124127;stroke:#000000;stroke-width:0.131019px;stroke-linecap:butt;stroke-linejoin:miter;stroke-opacity:1;filter:url(#filter6636)"
         d="m 29.87966,27.663693 c -1.663198,-0.573456 -0.130201,-2.740809 1.084994,-1.838789 0.862519,0.640233 -0.225073,2.177816 -1.084994,1.838789 z"
         id="path5627-5" />
      <path
         style="display:inline;mix-blend-mode:normal;fill:#000000;fill-opacity:0.124127;stroke:#000000;stroke-width:0.158552px;stroke-linecap:butt;stroke-linejoin:miter;stroke-opacity:1;filter:url(#filter6632)"
         d="m 24.766625,15.203392 c -1.920033,-0.208646 -1.720106,2.223836 0.02175,1.914654 0.990717,-0.175853 0.612042,-1.714754 -0.02175,-1.914654 z"
         id="path5631" />
      <path
         style="display:inline;fill:url(#radialGradient6871);fill-opacity:1;stroke:#000000;stroke-width:1.05833;stroke-linecap:butt;stroke-linejoin:miter;stroke-miterlimit:4;stroke-dasharray:none;stroke-opacity:1"
         d="m 6.3499997,29.633333 c 0.473282,-4.555497 1.178306,-9.704061 4.3091893,-13.046833 5.818545,-6.212326 15.159699,-9.5128101 23.671125,-9.5767444 8.74346,-0.065677 18.318724,3.2489634 24.461478,9.4714214 3.649469,3.696822 4.993941,9.428532 5.43925,14.60413 0.347395,4.037592 -0.587332,8.247842 -2.234809,11.950362 -2.842892,6.389081 -6.844199,12.904725 -12.736943,16.670087 -2.387362,1.525483 -5.514517,1.310188 -8.296692,1.845068 -2.784423,0.535312 -5.571356,1.608888 -8.396173,1.363975 C 26.152042,62.35867 19.404635,60.530359 14.318564,56.582515 11.480332,54.379459 9.5957477,50.971406 8.3694087,47.594261 6.3130477,41.931366 5.7274287,35.625778 6.3499997,29.633333 Z"
         id="path230-35"
         sodipodi:nodetypes="aaaaaaaaaaaa" />
    </g>
  </g>
</svg>
