<?xml version="1.0" encoding="UTF-8" standalone="no"?>
<svg
   xmlns:dc="http://purl.org/dc/elements/1.1/"
   xmlns:cc="http://creativecommons.org/ns#"
   xmlns:rdf="http://www.w3.org/1999/02/22-rdf-syntax-ns#"
   xmlns:svg="http://www.w3.org/2000/svg"
   xmlns="http://www.w3.org/2000/svg"
   xmlns:sodipodi="http://sodipodi.sourceforge.net/DTD/sodipodi-0.dtd"
   xmlns:inkscape="http://www.inkscape.org/namespaces/inkscape"
   width="256"
   height="256"
   viewBox="0 0 67.733332 67.733335"
   version="1.1"
   id="svg8"
   inkscape:version="1.0.2 (e86c870879, 2021-01-15)"
   sodipodi:docname="fission_reactor_1.svg">
  <defs
     id="defs2" />
  <sodipodi:namedview
     id="base"
     pagecolor="#ffffff"
     bordercolor="#666666"
     borderopacity="1.0"
     inkscape:pageopacity="0"
     inkscape:pageshadow="2"
     inkscape:zoom="1.979899"
     inkscape:cx="38.467868"
     inkscape:cy="126.86477"
     inkscape:document-units="px"
     inkscape:current-layer="layer1"
     inkscape:document-rotation="0"
     showgrid="true"
     units="px"
     inkscape:window-width="2560"
     inkscape:window-height="1357"
     inkscape:window-x="1200"
     inkscape:window-y="240"
     inkscape:window-maximized="1"
     inkscape:snap-grids="true">
    <inkscape:grid
       type="xygrid"
       id="grid833"
       units="px"
       empspacing="4"
       spacingy="4.2333333"
       spacingx="4.2333333" />
  </sodipodi:namedview>
  <metadata
     id="metadata5">
    <rdf:RDF>
      <cc:Work
         rdf:about="">
        <dc:format>image/svg+xml</dc:format>
        <dc:type
           rdf:resource="http://purl.org/dc/dcmitype/StillImage" />
        <dc:title></dc:title>
      </cc:Work>
    </rdf:RDF>
  </metadata>
  <g
     inkscape:label="Desk"
     inkscape:groupmode="layer"
     id="layer1">
    <circle
       style="fill:#b3b3b3;stroke:#999999;stroke-width:0.52916667;stroke-linecap:round;stroke-linejoin:round;stroke-miterlimit:4;stroke-dasharray:none;stroke-opacity:0.999607;stop-color:#000000"
       id="path899"
       cx="33.866665"
       cy="33.866665"
       r="29.633333" />
    <circle
       style="fill:none;stroke:#2a7fff;stroke-width:1.05833334;stroke-linecap:round;stroke-linejoin:round;stroke-miterlimit:4;stroke-dasharray:none;stroke-opacity:0.999607;stop-color:#000000"
       id="path1025"
       cx="33.866665"
       cy="33.866665"
       r="25.4" />
    <circle
       style="fill:none;stroke:#ffff00;stroke-width:1.05833;stroke-linecap:round;stroke-linejoin:round;stroke-miterlimit:4;stroke-dasharray:3.17499, 3.17499;stroke-dashoffset:0;stroke-opacity:0.999607;stop-color:#000000"
       id="path1027"
       cx="33.857574"
       cy="33.866528"
       r="29.633333" />
    <circle
       style="fill:none;stroke:#ff0000;stroke-width:1.05833006;stroke-linecap:butt;stroke-linejoin:round;stroke-miterlimit:4;stroke-dasharray:3.17499017, 3.17499017000000006;stroke-dashoffset:0;stroke-opacity:0.999607;stop-color:#000000"
       id="path1027-3"
       cx="30.250132"
       cy="37.125076"
       r="29.633333"
       transform="rotate(-5.8179506)" />
    <path
       style="fill:none;stroke:#808080;stroke-width:2.11666667;stroke-linecap:round;stroke-linejoin:miter;stroke-opacity:1;stroke-miterlimit:4;stroke-dasharray:none"
       d="M 12.7,12.7 55.033333,55.033333"
       id="path893" />
    <path
       style="fill:none;stroke:#808080;stroke-width:2.11666667;stroke-linecap:round;stroke-linejoin:miter;stroke-opacity:1;stroke-miterlimit:4;stroke-dasharray:none"
       d="M 55.033333,12.7 12.7,55.033333"
       id="path895" />
    <circle
       style="fill:#808080;stroke-width:0.264583;stroke-linejoin:round;stroke-opacity:0.999607;stop-color:#000000;stroke:#000000"
       id="path891"
       cx="33.866665"
       cy="33.866665"
       r="16.933332" />
    <g
       id="g1023"
       transform="matrix(0.15051929,0,0,0.15051929,37.052658,30.680675)"
       style="stroke-width:6.64367">
      <path
         style="fill:#4d4d4d;stroke-width:1.7578"
         d="m -21.166667,17.346879 c 2.108465,0 3.81979,1.71106 3.81979,3.819789 0,2.108465 -1.71106,3.81979 -3.81979,3.81979 -2.111904,0 -3.819789,-1.71106 -3.819789,-3.81979 0,-2.108464 1.707885,-3.819789 3.819789,-3.819789 z"
         id="path2" />
      <path
         style="fill:#666666;stroke-width:1.7578"
         d="m -21.166667,-44.103393 c 36.045775,0 65.270062,29.220847 65.270062,65.270061 0,36.049215 -29.224287,65.270062 -65.270062,65.270062 -36.049214,0 -65.270061,-29.220847 -65.270061,-65.270062 0,-36.049214 29.220847,-65.270061 65.270061,-65.270061 z m 56.067325,65.270061 c 0,-30.9649804 -25.1023437,-56.067324 -56.067325,-56.067324 -30.96498,0 -56.067324,25.1023436 -56.067324,56.067324 0,30.964981 25.102344,56.067325 56.067324,56.067325 30.9649813,0 56.067325,-25.102344 56.067325,-56.067325 z"
         id="path4" />
      <g
         id="g12"
         transform="matrix(0.26458333,0,0,0.26458333,-88.899999,-46.566664)"
         style="stroke-width:6.64367">
        <path
           style="fill:#4d4d4d;stroke-width:6.64367"
           d="m 283.21,305.628 59.559,105.526 C 317.148,425.653 287.53,433.92 256,433.92 c -32.163,0 -62.302,-8.59 -88.284,-23.623 l 60.589,-104.942 c 8.143,4.717 17.602,7.423 27.694,7.423 9.882,10e-4 19.167,-2.594 27.211,-7.15 z"
           id="path6" />
        <path
           style="fill:#4d4d4d;stroke-width:6.64367"
           d="M 432.505,257.403 H 311.363 c 0,-20.296 -10.911,-38.034 -27.222,-47.667 L 345.748,105.39 c 51.938,30.722 86.757,87.302 86.757,152.013 z"
           id="path8" />
        <path
           style="fill:#4d4d4d;stroke-width:6.64367"
           d="m 166.239,105.389 61.607,104.346 c -16.299,9.633 -27.222,27.371 -27.222,47.667 H 79.483 c 0,-64.71 34.831,-121.29 86.756,-152.013 z"
           id="path10" />
      </g>
      <path
         style="fill:#fcbb29;stroke-width:1.7578"
         d="m -21.166667,-34.900656 c 30.9649813,0 56.067325,25.1023436 56.067325,56.067324 0,30.964981 -25.1023437,56.067325 -56.067325,56.067325 -30.96498,0 -56.067324,-25.102344 -56.067324,-56.067325 0,-30.9649804 25.102344,-56.067324 56.067324,-56.067324 z M -6.5185396,21.537879 H 25.533614 c 0,-17.121452 -9.212527,-32.091577 -22.9544558,-40.22037 L -13.721027,8.9257207 c 4.3156187,2.5487313 7.2024874,7.2421753 7.2024874,12.6121583 z M 1.7909644,62.21783 -13.967354,34.29741 c -2.128308,1.205442 -4.584965,1.891771 -7.199313,1.891771 -2.670174,0 -5.172868,-0.715963 -7.32737,-1.964002 l -16.03084,27.765904 c 6.87414,3.977481 14.848417,6.250252 23.35821,6.250252 8.342313,0 16.1787419,-2.187311 22.9576314,-6.023505 z M -17.346877,21.166668 c 0,-2.108464 -1.71106,-3.819789 -3.81979,-3.819789 -2.111904,0 -3.819789,1.71106 -3.819789,3.819789 0,2.108465 1.707885,3.81979 3.819789,3.81979 2.108465,0 3.81979,-1.711325 3.81979,-3.81979 z M -28.615481,8.9259853 -44.915666,-18.682227 c -13.73849,8.128794 -22.954456,23.0989186 -22.954456,40.22037 h 32.052154 c -2.65e-4,-5.370247 2.890043,-10.063691 7.202487,-12.6121577 z"
         id="path14" />
      <g
         id="g28"
         transform="matrix(0.26458333,0,0,0.26458333,-88.899999,-46.566664)"
         style="stroke-width:6.64367">
        <path
           style="fill:#333333;stroke-width:6.64367"
           d="M 200.624,266.713 H 79.483 c -5.142,0 -9.31,-4.168 -9.31,-9.31 0,-32.877 8.704,-65.187 25.173,-93.44 15.975,-27.406 38.85,-50.43 66.153,-66.585 2.128,-1.259 4.669,-1.619 7.059,-1.004 2.393,0.614 4.443,2.156 5.699,4.284 l 61.607,104.346 c 2.613,4.425 1.145,10.133 -3.281,12.748 -13.97,8.257 -22.649,23.451 -22.649,39.652 0,5.14 -4.168,9.309 -9.31,9.309 z M 89.051,248.093 h 102.946 c 2.368,-16.085 10.787,-30.825 23.448,-41.052 l -52.351,-88.67 c -21.103,14.134 -38.848,32.985 -51.661,54.967 -13.256,22.74 -20.918,48.407 -22.382,74.755 z"
           id="path16" />
        <path
           style="fill:#333333;stroke-width:6.64367"
           d="M 432.505,266.713 H 311.363 c -5.143,0 -9.31,-4.168 -9.31,-9.31 0,-16.208 -8.677,-31.401 -22.647,-39.651 -4.425,-2.614 -5.896,-8.323 -3.282,-12.75 l 61.607,-104.346 c 1.256,-2.128 3.306,-3.668 5.699,-4.284 2.392,-0.614 4.932,-0.254 7.058,1.004 27.307,16.153 50.185,39.179 66.159,66.586 16.466,28.25 25.168,60.561 25.168,93.44 0,5.142 -4.167,9.311 -9.31,9.311 z M 319.991,248.093 H 422.938 C 421.473,221.743 413.812,196.076 400.56,173.339 387.748,151.356 370,132.504 348.896,118.37 l -52.351,88.668 c 12.66,10.225 21.078,24.965 23.446,41.055 z"
           id="path18" />
        <path
           style="fill:#333333;stroke-width:6.64367"
           d="m 256,443.23 c -32.682,0 -64.821,-8.601 -92.946,-24.875 -4.448,-2.573 -5.97,-8.264 -3.4,-12.714 l 60.589,-104.942 c 1.236,-2.14 3.272,-3.702 5.659,-4.34 2.388,-0.639 4.931,-0.3 7.069,0.938 6.968,4.036 14.931,6.169 23.028,6.169 7.937,0 15.759,-2.054 22.622,-5.941 2.152,-1.218 4.703,-1.531 7.078,-0.87 2.382,0.662 4.403,2.242 5.617,4.394 l 59.559,105.526 c 2.525,4.474 0.95,10.149 -3.523,12.679 C 319.639,434.941 288.049,443.23 256,443.23 Z m -75.438,-36.56 c 23.263,11.762 49.153,17.941 75.438,17.941 25.715,0 51.096,-5.926 73.961,-17.209 l -50.612,-89.673 c -7.411,2.867 -15.34,4.36 -23.349,4.36 -8.231,0 -16.369,-1.573 -23.952,-4.594 z"
           id="path20" />
        <path
           style="fill:#333333;stroke-width:6.64367"
           d="M 256,512 C 114.841,512 0,397.159 0,256 0,114.841 114.841,0 256,0 397.159,0 512,114.841 512,256 512,397.159 397.159,512 256,512 Z M 256,18.62 C 125.108,18.62 18.62,125.108 18.62,256 18.62,386.892 125.108,493.38 256,493.38 386.892,493.38 493.38,386.892 493.38,256 493.38,125.108 386.892,18.62 256,18.62 Z"
           id="path22" />
        <path
           style="fill:#333333;stroke-width:6.64367"
           d="M 256,477.218 C 134.02,477.218 34.782,377.98 34.782,256 34.782,134.02 134.02,34.782 256,34.782 377.981,34.782 477.218,134.02 477.218,256 477.218,377.98 377.981,477.218 256,477.218 Z M 256,53.402 C 144.288,53.402 53.402,144.288 53.402,256 53.402,367.712 144.288,458.598 256,458.598 367.712,458.598 458.598,367.712 458.598,256 458.598,144.288 367.712,53.402 256,53.402 Z"
           id="path24" />
        <path
           style="fill:#333333;stroke-width:6.64367"
           d="m 256,279.747 c -13.094,0 -23.747,-10.653 -23.747,-23.747 0,-13.094 10.653,-23.747 23.747,-23.747 13.094,0 23.747,10.653 23.747,23.747 0,13.094 -10.653,23.747 -23.747,23.747 z m 0,-28.874 c -2.827,0 -5.127,2.3 -5.127,5.127 0,2.827 2.3,5.127 5.127,5.127 2.827,0 5.127,-2.3 5.127,-5.127 0,-2.827 -2.3,-5.127 -5.127,-5.127 z"
           id="path26" />
      </g>
      <g
         id="g30"
         transform="matrix(0.26458333,0,0,0.26458333,-88.899999,-46.566664)"
         style="stroke-width:6.64367" />
      <g
         id="g32"
         transform="matrix(0.26458333,0,0,0.26458333,-88.899999,-46.566664)"
         style="stroke-width:6.64367" />
      <g
         id="g34"
         transform="matrix(0.26458333,0,0,0.26458333,-88.899999,-46.566664)"
         style="stroke-width:6.64367" />
      <g
         id="g36"
         transform="matrix(0.26458333,0,0,0.26458333,-88.899999,-46.566664)"
         style="stroke-width:6.64367" />
      <g
         id="g38"
         transform="matrix(0.26458333,0,0,0.26458333,-88.899999,-46.566664)"
         style="stroke-width:6.64367" />
      <g
         id="g40"
         transform="matrix(0.26458333,0,0,0.26458333,-88.899999,-46.566664)"
         style="stroke-width:6.64367" />
      <g
         id="g42"
         transform="matrix(0.26458333,0,0,0.26458333,-88.899999,-46.566664)"
         style="stroke-width:6.64367" />
      <g
         id="g44"
         transform="matrix(0.26458333,0,0,0.26458333,-88.899999,-46.566664)"
         style="stroke-width:6.64367" />
      <g
         id="g46"
         transform="matrix(0.26458333,0,0,0.26458333,-88.899999,-46.566664)"
         style="stroke-width:6.64367" />
      <g
         id="g48"
         transform="matrix(0.26458333,0,0,0.26458333,-88.899999,-46.566664)"
         style="stroke-width:6.64367" />
      <g
         id="g50"
         transform="matrix(0.26458333,0,0,0.26458333,-88.899999,-46.566664)"
         style="stroke-width:6.64367" />
      <g
         id="g52"
         transform="matrix(0.26458333,0,0,0.26458333,-88.899999,-46.566664)"
         style="stroke-width:6.64367" />
      <g
         id="g54"
         transform="matrix(0.26458333,0,0,0.26458333,-88.899999,-46.566664)"
         style="stroke-width:6.64367" />
      <g
         id="g56"
         transform="matrix(0.26458333,0,0,0.26458333,-88.899999,-46.566664)"
         style="stroke-width:6.64367" />
      <g
         id="g58"
         transform="matrix(0.26458333,0,0,0.26458333,-88.899999,-46.566664)"
         style="stroke-width:6.64367" />
    </g>
  </g>
  <g
     inkscape:groupmode="layer"
     id="layer2"
     inkscape:label="Display" />
</svg>
