<?xml version="1.0" encoding="UTF-8" standalone="no"?>
<svg
   width="512"
   height="512"
   viewBox="0 0 135.46666 135.46667"
   version="1.1"
   id="svg8"
   sodipodi:docname="advanced_manufactured_goods.svg"
   inkscape:version="1.1.2 (0a00cf5339, 2022-02-04)"
   xmlns:inkscape="http://www.inkscape.org/namespaces/inkscape"
   xmlns:sodipodi="http://sodipodi.sourceforge.net/DTD/sodipodi-0.dtd"
   xmlns="http://www.w3.org/2000/svg"
   xmlns:svg="http://www.w3.org/2000/svg"
   xmlns:rdf="http://www.w3.org/1999/02/22-rdf-syntax-ns#"
   xmlns:cc="http://creativecommons.org/ns#"
   xmlns:dc="http://purl.org/dc/elements/1.1/">
  <defs
     id="defs2">
    <marker
       style="overflow:visible;"
       id="Arrow1Mend"
       refX="0.0"
       refY="0.0"
       orient="auto"
       inkscape:stockid="Arrow1Mend"
       inkscape:isstock="true">
      <path
         transform="scale(0.4) rotate(180) translate(10,0)"
         style="fill-rule:evenodd;stroke:#ffffff;stroke-width:1pt;stroke-opacity:1;fill:#ffffff;fill-opacity:1"
         d="M 0.0,0.0 L 5.0,-5.0 L -12.5,0.0 L 5.0,5.0 L 0.0,0.0 z "
         id="path868" />
    </marker>
    <marker
       style="overflow:visible;"
       id="marker1227"
       refX="0.0"
       refY="0.0"
       orient="auto"
       inkscape:stockid="Arrow1Lend"
       inkscape:isstock="true">
      <path
         transform="scale(0.8) rotate(180) translate(12.5,0)"
         style="fill-rule:evenodd;stroke:#ffffff;stroke-width:1pt;stroke-opacity:1;fill:#ffffff;fill-opacity:1"
         d="M 0.0,0.0 L 5.0,-5.0 L -12.5,0.0 L 5.0,5.0 L 0.0,0.0 z "
         id="path1225" />
    </marker>
    <marker
       style="overflow:visible;"
       id="Arrow1Lend"
       refX="0.0"
       refY="0.0"
       orient="auto"
       inkscape:stockid="Arrow1Lend"
       inkscape:isstock="true">
      <path
         transform="scale(0.8) rotate(180) translate(12.5,0)"
         style="fill-rule:evenodd;stroke:#ffffff;stroke-width:1pt;stroke-opacity:1;fill:#ffffff;fill-opacity:1"
         d="M 0.0,0.0 L 5.0,-5.0 L -12.5,0.0 L 5.0,5.0 L 0.0,0.0 z "
         id="path862" />
    </marker>
  </defs>
  <sodipodi:namedview
     id="base"
     pagecolor="#ffffff"
     bordercolor="#666666"
     borderopacity="1.0"
     inkscape:pageopacity="0"
     inkscape:pageshadow="2"
     inkscape:zoom="0.98994949"
     inkscape:cx="522.75394"
     inkscape:cy="227.7894"
     inkscape:document-units="mm"
     inkscape:current-layer="layer1"
     inkscape:document-rotation="0"
     showgrid="true"
     inkscape:window-width="2560"
     inkscape:window-height="1343"
     inkscape:window-x="1200"
     inkscape:window-y="240"
     inkscape:window-maximized="1"
     inkscape:snap-grids="false"
     units="px"
     inkscape:pagecheckerboard="false"
     inkscape:snap-smooth-nodes="true"
     inkscape:snap-object-midpoints="true">
    <inkscape:grid
       type="xygrid"
       id="grid876"
       empcolor="#000000"
       empopacity="0.39607843"
       color="#757575"
       opacity="0.28627451"
       empspacing="4"
       units="px"
       spacingx="2.1166666"
       spacingy="2.1166666" />
  </sodipodi:namedview>
  <metadata
     id="metadata5">
    <rdf:RDF>
      <cc:Work
         rdf:about="">
        <dc:format>image/svg+xml</dc:format>
        <dc:type
           rdf:resource="http://purl.org/dc/dcmitype/StillImage" />
      </cc:Work>
    </rdf:RDF>
  </metadata>
  <g
     inkscape:groupmode="layer"
     id="layer2"
     inkscape:label="Background"
     sodipodi:insensitive="true">
    <rect
       style="opacity:0.997213;fill:#000080;fill-opacity:1;stroke:#b3b3b3;stroke-width:2.11667;stroke-miterlimit:4;stroke-dasharray:none;stroke-opacity:0.999964;stop-color:#000000"
       id="rect957"
       width="118.53333"
       height="118.53333"
       x="8.4666662"
       y="8.4666662"
       rx="8.46667"
       ry="8.4666662" />
    <rect
       style="opacity:0.997213;fill:#000080;fill-opacity:1;stroke:#b3b3b3;stroke-width:2.11667;stroke-miterlimit:4;stroke-dasharray:none;stroke-opacity:0.999964;stop-color:#000000"
       id="rect1598"
       width="110.06667"
       height="110.06667"
       x="12.7"
       y="12.7"
       rx="2.1166666"
       ry="2.1166666" />
    <rect
       style="opacity:0.997213;fill:#000080;fill-opacity:1;stroke:#b3b3b3;stroke-width:2.11667;stroke-miterlimit:4;stroke-dasharray:none;stroke-opacity:0.999964;stop-color:#000000"
       id="rect1295"
       width="16.933332"
       height="16.933332"
       x="4.2333336"
       y="4.2333336"
       rx="2.1166663"
       ry="2.1166666" />
    <rect
       style="opacity:0.997213;fill:#000080;fill-opacity:1;stroke:#b3b3b3;stroke-width:2.11667;stroke-miterlimit:4;stroke-dasharray:none;stroke-opacity:0.999964;stop-color:#000000"
       id="rect1295-0"
       width="16.933332"
       height="16.933332"
       x="114.3"
       y="4.2333336"
       rx="2.1166663"
       ry="2.1166666" />
    <rect
       style="opacity:0.997213;fill:#000080;fill-opacity:1;stroke:#b3b3b3;stroke-width:2.11667;stroke-miterlimit:4;stroke-dasharray:none;stroke-opacity:0.999964;stop-color:#000000"
       id="rect1295-6"
       width="16.933332"
       height="16.933332"
       x="4.2333331"
       y="114.3"
       rx="2.1166663"
       ry="2.1166666" />
    <rect
       style="opacity:0.997213;fill:#000080;fill-opacity:1;stroke:#b3b3b3;stroke-width:2.11667;stroke-miterlimit:4;stroke-dasharray:none;stroke-opacity:0.999964;stop-color:#000000"
       id="rect1295-2"
       width="16.933332"
       height="16.933332"
       x="114.3"
       y="114.3"
       rx="2.1166663"
       ry="2.1166666" />
  </g>
  <g
     inkscape:label="Icon"
     inkscape:groupmode="layer"
     id="layer1">
    <g
       id="g289"
       transform="matrix(0.51616385,0,0,0.51616385,-88.57549,44.12029)"
       style="stroke-width:1.93737">
      <g
         id="g49"
         transform="matrix(0.42661142,0,0,0.42661142,196.91182,-54.213416)"
         style="stroke-width:1.93737">
	<path
   style="fill:#a5a5a5;stroke-width:1.93737"
   d="m 212.6,416.775 c -7.951,-5.872 -21.789,-0.623 -30.908,11.725 -9.119,12.348 -15.596,20.425 -7.646,26.298 7.951,5.872 32.288,0.066 41.409,-12.282 9.118,-12.348 5.095,-19.87 -2.855,-25.741 z"
   id="path45" />

	<path
   style="fill:#a5a5a5;stroke-width:1.93737"
   d="m 314.193,428.499 c -9.119,-12.348 -22.957,-17.597 -30.908,-11.725 -7.949,5.872 -11.974,13.394 -2.854,25.74 9.12,12.349 33.457,18.154 41.408,12.282 7.95,-5.871 1.474,-13.949 -7.646,-26.297 z"
   id="path47" />

</g>
      <path
         style="fill:#d6e2d3;stroke-width:0.826503"
         d="m 329.85034,94.33268 -2.86598,-33.683531 h -48.59957 l -2.94021,34.458684 c 0,0 -0.83999,33.659637 0.90314,34.682657 1.74271,1.02301 10.15847,0.99784 12.43743,-0.24829 2.27981,-1.24656 8.95628,-34.79656 8.95628,-34.79656 l 2.98628,-15.193339 c 0,0 0.44922,-4.462782 2.09551,-4.462782 1.64715,0 2.02129,4.388125 2.02129,4.388125 l 2.69533,14.820054 c 0,0 6.249,34.020552 8.64187,35.266262 2.39243,1.24528 12.09145,1.33657 13.58373,-0.25 1.49272,-1.58699 0.0849,-34.98128 0.0849,-34.98128 z"
         id="path51" />
      <g
         id="g57"
         transform="matrix(0.42661142,0,0,0.42661142,196.91182,-54.213416)"
         style="stroke-width:1.93737">
	<path
   style="fill:#818281;stroke-width:1.93737"
   d="m 342.529,292.218 -0.944,18.667 c 0,0 -0.333,2.741 -1.739,3.35 0,0 2.379,-0.153 2.79,-3.573 l 0.843,-18.865 z"
   id="path53" />

	<path
   style="fill:#818281;stroke-width:1.93737"
   d="m 338.49,289.381 -6.106,17.78 c 0,0 -0.814,2.867 -2.451,3.104 0,0 2.437,0.398 4.136,-2.637 l 6.162,-17.718 z"
   id="path55" />

</g>
      <path
         style="fill:#a5a5a5;stroke-width:0.826503"
         d="m 349.40322,73.836561 c 0,0 -0.94495,-4.14069 -1.15782,-4.96533 l -0.24915,-4.936747 c 0,0 -3.85699,-0.761928 -7.96654,-2.128365 0,0 -1.87325,2.772548 -2.36129,3.030648 -0.4889,0.258526 -1.49143,2.253361 -3.29387,4.4807 l 0.004,0.0017 c -1.03667,0.729932 -2.17657,1.714125 -1.94578,2.385185 0,0 0.43003,1.202617 2.03153,1.410803 0,0 0.50127,0.153581 1.00808,-0.262366 l 1.53921,-1.31311 1.10706,-1.688101 -1.94492,4.739653 -0.93471,1.652266 c -0.22226,0.499989 0.0649,0.865595 0.0649,0.865595 0.62072,0.883938 2.3374,1.045198 2.3374,1.045198 1.50039,-0.116465 3.06179,-6.35779 3.06179,-6.35779 0,0 0.27005,-0.711162 0.5691,-1.591688 l -0.0666,0.626266 -2.20345,7.516467 c -0.0738,0.473538 0.30162,0.861755 0.30162,0.861755 0.82976,0.789657 2.49823,0.6685 2.49823,0.6685 1.29562,-0.290096 1.14545,-4.379167 1.14545,-4.379167 0,0 0.10282,-3.235421 0.32764,-5.088194 l -0.0913,3.596334 -0.11519,4.178659 c 0.0444,0.566114 0.43557,0.842558 0.43557,0.842558 0.93641,0.715854 2.41718,0.388643 2.41718,0.388643 0.58147,-0.228237 0.76065,-1.168062 0.78411,-2.132631 0.0657,0.432584 0.52132,0.793071 0.52132,0.793071 1.00681,0.656128 2.20431,0.247435 2.20431,0.247435 1.20603,-0.603229 -0.0282,-4.487953 -0.0282,-4.487953 z m -2.81137,1.491434 0.003,0.0209 8.5e-4,0.01749 c -8.5e-4,-0.01237 -0.003,-0.02645 -0.003,-0.03839 z"
         id="path59" />
      <path
         style="fill:#818281;stroke-width:0.826503"
         d="m 346.02616,70.270517 0.59982,7.641037 c 0,0 -0.0631,1.18214 -0.6412,1.46669 0,0 1.00169,-0.106227 1.0789,-1.581022 z"
         id="path61" />
      <path
         style="fill:#bdc1bc;stroke-width:0.826503"
         d="m 335.3596,63.197299 0.89801,1.572063 12.12601,-0.673619 0.33702,-2.020858 c 4.3e-4,-4.27e-4 -10.10472,-1.123268 -13.36104,1.122414 z"
         id="path63" />
      <g
         id="g69"
         transform="matrix(0.42661142,0,0,0.42661142,196.91182,-54.213416)"
         style="stroke-width:1.93737">
	<path
   style="fill:#818281;stroke-width:1.93737"
   d="m 154.573,310.886 -0.943,-18.667 -0.95,-0.421 0.843,18.865 c 0.411,3.42 2.79,3.573 2.79,3.573 -1.407,-0.609 -1.74,-3.35 -1.74,-3.35 z"
   id="path65" />

	<path
   style="fill:#818281;stroke-width:1.93737"
   d="m 163.774,307.161 -6.106,-17.78 -1.739,0.529 6.162,17.718 c 1.698,3.035 4.135,2.637 4.135,2.637 -1.637,-0.237 -2.452,-3.104 -2.452,-3.104 z"
   id="path67" />

</g>
      <path
         style="fill:#a5a5a5;stroke-width:0.826503"
         d="m 271.11149,69.3196 0.004,-0.0017 c -1.80244,-2.227338 -2.80497,-4.222173 -3.29387,-4.4807 -0.48847,-0.258099 -2.36129,-3.030647 -2.36129,-3.030647 -4.10955,1.366436 -7.96655,2.128364 -7.96655,2.128364 l -0.24871,4.936748 c -0.21331,0.82464 -1.15825,4.96533 -1.15825,4.96533 0,0 -1.23419,3.884724 -0.0277,4.488379 0,0 1.1975,0.408693 2.2043,-0.247435 0,0 0.4552,-0.360487 0.52132,-0.793071 0.0235,0.964142 0.20264,1.903967 0.78411,2.132631 0,0 1.48077,0.327211 2.41761,-0.388643 0,0 0.39035,-0.276444 0.43514,-0.842558 l -0.11518,-4.178658 -0.0913,-3.596335 c 0.2244,1.852774 0.32764,5.088195 0.32764,5.088195 0,0 -0.15017,4.088644 1.14545,4.379166 0,0 1.66848,0.121158 2.49824,-0.6685 0,0 0.37542,-0.388217 0.30161,-0.861755 l -2.20344,-7.516467 -0.0666,-0.626265 c 0.29906,0.880526 0.56953,1.591687 0.56953,1.591687 0,0 1.56097,6.241325 3.06136,6.35779 0,0 1.71626,-0.161259 2.33741,-1.045198 0,0 0.28668,-0.365606 0.0644,-0.865595 l -0.93471,-1.652266 -1.94492,-4.739653 1.10748,1.688102 1.53879,1.31311 c 0.50724,0.416372 1.00808,0.262366 1.00808,0.262366 1.6015,-0.208187 2.03153,-1.410804 2.03153,-1.410804 0.23037,-0.671487 -0.90911,-1.655679 -1.94578,-2.385611 z m -12.21644,6.04679 8.5e-4,-0.01749 0.003,-0.0209 c -8.5e-4,0.01194 -0.003,0.02602 -0.003,0.03839 z"
         id="path71" />
      <path
         style="fill:#818281;stroke-width:0.826503"
         d="m 258.86433,77.911554 0.60024,-7.641037 -1.03794,7.526705 c 0.0772,1.475222 1.07847,1.581022 1.07847,1.581022 -0.57763,-0.28455 -0.64077,-1.46669 -0.64077,-1.46669 z"
         id="path73" />
      <path
         style="fill:#bdc1bc;stroke-width:0.826503"
         d="m 256.76924,62.074458 0.33702,2.020858 12.12601,0.67362 0.89801,-1.572063 c -3.25589,-2.245256 -13.36104,-1.122415 -13.36104,-1.122415 z"
         id="path75" />
      <path
         style="fill:#afb2ad;stroke-width:0.826503"
         d="m 324.07956,-33.197258 h -42.52718 c -3.47987,0 -6.30105,2.558816 -6.30105,5.715314 v 38.57975 c 0,3.156498 2.82075,5.715313 6.30105,5.715313 h 42.52718 c 3.47945,0 6.30063,-2.558815 6.30063,-5.715313 v -38.57975 c -4.3e-4,-3.156498 -2.82118,-5.715314 -6.30063,-5.715314 z"
         id="path77" />
      <path
         style="fill:#c0c9bd;stroke-width:0.826503"
         d="m 324.07956,-31.104302 h -42.52718 c -3.47987,0 -6.30105,2.820755 -6.30105,6.300624 v 42.527613 c 0,3.479442 2.82075,6.300197 6.30105,6.300197 h 42.52718 c 3.47945,0 6.30063,-2.820755 6.30063,-6.300197 v -42.527613 c -4.3e-4,-3.479443 -2.82118,-6.300624 -6.30063,-6.300624 z"
         id="path79" />
      <g
         id="g85"
         transform="matrix(0.42661142,0,0,0.42661142,196.91182,-54.213416)"
         style="stroke-width:1.93737">
	<path
   style="fill:#dfeadc;stroke-width:1.93737"
   d="m 323.375,138.564 c -3.051,-19.511 -40.789,-30.416 -72.722,-30.416 h -4.817 c -31.933,0 -70.535,12.123 -72.722,30.416 -1.649,13.804 0.138,51.02 1.116,68.458 19.929,17.014 45.785,27.291 74.043,27.291 28.296,0 54.18,-10.303 74.121,-27.356 1.182,-17.253 3.271,-53.737 0.981,-68.393 z"
   id="path81" />

	<path
   style="fill:#dfeadc;stroke-width:1.93737"
   d="m 329.369,138.564 c -3.051,-19.511 -46.914,-30.416 -78.849,-30.416 h -4.817 c -31.932,0 -76.797,12.123 -78.982,30.416 -1.65,13.804 23.368,113.241 24.125,130.679 0,0 26.876,8.687 54.485,8.687 27.647,0 60.128,-8.752 60.128,-8.752 0.912,-17.253 26.201,-115.958 23.91,-130.614 z"
   id="path83" />

</g>
      <path
         style="fill:#d6e2d3;stroke-width:0.826503"
         d="m 302.81555,-38.023939 c -11.68958,0 -21.16676,7.759208 -21.16676,18.549918 0,17.2129171 9.47718,22.0976179 21.16676,22.0976179 11.69085,0 21.16717,-4.8847008 21.16717,-22.0976179 0,-10.79071 -9.47632,-18.549918 -21.16717,-18.549918 z"
         id="path87" />
      <path
         style="fill:#e5eae4;stroke-width:0.826503"
         d="m 302.81555,-38.023939 c -11.68958,0 -21.16676,7.759208 -21.16676,18.549918 0,8.111589 2.10448,13.4856131 5.55363,16.9002109 l 31.24459,-29.6251769 c -3.87107,-3.649234 -9.44048,-5.824952 -15.63146,-5.824952 z"
         id="path89" />
      <path
         style="fill:#9b9a8c;stroke-width:0.826503"
         d="m 302.81555,-31.104302 c -9.21993,0 -16.69459,5.445268 -16.69459,13.956593 0,14.8870317 7.47466,18.4343057 16.69459,18.4343057 9.22035,0 16.69501,-3.547274 16.69501,-18.4343057 0,-8.511325 -7.47466,-13.956593 -16.69501,-13.956593 z"
         id="path91" />
      <path
         style="fill:#8e8d85;stroke-width:0.826503"
         d="M 313.61479,-28.052751 289.533,-3.9705358 c 3.04984,4.03105126 7.86458,5.2571325 13.28255,5.2571325 9.22035,0 16.69501,-3.547274 16.69501,-18.4343057 0,-4.708511 -2.28963,-8.475916 -5.89577,-10.905042 z"
         id="path93" />
      <g
         id="g99"
         transform="matrix(0.42661142,0,0,0.42661142,196.91182,-54.213416)"
         style="stroke-width:1.93737">
	<path
   style="fill:#b8bcb7;stroke-width:1.93737"
   d="m 209.666,163.538 -18.951,51.233 -6.315,19.3 c 0.452,0.183 6.666,-12.632 9.824,-18.248 6.14,-14.737 20.352,-47.02 15.442,-52.285 z"
   id="path95" />

	<path
   style="fill:#b8bcb7;stroke-width:1.93737"
   d="m 305.778,214.772 -18.95,-51.233 c -4.911,5.264 9.301,37.548 15.441,52.286 3.158,5.615 9.372,18.431 9.824,18.248 z"
   id="path97" />

</g>
      <g
         id="g105"
         transform="matrix(0.42661142,0,0,0.42661142,196.91182,-54.213416)"
         style="stroke-width:1.93737">
	<path
   style="fill:#dfeadc;stroke-width:1.93737"
   d="m 355.849,242.407 c -6.316,-67.375 -27.4,-107.468 -27.4,-107.468 l -40.18,31.758 c 0,0 3.796,11.741 12.633,38.25 3.86,11.581 15.47,38.338 18.276,46.409 1.293,3.715 5.352,23.862 5.352,23.862 0,0 10.347,-2.649 19.683,-1.93 9.123,0.702 11.608,0.263 11.608,0.263 2.105,-14.389 0.028,-31.144 0.028,-31.144 z"
   id="path101" />

	<path
   style="fill:#dfeadc;stroke-width:1.93737"
   d="m 168.14,134.939 c 0,0 -21.601,40.443 -27.917,107.819 0,0 -2.105,15.791 0,30.178 0,0 2.281,-0.175 11.404,-0.877 9.336,-0.718 20.002,3.158 20.002,3.158 0,0 3.972,-19.796 5.264,-23.511 2.808,-8.071 14.934,-35.179 18.794,-46.76 8.838,-26.508 12.634,-38.25 12.634,-38.25 z"
   id="path103" />

</g>
    </g>
  </g>
</svg>
