<?xml version="1.0" encoding="UTF-8" standalone="no"?>
<svg
   width="512"
   height="512"
   viewBox="0 0 135.46666 135.46667"
   version="1.1"
   id="svg8"
   sodipodi:docname="advanced_weapons.svg"
   inkscape:version="1.1.2 (0a00cf5339, 2022-02-04)"
   xmlns:inkscape="http://www.inkscape.org/namespaces/inkscape"
   xmlns:sodipodi="http://sodipodi.sourceforge.net/DTD/sodipodi-0.dtd"
   xmlns="http://www.w3.org/2000/svg"
   xmlns:svg="http://www.w3.org/2000/svg"
   xmlns:rdf="http://www.w3.org/1999/02/22-rdf-syntax-ns#"
   xmlns:cc="http://creativecommons.org/ns#"
   xmlns:dc="http://purl.org/dc/elements/1.1/">
  <defs
     id="defs2">
    <marker
       style="overflow:visible;"
       id="Arrow1Mend"
       refX="0.0"
       refY="0.0"
       orient="auto"
       inkscape:stockid="Arrow1Mend"
       inkscape:isstock="true">
      <path
         transform="scale(0.4) rotate(180) translate(10,0)"
         style="fill-rule:evenodd;stroke:#ffffff;stroke-width:1pt;stroke-opacity:1;fill:#ffffff;fill-opacity:1"
         d="M 0.0,0.0 L 5.0,-5.0 L -12.5,0.0 L 5.0,5.0 L 0.0,0.0 z "
         id="path868" />
    </marker>
    <marker
       style="overflow:visible;"
       id="marker1227"
       refX="0.0"
       refY="0.0"
       orient="auto"
       inkscape:stockid="Arrow1Lend"
       inkscape:isstock="true">
      <path
         transform="scale(0.8) rotate(180) translate(12.5,0)"
         style="fill-rule:evenodd;stroke:#ffffff;stroke-width:1pt;stroke-opacity:1;fill:#ffffff;fill-opacity:1"
         d="M 0.0,0.0 L 5.0,-5.0 L -12.5,0.0 L 5.0,5.0 L 0.0,0.0 z "
         id="path1225" />
    </marker>
    <marker
       style="overflow:visible;"
       id="Arrow1Lend"
       refX="0.0"
       refY="0.0"
       orient="auto"
       inkscape:stockid="Arrow1Lend"
       inkscape:isstock="true">
      <path
         transform="scale(0.8) rotate(180) translate(12.5,0)"
         style="fill-rule:evenodd;stroke:#ffffff;stroke-width:1pt;stroke-opacity:1;fill:#ffffff;fill-opacity:1"
         d="M 0.0,0.0 L 5.0,-5.0 L -12.5,0.0 L 5.0,5.0 L 0.0,0.0 z "
         id="path862" />
    </marker>
  </defs>
  <sodipodi:namedview
     id="base"
     pagecolor="#ffffff"
     bordercolor="#666666"
     borderopacity="1.0"
     inkscape:pageopacity="0"
     inkscape:pageshadow="2"
     inkscape:zoom="1.4"
     inkscape:cx="139.64286"
     inkscape:cy="264.28571"
     inkscape:document-units="mm"
     inkscape:current-layer="layer1"
     inkscape:document-rotation="0"
     showgrid="true"
     inkscape:window-width="2560"
     inkscape:window-height="1349"
     inkscape:window-x="1200"
     inkscape:window-y="240"
     inkscape:window-maximized="1"
     inkscape:snap-grids="true"
     units="px"
     inkscape:pagecheckerboard="false">
    <inkscape:grid
       type="xygrid"
       id="grid876"
       empcolor="#000000"
       empopacity="0.39607843"
       color="#757575"
       opacity="0.28627451"
       empspacing="4"
       units="px"
       spacingx="2.1166666"
       spacingy="2.1166666" />
  </sodipodi:namedview>
  <metadata
     id="metadata5">
    <rdf:RDF>
      <cc:Work
         rdf:about="">
        <dc:format>image/svg+xml</dc:format>
        <dc:type
           rdf:resource="http://purl.org/dc/dcmitype/StillImage" />
      </cc:Work>
    </rdf:RDF>
  </metadata>
  <g
     inkscape:groupmode="layer"
     id="layer2"
     inkscape:label="Background"
     sodipodi:insensitive="true">
    <rect
       style="opacity:0.997213;fill:#000080;fill-opacity:1;stroke:#b3b3b3;stroke-width:2.11667;stroke-miterlimit:4;stroke-dasharray:none;stroke-opacity:0.999964;stop-color:#000000"
       id="rect957"
       width="118.53333"
       height="118.53333"
       x="8.4666662"
       y="8.4666662"
       rx="8.46667"
       ry="8.4666662" />
    <rect
       style="opacity:0.997213;fill:#000080;fill-opacity:1;stroke:#b3b3b3;stroke-width:2.11667;stroke-miterlimit:4;stroke-dasharray:none;stroke-opacity:0.999964;stop-color:#000000"
       id="rect1598"
       width="110.06667"
       height="110.06667"
       x="12.7"
       y="12.7"
       rx="2.1166666"
       ry="2.1166666" />
    <rect
       style="opacity:0.997213;fill:#000080;fill-opacity:1;stroke:#b3b3b3;stroke-width:2.11667;stroke-miterlimit:4;stroke-dasharray:none;stroke-opacity:0.999964;stop-color:#000000"
       id="rect1295"
       width="16.933332"
       height="16.933332"
       x="4.2333336"
       y="4.2333336"
       rx="2.1166663"
       ry="2.1166666" />
    <rect
       style="opacity:0.997213;fill:#000080;fill-opacity:1;stroke:#b3b3b3;stroke-width:2.11667;stroke-miterlimit:4;stroke-dasharray:none;stroke-opacity:0.999964;stop-color:#000000"
       id="rect1295-0"
       width="16.933332"
       height="16.933332"
       x="114.3"
       y="4.2333336"
       rx="2.1166663"
       ry="2.1166666" />
    <rect
       style="opacity:0.997213;fill:#000080;fill-opacity:1;stroke:#b3b3b3;stroke-width:2.11667;stroke-miterlimit:4;stroke-dasharray:none;stroke-opacity:0.999964;stop-color:#000000"
       id="rect1295-6"
       width="16.933332"
       height="16.933332"
       x="4.2333331"
       y="114.3"
       rx="2.1166663"
       ry="2.1166666" />
    <rect
       style="opacity:0.997213;fill:#000080;fill-opacity:1;stroke:#b3b3b3;stroke-width:2.11667;stroke-miterlimit:4;stroke-dasharray:none;stroke-opacity:0.999964;stop-color:#000000"
       id="rect1295-2"
       width="16.933332"
       height="16.933332"
       x="114.3"
       y="114.3"
       rx="2.1166663"
       ry="2.1166666" />
  </g>
  <g
     inkscape:label="Icon"
     inkscape:groupmode="layer"
     id="layer1">
    <g
       id="g1249"
       transform="rotate(43.761636,74.888561,62.589198)">
      <rect
         style="fill:#ffffff;fill-opacity:0.993385;stroke:#000000;stroke-width:1;stop-color:#000000"
         id="rect990"
         width="23.802429"
         height="4.8417869"
         x="-41.625832"
         y="65.608124"
         rx="2.6804142"
         ry="2.6804147"
         transform="matrix(-1,3.2979461e-5,-3.2979461e-5,1,0,0)" />
      <path
         id="rect992"
         style="fill:#ffffff;fill-opacity:0.993385;stroke:#000000;stroke-width:1;stop-color:#000000"
         d="m 100.30806,61.47992 -5.752427,1.89e-4 -2.621831,9.766691 -11.475626,3.78e-4 0.341574,3.714523 9.910163,-3.27e-4 5.752427,-1.89e-4 z"
         sodipodi:nodetypes="cccccccc" />
      <path
         id="rect995"
         style="fill:#ffffff;fill-opacity:0.993385;stroke:#000000;stroke-width:1;stop-color:#000000"
         d="m 92.466076,59.076305 -3.453857,1.12e-4 c 0,0 0.05601,3.680788 -0.138475,5.299764 -0.194494,1.618976 -2.504189,3.005773 -1.766102,4.370395 0.64775,1.197613 1.958402,0.582832 3.016476,-0.136229 1.126583,-0.765625 1.855157,-2.309857 2.027419,-3.697273 0.236933,-1.908267 0.314539,-5.836769 0.314539,-5.836769 z"
         sodipodi:nodetypes="cczsssc" />
      <ellipse
         style="fill:#ffffff;fill-opacity:0.993385;stroke:#000000;stroke-width:1;stop-color:#000000"
         id="path1000"
         cx="-55.687267"
         cy="50.58086"
         rx="2.7562096"
         ry="2.844377"
         transform="matrix(-1,3.2979461e-5,-3.2979461e-5,1,0,0)" />
      <ellipse
         style="fill:#ffffff;fill-opacity:0.993385;stroke:#000000;stroke-width:1;stop-color:#000000"
         id="path1000-5"
         cx="-64.440506"
         cy="50.58086"
         rx="2.7562096"
         ry="2.844377"
         transform="matrix(-1,3.2979461e-5,-3.2979461e-5,1,0,0)" />
      <path
         id="rect940"
         style="fill:#ffffff;fill-opacity:0.993385;stroke:#000000;stroke-width:1;stop-color:#000000"
         d="m 76.199998,50.799998 -38.179071,0.0012 c -1.215777,4e-5 -3.105938,0.872936 -3.105983,2.096509 l -9.61e-4,29.206618 c -4e-5,1.223568 0.978694,2.208574 2.194463,2.208543 l 39.090442,-0.0013 c 1.215776,-3.9e-5 2.194576,-0.985111 2.194613,-2.208683 l 7.050332,-19.568874 25.947507,-8.24e-4 3.9e-4,-11.73439 z"
         sodipodi:nodetypes="csssssscccc" />
      <path
         id="rect943"
         style="fill:#ffffff;fill-opacity:0.993385;stroke:#000000;stroke-width:1;stop-color:#000000"
         d="m 111.14944,62.533227 -12.897506,4.32e-4 5.767046,26.464796 12.8975,-4.33e-4 z"
         sodipodi:nodetypes="ccccc" />
      <rect
         style="fill:#000000;fill-opacity:0.993385;stroke:#000000;stroke-width:1;stop-color:#000000"
         id="rect946"
         width="4.6332598"
         height="21.858027"
         x="-70.048439"
         y="57.015732"
         ry="2.6804023"
         rx="2.6804023"
         transform="matrix(-1,3.2979461e-5,-3.2979461e-5,1,0,0)" />
      <rect
         style="fill:#000000;fill-opacity:0.993385;stroke:#000000;stroke-width:1;stop-color:#000000"
         id="rect946-7"
         width="4.6332598"
         height="21.858027"
         x="-62.678234"
         y="57.015732"
         ry="2.6804023"
         rx="2.6804023"
         transform="matrix(-1,3.2979461e-5,-3.2979461e-5,1,0,0)" />
      <rect
         style="fill:#000000;fill-opacity:0.993385;stroke:#000000;stroke-width:1;stop-color:#000000"
         id="rect946-5"
         width="4.6332598"
         height="21.858027"
         x="-55.308033"
         y="57.015732"
         ry="2.6804023"
         rx="2.6804023"
         transform="matrix(-1,3.2979461e-5,-3.2979461e-5,1,0,0)" />
      <rect
         style="fill:#000000;fill-opacity:0.993385;stroke:#000000;stroke-width:1;stop-color:#000000"
         id="rect946-3"
         width="4.6332598"
         height="21.858027"
         x="-47.937836"
         y="57.015732"
         ry="2.6804023"
         rx="2.6804023"
         transform="matrix(-1,3.2979461e-5,-3.2979461e-5,1,0,0)" />
      <rect
         style="fill:#ffffff;fill-opacity:0.993385;stroke:#000000;stroke-width:1;stop-color:#000000"
         id="rect986"
         width="5.7572184"
         height="19.53253"
         x="-35.034897"
         y="58.26276"
         rx="2.6804142"
         ry="2.6804147"
         transform="matrix(-1,3.2979461e-5,-3.2979461e-5,1,0,0)" />
      <rect
         style="fill:#ffffff;fill-opacity:0.993385;stroke:#000000;stroke-width:1;stop-color:#000000"
         id="rect988"
         width="5.0454664"
         height="11.919689"
         x="-22.868858"
         y="62.06918"
         rx="2.6804142"
         ry="2.6804147"
         transform="matrix(-1,3.2979461e-5,-3.2979461e-5,1,0,0)" />
      <rect
         style="fill:#ffffff;fill-opacity:0.993385;stroke:#000000;stroke-width:1;stop-color:#000000"
         id="rect998"
         width="4.2818213"
         height="9.8021364"
         x="-115.94004"
         y="51.776375"
         transform="matrix(-1,3.2979461e-5,-3.2979461e-5,1,0,0)" />
      <rect
         style="fill:#000000;fill-opacity:0.993385;stroke:#000000;stroke-width:1;stop-color:#000000"
         id="rect1024"
         width="16.580183"
         height="3.9804633"
         x="-105.59435"
         y="55.098896"
         ry="1.0136936"
         rx="1.0136936"
         transform="matrix(-1,3.2979461e-5,-3.2979461e-5,1,0,0)" />
    </g>
  </g>
</svg>
