<?xml version="1.0" encoding="UTF-8" standalone="no"?>
<svg
   width="512"
   height="512"
   viewBox="0 0 135.46666 135.46667"
   version="1.1"
   id="svg8"
   sodipodi:docname="advanced_weapons.svg"
   inkscape:version="1.1.2 (0a00cf5339, 2022-02-04)"
   xmlns:inkscape="http://www.inkscape.org/namespaces/inkscape"
   xmlns:sodipodi="http://sodipodi.sourceforge.net/DTD/sodipodi-0.dtd"
   xmlns="http://www.w3.org/2000/svg"
   xmlns:svg="http://www.w3.org/2000/svg"
   xmlns:rdf="http://www.w3.org/1999/02/22-rdf-syntax-ns#"
   xmlns:cc="http://creativecommons.org/ns#"
   xmlns:dc="http://purl.org/dc/elements/1.1/">
  <defs
     id="defs2">
    <marker
       style="overflow:visible;"
       id="Arrow1Mend"
       refX="0.0"
       refY="0.0"
       orient="auto"
       inkscape:stockid="Arrow1Mend"
       inkscape:isstock="true">
      <path
         transform="scale(0.4) rotate(180) translate(10,0)"
         style="fill-rule:evenodd;stroke:#ffffff;stroke-width:1pt;stroke-opacity:1;fill:#ffffff;fill-opacity:1"
         d="M 0.0,0.0 L 5.0,-5.0 L -12.5,0.0 L 5.0,5.0 L 0.0,0.0 z "
         id="path868" />
    </marker>
    <marker
       style="overflow:visible;"
       id="marker1227"
       refX="0.0"
       refY="0.0"
       orient="auto"
       inkscape:stockid="Arrow1Lend"
       inkscape:isstock="true">
      <path
         transform="scale(0.8) rotate(180) translate(12.5,0)"
         style="fill-rule:evenodd;stroke:#ffffff;stroke-width:1pt;stroke-opacity:1;fill:#ffffff;fill-opacity:1"
         d="M 0.0,0.0 L 5.0,-5.0 L -12.5,0.0 L 5.0,5.0 L 0.0,0.0 z "
         id="path1225" />
    </marker>
    <marker
       style="overflow:visible;"
       id="Arrow1Lend"
       refX="0.0"
       refY="0.0"
       orient="auto"
       inkscape:stockid="Arrow1Lend"
       inkscape:isstock="true">
      <path
         transform="scale(0.8) rotate(180) translate(12.5,0)"
         style="fill-rule:evenodd;stroke:#ffffff;stroke-width:1pt;stroke-opacity:1;fill:#ffffff;fill-opacity:1"
         d="M 0.0,0.0 L 5.0,-5.0 L -12.5,0.0 L 5.0,5.0 L 0.0,0.0 z "
         id="path862" />
    </marker>
  </defs>
  <sodipodi:namedview
     id="base"
     pagecolor="#ffffff"
     bordercolor="#666666"
     borderopacity="1.0"
     inkscape:pageopacity="0"
     inkscape:pageshadow="2"
     inkscape:zoom="0.7"
     inkscape:cx="212.14286"
     inkscape:cy="403.57143"
     inkscape:document-units="mm"
     inkscape:current-layer="g1249"
     inkscape:document-rotation="0"
     showgrid="true"
     inkscape:window-width="1452"
     inkscape:window-height="849"
     inkscape:window-x="2132"
     inkscape:window-y="444"
     inkscape:window-maximized="0"
     inkscape:snap-grids="true"
     units="px"
     inkscape:pagecheckerboard="false">
    <inkscape:grid
       type="xygrid"
       id="grid876"
       empcolor="#000000"
       empopacity="0.39607843"
       color="#757575"
       opacity="0.28627451"
       empspacing="4"
       units="px"
       spacingx="2.1166666"
       spacingy="2.1166666" />
  </sodipodi:namedview>
  <metadata
     id="metadata5">
    <rdf:RDF>
      <cc:Work
         rdf:about="">
        <dc:format>image/svg+xml</dc:format>
        <dc:type
           rdf:resource="http://purl.org/dc/dcmitype/StillImage" />
      </cc:Work>
    </rdf:RDF>
  </metadata>
  <g
     inkscape:groupmode="layer"
     id="layer2"
     inkscape:label="Background"
     sodipodi:insensitive="true">
    <rect
       style="opacity:0.997213;fill:#000080;fill-opacity:1;stroke:#b3b3b3;stroke-width:2.11667;stroke-miterlimit:4;stroke-dasharray:none;stroke-opacity:0.999964;stop-color:#000000"
       id="rect957"
       width="118.53333"
       height="118.53333"
       x="8.4666662"
       y="8.4666662"
       rx="8.46667"
       ry="8.4666662" />
    <rect
       style="opacity:0.997213;fill:#000080;fill-opacity:1;stroke:#b3b3b3;stroke-width:2.11667;stroke-miterlimit:4;stroke-dasharray:none;stroke-opacity:0.999964;stop-color:#000000"
       id="rect1598"
       width="110.06667"
       height="110.06667"
       x="12.7"
       y="12.7"
       rx="2.1166666"
       ry="2.1166666" />
    <rect
       style="opacity:0.997213;fill:#000080;fill-opacity:1;stroke:#b3b3b3;stroke-width:2.11667;stroke-miterlimit:4;stroke-dasharray:none;stroke-opacity:0.999964;stop-color:#000000"
       id="rect1295"
       width="16.933332"
       height="16.933332"
       x="4.2333336"
       y="4.2333336"
       rx="2.1166663"
       ry="2.1166666" />
    <rect
       style="opacity:0.997213;fill:#000080;fill-opacity:1;stroke:#b3b3b3;stroke-width:2.11667;stroke-miterlimit:4;stroke-dasharray:none;stroke-opacity:0.999964;stop-color:#000000"
       id="rect1295-0"
       width="16.933332"
       height="16.933332"
       x="114.3"
       y="4.2333336"
       rx="2.1166663"
       ry="2.1166666" />
    <rect
       style="opacity:0.997213;fill:#000080;fill-opacity:1;stroke:#b3b3b3;stroke-width:2.11667;stroke-miterlimit:4;stroke-dasharray:none;stroke-opacity:0.999964;stop-color:#000000"
       id="rect1295-6"
       width="16.933332"
       height="16.933332"
       x="4.2333331"
       y="114.3"
       rx="2.1166663"
       ry="2.1166666" />
    <rect
       style="opacity:0.997213;fill:#000080;fill-opacity:1;stroke:#b3b3b3;stroke-width:2.11667;stroke-miterlimit:4;stroke-dasharray:none;stroke-opacity:0.999964;stop-color:#000000"
       id="rect1295-2"
       width="16.933332"
       height="16.933332"
       x="114.3"
       y="114.3"
       rx="2.1166663"
       ry="2.1166666" />
  </g>
  <g
     inkscape:label="Icon"
     inkscape:groupmode="layer"
     id="layer1">
    <g
       id="g1249"
       transform="rotate(43.761636,74.888561,62.589198)">
      <g
         id="g642"
         transform="matrix(0.11893834,-0.11390499,0.11390499,0.11893834,12.225381,71.704607)">
        <g
           id="g610">
	<polygon
   style="fill:#e6e6e6"
   points="9.094,400.398 31.318,378.175 73.559,387.801 35.028,426.332 "
   id="polygon598" />

	<polygon
   style="fill:#e6e6e6"
   points="111.605,502.909 85.671,476.975 124.202,438.444 133.829,480.673 "
   id="polygon600" />

	<polygon
   style="fill:#e6e6e6"
   points="228.98,409.843 202.646,359.988 233.126,329.52 250.767,388.056 "
   id="polygon602" />

	<polygon
   style="fill:#e6e6e6"
   points="102.16,283.023 123.947,261.236 182.483,278.877 152.003,309.357 "
   id="polygon604" />

	<polygon
   style="fill:#e6e6e6"
   points="201.628,183.544 256.466,128.718 330.217,131.131 251.483,209.878 "
   id="polygon606" />

	<polygon
   style="fill:#e6e6e6"
   points="328.447,310.376 302.113,260.521 380.873,181.762 383.285,255.538 "
   id="polygon608" />

</g>
        <path
           style="fill:#b3b3b3"
           d="m 85.671,476.975 -50.643,-50.643 38.531,-38.531 78.444,-78.444 30.48,-30.48 68.999,-68.999 78.735,-78.747 h 0.012 l 58.657,-58.669 c 1.673,-1.673 3.383,-3.334 5.104,-4.947 L 444.476,118 c -1.613,1.722 -3.274,3.431 -4.947,5.104 l -58.657,58.657 -78.759,78.759 -68.987,68.999 -30.48,30.468 -78.444,78.456 z"
           id="path612" />
        <path
           style="fill:#f95428"
           d="M 502.903,9.088 C 497.859,30.669 489.857,51.341 479.2,70.534 469.67,87.666 458.031,103.633 444.476,118 L 393.991,67.515 C 424.483,38.805 462.044,18.63 502.903,9.088 Z"
           id="path614" />
        <g
           id="g622">
	<path
   style="fill:#333333"
   d="m 509.337,2.663 c -2.222,-2.222 -5.435,-3.14 -8.497,-2.425 -44.866,10.469 -85.801,33.222 -118.38,65.8 l -55.871,55.871 -69.83,-2.282 c -2.518,-0.082 -4.949,0.881 -6.728,2.659 l -54.837,54.836 c -2.042,2.042 -2.992,4.931 -2.561,7.786 0.43,2.854 2.192,5.336 4.744,6.684 l 38.952,20.576 -56.436,56.436 -53.326,-16.077 c -3.209,-0.968 -6.687,-0.092 -9.056,2.276 l -21.787,21.786 c -2.042,2.042 -2.992,4.931 -2.561,7.786 0.43,2.855 2.192,5.336 4.744,6.684 l 38.952,20.576 -66.184,66.184 -37.333,-8.515 c -3.054,-0.696 -6.242,0.224 -8.453,2.436 L 2.662,393.969 C 0.958,395.675 0,397.988 0,400.4 c 0,2.412 0.958,4.725 2.662,6.43 L 105.17,509.338 c 1.776,1.776 4.104,2.664 6.431,2.664 2.327,0 4.655,-0.887 6.431,-2.664 l 22.229,-22.229 c 2.21,-2.21 3.13,-5.403 2.436,-8.452 l -8.515,-37.335 66.184,-66.184 20.576,38.952 c 1.348,2.552 3.829,4.314 6.685,4.744 0.452,0.068 0.906,0.102 1.355,0.102 2.393,0 4.713,-0.946 6.431,-2.664 L 257.2,394.485 c 2.368,-2.368 3.243,-5.848 2.276,-9.054 l -16.077,-53.326 56.434,-56.435 20.577,38.952 c 1.348,2.553 3.829,4.314 6.685,4.744 0.452,0.068 0.906,0.102 1.355,0.102 2.393,0 4.713,-0.946 6.431,-2.664 l 54.837,-54.836 c 1.777,-1.779 2.74,-4.213 2.658,-6.728 l -2.283,-69.831 55.871,-55.871 v 0 c 32.577,-32.577 55.33,-73.512 65.8,-118.379 0.713,-3.06 -0.204,-6.273 -2.427,-8.496 z m -115.419,77.638 37.78,37.78 -166.223,166.224 -37.78,-37.782 z M 252.616,297.165 148.459,401.322 110.677,363.54 214.835,259.383 Z m -35.845,-115.899 43.335,-43.335 48.864,1.597 -59.18,59.18 z m -99.469,99.468 9.227,-9.227 38.772,11.689 -14.98,14.979 z m -83.103,107.419 21.29,4.856 -20.462,20.463 -13.074,-13.074 z m 39.008,63.499 19.992,-19.992 c 3.551,-3.551 3.551,-9.308 0,-12.859 -3.551,-3.55 -9.308,-3.551 -12.86,0 l -19.992,19.992 -12.461,-12.461 49.931,-49.93 37.782,37.782 -49.93,49.93 z m 50.641,26.149 -12.247,12.246 -13.074,-13.074 20.463,-20.463 z m 116.645,-92.33 -9.227,9.227 -17.443,-33.019 14.98,-14.98 z M 374.068,251.894 330.733,295.229 313.29,262.21 372.47,203.03 Z M 444.138,104.801 407.2,67.863 c 24.114,-20.92 52.293,-36.551 82.827,-45.89 -9.338,30.533 -24.97,58.714 -45.889,82.828 z"
   id="path616" />

	<path
   style="fill:#333333"
   d="m 270.366,241.634 c 1.776,1.776 4.104,2.664 6.431,2.664 2.327,0 4.654,-0.887 6.431,-2.664 l 78.758,-78.758 c 3.551,-3.551 3.551,-9.308 0,-12.859 -3.552,-3.551 -9.309,-3.551 -12.86,0 l -78.758,78.758 c -3.552,3.551 -3.552,9.308 -0.002,12.859 z"
   id="path618" />

	<path
   style="fill:#333333"
   d="m 168.728,343.271 c 1.776,1.776 4.103,2.664 6.431,2.664 2.327,0 4.655,-0.887 6.431,-2.664 l 38.621,-38.619 c 3.551,-3.551 3.551,-9.308 0,-12.859 -3.551,-3.55 -9.308,-3.551 -12.86,0 l -38.621,38.619 c -3.553,3.55 -3.553,9.308 -0.002,12.859 z"
   id="path620" />

</g>
      </g>
    </g>
  </g>
</svg>
