<?xml version="1.0" encoding="UTF-8" standalone="no"?>
<svg
   inkscape:version="1.1.2 (0a00cf5339, 2022-02-04)"
   sodipodi:docname="common_electronics.svg"
   id="svg8"
   version="1.1"
   viewBox="0 0 135.46666 135.46667"
   height="512"
   width="512"
   xmlns:inkscape="http://www.inkscape.org/namespaces/inkscape"
   xmlns:sodipodi="http://sodipodi.sourceforge.net/DTD/sodipodi-0.dtd"
   xmlns="http://www.w3.org/2000/svg"
   xmlns:svg="http://www.w3.org/2000/svg"
   xmlns:rdf="http://www.w3.org/1999/02/22-rdf-syntax-ns#"
   xmlns:cc="http://creativecommons.org/ns#"
   xmlns:dc="http://purl.org/dc/elements/1.1/">
  <defs
     id="defs2"><marker
   style="overflow:visible;"
   id="Arrow1Mend"
   refX="0.0"
   refY="0.0"
   orient="auto"
   inkscape:stockid="Arrow1Mend"
   inkscape:isstock="true">
  <path
     transform="scale(0.4) rotate(180) translate(10,0)"
     style="fill-rule:evenodd;stroke:#ffffff;stroke-width:1pt;stroke-opacity:1;fill:#ffffff;fill-opacity:1"
     d="M 0.0,0.0 L 5.0,-5.0 L -12.5,0.0 L 5.0,5.0 L 0.0,0.0 z "
     id="path868" />
</marker>
<marker
   style="overflow:visible;"
   id="marker1227"
   refX="0.0"
   refY="0.0"
   orient="auto"
   inkscape:stockid="Arrow1Lend"
   inkscape:isstock="true">
  <path
     transform="scale(0.8) rotate(180) translate(12.5,0)"
     style="fill-rule:evenodd;stroke:#ffffff;stroke-width:1pt;stroke-opacity:1;fill:#ffffff;fill-opacity:1"
     d="M 0.0,0.0 L 5.0,-5.0 L -12.5,0.0 L 5.0,5.0 L 0.0,0.0 z "
     id="path1225" />
</marker>
<marker
   style="overflow:visible;"
   id="Arrow1Lend"
   refX="0.0"
   refY="0.0"
   orient="auto"
   inkscape:stockid="Arrow1Lend"
   inkscape:isstock="true">
  <path
     transform="scale(0.8) rotate(180) translate(12.5,0)"
     style="fill-rule:evenodd;stroke:#ffffff;stroke-width:1pt;stroke-opacity:1;fill:#ffffff;fill-opacity:1"
     d="M 0.0,0.0 L 5.0,-5.0 L -12.5,0.0 L 5.0,5.0 L 0.0,0.0 z "
     id="path862" />
</marker>

	
	
	
	
</defs>
  <sodipodi:namedview
     id="base"
     pagecolor="#ffffff"
     bordercolor="#666666"
     borderopacity="1.0"
     inkscape:pageopacity="0"
     inkscape:pageshadow="2"
     inkscape:zoom="1.979899"
     inkscape:cx="88.640885"
     inkscape:cy="152.78557"
     inkscape:document-units="mm"
     inkscape:current-layer="layer1"
     inkscape:document-rotation="0"
     showgrid="true"
     inkscape:window-width="2560"
     inkscape:window-height="1343"
     inkscape:window-x="1200"
     inkscape:window-y="240"
     inkscape:window-maximized="1"
     inkscape:snap-grids="true"
     units="px"
     inkscape:pagecheckerboard="false">
    <inkscape:grid
       type="xygrid"
       id="grid876"
       empcolor="#000000"
       empopacity="0.39607843"
       color="#757575"
       opacity="0.28627451"
       empspacing="4"
       units="px"
       spacingx="2.1166666"
       spacingy="2.1166666" />
  </sodipodi:namedview>
  <metadata
     id="metadata5">
    <rdf:RDF>
      <cc:Work
         rdf:about="">
        <dc:format>image/svg+xml</dc:format>
        <dc:type
           rdf:resource="http://purl.org/dc/dcmitype/StillImage" />
      </cc:Work>
    </rdf:RDF>
  </metadata>
  <g
     inkscape:groupmode="layer"
     id="layer2"
     inkscape:label="Background"
     sodipodi:insensitive="true">
    <rect
       style="opacity:0.997213;fill:#000000;stroke:#b3b3b3;stroke-width:2.11667;stroke-miterlimit:4;stroke-dasharray:none;stroke-opacity:0.999964;stop-color:#000000"
       id="rect957"
       width="118.53333"
       height="118.53333"
       x="8.4666662"
       y="8.4666662"
       rx="8.46667"
       ry="8.4666662" />
    <rect
       style="opacity:0.997213;fill:#000000;stroke:#b3b3b3;stroke-width:2.11667;stroke-miterlimit:4;stroke-dasharray:none;stroke-opacity:0.999964;stop-color:#000000"
       id="rect1598"
       width="110.06667"
       height="110.06667"
       x="12.7"
       y="12.7"
       rx="2.1166666"
       ry="2.1166666" />
    <rect
       style="opacity:0.997213;fill:#000000;stroke:#b3b3b3;stroke-width:2.11667;stroke-miterlimit:4;stroke-dasharray:none;stroke-opacity:0.999964;stop-color:#000000"
       id="rect1295"
       width="16.933332"
       height="16.933332"
       x="4.2333336"
       y="4.2333336"
       rx="2.1166663"
       ry="2.1166666" />
    <rect
       style="opacity:0.997213;fill:#000000;stroke:#b3b3b3;stroke-width:2.11667;stroke-miterlimit:4;stroke-dasharray:none;stroke-opacity:0.999964;stop-color:#000000"
       id="rect1295-0"
       width="16.933332"
       height="16.933332"
       x="114.3"
       y="4.2333336"
       rx="2.1166663"
       ry="2.1166666" />
    <rect
       style="opacity:0.997213;fill:#000000;stroke:#b3b3b3;stroke-width:2.11667;stroke-miterlimit:4;stroke-dasharray:none;stroke-opacity:0.999964;stop-color:#000000"
       id="rect1295-6"
       width="16.933332"
       height="16.933332"
       x="4.2333331"
       y="114.3"
       rx="2.1166663"
       ry="2.1166666" />
    <rect
       style="opacity:0.997213;fill:#000000;stroke:#b3b3b3;stroke-width:2.11667;stroke-miterlimit:4;stroke-dasharray:none;stroke-opacity:0.999964;stop-color:#000000"
       id="rect1295-2"
       width="16.933332"
       height="16.933332"
       x="114.3"
       y="114.3"
       rx="2.1166663"
       ry="2.1166666" />
  </g>
  <g
     inkscape:label="Icon"
     inkscape:groupmode="layer"
     id="layer1">
    <path
       style="fill:#cccccc;stroke-width:0.264584"
       d="M 97.487014,72.882167 H 38.940705 l -9.396377,22.80396 h 28.952724 l 2.846899,-4.819982 h 13.741693 l 1.868488,3.162873 0.978411,1.657265 H 106.88527 Z M 38.489335,86.665292 42.17753,77.716689 h 52.072659 l 3.688195,8.948603 z"
       id="path42" />
    <g
       id="g48"
       style="stroke-width:1.6923"
       transform="matrix(0.15634571,0,0,0.15634571,28.189592,26.828349)">
	<polygon
   style="fill:#b3b3b3;stroke-width:1.6923"
   points="120.332,294.655 285.2,278.264 252.925,275.17 68.765,293.409 8.665,439.266 77.225,439.266 "
   id="polygon44" />

	<polygon
   style="fill:#b3b3b3;stroke-width:1.6923"
   points="89.468,325.486 422.529,325.486 446.119,382.723 65.878,382.723 "
   id="polygon46" />

</g>
    <polygon
       style="fill:#999999;stroke-width:1.6923"
       points="92.553,384.583 111.672,322.703 85.654,321.404 60.289,384.622 "
       id="polygon50"
       transform="matrix(0.15634571,0,0,0.15634571,28.189592,26.828349)" />
    <path
       style="fill:#f2f2f2;stroke-width:0.264584"
       d="m 106.88527,95.686439 v 0.812373 c 0,3.031074 -2.45698,5.486168 -5.48617,5.486168 H 97.485138 35.030499 c -3.031075,0 -5.486171,-2.455094 -5.486171,-5.486168 v -0.812373 h 28.952724 19.435491 z"
       id="path52" />
    <g
       id="g58"
       style="stroke-width:1.6923"
       transform="matrix(0.15634571,0,0,0.15634571,28.189592,26.828349)">
	<path
   style="fill:#e6e6e6;stroke-width:1.6923"
   d="m 8.665,439.266 v 5.196 c 0,19.387 15.703,35.09 35.09,35.09 l 68.509,-0.096 c -19.387,0 -35.09,-15.703 -35.09,-35.09 v -5.196 z"
   id="path54" />

	<path
   style="fill:#e6e6e6;stroke-width:1.6923"
   d="M 443.22,129.147 V 294.563 H 68.765 V 129.147 59.475 c 0,-15.565 12.62,-28.185 28.174,-28.185 h 318.109 c 15.565,0 28.174,12.62 28.174,28.185 v 69.672 z M 412.299,263.642 V 62.212 H 99.686 v 201.43 z"
   id="path56" />

</g>
    <path
       style="fill:#cccccc;stroke-width:0.264584"
       d="m 43.345432,31.720406 c -2.431644,0 -4.404884,1.973083 -4.404884,4.406604 v 36.755157 h 8.06228 V 36.127323 l -0.0063,-4.405666 z"
       id="path60" />
    <rect
       x="44.449997"
       y="36.240612"
       style="fill:#333333;stroke-width:0.264584"
       width="48.875546"
       height="31.492716"
       id="rect62" />
    <rect
       x="43.774445"
       y="36.554928"
       style="fill:#1a1a1a;stroke-width:0.264584"
       width="3.2250993"
       height="31.492716"
       id="rect64" />
    <polygon
       style="fill:#b3b3b3;stroke-width:1.6923"
       points="193.849,440.422 212.058,409.591 299.95,409.591 318.159,440.422 "
       id="polygon66"
       transform="matrix(0.15634571,0,0,0.15634571,28.189592,26.828349)" />
    <path
       style="fill:#333333;stroke-width:0.264584"
       d="M 92.651397,35.201287 H 43.774914 c -0.747801,0 -1.353954,0.606152 -1.353954,1.353954 v 31.491778 c 0,0.747802 0.606153,1.353954 1.353954,1.353954 h 48.87664 c 0.747957,0 1.353953,-0.606152 1.353953,-1.353954 V 36.555241 c -1.56e-4,-0.747645 -0.606152,-1.353954 -1.35411,-1.353954 z M 91.297443,66.693065 H 45.128868 V 37.909195 H 91.2976 v 28.783714 h -1.57e-4 z"
       id="path68" />
    <text
       xml:space="preserve"
       style="font-size:1.96206px;line-height:1.25;font-family:Roboto;-inkscape-font-specification:Roboto;font-variant-ligatures:none;fill:#d45500;stroke:#d45500;stroke-width:0.165;stroke-miterlimit:4;stroke-dasharray:none"
       x="48.180561"
       y="42.223724"
       id="text1789-0"><tspan
         sodipodi:role="line"
         style="font-style:normal;font-variant:normal;font-weight:normal;font-stretch:normal;font-family:FreeMono;-inkscape-font-specification:FreeMono;fill:#d45500;stroke:#d45500;stroke-width:0.165;stroke-miterlimit:4;stroke-dasharray:none"
         x="48.180561"
         y="42.223724"
         id="tspan14741-6">GREETINGS PROFESSOR FALKEN.</tspan><tspan
         sodipodi:role="line"
         style="font-style:normal;font-variant:normal;font-weight:normal;font-stretch:normal;font-family:FreeMono;-inkscape-font-specification:FreeMono;fill:#d45500;stroke:#d45500;stroke-width:0.165;stroke-miterlimit:4;stroke-dasharray:none"
         x="48.180561"
         y="44.774403"
         id="tspan18278-3">Hello.</tspan><tspan
         sodipodi:role="line"
         style="font-style:normal;font-variant:normal;font-weight:normal;font-stretch:normal;font-family:FreeMono;-inkscape-font-specification:FreeMono;fill:#d45500;stroke:#d45500;stroke-width:0.165;stroke-miterlimit:4;stroke-dasharray:none"
         x="48.180561"
         y="47.325081"
         id="tspan18280-2" /><tspan
         sodipodi:role="line"
         style="font-style:normal;font-variant:normal;font-weight:normal;font-stretch:normal;font-family:FreeMono;-inkscape-font-specification:FreeMono;fill:#d45500;stroke:#d45500;stroke-width:0.165;stroke-miterlimit:4;stroke-dasharray:none"
         x="48.180561"
         y="49.875759"
         id="tspan24062-0">HOW ARE YOU FEELING TODAY?</tspan><tspan
         sodipodi:role="line"
         style="font-style:normal;font-variant:normal;font-weight:normal;font-stretch:normal;font-family:FreeMono;-inkscape-font-specification:FreeMono;fill:#d45500;stroke:#d45500;stroke-width:0.165;stroke-miterlimit:4;stroke-dasharray:none"
         x="48.180561"
         y="52.426437"
         id="tspan18282-6">I'm fine. How are you?</tspan><tspan
         sodipodi:role="line"
         style="font-style:normal;font-variant:normal;font-weight:normal;font-stretch:normal;font-family:FreeMono;-inkscape-font-specification:FreeMono;fill:#d45500;stroke:#d45500;stroke-width:0.165;stroke-miterlimit:4;stroke-dasharray:none"
         x="48.180561"
         y="54.977116"
         id="tspan24060-1" /><tspan
         sodipodi:role="line"
         style="font-style:normal;font-variant:normal;font-weight:normal;font-stretch:normal;font-family:FreeMono;-inkscape-font-specification:FreeMono;fill:#d45500;stroke:#d45500;stroke-width:0.165;stroke-miterlimit:4;stroke-dasharray:none"
         x="48.180561"
         y="57.527794"
         id="tspan18286-5">EXCELLENT. SHALL WE PLAY A GAME?</tspan><tspan
         sodipodi:role="line"
         style="font-style:normal;font-variant:normal;font-weight:normal;font-stretch:normal;font-family:FreeMono;-inkscape-font-specification:FreeMono;fill:#d45500;stroke:#d45500;stroke-width:0.165;stroke-miterlimit:4;stroke-dasharray:none"
         x="48.180561"
         y="60.078468"
         id="tspan18288-5">Love to.</tspan><tspan
         sodipodi:role="line"
         style="font-style:normal;font-variant:normal;font-weight:normal;font-stretch:normal;font-family:FreeMono;-inkscape-font-specification:FreeMono;fill:#d45500;stroke:#d45500;stroke-width:0.165;stroke-miterlimit:4;stroke-dasharray:none"
         x="48.180561"
         y="62.629147"
         id="tspan18290-4">How about Global Thermal Nuclear War?</tspan></text>
    <path
       style="fill:#333333;stroke-width:0.264584"
       d="m 108.13635,95.170811 -0.002,-0.0047 c -0.001,-0.0036 -0.003,-0.0072 -0.004,-0.01063 L 98.839717,72.608718 V 36.127792 c 0,-3.176789 -2.583613,-5.761183 -5.759151,-5.761183 H 43.345589 c -3.175694,0 -5.759151,2.584394 -5.759151,5.761183 V 72.613408 L 28.29794,95.155646 c -0.0014,0.0033 -0.0027,0.0067 -0.0039,0.01001 l -0.0022,0.0052 h 1.56e-4 c -0.06566,0.15916 -0.102406,0.333329 -0.102406,0.515941 v 0.812216 c 0,3.771687 3.068597,6.840127 6.840125,6.840127 h 66.368755 c 3.77168,0 6.84013,-3.06844 6.84013,-6.840127 v -0.812216 c 0,-0.182768 -0.0366,-0.356781 -0.10225,-0.515941 z M 40.294346,36.127792 c 0,-1.683531 1.368807,-3.053276 3.051243,-3.053276 h 49.735134 c 1.682436,0 3.051242,1.369589 3.051242,3.053276 V 71.527431 H 40.294346 Z m -0.447462,38.107547 h 56.734419 l 8.280847,20.097459 H 78.704578 l -2.453689,-4.155512 c -0.243587,-0.41244 -0.686827,-0.665564 -1.16587,-0.665564 H 61.343012 c -0.478886,0 -0.922283,0.253124 -1.165869,0.665564 l -2.453534,4.155512 H 31.565721 Z M 75.559997,94.332798 H 60.868503 l 1.247639,-2.113012 h 12.196373 z m 25.838473,6.298232 H 35.029717 c -2.095033,0 -3.830783,-1.566898 -4.096883,-3.590481 h 74.562516 c -0.2661,2.023427 -2.00185,3.590481 -4.09688,3.590481 z"
       id="path70" />
    <path
       style="fill:#333333;stroke-width:0.264584"
       d="m 99.063917,87.418565 c 0.251247,-0.375386 0.298776,-0.851302 0.126796,-1.269058 l -3.687726,-8.949541 c -0.209035,-0.507029 -0.7034,-0.838169 -1.252017,-0.838169 H 42.177061 c -0.548617,0 -1.042826,0.330984 -1.252017,0.838169 l -3.687569,8.949541 c -0.171981,0.417756 -0.124608,0.893829 0.126796,1.269058 0.251404,0.375543 0.673381,0.600837 1.125064,0.600837 H 97.93854 c 0.451839,0 0.873816,-0.225294 1.125377,-0.600837 z M 40.511823,85.311494 43.08371,79.069861 h 50.260768 l 2.571887,6.241633 z"
       id="path74" />
  </g>
</svg>
