<?xml version="1.0" encoding="UTF-8" standalone="no"?>
<svg
   width="512"
   height="512"
   viewBox="0 0 135.46666 135.46667"
   version="1.1"
   id="svg8"
   sodipodi:docname="illegal_biochemicals.svg"
   inkscape:version="1.1.2 (0a00cf5339, 2022-02-04)"
   xmlns:inkscape="http://www.inkscape.org/namespaces/inkscape"
   xmlns:sodipodi="http://sodipodi.sourceforge.net/DTD/sodipodi-0.dtd"
   xmlns="http://www.w3.org/2000/svg"
   xmlns:svg="http://www.w3.org/2000/svg"
   xmlns:rdf="http://www.w3.org/1999/02/22-rdf-syntax-ns#"
   xmlns:cc="http://creativecommons.org/ns#"
   xmlns:dc="http://purl.org/dc/elements/1.1/">
  <defs
     id="defs2">
    <marker
       style="overflow:visible;"
       id="Arrow1Mend"
       refX="0.0"
       refY="0.0"
       orient="auto"
       inkscape:stockid="Arrow1Mend"
       inkscape:isstock="true">
      <path
         transform="scale(0.4) rotate(180) translate(10,0)"
         style="fill-rule:evenodd;stroke:#ffffff;stroke-width:1pt;stroke-opacity:1;fill:#ffffff;fill-opacity:1"
         d="M 0.0,0.0 L 5.0,-5.0 L -12.5,0.0 L 5.0,5.0 L 0.0,0.0 z "
         id="path868" />
    </marker>
    <marker
       style="overflow:visible;"
       id="marker1227"
       refX="0.0"
       refY="0.0"
       orient="auto"
       inkscape:stockid="Arrow1Lend"
       inkscape:isstock="true">
      <path
         transform="scale(0.8) rotate(180) translate(12.5,0)"
         style="fill-rule:evenodd;stroke:#ffffff;stroke-width:1pt;stroke-opacity:1;fill:#ffffff;fill-opacity:1"
         d="M 0.0,0.0 L 5.0,-5.0 L -12.5,0.0 L 5.0,5.0 L 0.0,0.0 z "
         id="path1225" />
    </marker>
    <marker
       style="overflow:visible;"
       id="Arrow1Lend"
       refX="0.0"
       refY="0.0"
       orient="auto"
       inkscape:stockid="Arrow1Lend"
       inkscape:isstock="true">
      <path
         transform="scale(0.8) rotate(180) translate(12.5,0)"
         style="fill-rule:evenodd;stroke:#ffffff;stroke-width:1pt;stroke-opacity:1;fill:#ffffff;fill-opacity:1"
         d="M 0.0,0.0 L 5.0,-5.0 L -12.5,0.0 L 5.0,5.0 L 0.0,0.0 z "
         id="path862" />
    </marker>
  </defs>
  <sodipodi:namedview
     id="base"
     pagecolor="#ffffff"
     bordercolor="#666666"
     borderopacity="1.0"
     inkscape:pageopacity="0"
     inkscape:pageshadow="2"
     inkscape:zoom="0.98994949"
     inkscape:cx="355.06862"
     inkscape:cy="159.6041"
     inkscape:document-units="mm"
     inkscape:current-layer="layer1"
     inkscape:document-rotation="0"
     showgrid="true"
     inkscape:window-width="1444"
     inkscape:window-height="849"
     inkscape:window-x="1758"
     inkscape:window-y="490"
     inkscape:window-maximized="0"
     inkscape:snap-grids="true"
     units="px"
     inkscape:pagecheckerboard="false"
     inkscape:snap-intersection-paths="true"
     inkscape:snap-smooth-nodes="true"
     inkscape:snap-object-midpoints="true">
    <inkscape:grid
       type="xygrid"
       id="grid876"
       empcolor="#000000"
       empopacity="0.39607843"
       color="#757575"
       opacity="0.28627451"
       empspacing="4"
       units="px"
       spacingx="2.1166666"
       spacingy="2.1166666" />
  </sodipodi:namedview>
  <metadata
     id="metadata5">
    <rdf:RDF>
      <cc:Work
         rdf:about="">
        <dc:format>image/svg+xml</dc:format>
        <dc:type
           rdf:resource="http://purl.org/dc/dcmitype/StillImage" />
      </cc:Work>
    </rdf:RDF>
  </metadata>
  <g
     inkscape:groupmode="layer"
     id="layer2"
     inkscape:label="Background"
     sodipodi:insensitive="true">
    <rect
       style="opacity:0.997213;fill:#a00000;fill-opacity:1;stroke:#b3b3b3;stroke-width:2.11667;stroke-miterlimit:4;stroke-dasharray:none;stroke-opacity:0.999964;stop-color:#000000"
       id="rect957"
       width="118.53333"
       height="118.53333"
       x="8.4666662"
       y="8.4666662"
       rx="8.46667"
       ry="8.4666662" />
    <rect
       style="opacity:0.997213;fill:#a00000;fill-opacity:1;stroke:#b3b3b3;stroke-width:2.11667;stroke-miterlimit:4;stroke-dasharray:none;stroke-opacity:0.999964;stop-color:#000000"
       id="rect1598"
       width="110.06667"
       height="110.06667"
       x="12.7"
       y="12.7"
       rx="2.1166666"
       ry="2.1166666" />
    <rect
       style="opacity:0.997213;fill:#a00000;fill-opacity:1;stroke:#b3b3b3;stroke-width:2.11667;stroke-miterlimit:4;stroke-dasharray:none;stroke-opacity:0.999964;stop-color:#000000"
       id="rect1295"
       width="16.933332"
       height="16.933332"
       x="4.2333336"
       y="4.2333336"
       rx="2.1166663"
       ry="2.1166666" />
    <rect
       style="opacity:0.997213;fill:#a00000;fill-opacity:1;stroke:#b3b3b3;stroke-width:2.11667;stroke-miterlimit:4;stroke-dasharray:none;stroke-opacity:0.999964;stop-color:#000000"
       id="rect1295-0"
       width="16.933332"
       height="16.933332"
       x="114.3"
       y="4.2333336"
       rx="2.1166663"
       ry="2.1166666" />
    <rect
       style="opacity:0.997213;fill:#a00000;fill-opacity:1;stroke:#b3b3b3;stroke-width:2.11667;stroke-miterlimit:4;stroke-dasharray:none;stroke-opacity:0.999964;stop-color:#000000"
       id="rect1295-6"
       width="16.933332"
       height="16.933332"
       x="4.2333331"
       y="114.3"
       rx="2.1166663"
       ry="2.1166666" />
    <rect
       style="opacity:0.997213;fill:#a00000;fill-opacity:1;stroke:#b3b3b3;stroke-width:2.11667;stroke-miterlimit:4;stroke-dasharray:none;stroke-opacity:0.999964;stop-color:#000000"
       id="rect1295-2"
       width="16.933332"
       height="16.933332"
       x="114.3"
       y="114.3"
       rx="2.1166663"
       ry="2.1166666" />
  </g>
  <g
     inkscape:label="Icon"
     inkscape:groupmode="layer"
     id="layer1">
    <g
       id="g3163"
       transform="translate(0.5291686,-2.1166673)">
      <g
         id="g1979">
        <g
           id="g1802">
          <path
             id="path892"
             style="opacity:0.997213;fill:#000000;stroke:none;stroke-width:3.99999;stroke-linejoin:bevel;stroke-opacity:0.999964;stop-color:#000000"
             d="M 298.76562,124.39258 A 63.999997,63.999997 0 0 1 320,172 63.999997,63.999997 0 0 1 256,236 63.999997,63.999997 0 0 1 192,172 63.999997,63.999997 0 0 1 213.10352,124.53711 79.999998,79.999998 0 0 0 176,192 a 79.999998,79.999998 0 0 0 80,80 79.999998,79.999998 0 0 0 80,-80 79.999998,79.999998 0 0 0 -37.23438,-67.60742 z"
             transform="scale(0.26458333)" />
          <path
             id="path892-1"
             style="opacity:0.997213;fill:#000000;stroke:none;stroke-width:1.05833;stroke-linejoin:bevel;stroke-opacity:0.999964;stop-color:#000000"
             d="m 97.174065,98.647179 a 16.933332,16.933332 0 0 1 -13.717704,-1.432491 16.933332,16.933332 0 0 1 -6.19803,-23.13136 16.933332,16.933332 0 0 1 23.131369,-6.19803 16.933332,16.933332 0 0 1 8.08363,11.114519 21.166666,21.166666 0 0 0 -10.549686,-17.426526 21.166666,21.166666 0 0 0 -28.914205,7.747537 21.166666,21.166666 0 0 0 7.747538,28.914194 21.166666,21.166666 0 0 0 20.417088,0.412157 z" />
          <path
             id="path892-10"
             style="opacity:0.997213;fill:#000000;stroke:none;stroke-width:1.05833;stroke-linejoin:bevel;stroke-opacity:0.999964;stop-color:#000000"
             d="m 26.977532,79.048922 a 16.933332,16.933332 0 0 1 8.099437,-11.163624 16.933332,16.933332 0 0 1 23.131363,6.19803 16.933332,16.933332 0 0 1 -6.19803,23.13137 16.933332,16.933332 0 0 1 -13.667271,1.443361 21.166666,21.166666 0 0 0 20.366655,-0.423027 21.166666,21.166666 0 0 0 7.747534,-28.914201 21.166666,21.166666 0 0 0 -28.9142,-7.74754 21.166666,21.166666 0 0 0 -10.565488,17.475631 z" />
        </g>
        <circle
           style="opacity:0.997213;fill:none;stroke:#000000;stroke-width:4.23333;stroke-linejoin:bevel;stroke-miterlimit:4;stroke-dasharray:none;stroke-opacity:0.999964;stop-color:#000000"
           id="path1826"
           cx="67.204163"
           cy="69.849998"
           r="18.520832" />
      </g>
      <circle
         style="opacity:0.997213;fill:#a00000;fill-opacity:1;stroke:none;stroke-width:4.23334;stroke-linejoin:bevel;stroke-miterlimit:4;stroke-dasharray:none;stroke-opacity:0.999964;stop-color:#000000"
         id="path2403"
         cx="67.73333"
         cy="71.966667"
         r="5.4015093" />
      <rect
         style="opacity:0.997213;fill:#a00000;fill-opacity:1;stroke:none;stroke-width:4.23333;stroke-linejoin:bevel;stroke-miterlimit:4;stroke-dasharray:none;stroke-opacity:0.999964;stop-color:#000000"
         id="rect2919"
         width="2.1166666"
         height="8.4666662"
         x="66.674995"
         y="61.383331"
         rx="7.1352571e-07"
         ry="7.1352571e-07" />
      <rect
         style="opacity:0.997213;fill:#a00000;fill-opacity:1;stroke:none;stroke-width:4.23333;stroke-linejoin:bevel;stroke-miterlimit:4;stroke-dasharray:none;stroke-opacity:0.999964;stop-color:#000000"
         id="rect2919-3"
         width="2.1166666"
         height="8.4666662"
         x="27.361969"
         y="-107.40792"
         rx="7.1352571e-07"
         ry="7.1352571e-07"
         transform="rotate(120)" />
      <rect
         style="opacity:0.997213;fill:#a00000;fill-opacity:1;stroke:none;stroke-width:4.23333;stroke-linejoin:bevel;stroke-miterlimit:4;stroke-dasharray:none;stroke-opacity:0.999964;stop-color:#000000"
         id="rect2919-4"
         width="2.1166666"
         height="8.4666662"
         x="-96.824593"
         y="11.355359"
         rx="7.1352571e-07"
         ry="7.1352571e-07"
         transform="rotate(-120)" />
    </g>
  </g>
</svg>
