<?xml version="1.0" encoding="UTF-8" standalone="no"?>
<svg
   width="512"
   height="512"
   viewBox="0 0 135.46666 135.46667"
   version="1.1"
   id="svg8"
   sodipodi:docname="live_animals.svg"
   inkscape:version="1.1.2 (0a00cf5339, 2022-02-04)"
   xmlns:inkscape="http://www.inkscape.org/namespaces/inkscape"
   xmlns:sodipodi="http://sodipodi.sourceforge.net/DTD/sodipodi-0.dtd"
   xmlns="http://www.w3.org/2000/svg"
   xmlns:svg="http://www.w3.org/2000/svg"
   xmlns:rdf="http://www.w3.org/1999/02/22-rdf-syntax-ns#"
   xmlns:cc="http://creativecommons.org/ns#"
   xmlns:dc="http://purl.org/dc/elements/1.1/">
  <defs
     id="defs2">
    <marker
       style="overflow:visible;"
       id="Arrow1Mend"
       refX="0.0"
       refY="0.0"
       orient="auto"
       inkscape:stockid="Arrow1Mend"
       inkscape:isstock="true">
      <path
         transform="scale(0.4) rotate(180) translate(10,0)"
         style="fill-rule:evenodd;stroke:#ffffff;stroke-width:1pt;stroke-opacity:1;fill:#ffffff;fill-opacity:1"
         d="M 0.0,0.0 L 5.0,-5.0 L -12.5,0.0 L 5.0,5.0 L 0.0,0.0 z "
         id="path868" />
    </marker>
    <marker
       style="overflow:visible;"
       id="marker1227"
       refX="0.0"
       refY="0.0"
       orient="auto"
       inkscape:stockid="Arrow1Lend"
       inkscape:isstock="true">
      <path
         transform="scale(0.8) rotate(180) translate(12.5,0)"
         style="fill-rule:evenodd;stroke:#ffffff;stroke-width:1pt;stroke-opacity:1;fill:#ffffff;fill-opacity:1"
         d="M 0.0,0.0 L 5.0,-5.0 L -12.5,0.0 L 5.0,5.0 L 0.0,0.0 z "
         id="path1225" />
    </marker>
    <marker
       style="overflow:visible;"
       id="Arrow1Lend"
       refX="0.0"
       refY="0.0"
       orient="auto"
       inkscape:stockid="Arrow1Lend"
       inkscape:isstock="true">
      <path
         transform="scale(0.8) rotate(180) translate(12.5,0)"
         style="fill-rule:evenodd;stroke:#ffffff;stroke-width:1pt;stroke-opacity:1;fill:#ffffff;fill-opacity:1"
         d="M 0.0,0.0 L 5.0,-5.0 L -12.5,0.0 L 5.0,5.0 L 0.0,0.0 z "
         id="path862" />
    </marker>
  </defs>
  <sodipodi:namedview
     id="base"
     pagecolor="#ffffff"
     bordercolor="#666666"
     borderopacity="1.0"
     inkscape:pageopacity="0"
     inkscape:pageshadow="2"
     inkscape:zoom="0.70000001"
     inkscape:cx="372.85714"
     inkscape:cy="88.571428"
     inkscape:document-units="mm"
     inkscape:current-layer="layer1"
     inkscape:document-rotation="0"
     showgrid="true"
     inkscape:window-width="1519"
     inkscape:window-height="842"
     inkscape:window-x="2228"
     inkscape:window-y="308"
     inkscape:window-maximized="0"
     inkscape:snap-grids="true"
     units="px"
     inkscape:pagecheckerboard="false">
    <inkscape:grid
       type="xygrid"
       id="grid876"
       empcolor="#000000"
       empopacity="0.39607843"
       color="#757575"
       opacity="0.28627451"
       empspacing="4"
       units="px"
       spacingx="2.1166666"
       spacingy="2.1166666" />
  </sodipodi:namedview>
  <metadata
     id="metadata5">
    <rdf:RDF>
      <cc:Work
         rdf:about="">
        <dc:format>image/svg+xml</dc:format>
        <dc:type
           rdf:resource="http://purl.org/dc/dcmitype/StillImage" />
      </cc:Work>
    </rdf:RDF>
  </metadata>
  <g
     inkscape:groupmode="layer"
     id="layer2"
     inkscape:label="Background"
     sodipodi:insensitive="true">
    <rect
       style="opacity:0.997213;fill:#008000;fill-opacity:1;stroke:#b3b3b3;stroke-width:2.11667;stroke-miterlimit:4;stroke-dasharray:none;stroke-opacity:0.999964;stop-color:#000000"
       id="rect957"
       width="118.53333"
       height="118.53333"
       x="8.4666662"
       y="8.4666662"
       rx="8.46667"
       ry="8.4666662" />
    <rect
       style="opacity:0.997213;fill:#008000;fill-opacity:1;stroke:#b3b3b3;stroke-width:2.11667;stroke-miterlimit:4;stroke-dasharray:none;stroke-opacity:0.999964;stop-color:#000000"
       id="rect1598"
       width="110.06667"
       height="110.06667"
       x="12.7"
       y="12.7"
       rx="2.1166666"
       ry="2.1166666" />
    <rect
       style="opacity:0.997213;fill:#008000;fill-opacity:1;stroke:#b3b3b3;stroke-width:2.11667;stroke-miterlimit:4;stroke-dasharray:none;stroke-opacity:0.999964;stop-color:#000000"
       id="rect1295"
       width="16.933332"
       height="16.933332"
       x="4.2333336"
       y="4.2333336"
       rx="2.1166663"
       ry="2.1166666" />
    <rect
       style="opacity:0.997213;fill:#008000;fill-opacity:1;stroke:#b3b3b3;stroke-width:2.11667;stroke-miterlimit:4;stroke-dasharray:none;stroke-opacity:0.999964;stop-color:#000000"
       id="rect1295-0"
       width="16.933332"
       height="16.933332"
       x="114.3"
       y="4.2333336"
       rx="2.1166663"
       ry="2.1166666" />
    <rect
       style="opacity:0.997213;fill:#008000;fill-opacity:1;stroke:#b3b3b3;stroke-width:2.11667;stroke-miterlimit:4;stroke-dasharray:none;stroke-opacity:0.999964;stop-color:#000000"
       id="rect1295-6"
       width="16.933332"
       height="16.933332"
       x="4.2333331"
       y="114.3"
       rx="2.1166663"
       ry="2.1166666" />
    <rect
       style="opacity:0.997213;fill:#008000;fill-opacity:1;stroke:#b3b3b3;stroke-width:2.11667;stroke-miterlimit:4;stroke-dasharray:none;stroke-opacity:0.999964;stop-color:#000000"
       id="rect1295-2"
       width="16.933332"
       height="16.933332"
       x="114.3"
       y="114.3"
       rx="2.1166663"
       ry="2.1166666" />
  </g>
  <g
     inkscape:label="Icon"
     inkscape:groupmode="layer"
     id="layer1">
    <g
       id="g143"
       transform="matrix(0.15744859,0,0,0.15744859,26.166903,25.587441)"
       style="stroke-width:2.62569">
      <g
         id="g112"
         style="stroke-width:2.62569">
	<path
   style="fill:#877364;stroke-width:2.62569"
   d="m 392,8.133 c -36,0 -64,28.667 -104,27.398 L 264,160.132 316.558,228.861 331,311 368,296.133 c 5.424,-3.107 37.264,-19.299 56,-48 30.943,-47.402 80,-36 80,-88 0,-14.667 -76,-152 -112,-152 z"
   id="path108" />

	<path
   style="fill:#877364;stroke-width:2.62569"
   d="M 224,35.531 C 184,36.799 156,8.133 120,8.133 84,8.133 8,145.466 8,160.132 c 0,52 47.008,42 80,88 21.462,29.924 51.492,46.672 56,48 L 177,306 c 6,-3.667 8.667,-11.667 13,-27 L 196.915,226.937 248,160.132 Z"
   id="path110" />

</g>
      <g
         id="g118"
         style="stroke-width:2.62569">
	<path
   style="fill:#ffebd2;stroke-width:2.62569"
   d="m 184.363,357.491 c 1.597,-13.184 7.981,-37.817 31.637,-69.359 l -24,-24 c -5.752,12.654 -20.776,67.648 -13.365,93.927 0.863,3.062 5.345,2.589 5.728,-0.568 z"
   id="path114" />

	<path
   style="fill:#ffebd2;stroke-width:2.62569"
   d="m 320.623,264.132 -24,24 c 23.644,31.525 30.034,56.149 31.635,69.338 0.384,3.162 4.873,3.635 5.736,0.569 7.397,-26.286 -7.621,-81.256 -13.371,-93.907 z"
   id="path116" />

</g>
      <path
         style="fill:#9f8976;stroke-width:2.62569"
         d="m 368,120.132 c 0,-16 -15,-88 -112,-88 -97,0 -112,72 -112,88 0,16 40,16 48,36 0,0 0,46.902 0,55.822 0,8.92 -8,52.178 -8,52.178 l 32.647,32.647 c 4.395,61.199 7.881,163.356 23.353,191.353 10.5,19 37.62,25.616 72,-8 14.049,-13.736 22.355,-29.34 27.578,-39.588 2.388,-4.686 0.48,-10.383 -4.224,-12.735 v 0 c -4.185,-2.092 -9.244,-0.848 -11.945,2.973 -9.412,13.315 -30.429,41.319 -35.409,33.351 -4.317,-6.907 4.778,-132.997 7.345,-167.345 L 328,264.132 c 0,0 -8,-43.258 -8,-52.178 0,-8.92 0,-55.822 0,-55.822 8,-20 48,-20 48,-36 z"
         id="path120" />
      <path
         d="m 176,136.132 c -8.822,0 -16,7.178 -16,16 0,8.822 7.178,16 16,16 8.822,0 16,-7.178 16,-16 0,-8.822 -7.178,-16 -16,-16 z"
         id="path122"
         style="stroke-width:2.62569" />
      <path
         d="m 336,136.132 c -8.822,0 -16,7.178 -16,16 0,8.822 7.178,16 16,16 8.822,0 16,-7.178 16,-16 0,-8.822 -7.178,-16 -16,-16 z"
         id="path124"
         style="stroke-width:2.62569" />
      <path
         d="M 468.208,74.273 C 436.242,25.077 410.602,0.132 392,0.132 c -18.835,0 -35.414,7.058 -51.445,13.883 -16.867,7.181 -32.82,13.963 -51.652,13.525 -10.428,-2.241 -21.432,-3.408 -32.903,-3.408 -11.461,0 -22.471,1.163 -32.906,3.408 C 204.271,27.976 188.312,21.196 171.445,14.015 155.414,7.19 138.835,0.132 120,0.132 101.398,0.132 75.758,25.077 43.792,74.273 25.433,102.529 0,148.085 0,160.132 c 0,35.876 19.708,47.62 40.572,60.054 13.086,7.798 27.918,16.637 41.222,32.994 39.35,48.381 67.275,57.776 89.403,58.839 -0.093,0.573 -0.185,1.146 -0.273,1.721 -4.673,30.249 -2.177,50.452 7.42,60.049 1.577,1.577 3.69,2.422 5.829,2.421 0.949,0 1.903,-0.166 2.818,-0.508 5.071,-1.897 5.399,-6.633 5.639,-10.09 0.508,-7.318 1.863,-26.811 17.047,-53.405 0.411,6.342 0.822,12.949 1.244,19.736 3.938,63.424 8.401,135.311 22.078,160.059 5.965,10.794 15.771,17.697 27.611,19.437 1.824,0.268 3.815,0.429 5.968,0.429 12.278,0 29.785,-5.256 51.016,-26.015 15.804,-15.453 24.687,-32.952 29.993,-43.408 1.308,-2.577 2.438,-4.803 3.274,-6.196 1.485,-2.475 1.707,-5.436 0.607,-8.122 -0.917,-2.242 -2.826,-6.907 -21.459,-11.738 -3.299,-0.855 -6.777,0.473 -8.667,3.31 -9.194,13.807 -19.793,27.172 -26.508,33.79 -0.389,-21.966 3.083,-82.644 7.461,-142.398 15.787,27.162 17.185,47.102 17.699,54.521 0.24,3.458 0.568,8.193 5.639,10.09 0.915,0.342 1.869,0.509 2.818,0.508 2.14,0 4.253,-0.845 5.83,-2.421 9.597,-9.597 12.094,-29.801 7.42,-60.049 -0.09,-0.585 -0.184,-1.168 -0.278,-1.751 22.03,-1.209 49.801,-10.877 88.785,-58.809 13.303,-16.357 28.135,-25.196 41.222,-32.994 20.862,-12.434 40.57,-24.177 40.57,-60.054 0,-12.047 -25.433,-57.603 -43.792,-85.859 z m -282.726,251.35 c 0.318,-2.918 0.73,-6.059 1.253,-9.439 2.242,-14.514 5.68,-28.057 8.556,-37.446 l 10.226,10.226 c -9.496,13.539 -15.812,25.919 -20.035,36.659 z m 121.624,-36.66 10.226,-10.226 c 2.876,9.389 6.313,22.931 8.556,37.446 0.522,3.38 0.935,6.521 1.252,9.439 -4.223,-10.74 -10.538,-23.119 -20.034,-36.659 z m 156.131,-82.521 c -13.522,8.058 -30.352,18.087 -45.444,36.643 -36.464,44.833 -60.641,52.463 -79.419,53.013 -0.798,-3.62 -1.637,-7.107 -2.487,-10.406 0.127,-0.132 0.258,-0.259 0.378,-0.401 C 365.709,250.353 384,199.33 384,152.132 c 0,-26.113 -5.525,-49.185 -16.405,-68.601 -1.134,-3.197 -0.802,-7.105 0.958,-10.804 2.052,-4.313 5.736,-7.665 9.857,-8.966 4.213,-1.33 6.55,-5.824 5.219,-10.038 -1.33,-4.213 -5.824,-6.552 -10.038,-5.219 -8.401,2.653 -15.504,8.977 -19.487,17.351 -3.725,7.832 -4.188,16.551 -1.27,23.924 0.028,0.071 0.069,0.133 0.099,0.203 0.078,0.181 0.169,0.357 0.261,0.535 0.079,0.151 0.149,0.309 0.236,0.453 9.667,17.075 14.57,37.65 14.57,61.164 0,40.116 -14.275,83.169 -37.686,114.861 -0.722,-2.057 -1.393,-3.809 -1.984,-5.201 -1.173,-6.565 -8.33,-47.521 -8.33,-69.66 0,-4.418 -3.582,-8 -8,-8 -4.418,0 -8,3.582 -8,8 0,21.311 5.895,57.1 8.017,69.293 l -19.532,19.532 c -2.457,1.206 -4.234,3.632 -4.461,6.558 -0.033,0.421 -3.285,42.557 -5.884,85.13 -5.406,88.556 -2.92,92.532 -0.924,95.727 2.016,3.226 5.327,5.107 9.083,5.161 5.274,0.097 12.429,-2.742 28.916,-23.7 4.86,-6.179 9.25,-12.301 12.097,-16.381 0.862,0.285 1.692,0.575 2.46,0.858 -0.148,0.291 -0.299,0.589 -0.453,0.893 -4.86,9.576 -12.995,25.603 -26.912,39.209 -15.816,15.464 -31.252,22.99 -43.473,21.196 -8.692,-1.277 -13.462,-6.875 -15.933,-11.346 -11.935,-21.596 -16.661,-97.725 -20.112,-153.312 -0.984,-15.841 -1.913,-30.804 -2.915,-43.451 -10e-4,-0.021 -0.006,-0.042 -0.008,-0.063 -0.008,-0.088 -0.021,-0.176 -0.031,-0.264 -0.013,-0.108 -0.028,-0.216 -0.045,-0.323 -0.011,-0.067 -0.019,-0.136 -0.031,-0.202 -0.015,-0.081 -0.037,-0.16 -0.054,-0.241 -0.023,-0.104 -0.048,-0.207 -0.075,-0.311 -0.019,-0.072 -0.033,-0.147 -0.054,-0.219 -0.021,-0.073 -0.05,-0.144 -0.074,-0.216 -0.032,-0.101 -0.067,-0.201 -0.104,-0.301 -0.028,-0.075 -0.051,-0.153 -0.081,-0.227 -0.026,-0.064 -0.059,-0.125 -0.086,-0.189 -0.044,-0.102 -0.09,-0.202 -0.139,-0.302 -0.035,-0.073 -0.066,-0.149 -0.104,-0.221 -0.028,-0.053 -0.062,-0.104 -0.091,-0.157 -0.001,-0.002 -0.002,-0.004 -0.003,-0.006 -0.057,-0.103 -0.116,-0.204 -0.177,-0.304 -0.043,-0.07 -0.083,-0.143 -0.128,-0.212 -0.028,-0.043 -0.062,-0.083 -0.091,-0.126 -0.004,-0.005 -0.008,-0.01 -0.011,-0.015 -0.067,-0.098 -0.137,-0.195 -0.209,-0.29 -0.053,-0.07 -0.104,-0.142 -0.159,-0.21 -0.034,-0.042 -0.072,-0.081 -0.107,-0.122 0,-0.001 -0.001,-0.001 -0.002,-0.002 -0.074,-0.087 -0.149,-0.173 -0.227,-0.258 -0.066,-0.072 -0.132,-0.145 -0.2,-0.214 -0.01,-0.01 -0.018,-0.02 -0.027,-0.03 l -21.095,-21.095 c 1.959,-12.128 7.438,-47.95 7.438,-69.248 0,-4.418 -3.582,-8 -8,-8 -4.418,0 -8,3.582 -8,8 0,22.119 -6.614,62.986 -7.729,69.711 -0.641,1.513 -1.372,3.44 -2.163,5.722 C 158.447,235.82 144,192.489 144,152.132 c 0,-23.516 4.905,-44.093 14.574,-61.168 0.081,-0.133 0.145,-0.279 0.218,-0.418 0.098,-0.186 0.192,-0.373 0.274,-0.563 0.03,-0.07 0.071,-0.132 0.1,-0.204 2.918,-7.373 2.456,-16.092 -1.27,-23.924 -3.983,-8.374 -11.086,-14.698 -19.487,-17.351 -4.215,-1.332 -8.708,1.006 -10.038,5.219 -1.331,4.213 1.006,8.708 5.219,10.038 4.121,1.301 7.805,4.653 9.857,8.966 1.759,3.699 2.092,7.606 0.958,10.803 -10.88,19.418 -16.405,42.49 -16.405,68.602 0,47.191 18.287,98.21 47.725,133.147 0.275,0.326 0.577,0.615 0.889,0.886 -0.81,3.163 -1.608,6.496 -2.369,9.948 C 155.38,295.712 131.072,288.41 94.207,243.084 79.115,224.529 62.286,214.5 48.763,206.441 28.373,194.291 16.05,186.946 16,160.292 16.806,154.112 33.696,118.938 58.136,81.568 89.723,33.27 111.203,16.132 120,16.132 c 15.571,0 29.953,6.123 45.178,12.604 8.422,3.585 16.986,7.217 26.044,9.995 -6.225,3.178 -12.096,6.859 -17.563,11.031 -3.512,2.68 -4.187,7.7 -1.507,11.213 2.68,3.513 7.7,4.189 11.213,1.507 11.928,-9.101 26.165,-15.529 42.051,-19.087 0.208,-0.038 0.414,-0.08 0.616,-0.132 9.457,-2.069 19.489,-3.131 29.968,-3.131 10.51,0 20.556,1.073 30.024,3.147 0.184,0.047 0.372,0.083 0.561,0.116 16.485,3.69 31.181,10.466 43.384,20.124 1.47,1.163 3.221,1.728 4.959,1.728 2.361,0 4.699,-1.041 6.278,-3.036 2.742,-3.465 2.156,-8.496 -1.308,-11.238 -5.913,-4.68 -12.325,-8.752 -19.148,-12.237 9.068,-2.778 17.642,-6.411 26.072,-10 15.226,-6.482 29.607,-12.604 45.178,-12.604 8.797,0 30.277,17.137 61.864,65.436 24.44,37.371 41.33,72.544 42.136,78.724 -0.05,26.654 -12.373,33.999 -32.763,46.15 z"
         id="path126"
         style="stroke-width:2.62569" />
    </g>
  </g>
</svg>
