<?xml version="1.0" encoding="UTF-8" standalone="no"?>
<svg
   width="512"
   height="512"
   viewBox="0 0 135.46666 135.46667"
   version="1.1"
   id="svg8"
   sodipodi:docname="polymers.svg"
   inkscape:version="1.1.2 (0a00cf5339, 2022-02-04)"
   xmlns:inkscape="http://www.inkscape.org/namespaces/inkscape"
   xmlns:sodipodi="http://sodipodi.sourceforge.net/DTD/sodipodi-0.dtd"
   xmlns="http://www.w3.org/2000/svg"
   xmlns:svg="http://www.w3.org/2000/svg"
   xmlns:rdf="http://www.w3.org/1999/02/22-rdf-syntax-ns#"
   xmlns:cc="http://creativecommons.org/ns#"
   xmlns:dc="http://purl.org/dc/elements/1.1/">
  <defs
     id="defs2">
    <marker
       style="overflow:visible;"
       id="Arrow1Mend"
       refX="0.0"
       refY="0.0"
       orient="auto"
       inkscape:stockid="Arrow1Mend"
       inkscape:isstock="true">
      <path
         transform="scale(0.4) rotate(180) translate(10,0)"
         style="fill-rule:evenodd;stroke:#ffffff;stroke-width:1pt;stroke-opacity:1;fill:#ffffff;fill-opacity:1"
         d="M 0.0,0.0 L 5.0,-5.0 L -12.5,0.0 L 5.0,5.0 L 0.0,0.0 z "
         id="path868" />
    </marker>
    <marker
       style="overflow:visible;"
       id="marker1227"
       refX="0.0"
       refY="0.0"
       orient="auto"
       inkscape:stockid="Arrow1Lend"
       inkscape:isstock="true">
      <path
         transform="scale(0.8) rotate(180) translate(12.5,0)"
         style="fill-rule:evenodd;stroke:#ffffff;stroke-width:1pt;stroke-opacity:1;fill:#ffffff;fill-opacity:1"
         d="M 0.0,0.0 L 5.0,-5.0 L -12.5,0.0 L 5.0,5.0 L 0.0,0.0 z "
         id="path1225" />
    </marker>
    <marker
       style="overflow:visible;"
       id="Arrow1Lend"
       refX="0.0"
       refY="0.0"
       orient="auto"
       inkscape:stockid="Arrow1Lend"
       inkscape:isstock="true">
      <path
         transform="scale(0.8) rotate(180) translate(12.5,0)"
         style="fill-rule:evenodd;stroke:#ffffff;stroke-width:1pt;stroke-opacity:1;fill:#ffffff;fill-opacity:1"
         d="M 0.0,0.0 L 5.0,-5.0 L -12.5,0.0 L 5.0,5.0 L 0.0,0.0 z "
         id="path862" />
    </marker>
  </defs>
  <sodipodi:namedview
     id="base"
     pagecolor="#ffffff"
     bordercolor="#666666"
     borderopacity="1.0"
     inkscape:pageopacity="0"
     inkscape:pageshadow="2"
     inkscape:zoom="0.98994949"
     inkscape:cx="265.67012"
     inkscape:cy="234.35539"
     inkscape:document-units="mm"
     inkscape:current-layer="layer1"
     inkscape:document-rotation="0"
     showgrid="true"
     inkscape:window-width="1519"
     inkscape:window-height="842"
     inkscape:window-x="2036"
     inkscape:window-y="325"
     inkscape:window-maximized="0"
     inkscape:snap-grids="true"
     units="px"
     inkscape:pagecheckerboard="false">
    <inkscape:grid
       type="xygrid"
       id="grid876"
       empcolor="#000000"
       empopacity="0.39607843"
       color="#757575"
       opacity="0.28627451"
       empspacing="4"
       units="px"
       spacingx="2.1166666"
       spacingy="2.1166666" />
  </sodipodi:namedview>
  <metadata
     id="metadata5">
    <rdf:RDF>
      <cc:Work
         rdf:about="">
        <dc:format>image/svg+xml</dc:format>
        <dc:type
           rdf:resource="http://purl.org/dc/dcmitype/StillImage" />
      </cc:Work>
    </rdf:RDF>
  </metadata>
  <g
     inkscape:groupmode="layer"
     id="layer2"
     inkscape:label="Background"
     sodipodi:insensitive="true">
    <rect
       style="opacity:0.997213;fill:#606060;fill-opacity:1;stroke:#b3b3b3;stroke-width:2.11667;stroke-miterlimit:4;stroke-dasharray:none;stroke-opacity:0.999964;stop-color:#000000"
       id="rect957"
       width="118.53333"
       height="118.53333"
       x="8.4666662"
       y="8.4666662"
       rx="8.46667"
       ry="8.4666662" />
    <rect
       style="opacity:0.997213;fill:#606060;fill-opacity:1;stroke:#b3b3b3;stroke-width:2.11667;stroke-miterlimit:4;stroke-dasharray:none;stroke-opacity:0.999964;stop-color:#000000"
       id="rect1598"
       width="110.06667"
       height="110.06667"
       x="12.7"
       y="12.7"
       rx="2.1166666"
       ry="2.1166666" />
    <rect
       style="opacity:0.997213;fill:#606060;fill-opacity:1;stroke:#b3b3b3;stroke-width:2.11667;stroke-miterlimit:4;stroke-dasharray:none;stroke-opacity:0.999964;stop-color:#000000"
       id="rect1295"
       width="16.933332"
       height="16.933332"
       x="4.2333336"
       y="4.2333336"
       rx="2.1166663"
       ry="2.1166666" />
    <rect
       style="opacity:0.997213;fill:#606060;fill-opacity:1;stroke:#b3b3b3;stroke-width:2.11667;stroke-miterlimit:4;stroke-dasharray:none;stroke-opacity:0.999964;stop-color:#000000"
       id="rect1295-0"
       width="16.933332"
       height="16.933332"
       x="114.3"
       y="4.2333336"
       rx="2.1166663"
       ry="2.1166666" />
    <rect
       style="opacity:0.997213;fill:#606060;fill-opacity:1;stroke:#b3b3b3;stroke-width:2.11667;stroke-miterlimit:4;stroke-dasharray:none;stroke-opacity:0.999964;stop-color:#000000"
       id="rect1295-6"
       width="16.933332"
       height="16.933332"
       x="4.2333331"
       y="114.3"
       rx="2.1166663"
       ry="2.1166666" />
    <rect
       style="opacity:0.997213;fill:#606060;fill-opacity:1;stroke:#b3b3b3;stroke-width:2.11667;stroke-miterlimit:4;stroke-dasharray:none;stroke-opacity:0.999964;stop-color:#000000"
       id="rect1295-2"
       width="16.933332"
       height="16.933332"
       x="114.3"
       y="114.3"
       rx="2.1166663"
       ry="2.1166666" />
  </g>
  <g
     inkscape:label="Icon"
     inkscape:groupmode="layer"
     id="layer1">
    <g
       id="g260"
       transform="matrix(0.16662831,0,0,0.16662831,23.829052,23.494512)"
       style="stroke-width:1.58787">
      <g
         id="g142"
         style="stroke-width:1.58787">
	<polygon
   style="fill:#4eb79b;stroke-width:1.58787"
   points="197.702,137.845 197.702,156.845 126.097,156.845 126.084,137.845 "
   id="polygon114" />

	
		<rect
   x="31.986"
   y="300.84"
   transform="matrix(-0.4999,-0.8661,0.8661,-0.4999,-167.105,524.1878)"
   style="fill:#4eb79b;stroke-width:1.58787"
   width="71.606003"
   height="19"
   id="rect116" />

	<rect
   x="126.097"
   y="355.16101"
   style="fill:#4eb79b;stroke-width:1.58787"
   width="71.605003"
   height="19"
   id="rect118" />

	
		<rect
   x="58.285999"
   y="165.867"
   transform="matrix(-0.8662,-0.4998,0.4998,-0.8662,25.7075,410.24)"
   style="fill:#4eb79b;stroke-width:1.58787"
   width="19.000999"
   height="71.621002"
   id="rect120" />

	<path
   style="fill:#4eb79b;stroke-width:1.58787"
   d="m 265.68,454.747 -31.06,-53.775 c -0.835,-1.444 -1.273,-3.083 -1.273,-4.751 v -9.5 l 19,-0.013 v 6.967 l 29.787,51.571 z"
   id="path122" />

	
		<rect
   x="434.68799"
   y="383.19901"
   transform="matrix(-0.866,-0.5001,0.5001,-0.866,619.3043,1003.9916)"
   style="fill:#4eb79b;stroke-width:1.58787"
   width="19.000999"
   height="71.619003"
   id="rect124" />

	
		<rect
   x="246.48599"
   y="274.53699"
   transform="matrix(-0.866,-0.5001,0.5001,-0.866,322.464,707.1144)"
   style="fill:#4eb79b;stroke-width:1.58787"
   width="19.000999"
   height="71.619003"
   id="rect126" />

	
		<rect
   x="408.38101"
   y="300.83099"
   transform="matrix(-0.5,-0.866,0.866,-0.5,397.536,850.1755)"
   style="fill:#4eb79b;stroke-width:1.58787"
   width="71.615997"
   height="19"
   id="rect128" />

	<rect
   x="314.298"
   y="463.82901"
   style="fill:#4eb79b;stroke-width:1.58787"
   width="71.605003"
   height="19"
   id="rect130" />

	
		<rect
   x="58.278"
   y="383.17999"
   transform="matrix(-0.866,-0.5,0.5,-0.866,-83.0185,815.7051)"
   style="fill:#4eb79b;stroke-width:1.58787"
   width="19"
   height="71.591003"
   id="rect132" />

	
		<rect
   x="434.71399"
   y="165.888"
   transform="matrix(-0.866,-0.5,0.5,-0.866,728.0773,598.4846)"
   style="fill:#4eb79b;stroke-width:1.58787"
   width="19.000999"
   height="71.635002"
   id="rect134" />

	
		<rect
   x="220.155"
   y="192.175"
   transform="matrix(-0.4999,-0.8661,0.8661,-0.4999,209.26,524.1844)"
   style="fill:#4eb79b;stroke-width:1.58787"
   width="71.630997"
   height="19"
   id="rect136" />

	<rect
   x="314.298"
   y="246.494"
   style="fill:#4eb79b;stroke-width:1.58787"
   width="71.605003"
   height="19"
   id="rect138" />

	
		<rect
   x="246.491"
   y="57.215"
   transform="matrix(-0.866,-0.5001,0.5001,-0.866,431.1534,301.5999)"
   style="fill:#4eb79b;stroke-width:1.58787"
   width="19.000999"
   height="71.619003"
   id="rect140" />

</g>
      <path
         style="fill:#5dacd8;stroke-width:1.58787"
         d="m 287.369,2.248 c 20.115,0 36.429,16.315 36.429,36.429 0,20.127 -16.315,36.429 -36.429,36.429 -6.637,0 -12.857,-1.773 -18.215,-4.877 C 258.273,63.934 250.939,52.166 250.939,38.676 250.94,18.563 267.254,2.248 287.369,2.248 Z"
         id="path144" />
      <g
         id="g156"
         style="stroke-width:1.58787">
	<path
   style="fill:#e88158;stroke-width:1.58787"
   d="m 431.047,224.46 c 10.893,6.27 18.227,18.05 18.227,31.54 0,13.49 -7.334,25.27 -18.227,31.553 -5.358,3.103 -11.577,4.877 -18.202,4.877 -20.127,0 -36.429,-16.302 -36.429,-36.429 0,-20.115 16.302,-36.429 36.429,-36.429 6.625,-0.001 12.844,1.772 18.202,4.888 z"
   id="path146" />

	<path
   style="fill:#e88158;stroke-width:1.58787"
   d="m 242.846,115.792 c 10.893,6.295 18.215,18.063 18.215,31.553 0,13.477 -7.321,25.257 -18.215,31.54 -5.358,3.116 -11.577,4.889 -18.215,4.889 -20.115,0 -36.429,-16.315 -36.429,-36.429 0,-20.127 16.315,-36.429 36.429,-36.429 6.637,0 12.857,1.773 18.215,4.876 z"
   id="path148" />

	<path
   style="fill:#e88158;stroke-width:1.58787"
   d="m 287.369,219.571 c 20.115,0 36.429,16.315 36.429,36.429 0,20.127 -16.315,36.429 -36.429,36.429 -6.637,0 -12.857,-1.773 -18.215,-4.877 C 258.274,281.257 250.94,269.49 250.94,256 c 0,-13.477 7.334,-25.257 18.215,-31.54 5.357,-3.116 11.577,-4.889 18.214,-4.889 z"
   id="path150" />

	<path
   style="fill:#e88158;stroke-width:1.58787"
   d="m 242.846,396.22 c -5.358,3.103 -11.577,4.877 -18.215,4.877 -20.115,0 -36.429,-16.315 -36.429,-36.429 0,-20.127 16.315,-36.442 36.429,-36.442 6.637,0 12.857,1.773 18.215,4.889 10.893,6.283 18.215,18.063 18.215,31.553 -10e-4,13.477 -7.322,25.257 -18.215,31.552 z"
   id="path152" />

	<path
   style="fill:#e88158;stroke-width:1.58787"
   d="m 135.597,364.667 c 0,20.115 -16.315,36.429 -36.429,36.429 -6.637,0 -12.869,-1.773 -18.227,-4.877 -10.881,-6.308 -18.202,-18.075 -18.202,-31.553 0,-13.49 7.321,-25.257 18.202,-31.553 5.358,-3.116 11.59,-4.889 18.227,-4.889 20.114,0.001 36.429,16.316 36.429,36.443 z"
   id="path154" />

</g>
      <g
         id="g168"
         style="stroke-width:1.58787">
	<path
   style="fill:#5dacd8;stroke-width:1.58787"
   d="m 54.644,441.77 c 10.893,6.308 18.215,18.075 18.215,31.553 0,20.115 -16.315,36.429 -36.429,36.429 -20.114,0 -36.43,-16.315 -36.43,-36.43 0,-20.115 16.315,-36.429 36.429,-36.429 6.638,0 12.857,1.773 18.215,4.877 z"
   id="path158" />

	<path
   style="fill:#5dacd8;stroke-width:1.58787"
   d="m 287.369,436.893 c 20.115,0 36.429,16.315 36.429,36.429 0,20.115 -16.315,36.429 -36.429,36.429 -20.115,0 -36.429,-16.315 -36.429,-36.429 0,-13.477 7.334,-25.257 18.215,-31.553 5.357,-3.103 11.577,-4.876 18.214,-4.876 z"
   id="path160" />

	<path
   style="fill:#5dacd8;stroke-width:1.58787"
   d="m 431.047,441.77 c 10.893,6.283 18.227,18.063 18.227,31.553 0,20.115 -16.315,36.429 -36.429,36.429 -20.127,0 -36.429,-16.315 -36.429,-36.429 0,-20.115 16.302,-36.429 36.429,-36.429 6.625,-0.001 12.844,1.772 18.202,4.876 z"
   id="path162" />

	<path
   style="fill:#5dacd8;stroke-width:1.58787"
   d="m 475.571,328.225 c 20.127,0 36.429,16.315 36.429,36.442 0,20.115 -16.302,36.429 -36.429,36.429 -6.637,0 -12.857,-1.773 -18.215,-4.889 -10.881,-6.283 -18.215,-18.063 -18.215,-31.54 0,-13.49 7.334,-25.27 18.215,-31.553 5.358,-3.115 11.577,-4.889 18.215,-4.889 z"
   id="path164" />

	<path
   style="fill:#5dacd8;stroke-width:1.58787"
   d="m 475.571,110.916 c 20.127,0 36.429,16.302 36.429,36.429 0,20.115 -16.302,36.429 -36.429,36.429 -6.637,0 -12.857,-1.773 -18.215,-4.889 -10.881,-6.283 -18.215,-18.063 -18.215,-31.54 0,-20.127 16.315,-36.429 36.43,-36.429 z"
   id="path166" />

</g>
      <g
         id="g174"
         style="stroke-width:1.58787">
	<path
   style="fill:#4c9cbf;stroke-width:1.58787"
   d="m 475.571,183.775 c -6.637,0 -12.857,-1.773 -18.215,-4.889 -10.881,-6.283 -18.215,-18.063 -18.215,-31.54 0,-20.127 16.315,-36.429 36.429,-36.429 -9.335,0 -16.897,16.302 -16.897,36.429 0,13.477 3.407,25.257 8.449,31.54 2.483,3.115 5.371,4.889 8.449,4.889 z"
   id="path170" />

	<path
   style="fill:#4c9cbf;stroke-width:1.58787"
   d="m 287.369,75.107 c -6.637,0 -12.857,-1.773 -18.215,-4.889 -10.881,-6.283 -18.215,-18.063 -18.215,-31.54 0,-20.127 16.315,-36.429 36.429,-36.429 -9.335,0 -16.897,16.302 -16.897,36.429 0,13.477 3.407,25.257 8.449,31.54 2.483,3.116 5.371,4.889 8.449,4.889 z"
   id="path172" />

</g>
      <g
         id="g180"
         style="stroke-width:1.58787">
	<path
   style="fill:#5dacd8;stroke-width:1.58787"
   d="m 54.644,224.46 c 10.893,6.295 18.215,18.063 18.215,31.54 0,13.49 -7.321,25.257 -18.215,31.553 -5.358,3.103 -11.577,4.877 -18.215,4.877 C 16.315,292.429 0,276.127 0,256 c 0,-20.115 16.315,-36.429 36.429,-36.429 6.638,0 12.857,1.773 18.215,4.889 z"
   id="path176" />

	<path
   style="fill:#5dacd8;stroke-width:1.58787"
   d="m 135.597,147.345 c 0,20.115 -16.315,36.429 -36.429,36.429 -6.637,0 -12.869,-1.773 -18.227,-4.889 -10.881,-6.295 -18.202,-18.063 -18.202,-31.54 0,-20.127 16.302,-36.429 36.429,-36.429 20.114,0 36.429,16.302 36.429,36.429 z"
   id="path178" />

</g>
      <g
         id="g194"
         style="stroke-width:1.58787">
	<path
   style="fill:#4c9cbf;stroke-width:1.58787"
   d="m 412.845,509.752 c -6.637,0 -12.857,-1.773 -18.215,-4.889 -10.881,-6.283 -18.215,-18.063 -18.215,-31.54 0,-20.127 16.315,-36.429 36.429,-36.429 -9.335,0 -16.897,16.302 -16.897,36.429 0,13.477 3.407,25.257 8.449,31.54 2.483,3.115 5.371,4.889 8.449,4.889 z"
   id="path182" />

	<path
   style="fill:#4c9cbf;stroke-width:1.58787"
   d="m 475.571,401.097 c -6.637,0 -12.857,-1.773 -18.215,-4.889 -10.881,-6.283 -18.215,-18.063 -18.215,-31.54 0,-20.127 16.315,-36.429 36.429,-36.429 -9.335,0 -16.897,16.302 -16.897,36.429 0,13.477 3.407,25.257 8.449,31.54 2.483,3.116 5.371,4.889 8.449,4.889 z"
   id="path184" />

	<path
   style="fill:#4c9cbf;stroke-width:1.58787"
   d="m 287.369,509.752 c -6.637,0 -12.857,-1.773 -18.215,-4.889 -10.881,-6.283 -18.215,-18.063 -18.215,-31.54 0,-20.127 16.315,-36.429 36.429,-36.429 -9.335,0 -16.897,16.302 -16.897,36.429 0,13.477 3.407,25.257 8.449,31.54 2.483,3.115 5.371,4.889 8.449,4.889 z"
   id="path186" />

	<path
   style="fill:#4c9cbf;stroke-width:1.58787"
   d="m 36.429,509.752 c -6.637,0 -12.857,-1.773 -18.215,-4.889 C 7.334,498.58 0,486.8 0,473.322 c 0,-20.127 16.315,-36.429 36.429,-36.429 -9.335,0 -16.897,16.302 -16.897,36.429 0,13.477 3.407,25.257 8.449,31.54 2.482,3.116 5.37,4.89 8.448,4.89 z"
   id="path188" />

	<path
   style="fill:#4c9cbf;stroke-width:1.58787"
   d="m 36.429,292.429 c -6.637,0 -12.857,-1.773 -18.215,-4.889 C 7.334,281.257 0,269.477 0,256 c 0,-20.127 16.315,-36.429 36.429,-36.429 -9.335,0 -16.897,16.302 -16.897,36.429 0,13.477 3.407,25.257 8.449,31.54 2.482,3.116 5.37,4.889 8.448,4.889 z"
   id="path190" />

	<path
   style="fill:#4c9cbf;stroke-width:1.58787"
   d="m 99.167,183.775 c -6.637,0 -12.857,-1.773 -18.215,-4.889 -10.881,-6.283 -18.215,-18.063 -18.215,-31.54 0,-20.127 16.315,-36.429 36.429,-36.429 -9.335,0 -16.897,16.302 -16.897,36.429 0,13.477 3.407,25.257 8.449,31.54 2.483,3.115 5.371,4.889 8.449,4.889 z"
   id="path192" />

</g>
      <g
         id="g206"
         style="stroke-width:1.58787">
	<path
   style="fill:#d37250;stroke-width:1.58787"
   d="m 224.631,401.097 c -6.637,0 -12.857,-1.773 -18.215,-4.889 -10.881,-6.283 -18.215,-18.063 -18.215,-31.54 0,-20.127 16.315,-36.429 36.429,-36.429 -9.335,0 -16.897,16.302 -16.897,36.429 0,13.477 3.407,25.257 8.449,31.54 2.483,3.116 5.371,4.889 8.449,4.889 z"
   id="path196" />

	<path
   style="fill:#d37250;stroke-width:1.58787"
   d="m 99.167,401.097 c -6.637,0 -12.857,-1.773 -18.215,-4.889 -10.881,-6.283 -18.215,-18.063 -18.215,-31.54 0,-20.127 16.315,-36.429 36.429,-36.429 -9.335,0 -16.897,16.302 -16.897,36.429 0,13.477 3.407,25.257 8.449,31.54 2.483,3.116 5.371,4.889 8.449,4.889 z"
   id="path198" />

	<path
   style="fill:#d37250;stroke-width:1.58787"
   d="m 224.631,183.775 c -6.637,0 -12.857,-1.773 -18.215,-4.889 -10.881,-6.283 -18.215,-18.063 -18.215,-31.54 0,-20.127 16.315,-36.429 36.429,-36.429 -9.335,0 -16.897,16.302 -16.897,36.429 0,13.477 3.407,25.257 8.449,31.54 2.483,3.115 5.371,4.889 8.449,4.889 z"
   id="path200" />

	<path
   style="fill:#d37250;stroke-width:1.58787"
   d="m 287.369,292.429 c -6.637,0 -12.857,-1.773 -18.215,-4.889 -10.881,-6.283 -18.215,-18.063 -18.215,-31.54 0,-20.127 16.315,-36.429 36.429,-36.429 -9.335,0 -16.897,16.302 -16.897,36.429 0,13.477 3.407,25.257 8.449,31.54 2.483,3.116 5.371,4.889 8.449,4.889 z"
   id="path202" />

	<path
   style="fill:#d37250;stroke-width:1.58787"
   d="m 412.845,292.429 c -6.637,0 -12.857,-1.773 -18.215,-4.889 -10.881,-6.283 -18.215,-18.063 -18.215,-31.54 0,-20.127 16.315,-36.429 36.429,-36.429 -9.335,0 -16.897,16.302 -16.897,36.429 0,13.477 3.407,25.257 8.449,31.54 2.483,3.116 5.371,4.889 8.449,4.889 z"
   id="path204" />

</g>
    </g>
  </g>
</svg>
