<?xml version="1.0" encoding="UTF-8" standalone="no"?>
<svg
   width="512"
   height="512"
   viewBox="0 0 135.46666 135.46667"
   version="1.1"
   id="svg8"
   sodipodi:docname="textiles.svg"
   inkscape:version="1.1.2 (0a00cf5339, 2022-02-04)"
   xmlns:inkscape="http://www.inkscape.org/namespaces/inkscape"
   xmlns:sodipodi="http://sodipodi.sourceforge.net/DTD/sodipodi-0.dtd"
   xmlns="http://www.w3.org/2000/svg"
   xmlns:svg="http://www.w3.org/2000/svg"
   xmlns:rdf="http://www.w3.org/1999/02/22-rdf-syntax-ns#"
   xmlns:cc="http://creativecommons.org/ns#"
   xmlns:dc="http://purl.org/dc/elements/1.1/">
  <defs
     id="defs2">
    <marker
       style="overflow:visible;"
       id="Arrow1Mend"
       refX="0.0"
       refY="0.0"
       orient="auto"
       inkscape:stockid="Arrow1Mend"
       inkscape:isstock="true">
      <path
         transform="scale(0.4) rotate(180) translate(10,0)"
         style="fill-rule:evenodd;stroke:#ffffff;stroke-width:1pt;stroke-opacity:1;fill:#ffffff;fill-opacity:1"
         d="M 0.0,0.0 L 5.0,-5.0 L -12.5,0.0 L 5.0,5.0 L 0.0,0.0 z "
         id="path868" />
    </marker>
    <marker
       style="overflow:visible;"
       id="marker1227"
       refX="0.0"
       refY="0.0"
       orient="auto"
       inkscape:stockid="Arrow1Lend"
       inkscape:isstock="true">
      <path
         transform="scale(0.8) rotate(180) translate(12.5,0)"
         style="fill-rule:evenodd;stroke:#ffffff;stroke-width:1pt;stroke-opacity:1;fill:#ffffff;fill-opacity:1"
         d="M 0.0,0.0 L 5.0,-5.0 L -12.5,0.0 L 5.0,5.0 L 0.0,0.0 z "
         id="path1225" />
    </marker>
    <marker
       style="overflow:visible;"
       id="Arrow1Lend"
       refX="0.0"
       refY="0.0"
       orient="auto"
       inkscape:stockid="Arrow1Lend"
       inkscape:isstock="true">
      <path
         transform="scale(0.8) rotate(180) translate(12.5,0)"
         style="fill-rule:evenodd;stroke:#ffffff;stroke-width:1pt;stroke-opacity:1;fill:#ffffff;fill-opacity:1"
         d="M 0.0,0.0 L 5.0,-5.0 L -12.5,0.0 L 5.0,5.0 L 0.0,0.0 z "
         id="path862" />
    </marker>
  </defs>
  <sodipodi:namedview
     id="base"
     pagecolor="#ffffff"
     bordercolor="#666666"
     borderopacity="1.0"
     inkscape:pageopacity="0"
     inkscape:pageshadow="2"
     inkscape:zoom="0.49497475"
     inkscape:cx="222.23356"
     inkscape:cy="200.0102"
     inkscape:document-units="mm"
     inkscape:current-layer="layer1"
     inkscape:document-rotation="0"
     showgrid="true"
     inkscape:window-width="1519"
     inkscape:window-height="842"
     inkscape:window-x="2160"
     inkscape:window-y="322"
     inkscape:window-maximized="0"
     inkscape:snap-grids="true"
     units="px"
     inkscape:pagecheckerboard="false">
    <inkscape:grid
       type="xygrid"
       id="grid876"
       empcolor="#000000"
       empopacity="0.39607843"
       color="#757575"
       opacity="0.28627451"
       empspacing="4"
       units="px"
       spacingx="2.1166666"
       spacingy="2.1166666" />
  </sodipodi:namedview>
  <metadata
     id="metadata5">
    <rdf:RDF>
      <cc:Work
         rdf:about="">
        <dc:format>image/svg+xml</dc:format>
        <dc:type
           rdf:resource="http://purl.org/dc/dcmitype/StillImage" />
      </cc:Work>
    </rdf:RDF>
  </metadata>
  <g
     inkscape:groupmode="layer"
     id="layer2"
     inkscape:label="Background"
     sodipodi:insensitive="true">
    <rect
       style="opacity:0.997213;fill:#008000;fill-opacity:1;stroke:#b3b3b3;stroke-width:2.11667;stroke-miterlimit:4;stroke-dasharray:none;stroke-opacity:0.999964;stop-color:#000000"
       id="rect957"
       width="118.53333"
       height="118.53333"
       x="8.4666662"
       y="8.4666662"
       rx="8.46667"
       ry="8.4666662" />
    <rect
       style="opacity:0.997213;fill:#008000;fill-opacity:1;stroke:#b3b3b3;stroke-width:2.11667;stroke-miterlimit:4;stroke-dasharray:none;stroke-opacity:0.999964;stop-color:#000000"
       id="rect1598"
       width="110.06667"
       height="110.06667"
       x="12.7"
       y="12.7"
       rx="2.1166666"
       ry="2.1166666" />
    <rect
       style="opacity:0.997213;fill:#008000;fill-opacity:1;stroke:#b3b3b3;stroke-width:2.11667;stroke-miterlimit:4;stroke-dasharray:none;stroke-opacity:0.999964;stop-color:#000000"
       id="rect1295"
       width="16.933332"
       height="16.933332"
       x="4.2333336"
       y="4.2333336"
       rx="2.1166663"
       ry="2.1166666" />
    <rect
       style="opacity:0.997213;fill:#008000;fill-opacity:1;stroke:#b3b3b3;stroke-width:2.11667;stroke-miterlimit:4;stroke-dasharray:none;stroke-opacity:0.999964;stop-color:#000000"
       id="rect1295-0"
       width="16.933332"
       height="16.933332"
       x="114.3"
       y="4.2333336"
       rx="2.1166663"
       ry="2.1166666" />
    <rect
       style="opacity:0.997213;fill:#008000;fill-opacity:1;stroke:#b3b3b3;stroke-width:2.11667;stroke-miterlimit:4;stroke-dasharray:none;stroke-opacity:0.999964;stop-color:#000000"
       id="rect1295-6"
       width="16.933332"
       height="16.933332"
       x="4.2333331"
       y="114.3"
       rx="2.1166663"
       ry="2.1166666" />
    <rect
       style="opacity:0.997213;fill:#008000;fill-opacity:1;stroke:#b3b3b3;stroke-width:2.11667;stroke-miterlimit:4;stroke-dasharray:none;stroke-opacity:0.999964;stop-color:#000000"
       id="rect1295-2"
       width="16.933332"
       height="16.933332"
       x="114.3"
       y="114.3"
       rx="2.1166663"
       ry="2.1166666" />
  </g>
  <g
     inkscape:label="Icon"
     inkscape:groupmode="layer"
     id="layer1">
    <g
       id="g129"
       transform="matrix(0.14510975,0,0,0.14510975,33.124168,30.626446)"
       style="stroke-width:2.84896">
      <path
         style="fill:#fbb03b;stroke-width:2.84896"
         d="M 304.666,143.723 9.813,144.64 v 309.875 c 0,26.407 21.407,47.814 47.814,47.814 h 199.225 c 26.407,0 47.814,-21.407 47.814,-47.814 z"
         id="path67" />
      <path
         style="fill:#a65a53;stroke-width:2.84896"
         d="m 384.357,40.126 h -39.845 c -8.802,0 -15.938,-7.136 -15.938,-15.938 v 0 c 0,-8.802 7.136,-15.938 15.938,-15.938 h 39.845 z"
         id="path69" />
      <path
         style="fill:#bf9484;stroke-width:2.84896"
         d="m 256.852,184.358 c 26.407,0 47.814,-22.57 47.814,-48.977 0,-26.407 -21.407,-48.977 -47.814,-48.977 H 57.627 c -26.407,0 -47.814,22.57 -47.814,48.977 0,26.407 21.407,48.977 47.814,48.977 z"
         id="path71" />
      <path
         style="fill:#514a51;stroke-width:2.84896"
         d="m 232.945,152.054 c 8.802,0 15.938,-7.35 15.938,-16.152 0,-8.802 -7.136,-16.152 -15.938,-16.152 H 81.534 c -8.802,0 -15.938,7.35 -15.938,16.152 0,8.802 7.136,16.152 15.938,16.152 z"
         id="path73" />
      <path
         style="fill:#a65a53;stroke-width:2.84896"
         d="m 304.666,470.453 h 175.318 c 13.204,0 23.907,-10.703 23.907,-23.907 v 0 -382.512 0 c 0,13.204 -10.704,23.907 -23.907,23.907 H 264.821 v 0 c 22.006,0 39.845,17.839 39.845,39.845 v 342.667"
         id="path75" />
      <g
         id="g93"
         style="stroke-width:2.84896">
	<path
   style="fill:#ffffff;stroke-width:2.84896"
   d="m 256.852,230.209 h -10.926 v -15.631 h 10.926 c 1.369,0 2.75,-0.069 4.103,-0.204 l 1.558,15.554 c -1.869,0.186 -3.773,0.281 -5.661,0.281 z m -19.262,0 h -15.631 v -15.631 h 15.631 z m -23.968,0 h -15.631 v -15.631 h 15.631 z m -23.967,0 h -15.631 v -15.631 h 15.631 z m -23.967,0 h -15.631 v -15.631 h 15.631 z m -23.968,0 h -15.631 v -15.631 h 15.631 z m -22.925,0 h -16.673 v -15.631 h 16.673 z m -23.967,0 H 78.155 v -15.631 h 16.673 z m -23.968,0 H 57.627 c -1.189,0 -2.386,-0.036 -3.559,-0.11 l 0.968,-15.601 c 0.851,0.053 1.723,0.079 2.591,0.079 H 70.86 Z M 44.928,228.78 c -6.061,-1.39 -11.798,-3.759 -17.052,-7.04 l 8.278,-13.258 c 3.777,2.358 7.906,4.062 12.269,5.063 z m 226.682,-0.533 -4.104,-15.084 c 4.305,-1.171 8.356,-3.042 12.042,-5.561 l 8.821,12.904 c -5.127,3.506 -10.766,6.111 -16.759,7.741 z M 20.457,216.198 C 15.791,212.06 11.894,207.211 8.878,201.785 l 13.66,-7.596 c 2.157,3.88 4.946,7.349 8.289,10.312 z m 275.096,-1.536 -10.84,-11.262 c 3.221,-3.101 5.873,-6.683 7.883,-10.649 l 13.942,7.068 c -2.802,5.533 -6.498,10.526 -10.985,14.843 z M 5.07,193.251 C 3.032,187.421 1.997,181.232 1.997,174.98 h 15.631 c 0,4.168 0.739,8.917 2.197,13.083 z m 304.949,-1.957 -14.934,-4.582 c 1.171,-3.786 1.764,-7.564 1.764,-11.733 h 15.631 c 0.002,5.211 -0.827,11.031 -2.461,16.315 z"
   id="path77" />

	<path
   style="fill:#ffffff;stroke-width:2.84896"
   d="m 256.852,311.49 h -11.968 v -15.631 h 11.968 c 1.215,0 2.446,-0.056 3.657,-0.166 l 1.411,15.567 c -1.678,0.153 -3.383,0.23 -5.068,0.23 z m -19.262,0 h -16.673 v -15.631 h 16.673 z m -23.968,0 H 196.95 v -15.631 h 16.673 v 15.631 z m -23.967,0 h -15.631 v -15.631 h 15.631 z m -23.967,0 h -15.631 v -15.631 h 15.631 z m -23.968,0 h -15.631 v -15.631 h 15.631 z m -23.967,0 h -15.631 v -15.631 h 15.631 z m -23.968,0 h -15.63 v -15.631 h 15.631 v 15.631 z m -23.967,0 H 57.627 c -1.39,0 -2.798,-0.053 -4.183,-0.157 l 1.176,-15.586 c 0.995,0.075 2.006,0.113 3.006,0.113 h 12.191 v 15.63 z M 44.29,309.861 c -6.015,-1.496 -11.71,-3.987 -16.925,-7.402 l 8.563,-13.077 c 3.745,2.451 7.828,4.238 12.136,5.31 z m 226.759,-0.212 -3.999,-15.11 c 4.298,-1.138 8.357,-2.983 12.065,-5.489 l 8.748,12.955 c -5.162,3.487 -10.82,6.059 -16.814,7.644 z M 20.074,296.773 C 15.517,292.57 11.709,287.68 8.756,282.238 l 13.74,-7.455 c 2.132,3.93 4.883,7.463 8.176,10.499 z m 275.001,-0.561 -10.762,-11.337 c 3.247,-3.082 5.94,-6.651 8.004,-10.608 l 13.858,7.231 c -2.865,5.49 -6.6,10.441 -11.1,14.714 z M 5.031,273.589 C 3.018,267.738 1.997,261.471 1.997,255.219 h 15.631 c 0,5.21 0.735,8.985 2.183,13.196 z m 304.727,-0.622 -14.866,-4.832 c 1.299,-3.997 1.958,-8.176 1.958,-12.419 l 15.631,0.002 c 0.001,5.886 -0.916,11.689 -2.723,17.249 z"
   id="path79" />

	<path
   style="fill:#ffffff;stroke-width:2.84896"
   d="m 57.574,389.644 c -1.164,0 -2.353,-0.038 -3.528,-0.11 l 0.977,-15.601 c 0.865,0.054 1.742,0.089 2.596,0.08 H 70.86 v 15.631 H 57.627 c -0.018,0 -0.035,0 -0.053,0 z m 199.278,0 h -10.926 v -15.631 h 10.926 c 1.367,0 2.742,-0.068 4.087,-0.202 l 1.554,15.554 c -1.859,0.184 -3.757,0.279 -5.641,0.279 z m -19.262,0 h -15.631 v -15.631 h 15.631 z m -23.968,0 h -15.631 v -15.631 h 15.631 z m -23.967,0 h -15.631 v -15.631 h 15.631 z m -23.967,0 h -15.631 v -15.631 h 15.631 z m -23.968,0 h -15.631 v -15.631 h 15.631 z m -22.925,0 h -16.673 v -15.631 h 16.673 z m -23.967,0 H 78.155 v -15.631 h 16.673 z m -49.919,-1.435 c -6.057,-1.393 -11.794,-3.765 -17.049,-7.052 l 8.286,-13.254 c 3.779,2.363 7.905,4.068 12.265,5.071 z m 226.682,-0.523 -4.102,-15.084 c 4.305,-1.17 8.358,-3.041 12.044,-5.559 l 8.818,12.906 c -5.129,3.505 -10.768,6.109 -16.76,7.737 z M 20.443,375.609 c -4.664,-4.141 -8.556,-8.991 -11.571,-14.417 l 13.665,-7.589 c 2.155,3.88 4.941,7.351 8.283,10.315 z m 275.094,-1.5 -10.837,-11.264 c 3.222,-3.099 5.875,-6.681 7.887,-10.646 l 13.939,7.072 c -2.806,5.53 -6.503,10.522 -10.989,14.838 z M 5.069,352.671 C 3.031,346.842 1.997,340.667 1.997,334.415 h 15.631 c 0,4.168 0.739,8.91 2.196,13.078 z m 304.943,-2 -14.932,-4.625 c 1.175,-3.795 1.772,-7.761 1.77,-11.79 l 15.631,-0.002 c 0.002,5.6 -0.83,11.123 -2.469,16.417 z"
   id="path81" />

	<path
   style="fill:#ffffff;stroke-width:2.84896"
   d="m 256.852,469.883 h -10.926 v -15.631 h 10.926 c 1.312,0 2.633,-0.064 3.928,-0.19 l 1.51,15.558 c -1.794,0.174 -3.623,0.263 -5.438,0.263 z m -19.262,0 h -15.631 v -15.631 h 15.631 z m -23.968,0 h -15.631 v -15.631 h 15.631 z m -23.967,0 h -15.631 v -15.631 h 15.631 z m -23.967,0 h -15.631 v -15.631 h 15.631 z m -23.968,0 h -15.631 v -15.631 h 15.631 z m -23.967,0 h -15.631 v -15.631 h 15.631 z m -23.968,0 h -15.63 v -15.631 h 15.631 v 15.631 z m -23.967,0 H 57.627 c -1.273,-10e-4 -2.547,-0.044 -3.794,-0.127 l 1.042,-15.597 c 0.907,0.061 1.835,0.092 2.759,0.093 h 12.184 z m -25.132,-1.502 c -6.044,-1.43 -11.766,-3.844 -17.006,-7.178 l 8.388,-13.19 c 3.765,2.395 7.876,4.13 12.218,5.156 z m 226.71,-0.413 -4.064,-15.093 c 4.303,-1.158 8.358,-3.02 12.052,-5.533 l 8.792,12.924 c -5.142,3.497 -10.788,6.088 -16.78,7.702 z M 20.307,455.603 C 15.682,451.44 11.82,446.575 8.829,441.142 l 13.693,-7.54 c 2.147,3.898 4.921,7.392 8.244,10.384 z m 275.064,-1.162 -10.809,-11.29 c 3.23,-3.094 5.899,-6.671 7.93,-10.633 l 13.909,7.132 c -2.828,5.513 -6.539,10.491 -11.03,14.791 z M 5.055,432.763 C 3.026,426.926 1.998,420.906 1.998,414.654 h 15.631 c 0,4.168 0.738,8.843 2.19,13.025 z m 304.867,-1.544 -14.908,-4.626 c 1.218,-3.866 1.836,-7.772 1.836,-11.94 h 15.631 c 0.001,5.211 -0.861,11.179 -2.559,16.566 z"
   id="path83" />

	<path
   style="fill:#ffffff;stroke-width:2.84896"
   d="m 479.985,167.477 h -7.969 v -15.631 h 7.969 c 1.809,0 3.581,-0.296 5.266,-0.88 l 5.114,14.77 c -3.334,1.155 -6.827,1.741 -10.38,1.741 z m -15.939,0 h -15.938 v -15.631 h 15.938 z m -23.907,0 h -15.937 v -15.631 h 15.938 v 15.631 z m -23.906,0 h -15.937 v -15.631 h 15.937 z m -23.907,0 h -15.938 v -15.631 h 15.938 z m -23.907,0 h -15.937 v -15.631 h 15.937 z m -23.907,0 h -15.938 v -15.631 h 15.938 z m -23.907,0 h -15.938 v -15.631 h 15.938 z m 178.997,-6.793 -9.672,-12.279 c 2.834,-2.232 4.858,-5.377 5.697,-8.852 l 15.194,3.669 c -1.659,6.868 -5.643,13.069 -11.219,17.462 z"
   id="path85" />

	<path
   style="fill:#ffffff;stroke-width:2.84896"
   d="m 479.985,255.136 h -7.969 v -15.631 h 7.969 c 1.809,0 3.581,-0.296 5.266,-0.88 l 5.114,14.77 c -3.334,1.155 -6.827,1.741 -10.38,1.741 z m -15.939,0 h -15.938 v -15.631 h 15.938 z m -23.907,0 h -15.937 v -15.631 h 15.938 v 15.631 z m -23.906,0 h -15.937 v -15.631 h 15.937 z m -23.907,0 h -15.938 v -15.631 h 15.938 z m -23.907,0 h -15.937 v -15.631 h 15.937 z m -23.907,0 h -15.938 v -15.631 h 15.938 z m -23.907,0 h -15.938 v -15.631 h 15.938 z m 178.997,-6.793 -9.672,-12.279 c 2.834,-2.233 4.858,-5.377 5.697,-8.852 l 15.194,3.669 c -1.659,6.868 -5.643,13.071 -11.219,17.462 z"
   id="path87" />

	<path
   style="fill:#ffffff;stroke-width:2.84896"
   d="m 479.985,342.795 h -7.969 v -15.631 h 7.969 c 1.809,0 3.581,-0.296 5.266,-0.879 l 5.114,14.77 c -3.334,1.155 -6.827,1.74 -10.38,1.74 z m -15.939,0 h -15.938 v -15.631 h 15.938 z m -23.907,0 h -15.937 v -15.631 h 15.938 v 15.631 z m -23.906,0 h -15.937 v -15.631 h 15.937 z m -23.907,0 h -15.938 v -15.631 h 15.938 z m -23.907,0 h -15.937 v -15.631 h 15.937 z m -23.907,0 h -15.938 v -15.631 h 15.938 z m -23.907,0 h -15.938 v -15.631 h 15.938 z m 178.997,-6.793 -9.672,-12.279 c 2.834,-2.232 4.858,-5.377 5.697,-8.852 l 15.194,3.669 c -1.659,6.869 -5.643,13.071 -11.219,17.462 z"
   id="path89" />

	<path
   style="fill:#ffffff;stroke-width:2.84896"
   d="m 479.985,430.455 h -7.969 v -15.631 h 7.969 c 1.809,0 3.581,-0.296 5.266,-0.879 l 5.114,14.77 c -3.334,1.155 -6.827,1.74 -10.38,1.74 z m -15.939,0 h -15.938 v -15.631 h 15.938 z m -23.907,0 h -15.937 v -15.631 h 15.938 v 15.631 z m -23.906,0 h -15.937 v -15.631 h 15.937 z m -23.907,0 h -15.938 v -15.631 h 15.938 z m -23.907,0 h -15.937 v -15.631 h 15.937 z m -23.907,0 h -15.938 v -15.631 h 15.938 z m -23.907,0 h -15.938 v -15.631 h 15.938 z m 178.997,-6.794 -9.672,-12.279 c 2.834,-2.232 4.858,-5.377 5.697,-8.852 l 15.194,3.669 c -1.659,6.87 -5.643,13.071 -11.219,17.462 z"
   id="path91" />

</g>
      <path
         style="fill:#fbb03b;stroke-width:2.84896"
         d="m 328.573,87.941 h 151.411 c 13.204,0 23.907,-10.703 23.907,-23.907 v 0 c 0,-13.204 -10.704,-23.907 -23.907,-23.907 H 344.512 c -8.802,0 -15.938,-7.136 -15.938,-15.938 v 0 z"
         id="path95" />
      <path
         d="M 232.944,159.349 H 81.533 c -13.098,0 -23.753,-10.751 -23.753,-23.967 0,-13.216 10.656,-23.967 23.753,-23.967 h 151.411 c 13.098,0 23.754,10.751 23.754,23.967 0,13.216 -10.655,23.967 -23.754,23.967 z M 81.534,127.045 c -4.403,0 -8.122,3.817 -8.122,8.336 0,4.519 3.719,8.336 8.122,8.336 h 151.411 c 4.403,0 8.123,-3.817 8.123,-8.336 0,-4.519 -3.72,-8.336 -8.123,-8.336 0,0 -151.411,0 -151.411,0 z"
         id="path97"
         style="stroke-width:2.84896" />
      <path
         d="m 511.707,64.026 v 0 C 511.704,46.537 497.475,32.31 479.985,32.31 H 392.173 V 0.435 h -47.661 c -13.098,0 -23.754,10.656 -23.754,23.754 0,0.008 0.001,0.017 0.001,0.024 h -0.001 L 320.93,79.559 57.627,79.11 C 42.788,79.11 28.786,85.135 18.201,96.077 7.762,106.865 2.011,120.99 1.999,135.853 H 1.997 L 0,454.515 c 0,30.392 26.928,57.051 57.627,57.051 h 199.225 c 30.583,0 56.42,-25.819 56.42,-56.4 l -0.791,-319.803 h -0.013 c -0.138,-14.683 -5.868,-28.616 -16.19,-39.285 -0.325,-0.336 -0.663,-0.652 -0.993,-0.979 l 184.699,0.658 c 5.879,0 11.387,-1.613 16.112,-4.412 l 0.272,353.785 c 0,8.623 -7.196,15.377 -16.384,15.377 H 319.913 v 15.631 h 160.072 c 17.953,0 32.015,-13.62 32.015,-31.014 z M 297.642,455.184 c 0,22.089 -18.679,40.75 -40.789,40.75 H 57.627 C 35.255,495.935 15.631,476.58 15.631,454.564 l 1.754,-279.719 c 0.273,0.294 0.536,0.595 0.816,0.884 10.586,10.942 24.587,16.967 39.426,16.967 h 199.225 c 14.839,0 28.841,-6.025 39.426,-16.967 0.23,-0.238 0.445,-0.486 0.67,-0.726 z m -0.791,-319.282 c 0,22.312 -18.317,41.161 -39.998,41.161 H 57.627 c -21.682,0 -39.998,-18.85 -39.998,-41.161 0,-22.311 18.317,-41.161 39.998,-41.161 h 137.135 l 66.25,0.236 c 19.813,2.22 35.839,20.056 35.839,40.925 z M 336.389,24.187 c 10e-4,-4.478 3.644,-8.122 8.123,-8.122 h 32.03 v 16.246 h -32.03 c -4.479,0 -8.122,-3.643 -8.123,-8.121 z m 143.624,55.938 -143.451,-0.511 -0.103,-33.08 c 2.516,0.91 5.227,1.408 8.053,1.408 h 135.473 c 8.873,0 16.091,7.218 16.091,16.09 0,8.874 -7.219,16.093 -16.063,16.093 z"
         id="path99"
         style="stroke-width:2.84896" />
      <path
         d="m 57.313,167.477 c -16.673,0 -31.722,-14.23 -31.722,-31.722 0,-17.492 15.049,-31.722 31.722,-31.722 v 15.631 c -8.336,0 -16.092,7.218 -16.092,16.09 0,8.873 7.755,16.092 16.092,16.092 z"
         id="path101"
         style="stroke-width:2.84896" />
      <path
         d="m 256.347,167.477 v -15.631 c 9.379,0 16.091,-7.219 16.091,-16.092 0,-8.873 -6.713,-16.09 -16.091,-16.09 v -15.631 c 17.715,0 31.722,14.23 31.722,31.721 0,17.493 -14.007,31.723 -31.722,31.723 z"
         id="path103"
         style="stroke-width:2.84896" />
    </g>
  </g>
</svg>
