<?xml version="1.0" encoding="UTF-8" standalone="no"?>
<svg
   width="512"
   height="512"
   viewBox="0 0 135.46666 135.46667"
   version="1.1"
   id="svg8"
   sodipodi:docname="vehicles.svg"
   inkscape:version="1.1.2 (0a00cf5339, 2022-02-04)"
   xmlns:inkscape="http://www.inkscape.org/namespaces/inkscape"
   xmlns:sodipodi="http://sodipodi.sourceforge.net/DTD/sodipodi-0.dtd"
   xmlns="http://www.w3.org/2000/svg"
   xmlns:svg="http://www.w3.org/2000/svg"
   xmlns:rdf="http://www.w3.org/1999/02/22-rdf-syntax-ns#"
   xmlns:cc="http://creativecommons.org/ns#"
   xmlns:dc="http://purl.org/dc/elements/1.1/">
  <defs
     id="defs2">
    <marker
       style="overflow:visible;"
       id="Arrow1Mend"
       refX="0.0"
       refY="0.0"
       orient="auto"
       inkscape:stockid="Arrow1Mend"
       inkscape:isstock="true">
      <path
         transform="scale(0.4) rotate(180) translate(10,0)"
         style="fill-rule:evenodd;stroke:#ffffff;stroke-width:1pt;stroke-opacity:1;fill:#ffffff;fill-opacity:1"
         d="M 0.0,0.0 L 5.0,-5.0 L -12.5,0.0 L 5.0,5.0 L 0.0,0.0 z "
         id="path868" />
    </marker>
    <marker
       style="overflow:visible;"
       id="marker1227"
       refX="0.0"
       refY="0.0"
       orient="auto"
       inkscape:stockid="Arrow1Lend"
       inkscape:isstock="true">
      <path
         transform="scale(0.8) rotate(180) translate(12.5,0)"
         style="fill-rule:evenodd;stroke:#ffffff;stroke-width:1pt;stroke-opacity:1;fill:#ffffff;fill-opacity:1"
         d="M 0.0,0.0 L 5.0,-5.0 L -12.5,0.0 L 5.0,5.0 L 0.0,0.0 z "
         id="path1225" />
    </marker>
    <marker
       style="overflow:visible;"
       id="Arrow1Lend"
       refX="0.0"
       refY="0.0"
       orient="auto"
       inkscape:stockid="Arrow1Lend"
       inkscape:isstock="true">
      <path
         transform="scale(0.8) rotate(180) translate(12.5,0)"
         style="fill-rule:evenodd;stroke:#ffffff;stroke-width:1pt;stroke-opacity:1;fill:#ffffff;fill-opacity:1"
         d="M 0.0,0.0 L 5.0,-5.0 L -12.5,0.0 L 5.0,5.0 L 0.0,0.0 z "
         id="path862" />
    </marker>
  </defs>
  <sodipodi:namedview
     id="base"
     pagecolor="#ffffff"
     bordercolor="#666666"
     borderopacity="1.0"
     inkscape:pageopacity="0"
     inkscape:pageshadow="2"
     inkscape:zoom="0.9899495"
     inkscape:cx="651.54839"
     inkscape:cy="219.2031"
     inkscape:document-units="mm"
     inkscape:current-layer="layer1"
     inkscape:document-rotation="0"
     showgrid="true"
     inkscape:window-width="1519"
     inkscape:window-height="842"
     inkscape:window-x="2307"
     inkscape:window-y="364"
     inkscape:window-maximized="0"
     inkscape:snap-grids="true"
     units="px"
     inkscape:pagecheckerboard="false">
    <inkscape:grid
       type="xygrid"
       id="grid876"
       empcolor="#000000"
       empopacity="0.39607843"
       color="#757575"
       opacity="0.28627451"
       empspacing="4"
       units="px"
       spacingx="2.1166666"
       spacingy="2.1166666" />
  </sodipodi:namedview>
  <metadata
     id="metadata5">
    <rdf:RDF>
      <cc:Work
         rdf:about="">
        <dc:format>image/svg+xml</dc:format>
        <dc:type
           rdf:resource="http://purl.org/dc/dcmitype/StillImage" />
      </cc:Work>
    </rdf:RDF>
  </metadata>
  <g
     inkscape:groupmode="layer"
     id="layer2"
     inkscape:label="Background"
     sodipodi:insensitive="true">
    <rect
       style="opacity:0.997213;fill:#000080;fill-opacity:1;stroke:#b3b3b3;stroke-width:2.11667;stroke-miterlimit:4;stroke-dasharray:none;stroke-opacity:0.999964;stop-color:#000000"
       id="rect957"
       width="118.53333"
       height="118.53333"
       x="8.4666662"
       y="8.4666662"
       rx="8.46667"
       ry="8.4666662" />
    <rect
       style="opacity:0.997213;fill:#000080;fill-opacity:1;stroke:#b3b3b3;stroke-width:2.11667;stroke-miterlimit:4;stroke-dasharray:none;stroke-opacity:0.999964;stop-color:#000000"
       id="rect1598"
       width="110.06667"
       height="110.06667"
       x="12.7"
       y="12.7"
       rx="2.1166666"
       ry="2.1166666" />
    <rect
       style="opacity:0.997213;fill:#000080;fill-opacity:1;stroke:#b3b3b3;stroke-width:2.11667;stroke-miterlimit:4;stroke-dasharray:none;stroke-opacity:0.999964;stop-color:#000000"
       id="rect1295"
       width="16.933332"
       height="16.933332"
       x="4.2333336"
       y="4.2333336"
       rx="2.1166663"
       ry="2.1166666" />
    <rect
       style="opacity:0.997213;fill:#000080;fill-opacity:1;stroke:#b3b3b3;stroke-width:2.11667;stroke-miterlimit:4;stroke-dasharray:none;stroke-opacity:0.999964;stop-color:#000000"
       id="rect1295-0"
       width="16.933332"
       height="16.933332"
       x="114.3"
       y="4.2333336"
       rx="2.1166663"
       ry="2.1166666" />
    <rect
       style="opacity:0.997213;fill:#000080;fill-opacity:1;stroke:#b3b3b3;stroke-width:2.11667;stroke-miterlimit:4;stroke-dasharray:none;stroke-opacity:0.999964;stop-color:#000000"
       id="rect1295-6"
       width="16.933332"
       height="16.933332"
       x="4.2333331"
       y="114.3"
       rx="2.1166663"
       ry="2.1166666" />
    <rect
       style="opacity:0.997213;fill:#000080;fill-opacity:1;stroke:#b3b3b3;stroke-width:2.11667;stroke-miterlimit:4;stroke-dasharray:none;stroke-opacity:0.999964;stop-color:#000000"
       id="rect1295-2"
       width="16.933332"
       height="16.933332"
       x="114.3"
       y="114.3"
       rx="2.1166663"
       ry="2.1166666" />
  </g>
  <g
     inkscape:label="Icon"
     inkscape:groupmode="layer"
     id="layer1">
    <polygon
       style="fill:#67d1d3;stroke-width:2.71409"
       points="439.965,220.168 70.996,220.168 95.1,77.537 415.861,77.537 "
       id="polygon106"
       transform="matrix(0.15232053,0,0,0.15232053,28.818482,30.520289)" />
    <polygon
       style="fill:#38979e;stroke-width:2.71409"
       points="255.48,220.168 439.965,220.168 415.861,77.537 255.48,77.537 "
       id="polygon108"
       transform="matrix(0.15232053,0,0,0.15232053,28.818482,30.520289)" />
    <path
       style="fill:#286569;stroke-width:0.413412"
       d="m 80.835181,75.529939 c -6.528914,0 -11.840788,-5.311873 -11.840788,-11.840788 0,-6.528915 5.311874,-11.840789 11.840788,-11.840789 6.528915,0 11.840789,5.311874 11.840789,11.840789 0,6.528915 -5.311874,11.840788 -11.840789,11.840788 z m 0,-18.174124 c -3.492252,0 -6.333335,2.841235 -6.333335,6.333336 0,3.4921 2.841235,6.333335 6.333335,6.333335 3.492101,0 6.333336,-2.841235 6.333336,-6.333335 0,-3.492101 -2.841083,-6.333336 -6.333336,-6.333336 z"
       id="path110" />
    <path
       style="fill:#38979e;stroke-width:0.413412"
       d="M 72.689841,44.943063 H 70.486982 V 41.902136 H 64.97968 v 3.040927 h -2.202859 c -1.520768,0 -2.753651,1.232882 -2.753651,2.753651 0,1.520768 1.232883,2.75365 2.753651,2.75365 h 9.913172 c 1.520769,0 2.753651,-1.232882 2.753651,-2.75365 0,-1.520769 -1.23273,-2.753651 -2.753803,-2.753651 z"
       id="path112" />
    <path
       style="fill:#286569;stroke-width:0.413412"
       d="m 72.689841,44.943063 h -2.202859 v -3.040927 h -2.753651 v 8.548228 h 4.95651 c 1.520768,0 2.753651,-1.232882 2.753651,-2.75365 0,-1.520769 -1.232578,-2.753651 -2.753651,-2.753651 z"
       id="path114" />
    <path
       style="fill:#550000;stroke-width:0.413412"
       d="m 98.869323,55.476332 h -3.60497 c -0.657416,0 -1.281473,0.287886 -1.70858,0.787954 -0.426954,0.500069 -0.613394,1.161749 -0.509969,1.810939 0.271588,1.709037 0.523374,3.542519 0.769676,5.605091 0.134956,1.129304 1.093052,1.97971 2.23043,1.97971 h 8.51396 c 1.24065,0 2.24642,-1.005772 2.24642,-2.246423 3e-4,-4.376321 -3.56034,-7.937271 -7.936967,-7.937271 z"
       id="path116" />
    <path
       style="fill:#800000;stroke-width:0.413412"
       d="m 39.947325,55.476332 h -3.191573 c -4.376625,0 -7.93727,3.56095 -7.93727,7.937575 0,1.240651 1.005772,2.246424 2.246423,2.246424 h 8.104366 c 1.076754,0 2.002101,-0.764192 2.205906,-1.821449 l 0.01584,-0.07997 c 0.01127,-0.05666 0.02224,-0.113326 0.0329,-0.170142 0,-9.14e-4 1.52e-4,-0.0017 3.04e-4,-0.0024 0.06321,-0.342721 0.124599,-0.703416 0.187659,-1.101277 0.0066,-0.04219 0.0329,-0.223302 0.06169,-0.42467 0.02757,-0.192685 0.05819,-0.407762 0.07327,-0.507075 0.0073,-0.04037 0.01371,-0.08119 0.01904,-0.122313 0.09307,-0.725808 0.178672,-1.458165 0.26123,-2.166607 0.0495,-0.424213 0.09901,-0.848273 0.150188,-1.272181 0.07707,-0.638376 -0.12277,-1.278731 -0.549115,-1.75976 -0.426346,-0.480875 -1.038217,-0.756119 -1.680857,-0.756119 z m 1.595557,6.682607 c 0.08499,-0.16801 0.149579,-0.348814 0.190705,-0.53952 -0.0396,0.190401 -0.104491,0.371205 -0.190705,0.53952 z"
       id="path118" />
    <path
       style="fill:#aa0000;stroke-width:0.413412"
       d="M 96.764558,67.123065 H 38.702409 c -0.808518,0 -1.576365,-0.355364 -2.099586,-0.971805 -0.523374,-0.616441 -0.74896,-1.431966 -0.617508,-2.229668 l 2.706279,-16.416498 c 0.883764,-5.364119 5.471506,-9.257585 10.90813,-9.257585 h 36.267518 c 5.436625,0 10.024215,3.893466 10.908283,9.257585 l 2.705974,16.416498 c 0.131605,0.797855 -0.09413,1.613074 -0.617355,2.229668 -0.523221,0.616441 -1.291069,0.971805 -2.099586,0.971805 z M 41.946988,61.615764 H 93.519826 L 91.34149,48.400587 c -1.52e-4,0 -1.52e-4,0 -1.52e-4,0 -0.443558,-2.691961 -2.74573,-4.645929 -5.474096,-4.645929 H 49.599724 c -2.728365,0 -5.030538,1.953968 -5.474095,4.645929 z"
       id="path120" />
    <path
       style="fill:#800000;stroke-width:0.413412"
       d="M 96.775373,47.504942 C 95.891457,42.140822 91.303714,38.247357 85.86709,38.247357 H 67.733331 v 5.507301 H 85.86709 c 2.728365,0 5.030538,1.953968 5.474095,4.645929 0,0 0,0 1.53e-4,0 l 2.178336,13.215024 H 67.733331 v 5.507301 h 29.031074 c 0.808518,0 1.576366,-0.355363 2.099587,-0.971805 0.523373,-0.616441 0.74896,-1.431965 0.617355,-2.229668 z"
       id="path122" />
    <path
       style="fill:#3e3e42;stroke-width:0.413412"
       d="M 47.421236,82.819238 H 36.122251 c -1.520768,0 -2.75365,1.232883 -2.75365,2.753651 v 8.731165 c 0,3.571459 2.905666,6.477126 6.477126,6.477126 h 3.851881 c 3.57146,0 6.477126,-2.905667 6.477126,-6.477126 v -8.731165 c 1.53e-4,-1.520921 -1.23273,-2.753651 -2.753498,-2.753651 z"
       id="path124" />
    <path
       style="fill:#1d1d1f;stroke-width:0.413412"
       d="M 99.448598,82.819238 H 88.149613 c -1.520768,0 -2.75365,1.232883 -2.75365,2.753651 v 8.731165 c 0,3.571459 2.905666,6.477126 6.477126,6.477126 h 3.851881 c 3.57146,0 6.47713,-2.905667 6.47713,-6.477126 v -8.731165 c 1.5e-4,-1.520921 -1.23273,-2.753651 -2.753502,-2.753651 z"
       id="path126" />
    <path
       style="fill:#ff2a2a;stroke-width:0.413412"
       d="M 92.546498,61.248671 H 42.920012 c -7.242232,0 -13.134447,6.647877 -13.134447,14.819264 v 7.760884 c 0,4.395361 3.169486,7.971238 7.064931,7.971238 h 61.765213 c 3.895901,0 7.065081,-3.575877 7.065081,-7.971238 V 76.067935 C 105.6811,67.896548 99.789034,61.248671 92.546498,61.248671 Z"
       id="path128" />
    <g
       id="g134"
       style="stroke-width:2.71409;fill:#aa0000"
       transform="matrix(0.15232053,0,0,0.15232053,28.818482,30.520289)">
	<path
   style="fill:#aa0000;stroke-width:2.71409"
   d="M 328.328,284.252 H 182.632 c -9.984,0 -18.078,-8.094 -18.078,-18.078 0,-9.984 8.094,-18.078 18.078,-18.078 h 145.697 c 9.984,0 18.078,8.094 18.078,18.078 0,9.984 -8.095,18.078 -18.079,18.078 z"
   id="path130" />

	<path
   style="fill:#aa0000;stroke-width:2.71409"
   d="M 328.328,336.048 H 182.632 c -9.984,0 -18.078,-8.094 -18.078,-18.078 0,-9.984 8.094,-18.078 18.078,-18.078 h 145.697 c 9.984,0 18.078,8.094 18.078,18.078 0,9.984 -8.095,18.078 -18.079,18.078 z"
   id="path132" />

</g>
    <path
       style="fill:#d40000;stroke-width:0.413412"
       d="M 92.546498,61.248671 H 67.733331 v 30.55169 h 30.882683 c 3.895906,0 7.065086,-3.575876 7.065086,-7.971238 V 76.06824 c 0,-8.171692 -5.892066,-14.819569 -13.134602,-14.819569 z"
       id="path136" />
    <g
       id="g142"
       style="stroke-width:2.71409;fill:#550000"
       transform="matrix(0.15232053,0,0,0.15232053,28.818482,30.520289)">
	<path
   style="fill:#550000;stroke-width:2.71409"
   d="M 328.328,248.096 H 255.48 v 36.156 h 72.848 c 9.984,0 18.078,-8.094 18.078,-18.078 0,-9.984 -8.094,-18.078 -18.078,-18.078 z"
   id="path138" />

	<path
   style="fill:#550000;stroke-width:2.71409"
   d="M 328.328,299.892 H 255.48 v 36.156 h 72.848 c 9.984,0 18.078,-8.094 18.078,-18.078 0,-9.984 -8.094,-18.078 -18.078,-18.078 z"
   id="path140" />

</g>
    <path
       style="fill:#e1e1e3;stroke-width:0.413412"
       d="M 78.839782,98.481749 H 56.62688 c -1.520769,0 -2.753651,-1.232882 -2.753651,-2.75365 V 87.87232 c 0,-1.520769 1.232882,-2.753651 2.753651,-2.753651 h 22.21275 c 1.520768,0 2.753651,1.232882 2.753651,2.753651 v 7.855779 c 1.52e-4,1.520615 -1.232578,2.75365 -2.753499,2.75365 z"
       id="path144" />
    <path
       style="fill:#8a8a91;stroke-width:0.413412"
       d="M 78.839782,85.118517 H 67.733331 v 13.36308 h 11.106451 c 1.520769,0 2.753651,-1.232883 2.753651,-2.753651 v -7.855779 c 0,-1.520616 -1.23273,-2.75365 -2.753651,-2.75365 z"
       id="path146" />
    <circle
       style="fill:#f7dc4d;stroke-width:0.413412"
       cx="43.568897"
       cy="74.787987"
       r="5.1359434"
       id="circle148" />
    <circle
       style="fill:#eda637;stroke-width:0.413412"
       cx="92.001953"
       cy="74.787987"
       r="5.1359434"
       id="circle150" />
  </g>
</svg>
