<?xml version="1.0" encoding="UTF-8" standalone="no"?>
<svg
   width="512"
   height="512"
   viewBox="0 0 135.46666 135.46667"
   version="1.1"
   id="svg8"
   sodipodi:docname="advanced_machine_parts.svg"
   inkscape:version="1.1.2 (0a00cf5339, 2022-02-04)"
   xmlns:inkscape="http://www.inkscape.org/namespaces/inkscape"
   xmlns:sodipodi="http://sodipodi.sourceforge.net/DTD/sodipodi-0.dtd"
   xmlns="http://www.w3.org/2000/svg"
   xmlns:svg="http://www.w3.org/2000/svg"
   xmlns:rdf="http://www.w3.org/1999/02/22-rdf-syntax-ns#"
   xmlns:cc="http://creativecommons.org/ns#"
   xmlns:dc="http://purl.org/dc/elements/1.1/">
  <defs
     id="defs2">
    <marker
       style="overflow:visible;"
       id="Arrow1Mend"
       refX="0.0"
       refY="0.0"
       orient="auto"
       inkscape:stockid="Arrow1Mend"
       inkscape:isstock="true">
      <path
         transform="scale(0.4) rotate(180) translate(10,0)"
         style="fill-rule:evenodd;stroke:#ffffff;stroke-width:1pt;stroke-opacity:1;fill:#ffffff;fill-opacity:1"
         d="M 0.0,0.0 L 5.0,-5.0 L -12.5,0.0 L 5.0,5.0 L 0.0,0.0 z "
         id="path868" />
    </marker>
    <marker
       style="overflow:visible;"
       id="marker1227"
       refX="0.0"
       refY="0.0"
       orient="auto"
       inkscape:stockid="Arrow1Lend"
       inkscape:isstock="true">
      <path
         transform="scale(0.8) rotate(180) translate(12.5,0)"
         style="fill-rule:evenodd;stroke:#ffffff;stroke-width:1pt;stroke-opacity:1;fill:#ffffff;fill-opacity:1"
         d="M 0.0,0.0 L 5.0,-5.0 L -12.5,0.0 L 5.0,5.0 L 0.0,0.0 z "
         id="path1225" />
    </marker>
    <marker
       style="overflow:visible;"
       id="Arrow1Lend"
       refX="0.0"
       refY="0.0"
       orient="auto"
       inkscape:stockid="Arrow1Lend"
       inkscape:isstock="true">
      <path
         transform="scale(0.8) rotate(180) translate(12.5,0)"
         style="fill-rule:evenodd;stroke:#ffffff;stroke-width:1pt;stroke-opacity:1;fill:#ffffff;fill-opacity:1"
         d="M 0.0,0.0 L 5.0,-5.0 L -12.5,0.0 L 5.0,5.0 L 0.0,0.0 z "
         id="path862" />
    </marker>
  </defs>
  <sodipodi:namedview
     id="base"
     pagecolor="#ffffff"
     bordercolor="#666666"
     borderopacity="1.0"
     inkscape:pageopacity="0"
     inkscape:pageshadow="2"
     inkscape:zoom="1.979899"
     inkscape:cx="203.79827"
     inkscape:cy="376.53436"
     inkscape:document-units="mm"
     inkscape:current-layer="layer1"
     inkscape:document-rotation="0"
     showgrid="true"
     inkscape:window-width="2560"
     inkscape:window-height="1343"
     inkscape:window-x="1200"
     inkscape:window-y="240"
     inkscape:window-maximized="1"
     inkscape:snap-grids="false"
     units="px"
     inkscape:pagecheckerboard="false"
     inkscape:snap-object-midpoints="true">
    <inkscape:grid
       type="xygrid"
       id="grid876"
       empcolor="#000000"
       empopacity="0.39607843"
       color="#757575"
       opacity="0.28627451"
       empspacing="4"
       units="px"
       spacingx="2.1166666"
       spacingy="2.1166666" />
  </sodipodi:namedview>
  <metadata
     id="metadata5">
    <rdf:RDF>
      <cc:Work
         rdf:about="">
        <dc:format>image/svg+xml</dc:format>
        <dc:type
           rdf:resource="http://purl.org/dc/dcmitype/StillImage" />
      </cc:Work>
    </rdf:RDF>
  </metadata>
  <g
     inkscape:groupmode="layer"
     id="layer2"
     inkscape:label="Background">
    <rect
       style="opacity:0.997213;fill:#000080;stroke:#b3b3b3;stroke-width:2.11667;stroke-miterlimit:4;stroke-dasharray:none;stroke-opacity:0.999964;stop-color:#000000;fill-opacity:1"
       id="rect957"
       width="118.53333"
       height="118.53333"
       x="8.4666662"
       y="8.4666662"
       rx="8.46667"
       ry="8.4666662" />
    <rect
       style="opacity:0.997213;fill:#000080;fill-opacity:1;stroke:#b3b3b3;stroke-width:2.11667;stroke-miterlimit:4;stroke-dasharray:none;stroke-opacity:0.999964;stop-color:#000000"
       id="rect1598"
       width="110.06667"
       height="110.06667"
       x="12.699998"
       y="12.699998"
       rx="2.1166666"
       ry="2.1166666" />
    <rect
       style="opacity:0.997213;fill:#000080;stroke:#b3b3b3;stroke-width:2.11667;stroke-miterlimit:4;stroke-dasharray:none;stroke-opacity:0.999964;stop-color:#000000;fill-opacity:1"
       id="rect1295"
       width="16.933332"
       height="16.933332"
       x="4.2333336"
       y="4.2333336"
       rx="2.1166663"
       ry="2.1166666" />
    <rect
       style="opacity:0.997213;fill:#000080;stroke:#b3b3b3;stroke-width:2.11667;stroke-miterlimit:4;stroke-dasharray:none;stroke-opacity:0.999964;stop-color:#000000;fill-opacity:1"
       id="rect1295-0"
       width="16.933332"
       height="16.933332"
       x="114.3"
       y="4.2333336"
       rx="2.1166663"
       ry="2.1166666" />
    <rect
       style="opacity:0.997213;fill:#000080;stroke:#b3b3b3;stroke-width:2.11667;stroke-miterlimit:4;stroke-dasharray:none;stroke-opacity:0.999964;stop-color:#000000;fill-opacity:1"
       id="rect1295-6"
       width="16.933332"
       height="16.933332"
       x="4.2333331"
       y="114.3"
       rx="2.1166663"
       ry="2.1166666" />
    <rect
       style="opacity:0.997213;fill:#000080;stroke:#b3b3b3;stroke-width:2.11667;stroke-miterlimit:4;stroke-dasharray:none;stroke-opacity:0.999964;stop-color:#000000;fill-opacity:1"
       id="rect1295-2"
       width="16.933332"
       height="16.933332"
       x="114.3"
       y="114.3"
       rx="2.1166663"
       ry="2.1166666" />
  </g>
  <g
     inkscape:label="Icon"
     inkscape:groupmode="layer"
     id="layer1">
    <g
       id="g724"
       transform="matrix(0.62193039,0.45689149,-0.45689149,0.62193039,73.318246,-21.675061)"
       style="stroke-width:1.3714;stroke-miterlimit:4;stroke-dasharray:none">
      <path
         id="path288"
         style="fill:#ffffff;stroke:#333333;stroke-width:5.18325;stroke-linecap:round;stroke-linejoin:bevel;stroke-miterlimit:4;stroke-dasharray:none;stroke-opacity:0.996078;stop-color:#000000"
         d="m 338.7207,225.36133 c -1.11403,-0.0525 -2.3538,0.0216 -3.73437,0.24023 -22.08915,3.49858 1.79993,30.73736 -18.12695,40.89063 -19.92691,10.15327 -27.92225,-25.18323 -43.73633,-9.36914 -15.81409,15.81408 19.52241,23.80941 9.36914,43.73633 -10.15327,19.92687 -37.39205,-3.9622 -40.89063,18.12695 -3.49857,22.08915 29.79052,7.7878 33.28906,29.87695 3.49858,22.08915 -32.581,18.77426 -22.42773,38.70117 10.15327,19.92691 28.6781,-11.21057 44.49219,4.60352 15.81408,15.81408 -15.3234,34.33892 4.60351,44.49219 19.92691,10.15326 16.61202,-25.92436 38.70118,-22.42578 22.08914,3.49854 7.7878,36.78568 29.87695,33.2871 22.08915,-3.49857 -1.79996,-30.73735 18.12695,-40.89062 C 408.19058,396.47759 416.18592,431.81409 432,416 c 15.81409,-15.81409 -19.52241,-23.80942 -9.36914,-43.73633 10.15327,-19.92691 37.39205,3.9622 40.89062,-18.12695 3.49858,-22.08915 -29.78856,-7.7878 -33.2871,-29.87695 -3.49858,-22.08915 32.57904,-18.77427 22.42578,-38.70118 -10.15327,-19.92691 -28.67811,11.21057 -44.49219,-4.60351 -15.81409,-15.81409 15.32339,-34.33892 -4.60352,-44.49219 -19.92691,-10.15327 -16.61202,25.92631 -38.70117,22.42773 -20.70858,-3.27988 -9.43205,-32.7421 -26.14258,-33.52929 z M 320,284 a 19.999999,19.999999 0 0 1 20,20 19.999999,19.999999 0 0 1 -20,20 19.999999,19.999999 0 0 1 -20,-20 19.999999,19.999999 0 0 1 20,-20 z m 64,0 a 19.999999,19.999999 0 0 1 20,20 19.999999,19.999999 0 0 1 -20,20 19.999999,19.999999 0 0 1 -20,-20 19.999999,19.999999 0 0 1 20,-20 z m -64,64 a 19.999999,19.999999 0 0 1 20,20 19.999999,19.999999 0 0 1 -20,20 19.999999,19.999999 0 0 1 -20,-20 19.999999,19.999999 0 0 1 20,-20 z m 64,0 a 19.999999,19.999999 0 0 1 20,20 19.999999,19.999999 0 0 1 -20,20 19.999999,19.999999 0 0 1 -20,-20 19.999999,19.999999 0 0 1 20,-20 z"
         transform="scale(0.26458333)" />
      <circle
         style="fill:#333333;stroke:#333333;stroke-width:1.3714;stroke-linecap:round;stroke-linejoin:bevel;stroke-miterlimit:4;stroke-dasharray:none;stroke-opacity:0.996078;stop-color:#000000"
         id="path392-3-5"
         cx="93.133339"
         cy="88.900002"
         r="3.1750107" />
    </g>
    <path
       id="rect1728"
       style="fill:#ffffff;stroke:#333333;stroke-width:3.99999;stroke-linecap:round;stroke-linejoin:bevel;stroke-miterlimit:4;stroke-dasharray:none;stroke-opacity:0.996078;stop-color:#000000"
       d="M 203.9082 76.402344 C 187.24975 76.852329 201.23677 107.58576 181.39258 110.13867 C 161.87371 112.64973 167.1211 80.49963 151.85352 83.042969 C 150.83568 83.212518 149.72531 83.536663 148.51172 84.035156 C 129.09425 92.011006 160.1642 112.98516 143.47266 125.71484 C 126.78112 138.44453 114.7734 102.93281 101.94531 119.54883 C 89.117207 136.16485 126.51037 138.79406 118.41992 158.16406 C 110.32947 177.53406 82.176454 152.7859 79.375 173.58984 C 76.57355 194.39379 110.27271 177.97283 112.95117 198.79297 C 115.62964 219.6131 78.869857 212.25636 86.845703 231.67383 C 94.821553 251.09129 115.7957 220.02135 128.52539 236.71289 C 141.25508 253.40442 105.74335 265.4141 122.35938 278.24219 C 138.9754 291.07029 141.60656 253.67517 160.97656 261.76562 C 180.34656 269.85608 155.59645 298.01105 176.40039 300.8125 C 197.20434 303.61395 180.78338 269.91479 201.60352 267.23633 C 222.42366 264.55786 215.06691 301.31569 234.48438 293.33984 C 253.90184 285.36399 222.83189 264.38985 239.52344 251.66016 C 256.21497 238.93047 268.22464 274.4422 281.05273 257.82617 C 293.88084 241.21014 256.48572 238.58094 264.57617 219.21094 C 272.66662 199.84094 300.82159 224.5891 303.62305 203.78516 C 306.4245 182.98121 272.72534 199.40217 270.04688 178.58203 C 267.36841 157.76189 304.12624 165.11864 296.15039 145.70117 C 288.17454 126.28371 267.20039 157.35365 254.4707 140.66211 C 241.74102 123.97057 277.25274 111.96091 260.63672 99.132812 C 244.02069 86.304714 241.39148 123.69982 222.02148 115.60938 C 202.65149 107.51893 227.39964 79.363954 206.5957 76.5625 C 205.62052 76.431182 204.72747 76.380213 203.9082 76.402344 z M 197.19531 126.25195 A 62.72417 62.72417 0 0 1 253.71094 180.68359 A 62.72417 62.72417 0 0 1 253.96094 182.99023 L 219.27148 182.99023 A 28.353631 28.353631 0 0 0 197.19531 160.91406 L 197.19531 126.25195 z M 185.80078 126.30078 L 185.80078 160.92969 A 28.353631 28.353631 0 0 0 163.74023 182.99023 L 129.0625 182.99023 A 62.72417 62.72417 0 0 1 183.49414 126.47461 A 62.72417 62.72417 0 0 1 185.80078 126.30078 z M 129.11328 194.38477 L 163.74023 194.38477 A 28.353631 28.353631 0 0 0 185.80078 216.44531 L 185.80078 251.12305 A 62.72417 62.72417 0 0 1 129.28711 196.69141 A 62.72417 62.72417 0 0 1 129.11328 194.38477 z M 219.25586 194.38477 L 253.95703 194.38477 A 62.72417 62.72417 0 0 1 199.50195 250.89844 A 62.72417 62.72417 0 0 1 197.19531 251.07227 L 197.19531 216.44531 A 28.353631 28.353631 0 0 0 219.25586 194.38477 z "
       transform="scale(0.26458333)" />
    <path
       sodipodi:type="star"
       style="fill:#ffffff;stroke:#333333;stroke-width:4.10852;stroke-linecap:round;stroke-linejoin:bevel;stroke-miterlimit:4;stroke-dasharray:none;stroke-opacity:0.996078;stop-color:#000000"
       id="path1908"
       inkscape:flatsided="false"
       sodipodi:sides="24"
       sodipodi:cx="120.26876"
       sodipodi:cy="338.54938"
       sodipodi:r1="76.371277"
       sodipodi:r2="66.443008"
       sodipodi:arg1="0.86245981"
       sodipodi:arg2="0.9933595"
       inkscape:rounded="0.5"
       inkscape:randomized="0"
       d="m 169.95373,396.54917 c -5.17028,4.42907 -7.71103,-6.04587 -13.41518,-2.32955 -5.70416,3.71632 2.85118,10.27269 -3.28925,13.21267 -6.14044,2.93999 -5.88349,-7.83562 -12.35514,-5.72228 -6.47164,2.11335 0.0953,10.6606 -6.59686,11.91115 -6.69212,1.25054 -3.655,-9.0914 -10.45311,-8.72504 -6.7981,0.36635 -2.66714,10.322 -9.4549,9.79788 -6.78777,-0.52411 -1.17744,-9.72759 -7.83872,-11.1332 -6.661289,-1.40562 -5.2478,9.27997 -11.668623,7.01692 -6.420827,-2.26306 1.380369,-9.70088 -4.690138,-12.78266 -6.070508,-3.08179 -7.470813,7.60554 -13.087133,3.75776 -5.616321,-3.84778 3.844106,-9.01306 -1.22193,-13.561 -5.066036,-4.54794 -9.18471,5.4128 -13.61378,0.24252 -4.429071,-5.17028 6.045873,-7.71102 2.329551,-13.41518 -3.716322,-5.70415 -10.272685,2.85119 -13.212671,-3.28924 -2.939987,-6.14044 7.835624,-5.88349 5.722277,-12.35514 -2.113347,-6.47165 -10.660593,0.0953 -11.911141,-6.59686 -1.250547,-6.69213 9.091391,-3.655 8.725041,-10.45311 -0.366351,-6.7981 -10.322,-2.66714 -9.797886,-9.45491 0.524114,-6.78776 9.727594,-1.17743 11.133206,-7.83872 1.405611,-6.66128 -9.27998,-5.24779 -7.016921,-11.66862 2.263058,-6.42082 9.700877,1.38037 12.782661,-4.69013 3.081784,-6.07051 -7.605543,-7.47082 -3.757764,-13.08714 3.847779,-5.61632 9.013062,3.84411 13.561,-1.22193 4.547937,-5.06603 -5.412803,-9.18471 -0.242523,-13.61378 5.17028,-4.42907 7.711022,6.04588 13.415179,2.32955 5.704157,-3.71632 -2.851188,-10.27268 3.289247,-13.21267 6.140434,-2.93998 5.883488,7.83563 12.355135,5.72228 6.471643,-2.11335 -0.09527,-10.66059 6.596863,-11.91114 6.69213,-1.25055 3.655,9.09139 10.45311,8.72504 6.7981,-0.36635 2.66714,-10.322 9.4549,-9.79789 6.78777,0.52412 1.17744,9.7276 7.83873,11.13321 6.66128,1.40561 5.24779,-9.27998 11.66861,-7.01692 6.42083,2.26306 -1.38037,9.70088 4.69014,12.78266 6.07051,3.08178 7.47082,-7.60554 13.08714,-3.75776 5.61632,3.84777 -3.84411,9.01306 1.22193,13.561 5.06603,4.54793 9.18471,-5.41281 13.61378,-0.24253 4.42907,5.17028 -6.04588,7.71102 -2.32956,13.41518 3.71633,5.70416 10.27269,-2.85119 13.21268,3.28925 2.93998,6.14043 -7.83563,5.88349 -5.72228,12.35513 2.11334,6.47165 10.66059,-0.0953 11.91114,6.59686 1.25055,6.69213 -9.09139,3.65501 -8.72504,10.45311 0.36635,6.79811 10.322,2.66714 9.79788,9.45491 -0.52411,6.78777 -9.72759,1.17744 -11.1332,7.83872 -1.40561,6.66129 9.27998,5.24779 7.01692,11.66862 -2.26306,6.42083 -9.70088,-1.38037 -12.78266,4.69014 -3.08179,6.07051 7.60554,7.47081 3.75776,13.08713 -3.84778,5.61632 -9.01306,-3.8441 -13.561,1.22193 -4.54794,5.06604 5.41281,9.18471 0.24253,13.61378 z"
       transform="matrix(0.03810768,-0.12303074,0.12303074,0.03810768,-7.4930861,105.3521)" />
    <path
       sodipodi:type="star"
       style="fill:#ffffff;stroke:#333333;stroke-width:6.2817;stroke-linecap:round;stroke-linejoin:bevel;stroke-miterlimit:4;stroke-dasharray:none;stroke-opacity:0.996078;stop-color:#000000"
       id="path1908-5"
       inkscape:flatsided="false"
       sodipodi:sides="16"
       sodipodi:cx="120.26876"
       sodipodi:cy="338.54938"
       sodipodi:r1="76.371277"
       sodipodi:r2="66.443008"
       sodipodi:arg1="0.86245981"
       sodipodi:arg2="1.0588094"
       inkscape:rounded="0.5"
       inkscape:randomized="0"
       transform="matrix(0.02492418,-0.08046777,0.08046777,0.02492418,8.5021434,104.69637)"
       d="m 169.95373,396.54917 c -6.50618,5.57345 -9.66537,-4.27365 -17.13385,-0.0766 -7.46848,4.19706 -0.69997,12.01583 -8.84376,14.67522 -8.14379,2.6594 -7.29417,-7.64711 -15.8003,-6.62759 -8.50613,1.01952 -5.24495,10.83332 -13.78653,10.17378 -8.54159,-0.65953 -3.81252,-9.85637 -12.06131,-12.16961 -8.248784,-2.31324 -8.991431,8.00152 -16.63043,4.12347 -7.639001,-3.87805 0.249567,-10.56509 -6.486082,-15.85892 -6.735648,-5.29383 -11.369054,3.95157 -16.942502,-2.5546 -5.57345,-6.50617 4.273653,-9.66536 0.07659,-17.13384 -4.197065,-7.46849 -12.015837,-0.69998 -14.675228,-8.84376 -2.659391,-8.14379 7.647115,-7.29417 6.627596,-15.8003 -1.019518,-8.50613 -10.833318,-5.24495 -10.173783,-13.78654 0.659535,-8.54158 9.856372,-3.81251 12.169614,-12.0613 2.313241,-8.24879 -8.001525,-8.99143 -4.123473,-16.63043 3.878054,-7.639 10.565086,0.24956 15.858919,-6.48609 5.29383,-6.73564 -3.951572,-11.36905 2.554599,-16.9425 6.506174,-5.57345 9.665361,4.27366 17.133846,0.0766 7.468483,-4.19707 0.699973,-12.01584 8.843758,-14.67523 8.14379,-2.65939 7.29417,7.64712 15.8003,6.6276 8.50613,-1.01952 5.24495,-10.83332 13.78653,-10.17379 8.54159,0.65954 3.81252,9.85638 12.06131,12.16962 8.24879,2.31324 8.99143,-8.00153 16.63043,-4.12347 7.639,3.87805 -0.24957,10.56508 6.48608,15.85891 6.73565,5.29383 11.36906,-3.95157 16.94251,2.5546 5.57345,6.50618 -4.27366,9.66536 -0.0766,17.13385 4.19706,7.46848 12.01584,0.69997 14.67523,8.84376 2.65939,8.14378 -7.64712,7.29417 -6.6276,15.8003 1.01952,8.50612 10.83332,5.24495 10.17378,13.78653 -0.65953,8.54158 -9.85637,3.81251 -12.16961,12.0613 -2.31324,8.24879 8.00153,8.99144 4.12347,16.63044 -3.87805,7.639 -10.56508,-0.24957 -15.85892,6.48608 -5.29383,6.73565 3.95158,11.36905 -2.55459,16.9425 z" />
    <path
       id="path1908-5-6-2"
       style="fill:#ffffff;stroke:#333333;stroke-width:0.529167;stroke-linecap:round;stroke-linejoin:bevel;stroke-miterlimit:4;stroke-dasharray:none;stroke-opacity:0.996078;stop-color:#000000"
       d="m 44.006386,89.526256 c -0.265907,0.6709 0.604843,0.652803 0.47488,1.362684 -0.129955,0.709885 -0.937997,0.38486 -0.926984,1.106454 0.01102,0.721597 0.808695,0.371958 0.960279,1.077541 0.151585,0.705579 -0.719281,0.714416 -0.432772,1.376926 0.286328,0.66245 0.889243,0.03363 1.299303,0.627498 0.410062,0.593862 -0.391046,0.935327 0.127015,1.437787 0.51804,0.502457 0.834869,-0.308949 1.440972,0.08279 0.606102,0.391737 -0.0038,1.01399 0.667125,1.279952 0.670889,0.265966 0.652808,-0.604843 1.362687,-0.474874 0.709878,0.129973 0.384862,0.938 1.10646,0.926982 0.721588,-0.01102 0.371955,-0.808697 1.077536,-0.960281 0.70558,-0.151583 0.714419,0.719286 1.376864,0.432962 0.662454,-0.28632 0.03379,-0.889733 0.627655,-1.299791 0.593864,-0.410058 0.935185,0.391505 1.437633,-0.126527 0.50246,-0.518037 -0.308948,-0.834867 0.08279,-1.440972 0.391729,-0.606106 1.013986,0.0038 1.27995,-0.667123 0.266003,-0.67087 -0.605187,-0.65345 -0.475213,-1.363331 0.129954,-0.709883 0.93833,-0.384213 0.927317,-1.105807 -0.01102,-0.721597 -0.808705,-0.371961 -0.960279,-1.077541 -0.151584,-0.70558 0.719281,-0.714417 0.432772,-1.376926 -0.286327,-0.662453 -0.889739,-0.03379 -1.299791,-0.627649 -0.410061,-0.593863 0.391677,-0.935672 -0.126382,-1.438135 -0.518032,-0.502451 -0.835013,0.309447 -1.441117,-0.08229 -0.606112,-0.391741 0.0038,-1.01399 -0.667125,-1.279953 -0.670889,-0.265965 -0.653302,0.604691 -1.363184,0.474721 -0.709877,-0.129973 -0.384365,-0.937846 -1.105953,-0.926826 -0.721598,0.01102 -0.371966,0.808695 -1.077546,0.960279 -0.70558,0.151582 -0.714419,-0.719286 -1.376864,-0.432962 -0.662455,0.28632 -0.03379,0.889734 -0.627656,1.299792 -0.593864,0.410058 -0.935681,-0.391659 -1.438129,0.126373 -0.50245,0.518039 0.309445,0.835018 -0.08229,1.441122 -0.391731,0.606111 -1.013988,-0.0038 -1.279951,0.667126 z m 2.811835,1.389204 a 3.3174,3.1526577 17.209904 0 1 4.101266,-2.029682 3.3174,3.1526577 17.209904 0 1 2.236421,3.992724 3.3174,3.1526577 17.209904 0 1 -4.101913,2.030024 3.3174,3.1526577 17.209904 0 1 -2.235774,-3.993066 z" />
    <path
       id="path1908-5-6-2-9"
       style="fill:#ffffff;stroke:#333333;stroke-width:0.529167;stroke-linecap:round;stroke-linejoin:bevel;stroke-miterlimit:4;stroke-dasharray:none;stroke-opacity:0.996078;stop-color:#000000"
       d="m 55.667636,95.542783 c -0.584757,0.422939 0.15934,0.875558 -0.331683,1.404427 -0.491043,0.528868 -0.997878,-0.179434 -1.376323,0.435056 -0.378437,0.614497 0.482166,0.748234 0.230881,1.424755 -0.251313,0.676509 -0.990504,0.216026 -1.104851,0.92872 -0.114478,0.712539 0.731883,0.506179 0.75862,1.227369 0.02674,0.72118 -0.832372,0.57871 -0.665449,1.28084 0.166916,0.70211 0.87012,0.18804 1.170794,0.84409 0.300682,0.65606 -0.548021,0.85315 -0.125121,1.43795 0.422899,0.58479 0.875565,-0.15934 1.404416,0.33171 0.528858,0.49105 -0.179431,0.99788 0.435061,1.37632 0.614493,0.37844 0.748241,-0.48217 1.424752,-0.23088 0.676521,0.25128 0.216028,0.9905 0.928571,1.10498 0.71254,0.11448 0.506575,-0.73222 1.227763,-0.75895 0.721179,-0.0267 0.578344,0.83269 1.280445,0.66577 0.70212,-0.16691 0.18806,-0.8701 0.844098,-1.17079 0.656058,-0.30068 0.853154,0.54802 1.43794,0.12512 0.584818,-0.42286 -0.159281,-0.87628 0.331797,-1.40513 0.491043,-0.52887 0.997811,0.18016 1.376257,-0.43434 0.378437,-0.61449 -0.482174,-0.74824 -0.230881,-1.42475 0.251313,-0.67651 0.990504,-0.21603 1.104851,-0.92872 0.114479,-0.71255 -0.732222,-0.50658 -0.75895,-1.22776 -0.02674,-0.721184 0.83309,-0.578658 0.666168,-1.280789 -0.166918,-0.702109 -0.870499,-0.187701 -1.171183,-0.843753 -0.30069,-0.656067 0.54802,-0.85315 0.12512,-1.437943 -0.422899,-0.584795 -0.875892,0.158942 -1.404752,-0.332108 -0.528849,-0.491052 0.179767,-0.997483 -0.434716,-1.375919 -0.614501,-0.378445 -0.74825,0.482161 -1.42476,0.230876 -0.676519,-0.251295 -0.216029,-0.990506 -0.928571,-1.104981 -0.712541,-0.11448 -0.506576,0.732222 -1.227764,0.758951 -0.721178,0.02673 -0.578672,-0.833082 -1.280782,-0.666169 -0.702112,0.166917 -0.187665,0.870516 -0.843759,1.171183 -0.656059,0.300688 -0.853156,-0.548015 -1.437941,-0.12512 z m 1.624964,2.6825 a 3.3174,3.1526577 49.711947 0 1 4.549499,0.491951 3.3174,3.1526577 49.711947 0 1 -0.259277,4.569046 3.3174,3.1526577 49.711947 0 1 -4.550233,-0.49201 3.3174,3.1526577 49.711947 0 1 0.260011,-4.568987 z" />
    <circle
       style="fill:#333333;stroke:#333333;stroke-width:0.529167;stroke-linecap:round;stroke-linejoin:bevel;stroke-miterlimit:4;stroke-dasharray:none;stroke-opacity:0.996078;stop-color:#000000"
       id="path2447"
       cx="-87.361893"
       cy="67.617516"
       r="2.5691178"
       transform="rotate(-72.790096)" />
  </g>
</svg>
