<?xml version="1.0" encoding="UTF-8" standalone="no"?>
<svg
   width="512"
   height="512"
   viewBox="0 0 135.46666 135.46667"
   version="1.1"
   id="svg8"
   sodipodi:docname="common_ore.svg"
   inkscape:version="1.1.2 (0a00cf5339, 2022-02-04)"
   xmlns:inkscape="http://www.inkscape.org/namespaces/inkscape"
   xmlns:sodipodi="http://sodipodi.sourceforge.net/DTD/sodipodi-0.dtd"
   xmlns="http://www.w3.org/2000/svg"
   xmlns:svg="http://www.w3.org/2000/svg"
   xmlns:rdf="http://www.w3.org/1999/02/22-rdf-syntax-ns#"
   xmlns:cc="http://creativecommons.org/ns#"
   xmlns:dc="http://purl.org/dc/elements/1.1/">
  <defs
     id="defs2">
    <marker
       style="overflow:visible;"
       id="Arrow1Mend"
       refX="0.0"
       refY="0.0"
       orient="auto"
       inkscape:stockid="Arrow1Mend"
       inkscape:isstock="true">
      <path
         transform="scale(0.4) rotate(180) translate(10,0)"
         style="fill-rule:evenodd;stroke:#ffffff;stroke-width:1pt;stroke-opacity:1;fill:#ffffff;fill-opacity:1"
         d="M 0.0,0.0 L 5.0,-5.0 L -12.5,0.0 L 5.0,5.0 L 0.0,0.0 z "
         id="path868" />
    </marker>
    <marker
       style="overflow:visible;"
       id="marker1227"
       refX="0.0"
       refY="0.0"
       orient="auto"
       inkscape:stockid="Arrow1Lend"
       inkscape:isstock="true">
      <path
         transform="scale(0.8) rotate(180) translate(12.5,0)"
         style="fill-rule:evenodd;stroke:#ffffff;stroke-width:1pt;stroke-opacity:1;fill:#ffffff;fill-opacity:1"
         d="M 0.0,0.0 L 5.0,-5.0 L -12.5,0.0 L 5.0,5.0 L 0.0,0.0 z "
         id="path1225" />
    </marker>
    <marker
       style="overflow:visible;"
       id="Arrow1Lend"
       refX="0.0"
       refY="0.0"
       orient="auto"
       inkscape:stockid="Arrow1Lend"
       inkscape:isstock="true">
      <path
         transform="scale(0.8) rotate(180) translate(12.5,0)"
         style="fill-rule:evenodd;stroke:#ffffff;stroke-width:1pt;stroke-opacity:1;fill:#ffffff;fill-opacity:1"
         d="M 0.0,0.0 L 5.0,-5.0 L -12.5,0.0 L 5.0,5.0 L 0.0,0.0 z "
         id="path862" />
    </marker>
  </defs>
  <sodipodi:namedview
     id="base"
     pagecolor="#ffffff"
     bordercolor="#666666"
     borderopacity="1.0"
     inkscape:pageopacity="0"
     inkscape:pageshadow="2"
     inkscape:zoom="0.49497475"
     inkscape:cx="387.89857"
     inkscape:cy="165.66502"
     inkscape:document-units="mm"
     inkscape:current-layer="layer1"
     inkscape:document-rotation="0"
     showgrid="true"
     inkscape:window-width="1519"
     inkscape:window-height="842"
     inkscape:window-x="2076"
     inkscape:window-y="528"
     inkscape:window-maximized="0"
     inkscape:snap-grids="true"
     units="px"
     inkscape:pagecheckerboard="false">
    <inkscape:grid
       type="xygrid"
       id="grid876"
       empcolor="#000000"
       empopacity="0.39607843"
       color="#757575"
       opacity="0.28627451"
       empspacing="4"
       units="px"
       spacingx="2.1166666"
       spacingy="2.1166666" />
  </sodipodi:namedview>
  <metadata
     id="metadata5">
    <rdf:RDF>
      <cc:Work
         rdf:about="">
        <dc:format>image/svg+xml</dc:format>
        <dc:type
           rdf:resource="http://purl.org/dc/dcmitype/StillImage" />
      </cc:Work>
    </rdf:RDF>
  </metadata>
  <g
     inkscape:groupmode="layer"
     id="layer2"
     inkscape:label="Background"
     sodipodi:insensitive="true">
    <rect
       style="opacity:0.997213;fill:#000000;stroke:#b3b3b3;stroke-width:2.11667;stroke-miterlimit:4;stroke-dasharray:none;stroke-opacity:0.999964;stop-color:#000000"
       id="rect957"
       width="118.53333"
       height="118.53333"
       x="8.4666662"
       y="8.4666662"
       rx="8.46667"
       ry="8.4666662" />
    <rect
       style="opacity:0.997213;fill:#000000;stroke:#b3b3b3;stroke-width:2.11667;stroke-miterlimit:4;stroke-dasharray:none;stroke-opacity:0.999964;stop-color:#000000"
       id="rect1598"
       width="110.06667"
       height="110.06667"
       x="12.7"
       y="12.7"
       rx="2.1166666"
       ry="2.1166666" />
    <rect
       style="opacity:0.997213;fill:#000000;stroke:#b3b3b3;stroke-width:2.11667;stroke-miterlimit:4;stroke-dasharray:none;stroke-opacity:0.999964;stop-color:#000000"
       id="rect1295"
       width="16.933332"
       height="16.933332"
       x="4.2333336"
       y="4.2333336"
       rx="2.1166663"
       ry="2.1166666" />
    <rect
       style="opacity:0.997213;fill:#000000;stroke:#b3b3b3;stroke-width:2.11667;stroke-miterlimit:4;stroke-dasharray:none;stroke-opacity:0.999964;stop-color:#000000"
       id="rect1295-0"
       width="16.933332"
       height="16.933332"
       x="114.3"
       y="4.2333336"
       rx="2.1166663"
       ry="2.1166666" />
    <rect
       style="opacity:0.997213;fill:#000000;stroke:#b3b3b3;stroke-width:2.11667;stroke-miterlimit:4;stroke-dasharray:none;stroke-opacity:0.999964;stop-color:#000000"
       id="rect1295-6"
       width="16.933332"
       height="16.933332"
       x="4.2333331"
       y="114.3"
       rx="2.1166663"
       ry="2.1166666" />
    <rect
       style="opacity:0.997213;fill:#000000;stroke:#b3b3b3;stroke-width:2.11667;stroke-miterlimit:4;stroke-dasharray:none;stroke-opacity:0.999964;stop-color:#000000"
       id="rect1295-2"
       width="16.933332"
       height="16.933332"
       x="114.3"
       y="114.3"
       rx="2.1166663"
       ry="2.1166666" />
  </g>
  <g
     inkscape:label="Icon"
     inkscape:groupmode="layer"
     id="layer1">
    <g
       id="g645"
       transform="matrix(0.45628506,0,0,0.45628506,99.366571,50.713803)"
       style="stroke-width:2.19161">
      <path
         style="fill:#d6a246;stroke-width:0.906037"
         d="M -14.1105,18.744559 H -69.327801 L -87.825484,-11.809029 -70.20134,-35.27633 c 0.275746,-0.367936 0.551904,-0.736286 0.873952,-1.058333 3.451159,-4.049366 8.421191,-6.304112 13.804222,-6.304112 5.843984,0 11.181126,2.668985 14.678174,7.362445 L -8.5885629,7.7010984 C -5.1841196,12.210591 -8.4045948,18.744559 -14.1105,18.744559 Z"
         id="path24" />
      <path
         style="fill:#ce8a42;stroke-width:0.906037"
         d="m -14.1105,18.744559 h -55.217301 v -55.079222 c 3.451158,-4.049366 8.421191,-6.304112 13.804222,-6.304112 5.843984,0 11.181126,2.668985 14.678173,7.362445 L -8.5889764,7.7010984 C -5.1841196,12.210591 -8.4045948,18.744559 -14.1105,18.744559 Z"
         id="path26" />
      <path
         style="fill:#a78966;stroke-width:0.906037"
         d="m -141.2461,32.549194 2.76076,13.804222 7.17269,35.863031 c 0.64244,3.226676 3.47803,5.549635 6.76755,5.549635 h 110.4346 c 3.289102,0 6.1251044,-2.323372 6.7675458,-5.549635 L -0.17026538,46.353416 2.5904964,32.549194 Z"
         id="path28" />
      <g
         id="g34"
         transform="matrix(0.41341146,0,0,0.41341146,-177.46177,-68.68287)"
         style="stroke-width:2.19161">
	<path
   style="fill:#957856;stroke-width:2.19161"
   d="M 428.522,411.826 H 94.609 c -9.217,0 -16.696,-7.473 -16.696,-16.696 v 0 c 0,-27.619 22.468,-50.087 50.087,-50.087 h 267.13 c 27.619,0 50.087,22.468 50.087,50.087 v 0 c 0,9.223 -7.478,16.696 -16.695,16.696 z"
   id="path30" />

	<path
   style="fill:#957856;stroke-width:2.19161"
   d="M 261.565,378.435 H 395.13 c 7.956,0 14.816,-5.62 16.37,-13.424 l 17.35,-86.749 6.678,-33.391 H 261.565 Z"
   id="path32" />

</g>
      <path
         style="fill:#816952;stroke-width:0.906037"
         d="m -14.1105,73.96186 h -55.217301 v 27.60886 h 69.02193666 c 3.81041344,0 6.90231774,-3.089426 6.90231774,-6.90232 v 0 C 6.59604,83.250389 -2.6924887,73.96186 -14.1105,73.96186 Z"
         id="path36" />
      <path
         style="fill:#696b6f;stroke-width:0.906037"
         d="m -110.74088,129.17958 c -11.41801,0 -20.70654,-9.28853 -20.70654,-20.70654 0,-11.418015 9.28853,-20.706544 20.70654,-20.706544 11.41801,0 20.706539,9.288529 20.706539,20.706544 0,11.41801 -9.288529,20.70654 -20.706539,20.70654 z"
         id="path38" />
      <path
         style="fill:#616267;stroke-width:0.906037"
         d="m -90.034341,108.47304 c 0,-11.418015 -9.288529,-20.706544 -20.706539,-20.706544 v 41.413084 c 11.41801,0 20.706539,-9.28853 20.706539,-20.70654 z"
         id="path40" />
      <path
         style="fill:#e7ecfd;stroke-width:0.906037"
         d="m -110.74088,101.57072 c -3.80587,0 -6.90232,3.09645 -6.90232,6.90232 0,3.80586 3.09645,6.90231 6.90232,6.90231 3.80586,0 6.90232,-3.09645 6.90232,-6.90231 0,-3.80587 -3.09646,-6.90232 -6.90232,-6.90232 z"
         id="path42" />
      <path
         style="fill:#dae0f0;stroke-width:0.906037"
         d="m -103.83856,108.47304 c 0,-3.80587 -3.09646,-6.90232 -6.90232,-6.90232 v 13.80422 c 3.80586,0 6.90232,-3.09604 6.90232,-6.9019 z"
         id="path44" />
      <path
         style="fill:#696b6f;stroke-width:0.906037"
         d="m -27.914722,129.17958 c -11.418011,0 -20.70654,-9.28853 -20.70654,-20.70654 0,-11.418015 9.288529,-20.706544 20.70654,-20.706544 11.418011,0 20.7065399,9.288529 20.7065399,20.706544 0,11.41801 -9.2885289,20.70654 -20.7065399,20.70654 z"
         id="path46" />
      <path
         style="fill:#616267;stroke-width:0.906037"
         d="m -7.2081821,108.47304 c 0,-11.418015 -9.2885289,-20.706544 -20.7065399,-20.706544 v 41.413084 c 11.418011,0 20.7065399,-9.28853 20.7065399,-20.70654 z"
         id="path48" />
      <path
         style="fill:#e7ecfd;stroke-width:0.906037"
         d="m -27.914722,101.57072 c -3.805866,0 -6.902318,3.09645 -6.902318,6.90232 0,3.80586 3.096452,6.90231 6.902318,6.90231 3.805866,0 6.902318,-3.09645 6.902318,-6.90231 0,-3.80587 -3.096452,-6.90232 -6.902318,-6.90232 z"
         id="path50" />
      <path
         style="fill:#dae0f0;stroke-width:0.906037"
         d="m -21.012404,108.47304 c 0,-3.80587 -3.096452,-6.90232 -6.902318,-6.90232 v 13.80422 c 3.805866,0 6.902318,-3.09604 6.902318,-6.9019 z"
         id="path52" />
      <path
         style="fill:#f5dc48;stroke-width:0.906037"
         d="M -69.327801,18.744559 H -124.5451 c -2.54331,0 -4.88446,-1.401879 -6.08459,-3.644222 -1.20427,-2.244411 -1.0695,-4.967552 0.34147,-7.0862861 l 16.12305,-24.1845709 c 3.85093,-5.774531 10.29023,-9.220729 17.228098,-9.220729 6.937871,0 13.377168,3.446612 17.228095,9.220729 L -63.58593,8.0140509 c 1.410974,2.1183201 1.545746,4.8414611 0.341478,7.0862861 -1.198893,2.242343 -3.540042,3.644222 -6.083349,3.644222 z"
         id="path58" />
      <path
         style="fill:#ffe477;stroke-width:0.906037"
         d="M -69.327801,18.744559 H -124.5451 c -2.54331,0 -4.88446,-1.401879 -6.08459,-3.644222 -1.20427,-2.244411 -1.0695,-4.967552 0.34147,-7.0862861 l 16.12305,-24.1845709 c 3.85093,-5.774531 10.29023,-9.220729 17.228098,-9.220729 6.937871,0 13.377168,3.446612 17.228095,9.220729 L -63.58593,8.0140509 c 1.410974,2.1183201 1.545746,4.8414611 0.341478,7.0862861 -1.198893,2.242343 -3.540042,3.644222 -6.083349,3.644222 z"
         id="path60" />
      <path
         style="fill:#edba43;stroke-width:0.906037"
         d="M -69.327801,-0.60020371 V 18.744559 c 2.543307,0 4.884456,-1.401879 6.084589,-3.644222 1.204268,-2.244411 1.069496,-4.967552 -0.341477,-7.0862861 z"
         id="path62" />
      <path
         style="fill:#957856;stroke-width:0.906037"
         d="M 6.4579606,13.176733 2.5925634,32.548781 -0.16819832,46.353003 H -138.4874 l -2.76077,-13.804222 -3.86539,-19.372048 c -0.41466,-2.024476 0.0922,-4.0952537 1.42709,-5.7059048 1.28778,-1.610651 3.26678,-2.5309049 5.33714,-2.5309049 H -0.30586434 C 4.0188329,4.9403367 7.3319124,8.8975112 6.4579606,13.176733 Z"
         id="path64" />
      <path
         style="fill:#816952;stroke-width:0.906037"
         d="M 6.4579606,13.176733 2.5925634,32.548781 -0.16819832,46.353003 H -69.327801 V 4.9403367 h 69.02193666 c 4.32469724,0 7.63777674,3.9571745 6.76382494,8.2363963 z"
         id="path66" />
      <path
         style="fill:#a78966;stroke-width:0.906037"
         d="M 13.498358,18.744559 H -152.15396 c -3.81041,0 -6.90232,-3.089424 -6.90232,-6.902318 0,-3.8128939 3.09191,-6.9023177 6.90232,-6.9023177 H 13.498358 c 3.810413,0 6.902317,3.0894238 6.902317,6.9023177 0,3.812894 -3.091904,6.902318 -6.902317,6.902318 z"
         id="path68" />
      <path
         style="fill:#957856;stroke-width:0.906037"
         d="M 13.498358,4.9403367 H -69.327801 V 18.744559 h 82.826159 c 3.810413,0 6.902317,-3.089424 6.902317,-6.902318 0,-3.8124805 -3.091904,-6.9019043 -6.902317,-6.9019043 z"
         id="path70" />
    </g>
  </g>
</svg>
