<?xml version="1.0" encoding="UTF-8" standalone="no"?>
<svg
   width="512"
   height="512"
   viewBox="0 0 135.46666 135.46667"
   version="1.1"
   id="svg8"
   sodipodi:docname="common_industrial_goods.svg"
   inkscape:version="1.1.2 (0a00cf5339, 2022-02-04)"
   xmlns:inkscape="http://www.inkscape.org/namespaces/inkscape"
   xmlns:sodipodi="http://sodipodi.sourceforge.net/DTD/sodipodi-0.dtd"
   xmlns="http://www.w3.org/2000/svg"
   xmlns:svg="http://www.w3.org/2000/svg"
   xmlns:rdf="http://www.w3.org/1999/02/22-rdf-syntax-ns#"
   xmlns:cc="http://creativecommons.org/ns#"
   xmlns:dc="http://purl.org/dc/elements/1.1/">
  <defs
     id="defs2">
    <marker
       style="overflow:visible;"
       id="Arrow1Mend"
       refX="0.0"
       refY="0.0"
       orient="auto"
       inkscape:stockid="Arrow1Mend"
       inkscape:isstock="true">
      <path
         transform="scale(0.4) rotate(180) translate(10,0)"
         style="fill-rule:evenodd;stroke:#ffffff;stroke-width:1pt;stroke-opacity:1;fill:#ffffff;fill-opacity:1"
         d="M 0.0,0.0 L 5.0,-5.0 L -12.5,0.0 L 5.0,5.0 L 0.0,0.0 z "
         id="path868" />
    </marker>
    <marker
       style="overflow:visible;"
       id="marker1227"
       refX="0.0"
       refY="0.0"
       orient="auto"
       inkscape:stockid="Arrow1Lend"
       inkscape:isstock="true">
      <path
         transform="scale(0.8) rotate(180) translate(12.5,0)"
         style="fill-rule:evenodd;stroke:#ffffff;stroke-width:1pt;stroke-opacity:1;fill:#ffffff;fill-opacity:1"
         d="M 0.0,0.0 L 5.0,-5.0 L -12.5,0.0 L 5.0,5.0 L 0.0,0.0 z "
         id="path1225" />
    </marker>
    <marker
       style="overflow:visible;"
       id="Arrow1Lend"
       refX="0.0"
       refY="0.0"
       orient="auto"
       inkscape:stockid="Arrow1Lend"
       inkscape:isstock="true">
      <path
         transform="scale(0.8) rotate(180) translate(12.5,0)"
         style="fill-rule:evenodd;stroke:#ffffff;stroke-width:1pt;stroke-opacity:1;fill:#ffffff;fill-opacity:1"
         d="M 0.0,0.0 L 5.0,-5.0 L -12.5,0.0 L 5.0,5.0 L 0.0,0.0 z "
         id="path862" />
    </marker>
  </defs>
  <sodipodi:namedview
     id="base"
     pagecolor="#ffffff"
     bordercolor="#666666"
     borderopacity="1.0"
     inkscape:pageopacity="0"
     inkscape:pageshadow="2"
     inkscape:zoom="0.49497475"
     inkscape:cx="396.98995"
     inkscape:cy="23.233508"
     inkscape:document-units="mm"
     inkscape:current-layer="layer1"
     inkscape:document-rotation="0"
     showgrid="true"
     inkscape:window-width="2560"
     inkscape:window-height="1343"
     inkscape:window-x="1200"
     inkscape:window-y="240"
     inkscape:window-maximized="1"
     inkscape:snap-grids="true"
     units="px"
     inkscape:pagecheckerboard="false">
    <inkscape:grid
       type="xygrid"
       id="grid876"
       empcolor="#000000"
       empopacity="0.39607843"
       color="#757575"
       opacity="0.28627451"
       empspacing="4"
       units="px"
       spacingx="2.1166666"
       spacingy="2.1166666" />
  </sodipodi:namedview>
  <metadata
     id="metadata5">
    <rdf:RDF>
      <cc:Work
         rdf:about="">
        <dc:format>image/svg+xml</dc:format>
        <dc:type
           rdf:resource="http://purl.org/dc/dcmitype/StillImage" />
      </cc:Work>
    </rdf:RDF>
  </metadata>
  <g
     inkscape:groupmode="layer"
     id="layer2"
     inkscape:label="Background"
     sodipodi:insensitive="true">
    <rect
       style="opacity:0.997213;fill:#000000;stroke:#b3b3b3;stroke-width:2.11667;stroke-miterlimit:4;stroke-dasharray:none;stroke-opacity:0.999964;stop-color:#000000"
       id="rect957"
       width="118.53333"
       height="118.53333"
       x="8.4666662"
       y="8.4666662"
       rx="8.46667"
       ry="8.4666662" />
    <rect
       style="opacity:0.997213;fill:#000000;stroke:#b3b3b3;stroke-width:2.11667;stroke-miterlimit:4;stroke-dasharray:none;stroke-opacity:0.999964;stop-color:#000000"
       id="rect1598"
       width="110.06667"
       height="110.06667"
       x="12.7"
       y="12.7"
       rx="2.1166666"
       ry="2.1166666" />
    <rect
       style="opacity:0.997213;fill:#000000;stroke:#b3b3b3;stroke-width:2.11667;stroke-miterlimit:4;stroke-dasharray:none;stroke-opacity:0.999964;stop-color:#000000"
       id="rect1295"
       width="16.933332"
       height="16.933332"
       x="4.2333336"
       y="4.2333336"
       rx="2.1166663"
       ry="2.1166666" />
    <rect
       style="opacity:0.997213;fill:#000000;stroke:#b3b3b3;stroke-width:2.11667;stroke-miterlimit:4;stroke-dasharray:none;stroke-opacity:0.999964;stop-color:#000000"
       id="rect1295-0"
       width="16.933332"
       height="16.933332"
       x="114.3"
       y="4.2333336"
       rx="2.1166663"
       ry="2.1166666" />
    <rect
       style="opacity:0.997213;fill:#000000;stroke:#b3b3b3;stroke-width:2.11667;stroke-miterlimit:4;stroke-dasharray:none;stroke-opacity:0.999964;stop-color:#000000"
       id="rect1295-6"
       width="16.933332"
       height="16.933332"
       x="4.2333331"
       y="114.3"
       rx="2.1166663"
       ry="2.1166666" />
    <rect
       style="opacity:0.997213;fill:#000000;stroke:#b3b3b3;stroke-width:2.11667;stroke-miterlimit:4;stroke-dasharray:none;stroke-opacity:0.999964;stop-color:#000000"
       id="rect1295-2"
       width="16.933332"
       height="16.933332"
       x="114.3"
       y="114.3"
       rx="2.1166663"
       ry="2.1166666" />
  </g>
  <g
     inkscape:label="Icon"
     inkscape:groupmode="layer"
     id="layer1">
    <g
       id="g366"
       transform="matrix(0.16677864,0,0,0.16677864,24.964062,26.608238)"
       style="stroke-width:2.47886">
      <path
         style="fill:#fecd57;stroke-width:2.47886"
         d="M 275.872,125.228 238.528,61.229 c -1.906,-3.281 -5.406,-5.296 -9.203,-5.296 h -74.669 c -3.781,0 -7.297,2.015 -9.203,5.296 l -37.343,63.999 c -1.938,3.312 -1.938,7.421 0,10.749 l 37.343,63.998 c 1.906,3.281 5.422,5.297 9.203,5.297 h 74.669 c 3.797,0 7.297,-2.016 9.203,-5.297 l 37.344,-63.998 c 1.937,-3.328 1.937,-7.436 0,-10.749 z m -83.874,36.703 c -17.671,0 -32,-14.312 -32,-32 0,-17.671 14.328,-31.999 32,-31.999 17.671,0 31.999,14.328 31.999,31.999 0,17.687 -14.328,32 -31.999,32 z"
         id="path244" />
      <path
         style="fill:#f6bb42;stroke-width:2.47886"
         d="m 191.998,172.601 c -23.531,0 -42.671,-19.14 -42.671,-42.671 0,-23.515 19.14,-42.654 42.671,-42.654 23.53,0 42.655,19.14 42.655,42.654 0,23.532 -19.124,42.671 -42.655,42.671 z m 0,-63.998 c -11.766,0 -21.343,9.578 -21.343,21.327 0,11.766 9.578,21.344 21.343,21.344 11.765,0 21.327,-9.578 21.327,-21.344 0.001,-11.748 -9.562,-21.327 -21.327,-21.327 z"
         id="path246" />
      <path
         style="fill:#fecd57;stroke-width:2.47886"
         d="m 510.537,381.214 -37.344,-63.999 c -1.906,-3.281 -5.422,-5.297 -9.202,-5.297 h -74.67 c -3.797,0 -7.297,2.016 -9.219,5.297 l -37.326,63.999 c -1.938,3.311 -1.938,7.42 0,10.748 l 37.326,63.999 c 1.922,3.281 5.422,5.297 9.219,5.297 h 74.67 c 3.78,0 7.296,-2.016 9.202,-5.297 l 37.344,-63.999 c 1.937,-3.328 1.937,-7.438 0,-10.748 z m -83.889,36.701 c -17.672,0 -32,-14.328 -32,-32 0,-17.67 14.328,-31.998 32,-31.998 17.688,0 31.999,14.328 31.999,31.998 0,17.672 -14.311,32 -31.999,32 z"
         id="path248" />
      <path
         style="fill:#f6bb42;stroke-width:2.47886"
         d="m 426.648,428.586 c -23.516,0 -42.655,-19.14 -42.655,-42.671 0,-23.514 19.14,-42.654 42.655,-42.654 23.53,0 42.67,19.141 42.67,42.654 0,23.531 -19.139,42.671 -42.67,42.671 z m 0,-63.997 c -11.75,0 -21.328,9.578 -21.328,21.326 0,11.766 9.578,21.344 21.328,21.344 11.766,0 21.343,-9.578 21.343,-21.344 0,-11.748 -9.577,-21.326 -21.343,-21.326 z"
         id="path250" />
      <path
         style="fill:#cbd0d8;stroke-width:2.47886"
         d="m 452.038,113.603 c -0.75,-2.734 -2.547,-5.047 -5.016,-6.453 L 391.429,75.448 c -5.124,-2.922 -11.624,-1.125 -14.546,3.984 L 250.09,301.809 c -2.922,5.124 -1.141,11.64 3.984,14.546 l 55.592,31.702 c 1.672,0.953 3.484,1.406 5.266,1.406 3.719,0 7.312,-1.938 9.281,-5.391 L 451.006,121.696 c 1.407,-2.452 1.766,-5.374 1.032,-8.093 z"
         id="path252" />
      <path
         style="fill:#e6e9ed;stroke-width:2.47886"
         d="m 511.537,73.854 c -0.75,-2.734 -2.547,-5.047 -5.016,-6.453 L 395.336,4.013 c -5.124,-2.922 -11.64,-1.141 -14.562,3.969 l -31.686,55.607 c -2.922,5.109 -1.141,11.625 3.984,14.547 l 111.184,63.389 c 1.671,0.953 3.483,1.406 5.28,1.406 3.703,0 7.297,-1.938 9.266,-5.391 l 31.703,-55.592 c 1.407,-2.453 1.766,-5.375 1.032,-8.094 z"
         id="path254" />
      <path
         style="fill:#ccd1d9;stroke-width:2.47886"
         d="m 441.664,30.418 -15.859,27.796 c -2.906,5.125 -1.125,11.641 3.984,14.547 1.672,0.953 3.484,1.406 5.281,1.406 3.703,0 7.312,-1.938 9.281,-5.375 L 460.194,40.98 Z"
         id="path256" />
      <path
         style="fill:#cbd0d8;stroke-width:2.47886"
         d="M 330.995,438.851 125.719,285.888 c -4.719,-3.516 -11.406,-2.547 -14.921,2.188 l -38.249,51.311 c -1.687,2.266 -2.406,5.125 -2,7.922 0.406,2.797 1.921,5.312 4.187,7 l 205.26,152.964 c 1.859,1.375 4.094,2.109 6.375,2.109 0.516,0 1.031,-0.031 1.547,-0.109 2.797,-0.406 5.328,-1.906 7.016,-4.171 l 38.233,-51.327 c 3.516,-4.72 2.547,-11.408 -2.172,-14.924 z"
         id="path258" />
      <path
         style="fill:#e6e9ed;stroke-width:2.47886"
         d="M 144.843,260.239 93.516,222.007 c -2.265,-1.688 -5.109,-2.422 -7.906,-2 -2.812,0.406 -5.328,1.906 -7.016,4.171 L 2.113,326.808 c -3.516,4.719 -2.547,11.405 2.188,14.921 l 51.311,38.25 c 1.859,1.375 4.094,2.109 6.375,2.109 0.516,0 1.031,-0.031 1.547,-0.109 2.797,-0.406 5.312,-1.922 7,-4.188 l 76.482,-102.639 c 3.515,-4.71 2.546,-11.397 -2.173,-14.913 z"
         id="path260" />
      <path
         style="fill:#ccd1d9;stroke-width:2.47886"
         d="m 59.642,303.169 c 1.906,1.422 4.141,2.109 6.359,2.109 3.25,0 6.468,-1.484 8.562,-4.297 3.515,-4.719 2.546,-11.406 -2.188,-14.922 L 46.72,266.942 33.97,284.044 Z"
         id="path262" />
      <g
         id="g320"
         style="stroke-width:2.47886">
	<path
   style="fill:#aab2bc;stroke-width:2.47886"
   d="m 374.275,127.072 c 1.671,0.938 3.483,1.391 5.28,1.391 3.703,0 7.312,-1.938 9.281,-5.375 2.905,-5.125 1.125,-11.641 -3.984,-14.562 l -18.53,-10.562 v 0 l -10.577,18.53 v 0 z"
   id="path264" />

	<path
   style="fill:#aab2bc;stroke-width:2.47886"
   d="m 363.713,156.259 c 3.703,0 7.297,-1.922 9.266,-5.375 2.921,-5.125 1.141,-11.641 -3.984,-14.547 l -18.53,-10.577 -10.562,18.53 18.531,10.578 c 1.67,0.953 3.483,1.391 5.279,1.391 z"
   id="path266" />

	<path
   style="fill:#aab2bc;stroke-width:2.47886"
   d="m 342.589,182.664 c 1.656,0.953 3.469,1.406 5.266,1.406 3.703,0 7.312,-1.938 9.281,-5.391 2.922,-5.125 1.125,-11.624 -3.984,-14.546 l -18.531,-10.562 v 0 l -10.562,18.53 v 0 z"
   id="path268" />

	<path
   style="fill:#aab2bc;stroke-width:2.47886"
   d="m 332.011,211.866 c 3.703,0 7.297,-1.938 9.266,-5.391 2.922,-5.125 1.141,-11.625 -3.969,-14.547 l -18.547,-10.562 -10.562,18.53 18.531,10.562 c 1.671,0.955 3.484,1.408 5.281,1.408 z"
   id="path270" />

	<path
   style="fill:#aab2bc;stroke-width:2.47886"
   d="m 310.886,238.256 c 1.672,0.953 3.484,1.406 5.266,1.406 3.719,0 7.312,-1.938 9.281,-5.391 2.922,-5.109 1.141,-11.624 -3.984,-14.546 l -18.531,-10.562 v 0 l -10.562,18.53 v 0 z"
   id="path272" />

	<path
   style="fill:#aab2bc;stroke-width:2.47886"
   d="m 305.604,247.521 -18.53,-10.562 v 0 l -10.577,18.531 v 0 l 18.53,10.562 c 1.672,0.953 3.484,1.406 5.28,1.406 3.703,0 7.312,-1.938 9.281,-5.391 2.907,-5.109 1.126,-11.624 -3.984,-14.546 z"
   id="path274" />

	<path
   style="fill:#aab2bc;stroke-width:2.47886"
   d="m 289.746,275.309 -18.53,-10.555 -10.562,18.523 18.531,10.562 c 1.671,0.953 3.483,1.406 5.28,1.406 3.703,0 7.297,-1.938 9.266,-5.391 2.921,-5.107 1.14,-11.623 -3.985,-14.545 z"
   id="path276" />

	<path
   style="fill:#aab2bc;stroke-width:2.47886"
   d="m 440.445,140.227 -18.531,-10.562 c -5.125,-2.921 -11.641,-1.14 -14.547,3.984 -2.922,5.109 -1.141,11.625 3.984,14.547 l 18.531,10.562 v 0 z"
   id="path278" />

	<path
   style="fill:#aab2bc;stroke-width:2.47886"
   d="m 406.055,157.462 c -5.109,-2.906 -11.625,-1.125 -14.547,3.984 -2.905,5.125 -1.124,11.64 3.984,14.546 l 18.531,10.562 10.578,-18.53 v 0 z"
   id="path280" />

	<path
   style="fill:#aab2bc;stroke-width:2.47886"
   d="m 390.212,185.258 c -5.109,-2.906 -11.625,-1.125 -14.546,3.984 -2.922,5.124 -1.141,11.64 3.983,14.546 l 18.53,10.562 c 0,0 0,0 0,0.016 l 10.562,-18.547 v 0 z"
   id="path282" />

	<path
   style="fill:#aab2bc;stroke-width:2.47886"
   d="m 374.369,213.054 c -5.125,-2.906 -11.641,-1.125 -14.546,3.984 -2.922,5.125 -1.141,11.64 3.983,14.546 l 18.53,10.578 v 0 l 10.562,-18.531 v 0 z"
   id="path284" />

	<path
   style="fill:#aab2bc;stroke-width:2.47886"
   d="m 358.526,240.849 c -5.125,-2.906 -11.641,-1.125 -14.562,3.984 -2.906,5.125 -1.125,11.64 3.984,14.562 l 18.53,10.562 v 0 l 10.562,-18.53 v 0 z"
   id="path286" />

	<path
   style="fill:#aab2bc;stroke-width:2.47886"
   d="m 328.12,272.638 c -2.922,5.109 -1.141,11.625 3.984,14.547 l 18.531,10.562 10.562,-18.531 -18.531,-10.555 c -5.124,-2.922 -11.624,-1.141 -14.546,3.977 z"
   id="path288" />

	<path
   style="fill:#aab2bc;stroke-width:2.47886"
   d="m 312.261,300.434 c -2.906,5.108 -1.125,11.624 3.984,14.546 l 18.531,10.562 10.578,-18.531 -18.531,-10.562 c -5.125,-2.921 -11.64,-1.14 -14.562,3.985 z"
   id="path290" />

	<path
   style="fill:#aab2bc;stroke-width:2.47886"
   d="m 119.5,347.776 c -4.719,-3.516 -11.406,-2.547 -14.921,2.188 l -12.75,17.094 17.109,12.75 12.75,-17.094 c 3.515,-4.735 2.546,-11.407 -2.188,-14.938 z"
   id="path292" />

	<path
   style="fill:#aab2bc;stroke-width:2.47886"
   d="m 145.171,366.901 c -4.734,-3.516 -11.421,-2.547 -14.937,2.188 l -12.734,17.092 17.109,12.75 12.734,-17.107 c 3.516,-4.72 2.547,-11.407 -2.172,-14.923 z"
   id="path294" />

	<path
   style="fill:#aab2bc;stroke-width:2.47886"
   d="m 170.827,386.009 c -4.719,-3.515 -11.406,-2.531 -14.922,2.188 l -12.75,17.109 17.109,12.75 12.734,-17.109 c 3.532,-4.735 2.548,-11.407 -2.171,-14.938 z"
   id="path296" />

	<path
   style="fill:#aab2bc;stroke-width:2.47886"
   d="m 196.483,405.134 c -4.719,-3.516 -11.406,-2.547 -14.922,2.188 l -12.75,17.093 17.109,12.75 12.749,-17.108 c 3.516,-4.72 2.547,-11.408 -2.186,-14.923 z"
   id="path298" />

	<path
   style="fill:#aab2bc;stroke-width:2.47886"
   d="m 222.138,424.259 c -4.719,-3.516 -11.406,-2.547 -14.921,2.171 l -12.749,17.109 17.108,12.75 12.75,-17.109 c 3.515,-4.719 2.546,-11.407 -2.188,-14.921 z"
   id="path300" />

	<path
   style="fill:#aab2bc;stroke-width:2.47886"
   d="m 247.809,443.383 c -4.734,-3.531 -11.406,-2.547 -14.937,2.172 l -12.75,17.109 17.109,12.749 12.75,-17.108 c 3.515,-4.719 2.547,-11.407 -2.172,-14.922 z"
   id="path302" />

	<path
   style="fill:#aab2bc;stroke-width:2.47886"
   d="m 273.466,462.492 c -4.734,-3.516 -11.406,-2.531 -14.938,2.188 l -12.735,17.093 17.11,12.75 12.734,-17.094 c 3.516,-4.735 2.547,-11.407 -2.171,-14.937 z"
   id="path304" />

	<path
   style="fill:#aab2bc;stroke-width:2.47886"
   d="m 132.266,330.668 c 1.906,1.422 4.14,2.109 6.359,2.109 3.25,0 6.469,-1.484 8.562,-4.281 l 12.75,-17.109 -17.109,-12.749 -12.75,17.108 c -3.516,4.719 -2.547,11.406 2.188,14.922 z"
   id="path306" />

	<path
   style="fill:#aab2bc;stroke-width:2.47886"
   d="m 157.921,349.792 c 1.906,1.422 4.141,2.109 6.359,2.109 3.25,0 6.469,-1.484 8.562,-4.297 l 12.75,-17.093 -17.109,-12.75 -12.75,17.094 c -3.515,4.734 -2.546,11.406 2.188,14.937 z"
   id="path308" />

	<path
   style="fill:#aab2bc;stroke-width:2.47886"
   d="m 183.577,368.901 c 1.906,1.438 4.141,2.125 6.359,2.125 3.25,0 6.469,-1.484 8.562,-4.297 l 12.75,-17.109 -17.108,-12.75 -12.75,17.109 c -3.517,4.735 -2.548,11.407 2.187,14.922 z"
   id="path310" />

	<path
   style="fill:#aab2bc;stroke-width:2.47886"
   d="m 209.232,388.024 c 1.906,1.438 4.141,2.125 6.359,2.125 3.265,0 6.468,-1.484 8.562,-4.297 l 12.75,-17.107 -17.109,-12.75 -12.75,17.109 c -3.515,4.719 -2.531,11.405 2.188,14.92 z"
   id="path312" />

	<path
   style="fill:#aab2bc;stroke-width:2.47886"
   d="m 234.888,407.149 c 1.922,1.422 4.156,2.109 6.375,2.109 3.25,0 6.469,-1.484 8.562,-4.297 l 12.735,-17.094 -17.094,-12.748 -12.75,17.092 c -3.532,4.735 -2.547,11.423 2.172,14.938 z"
   id="path314" />

	<path
   style="fill:#aab2bc;stroke-width:2.47886"
   d="m 260.559,426.258 c 1.906,1.438 4.141,2.125 6.359,2.125 3.25,0 6.469,-1.484 8.562,-4.296 l 12.749,-17.109 -17.108,-12.734 -12.75,17.094 c -3.515,4.718 -2.546,11.405 2.188,14.92 z"
   id="path316" />

	<path
   style="fill:#aab2bc;stroke-width:2.47886"
   d="m 296.777,413.352 -12.75,17.108 c -3.516,4.719 -2.531,11.406 2.188,14.922 1.906,1.422 4.141,2.109 6.359,2.109 3.266,0 6.469,-1.469 8.562,-4.281 l 12.75,-17.109 z"
   id="path318" />

</g>
    </g>
  </g>
</svg>
