<?xml version="1.0" encoding="UTF-8" standalone="no"?>
<svg
   width="512"
   height="512"
   viewBox="0 0 135.46666 135.46667"
   version="1.1"
   id="svg8"
   sodipodi:docname="uncommon_ore.svg"
   inkscape:version="1.1.2 (0a00cf5339, 2022-02-04)"
   xmlns:inkscape="http://www.inkscape.org/namespaces/inkscape"
   xmlns:sodipodi="http://sodipodi.sourceforge.net/DTD/sodipodi-0.dtd"
   xmlns="http://www.w3.org/2000/svg"
   xmlns:svg="http://www.w3.org/2000/svg"
   xmlns:rdf="http://www.w3.org/1999/02/22-rdf-syntax-ns#"
   xmlns:cc="http://creativecommons.org/ns#"
   xmlns:dc="http://purl.org/dc/elements/1.1/">
  <defs
     id="defs2">
    <marker
       style="overflow:visible;"
       id="Arrow1Mend"
       refX="0.0"
       refY="0.0"
       orient="auto"
       inkscape:stockid="Arrow1Mend"
       inkscape:isstock="true">
      <path
         transform="scale(0.4) rotate(180) translate(10,0)"
         style="fill-rule:evenodd;stroke:#ffffff;stroke-width:1pt;stroke-opacity:1;fill:#ffffff;fill-opacity:1"
         d="M 0.0,0.0 L 5.0,-5.0 L -12.5,0.0 L 5.0,5.0 L 0.0,0.0 z "
         id="path868" />
    </marker>
    <marker
       style="overflow:visible;"
       id="marker1227"
       refX="0.0"
       refY="0.0"
       orient="auto"
       inkscape:stockid="Arrow1Lend"
       inkscape:isstock="true">
      <path
         transform="scale(0.8) rotate(180) translate(12.5,0)"
         style="fill-rule:evenodd;stroke:#ffffff;stroke-width:1pt;stroke-opacity:1;fill:#ffffff;fill-opacity:1"
         d="M 0.0,0.0 L 5.0,-5.0 L -12.5,0.0 L 5.0,5.0 L 0.0,0.0 z "
         id="path1225" />
    </marker>
    <marker
       style="overflow:visible;"
       id="Arrow1Lend"
       refX="0.0"
       refY="0.0"
       orient="auto"
       inkscape:stockid="Arrow1Lend"
       inkscape:isstock="true">
      <path
         transform="scale(0.8) rotate(180) translate(12.5,0)"
         style="fill-rule:evenodd;stroke:#ffffff;stroke-width:1pt;stroke-opacity:1;fill:#ffffff;fill-opacity:1"
         d="M 0.0,0.0 L 5.0,-5.0 L -12.5,0.0 L 5.0,5.0 L 0.0,0.0 z "
         id="path862" />
    </marker>
  </defs>
  <sodipodi:namedview
     id="base"
     pagecolor="#ffffff"
     bordercolor="#666666"
     borderopacity="1.0"
     inkscape:pageopacity="0"
     inkscape:pageshadow="2"
     inkscape:zoom="1.4"
     inkscape:cx="245.71428"
     inkscape:cy="236.42857"
     inkscape:document-units="mm"
     inkscape:current-layer="layer1"
     inkscape:document-rotation="0"
     showgrid="true"
     inkscape:window-width="1519"
     inkscape:window-height="842"
     inkscape:window-x="1870"
     inkscape:window-y="651"
     inkscape:window-maximized="0"
     inkscape:snap-grids="true"
     units="px"
     inkscape:pagecheckerboard="false">
    <inkscape:grid
       type="xygrid"
       id="grid876"
       empcolor="#000000"
       empopacity="0.39607843"
       color="#757575"
       opacity="0.28627451"
       empspacing="4"
       units="px"
       spacingx="2.1166666"
       spacingy="2.1166666" />
  </sodipodi:namedview>
  <metadata
     id="metadata5">
    <rdf:RDF>
      <cc:Work
         rdf:about="">
        <dc:format>image/svg+xml</dc:format>
        <dc:type
           rdf:resource="http://purl.org/dc/dcmitype/StillImage" />
      </cc:Work>
    </rdf:RDF>
  </metadata>
  <g
     inkscape:groupmode="layer"
     id="layer2"
     inkscape:label="Background"
     sodipodi:insensitive="true">
    <rect
       style="opacity:0.997213;fill:#606060;fill-opacity:1;stroke:#b3b3b3;stroke-width:2.11667;stroke-miterlimit:4;stroke-dasharray:none;stroke-opacity:0.999964;stop-color:#000000"
       id="rect957"
       width="118.53333"
       height="118.53333"
       x="8.4666662"
       y="8.4666662"
       rx="8.46667"
       ry="8.4666662" />
    <rect
       style="opacity:0.997213;fill:#606060;fill-opacity:1;stroke:#b3b3b3;stroke-width:2.11667;stroke-miterlimit:4;stroke-dasharray:none;stroke-opacity:0.999964;stop-color:#000000"
       id="rect1598"
       width="110.06667"
       height="110.06667"
       x="12.7"
       y="12.7"
       rx="2.1166666"
       ry="2.1166666" />
    <rect
       style="opacity:0.997213;fill:#606060;fill-opacity:1;stroke:#b3b3b3;stroke-width:2.11667;stroke-miterlimit:4;stroke-dasharray:none;stroke-opacity:0.999964;stop-color:#000000"
       id="rect1295"
       width="16.933332"
       height="16.933332"
       x="4.2333336"
       y="4.2333336"
       rx="2.1166663"
       ry="2.1166666" />
    <rect
       style="opacity:0.997213;fill:#606060;fill-opacity:1;stroke:#b3b3b3;stroke-width:2.11667;stroke-miterlimit:4;stroke-dasharray:none;stroke-opacity:0.999964;stop-color:#000000"
       id="rect1295-0"
       width="16.933332"
       height="16.933332"
       x="114.3"
       y="4.2333336"
       rx="2.1166663"
       ry="2.1166666" />
    <rect
       style="opacity:0.997213;fill:#606060;fill-opacity:1;stroke:#b3b3b3;stroke-width:2.11667;stroke-miterlimit:4;stroke-dasharray:none;stroke-opacity:0.999964;stop-color:#000000"
       id="rect1295-6"
       width="16.933332"
       height="16.933332"
       x="4.2333331"
       y="114.3"
       rx="2.1166663"
       ry="2.1166666" />
    <rect
       style="opacity:0.997213;fill:#606060;fill-opacity:1;stroke:#b3b3b3;stroke-width:2.11667;stroke-miterlimit:4;stroke-dasharray:none;stroke-opacity:0.999964;stop-color:#000000"
       id="rect1295-2"
       width="16.933332"
       height="16.933332"
       x="114.3"
       y="114.3"
       rx="2.1166663"
       ry="2.1166666" />
  </g>
  <g
     inkscape:label="Icon"
     inkscape:groupmode="layer"
     id="layer1">
    <path
       style="fill:#d6a246;stroke-width:0.413412"
       d="M 89.411759,62.313442 H 67.733336 l -7.262227,-11.9954 6.919274,-9.213309 c 0.108258,-0.144453 0.216679,-0.289067 0.343115,-0.415504 1.354932,-1.589789 3.306177,-2.475007 5.419565,-2.475007 2.294361,0 4.389733,1.047849 5.762681,2.890511 l 12.663939,16.873024 c 1.336591,1.770436 0.07222,4.335685 -2.167924,4.335685 z"
       id="path24" />
    <path
       style="fill:#ce8a42;stroke-width:0.413412"
       d="M 89.411759,62.313442 H 67.733336 V 40.689229 c 1.354932,-1.589789 3.306176,-2.475007 5.419565,-2.475007 2.29436,0 4.389733,1.047849 5.762681,2.890511 L 91.57952,57.977757 c 1.336754,1.770436 0.07239,4.335685 -2.167761,4.335685 z"
       id="path26" />
    <path
       style="fill:#a78966;stroke-width:0.413412"
       d="m 39.498068,67.733169 1.083881,5.419565 2.816012,14.079898 c 0.252224,1.2668 1.365482,2.178798 2.656951,2.178798 h 43.356847 c 1.291308,0 2.404728,-0.912161 2.656952,-2.178798 l 2.816012,-14.079898 1.08388,-5.419565 z"
       id="path28" />
    <g
       id="g34"
       style="stroke-width:2.54711"
       transform="matrix(0.16230617,0,0,0.16230617,25.279723,27.989258)">
	<path
   style="fill:#957856;stroke-width:2.54711"
   d="M 428.522,411.826 H 94.609 c -9.217,0 -16.696,-7.473 -16.696,-16.696 v 0 c 0,-27.619 22.468,-50.087 50.087,-50.087 h 267.13 c 27.619,0 50.087,22.468 50.087,50.087 v 0 c 0,9.223 -7.478,16.696 -16.695,16.696 z"
   id="path30" />

	<path
   style="fill:#957856;stroke-width:2.54711"
   d="M 261.565,378.435 H 395.13 c 7.956,0 14.816,-5.62 16.37,-13.424 l 17.35,-86.749 6.678,-33.391 H 261.565 Z"
   id="path32" />

</g>
    <path
       style="fill:#816952;stroke-width:0.413412"
       d="M 89.411759,83.991865 H 67.733336 v 10.839292 h 27.098151 c 1.495976,0 2.709863,-1.212913 2.709863,-2.709863 v 0 c -1.62e-4,-4.482734 -3.646857,-8.129429 -8.129591,-8.129429 z"
       id="path36" />
    <path
       style="fill:#696b6f;stroke-width:0.413412"
       d="m 51.474478,105.67045 c -4.482734,0 -8.129429,-3.64669 -8.129429,-8.129428 0,-4.482735 3.646695,-8.12943 8.129429,-8.12943 4.482734,0 8.129429,3.646695 8.129429,8.12943 0,4.482738 -3.646695,8.129428 -8.129429,8.129428 z"
       id="path38" />
    <path
       style="fill:#616267;stroke-width:0.413412"
       d="m 59.603907,97.541022 c 0,-4.482735 -3.646695,-8.12943 -8.129429,-8.12943 v 16.258858 c 4.482734,0 8.129429,-3.64669 8.129429,-8.129428 z"
       id="path40" />
    <path
       style="fill:#e7ecfd;stroke-width:0.413412"
       d="m 51.474478,94.831157 c -1.49419,0 -2.709864,1.215674 -2.709864,2.709865 0,1.49419 1.215674,2.709868 2.709864,2.709868 1.494191,0 2.709864,-1.215678 2.709864,-2.709868 0,-1.494191 -1.215673,-2.709865 -2.709864,-2.709865 z"
       id="path42" />
    <path
       style="fill:#dae0f0;stroke-width:0.413412"
       d="m 54.184342,97.541022 c 0,-1.494191 -1.215673,-2.709865 -2.709864,-2.709865 v 5.419563 c 1.494191,0 2.709864,-1.215508 2.709864,-2.709698 z"
       id="path44" />
    <path
       style="fill:#696b6f;stroke-width:0.413412"
       d="m 83.992194,105.67045 c -4.482734,0 -8.129429,-3.64669 -8.129429,-8.129428 0,-4.482735 3.646695,-8.12943 8.129429,-8.12943 4.482734,0 8.129429,3.646695 8.129429,8.12943 0,4.482738 -3.646695,8.129428 -8.129429,8.129428 z"
       id="path46" />
    <path
       style="fill:#616267;stroke-width:0.413412"
       d="m 92.121623,97.541022 c 0,-4.482735 -3.646695,-8.12943 -8.129429,-8.12943 v 16.258858 c 4.482734,0 8.129429,-3.64669 8.129429,-8.129428 z"
       id="path48" />
    <path
       style="fill:#e7ecfd;stroke-width:0.413412"
       d="m 83.992194,94.831157 c -1.49419,0 -2.709864,1.215674 -2.709864,2.709865 0,1.49419 1.215674,2.709868 2.709864,2.709868 1.49419,0 2.709863,-1.215678 2.709863,-2.709868 0,-1.494191 -1.215673,-2.709865 -2.709863,-2.709865 z"
       id="path50" />
    <path
       style="fill:#dae0f0;stroke-width:0.413412"
       d="m 86.702057,97.541022 c 0,-1.494191 -1.215673,-2.709865 -2.709863,-2.709865 v 5.419563 c 1.49419,0 2.709863,-1.215508 2.709863,-2.709698 z"
       id="path52" />
    <path
       style="fill:#f5dc48;stroke-width:0.413412"
       d="M 67.733336,62.313442 H 46.054912 c -0.998507,0 -1.917647,-0.55038 -2.388821,-1.430729 -0.472798,-0.88116 -0.419886,-1.950271 0.134064,-2.78209 l 6.329941,-9.494911 c 1.511882,-2.267092 4.039963,-3.620077 6.763785,-3.620077 2.723822,0 5.251903,1.353147 6.763785,3.620077 l 6.329941,9.494911 c 0.55395,0.831657 0.606862,1.900767 0.134064,2.78209 -0.470688,0.880349 -1.389828,1.430729 -2.388335,1.430729 z"
       id="path58" />
    <path
       style="fill:#ff5555;stroke-width:0.413412"
       d="M 67.733336,62.313442 H 46.054912 c -0.998507,0 -1.917647,-0.55038 -2.388821,-1.430729 -0.472798,-0.88116 -0.419886,-1.950271 0.134064,-2.78209 l 6.329941,-9.494911 c 1.511882,-2.267092 4.039963,-3.620077 6.763785,-3.620077 2.723822,0 5.251903,1.353147 6.763785,3.620077 l 6.329941,9.494911 c 0.55395,0.831657 0.606862,1.900767 0.134064,2.78209 -0.470688,0.880349 -1.389828,1.430729 -2.388335,1.430729 z"
       id="path60" />
    <path
       style="fill:#ff0000;stroke-width:0.413412"
       d="m 67.733336,54.718649 v 7.594793 c 0.998507,0 1.917647,-0.55038 2.388822,-1.430729 0.472798,-0.88116 0.419886,-1.950271 -0.134065,-2.78209 z"
       id="path62" />
    <path
       style="fill:#957856;stroke-width:0.413412"
       d="m 97.486977,60.127502 -1.517562,7.605505 -1.08388,5.419565 H 40.581138 l -1.083882,-5.419565 -1.517562,-7.605505 c -0.16279,-0.794813 0.0362,-1.607805 0.560281,-2.240149 0.505584,-0.632345 1.282543,-0.993639 2.095373,-0.993639 h 54.196139 c 1.697884,1.63e-4 2.998606,1.553757 2.65549,3.233788 z"
       id="path64" />
    <path
       style="fill:#816952;stroke-width:0.413412"
       d="m 97.486977,60.127502 -1.517562,7.605505 -1.08388,5.419565 H 67.733336 V 56.893877 h 27.098151 c 1.697884,0 2.998606,1.553594 2.65549,3.233625 z"
       id="path66" />
    <path
       style="fill:#a78966;stroke-width:0.413412"
       d="M 100.25105,62.313442 H 35.215621 c -1.495977,0 -2.709862,-1.212914 -2.709862,-2.709864 0,-1.49695 1.213885,-2.709864 2.709862,-2.709864 h 65.035429 c 1.49598,0 2.70987,1.212914 2.70987,2.709864 0,1.49695 -1.21389,2.709864 -2.70987,2.709864 z"
       id="path68" />
    <path
       style="fill:#957856;stroke-width:0.413412"
       d="M 100.25105,56.893877 H 67.733336 v 5.419565 h 32.517714 c 1.49598,0 2.70987,-1.212914 2.70987,-2.709864 0,-1.496788 -1.21389,-2.709701 -2.70987,-2.709701 z"
       id="path70" />
    <path
       style="fill:#ffe477;stroke-width:0.413412"
       d="m 100.25105,33.408824 h -2.709862 v -2.709702 c 0,-1.49695 -1.213725,-2.709864 -2.709701,-2.709864 -1.495977,0 -2.709864,1.212914 -2.709864,2.709864 v 2.709864 h -2.709864 c -1.495976,0 -2.709863,1.212913 -2.709863,2.709864 0,1.49695 1.213887,2.709863 2.709863,2.709863 h 2.709864 v 2.709864 c 0,1.49695 1.213887,2.709864 2.709864,2.709864 1.495976,0 2.709863,-1.212914 2.709863,-2.709864 v -2.710026 h 2.70986 c 1.49598,0 2.70987,-1.212914 2.70987,-2.709864 0,-1.496949 -1.21405,-2.709863 -2.71003,-2.709863 z"
       id="path72" />
    <path
       style="fill:#ffb655;stroke-width:0.413412"
       d="m 97.541188,41.538252 v -2.709701 h 2.709862 c 1.49598,0 2.70987,-1.212914 2.70987,-2.709864 0,-1.496949 -1.21389,-2.709863 -2.70987,-2.709863 h -2.709862 v -2.709702 c 0,-1.49695 -1.213725,-2.709864 -2.709701,-2.709864 v 16.258858 c 1.495976,0 2.709701,-1.212914 2.709701,-2.709864 z"
       id="path74" />
    <path
       style="fill:#ff5555;stroke-width:0.413412"
       d="m 40.635348,40.635018 h -2.709864 v -2.709863 c 0,-1.49695 -1.213887,-2.709864 -2.709863,-2.709864 -1.495977,0 -2.709862,1.212914 -2.709862,2.709864 v 2.709863 h -2.709703 c -1.495976,0 -2.709862,1.212915 -2.709862,2.709865 0,1.496949 1.213886,2.709863 2.709862,2.709863 h 2.709862 v 2.709701 c 0,1.49695 1.213886,2.709865 2.709862,2.709865 1.495977,0 2.709704,-1.212915 2.709704,-2.709865 v -2.709863 h 2.709864 c 1.495976,0 2.709863,-1.212915 2.709863,-2.709864 0,-1.49695 -1.213887,-2.709702 -2.709863,-2.709702 z"
       id="path76" />
    <path
       style="fill:#ff0000;stroke-width:0.413412"
       d="m 37.925484,48.764447 v -2.709863 h 2.709864 c 1.495976,0 2.709863,-1.212915 2.709863,-2.709864 0,-1.49695 -1.213887,-2.709864 -2.709863,-2.709864 h -2.709864 v -2.709701 c 0,-1.49695 -1.213887,-2.709864 -2.709863,-2.709864 v 16.258858 c 1.496136,1.63e-4 2.709863,-1.212752 2.709863,-2.709702 z"
       id="path78" />
  </g>
</svg>
