<svg xmlns="http://www.w3.org/2000/svg" viewBox="0 0 512 512" style="height: 512px; width: 512px;"><defs><filter id="shadow-1" height="300%" width="300%" x="-100%" y="-100%"><feFlood flood-color="rgba(0, 0, 0, 1)" result="flood"></feFlood><feComposite in="flood" in2="SourceGraphic" operator="atop" result="composite"></feComposite><feGaussianBlur in="composite" stdDeviation="9" result="blur"></feGaussianBlur><feOffset dx="0" dy="0" result="offset"></feOffset><feComposite in="SourceGraphic" in2="offset" operator="over"></feComposite></filter></defs><path d="M0 0h512v512H0z" fill="#ffffff" fill-opacity="1"></path><g class="" transform="translate(-3,10)" style=""><path d="M213.3 91.24l-67.2 24.26v65.7l67.2-24.2zm250.4 8.7L279.4 154.8h-1.3c0 1 0 3.3 1.2 6.3 1.2 3.4 3.5 7.1 6 9.5 2.1 2.1 3.9 2.8 5.2 3.1L470.7 120zm-232 16.86v53l-48.2 17.4-11.4 24.7h178.3l-8.1-33.8-49.6 14.7h-1.4c-7.9 0-14.5-3.9-19.3-8.6-4.8-4.7-8.4-10.5-10.6-16.6-2.3-6-3.5-12.4-1.3-19.1 1.9-6.2 8.6-11.6 15.9-12.5l52.4-15.6-1-3.6zm-136.33 114l-10.71 38h92.64l-5.4 57.1h168l-5.3-57.1h83.8l-10.6-38zm-46.56 56.9l-25.83 76.2H149.3l7.1-76.2zm306.69 0l7.1 76.2H489l-26-76.2zm-184.3 57.1l3 38.1h162.3l2.9-38.1zM61 382.8l10.79 38h86.31l-3-38zm294.6 0l-2.9 38h86.2l10.7-38z" fill="#ff7e00" fill-opacity="1" stroke="#040404" stroke-opacity="1" stroke-width="8" filter="url(#shadow-1)"></path></g></svg>