<?xml version="1.0" encoding="UTF-8" standalone="no"?>
<svg
   width="512"
   height="512"
   viewBox="0 0 135.46666 135.46666"
   version="1.1"
   id="svg8"
   inkscape:version="1.1.2 (0a00cf5339, 2022-02-04)"
   sodipodi:docname="add-effect.svg"
   inkscape:export-filename="/home/sam/rpg/traveller-models/ships/deepnight/deepnight-grey.png"
   inkscape:export-xdpi="150"
   inkscape:export-ydpi="150"
   xmlns:inkscape="http://www.inkscape.org/namespaces/inkscape"
   xmlns:sodipodi="http://sodipodi.sourceforge.net/DTD/sodipodi-0.dtd"
   xmlns="http://www.w3.org/2000/svg"
   xmlns:svg="http://www.w3.org/2000/svg"
   xmlns:rdf="http://www.w3.org/1999/02/22-rdf-syntax-ns#"
   xmlns:cc="http://creativecommons.org/ns#"
   xmlns:dc="http://purl.org/dc/elements/1.1/">
  <defs
     id="defs2" />
  <sodipodi:namedview
     id="base"
     pagecolor="#ffffff"
     bordercolor="#666666"
     borderopacity="1.0"
     inkscape:pageopacity="0.0"
     inkscape:pageshadow="2"
     inkscape:zoom="1.979899"
     inkscape:cx="64.649762"
     inkscape:cy="256.57874"
     inkscape:document-units="mm"
     inkscape:current-layer="g16"
     inkscape:document-rotation="0"
     showgrid="true"
     inkscape:snap-grids="true"
     objecttolerance="20"
     inkscape:window-width="2560"
     inkscape:window-height="1343"
     inkscape:window-x="1200"
     inkscape:window-y="114"
     inkscape:window-maximized="1"
     inkscape:snap-object-midpoints="true"
     gridtolerance="10"
     inkscape:snap-center="true"
     inkscape:pagecheckerboard="0"
     units="px"
     height="512px">
    <inkscape:grid
       type="xygrid"
       id="grid838"
       units="px"
       spacingx="4.2333331"
       spacingy="4.2333331"
       empspacing="4" />
  </sodipodi:namedview>
  <metadata
     id="metadata5">
    <rdf:RDF>
      <cc:Work
         rdf:about="">
        <dc:format>image/svg+xml</dc:format>
        <dc:type
           rdf:resource="http://purl.org/dc/dcmitype/StillImage" />
      </cc:Work>
    </rdf:RDF>
  </metadata>
  <g
     inkscape:label="Layer 1"
     inkscape:groupmode="layer"
     id="layer1">
    <g
       id="g16"
       transform="matrix(0.8,0,0,0.8,14,14)">
      <rect
         style="fill:#000000;stroke:#ffcc00;stroke-width:3.96875;stroke-linecap:round;stroke-linejoin:round;stroke-miterlimit:4;stroke-dasharray:none;paint-order:markers fill stroke;stop-color:#000000;stroke-opacity:1"
         id="rect1388"
         width="148.16666"
         height="148.16666"
         x="-6.916667"
         y="-6.916667"
         ry="10.583332"
         rx="10.583326" />
      <g
         class=""
         id="g178"
         style="fill:#ffeeaa;stroke:#000000;stroke-width:1.46858"
         transform="matrix(0.22520347,0,0,0.22520347,9.1604142,10.036288)">
        <path
           d="m 320.938,13.28 c -16.646,34.584 -38.466,60.157 -63.094,60.157 -24.522,0 -47.035,-25.275 -63.656,-59.593 0.366,39.358 -9.71,90.884 -30.938,105.125 -21.228,14.24 -49.64,-12.002 -78.844,-32.126 17.455,34.04 42.095,67.5 29.78,92.28 -12.21,24.576 -59.172,35.96 -92.874,35.626 29.338,19.29 78.842,45.803 78.844,74.188 0.002,28.384 -49.504,53.71 -78.844,73 33.702,-0.333 80.663,11.612 92.876,36.187 12.227,24.61 -9.03,56.31 -33.75,85.563 44.826,-15.413 65.142,-5.735 85.374,10.812 h 31.75 C 154.822,459.086 125.5,386.671 125.5,302.936 125.498,184.316 184.42,88.03 256.906,88.03 c 72.488,0 131.406,96.29 131.406,214.907 0,83.74 -29.317,156.153 -72.062,191.563 h 27.313 c 19.847,-14.62 39.796,-25.65 89.687,-9.28 -26.233,-30.264 -42.2,-62.484 -29.97,-87.095 12.257,-24.665 56.658,-36.612 90.533,-36.188 -29.4,-19.297 -75.344,-44.584 -75.344,-73 0,-28.415 45.943,-54.89 75.342,-74.187 -33.874,0.424 -78.273,-10.962 -90.53,-35.625 -12.315,-24.78 9.982,-58.24 27.437,-92.28 -29.202,20.12 -57.583,46.385 -78.845,32.124 -21.262,-14.263 -31.382,-66.13 -30.938,-105.69 z m -68.97,93.75 c -19.56,2.543 -37.343,25.564 -37.343,55.407 0,16.447 5.67,30.986 14,41.032 l 10.156,12.218 -15.593,2.937 c -10.815,2.035 -18.743,7.737 -25.53,17.063 -6.79,9.325 -11.984,22.344 -15.626,37.343 -6.585,27.128 -8.078,60.24 -8.31,89.47 h 36.093 l 0.656,8.656 9.124,122.563 h 76.187 l 8.095,-122.5 0.563,-8.72 h 34.375 c -0.026,-29.592 -0.44,-63.166 -6.407,-90.5 -3.295,-15.095 -8.287,-28.096 -15.156,-37.313 -6.87,-9.216 -15.133,-14.897 -27.28,-16.78 l -15.94,-2.47 10.064,-12.593 c 7.97,-9.996 13.375,-24.36 13.375,-40.406 -0.002,-31.817 -19.884,-55.313 -41.44,-55.313 -2.54,0 -3.96,-0.103 -4.03,-0.094 h -0.03 z"
           fill="#ffffff"
           fill-opacity="1"
           id="path176"
           style="fill:#ffeeaa;stroke:#000000;stroke-width:2.15673" />
      </g>
      <path
         style="fill:#ffcc00;fill-opacity:1;stroke:none;stroke-width:0.793749;stroke-linecap:round;stroke-linejoin:round;stroke-miterlimit:4;stroke-dasharray:none;paint-order:markers fill stroke;stop-color:#000000"
         d="M 89.391662,14.249998 H 105.26666 V -1.6250001 h 9.525 V 14.249998 h 15.875 v 9.525 h -15.875 v 15.874997 h -9.525 V 23.774998 H 89.391662 Z"
         id="path193"
         sodipodi:nodetypes="ccccccccccccc" />
    </g>
  </g>
</svg>
