<?xml version="1.0" encoding="UTF-8" standalone="no"?>
<svg
   width="512"
   height="512"
   viewBox="0 0 135.46666 135.46666"
   version="1.1"
   id="svg8"
   inkscape:version="1.1.2 (0a00cf5339, 2022-02-04)"
   sodipodi:docname="skill-check.svg"
   inkscape:export-filename="/home/sam/rpg/traveller-models/ships/deepnight/deepnight-grey.png"
   inkscape:export-xdpi="150"
   inkscape:export-ydpi="150"
   xmlns:inkscape="http://www.inkscape.org/namespaces/inkscape"
   xmlns:sodipodi="http://sodipodi.sourceforge.net/DTD/sodipodi-0.dtd"
   xmlns="http://www.w3.org/2000/svg"
   xmlns:svg="http://www.w3.org/2000/svg"
   xmlns:rdf="http://www.w3.org/1999/02/22-rdf-syntax-ns#"
   xmlns:cc="http://creativecommons.org/ns#"
   xmlns:dc="http://purl.org/dc/elements/1.1/">
  <defs
     id="defs2" />
  <sodipodi:namedview
     id="base"
     pagecolor="#ffffff"
     bordercolor="#666666"
     borderopacity="1.0"
     inkscape:pageopacity="0.0"
     inkscape:pageshadow="2"
     inkscape:zoom="0.9899495"
     inkscape:cx="139.90613"
     inkscape:cy="71.215754"
     inkscape:document-units="mm"
     inkscape:current-layer="g16"
     inkscape:document-rotation="0"
     showgrid="true"
     inkscape:snap-grids="true"
     objecttolerance="20"
     inkscape:window-width="1462"
     inkscape:window-height="957"
     inkscape:window-x="1736"
     inkscape:window-y="607"
     inkscape:window-maximized="0"
     inkscape:snap-object-midpoints="true"
     gridtolerance="10"
     inkscape:snap-center="true"
     inkscape:pagecheckerboard="0"
     units="px"
     height="512px">
    <inkscape:grid
       type="xygrid"
       id="grid838"
       units="px"
       spacingx="4.2333331"
       spacingy="4.2333331"
       empspacing="4" />
  </sodipodi:namedview>
  <metadata
     id="metadata5">
    <rdf:RDF>
      <cc:Work
         rdf:about="">
        <dc:format>image/svg+xml</dc:format>
        <dc:type
           rdf:resource="http://purl.org/dc/dcmitype/StillImage" />
      </cc:Work>
    </rdf:RDF>
  </metadata>
  <g
     inkscape:label="Layer 1"
     inkscape:groupmode="layer"
     id="layer1">
    <g
       id="g16"
       transform="matrix(0.8,0,0,0.8,14,14)">
      <rect
         style="fill:#000000;stroke:#ffcc00;stroke-width:3.96875;stroke-linecap:round;stroke-linejoin:round;stroke-miterlimit:4;stroke-dasharray:none;stroke-opacity:1;paint-order:markers fill stroke;stop-color:#000000"
         id="rect1388-3"
         width="148.16666"
         height="148.16666"
         x="-6.9166718"
         y="-6.916667"
         ry="10.583332"
         rx="10.583326" />
      <g
         id="g543"
         transform="matrix(0.75297446,0,0,0.75297446,17.407812,-9.0505197)">
        <rect
           style="fill:#ffcc00;fill-opacity:0.998891;stroke:#000000;stroke-width:1.05833;stroke-linecap:round;stroke-linejoin:round;paint-order:markers fill stroke;stop-color:#000000"
           id="rect188"
           width="50"
           height="50"
           x="20"
           y="20"
           ry="9.130435"
           rx="9.130435" />
        <circle
           style="fill:#000000;fill-opacity:0.998891;stroke:#000000;stroke-width:1.05833;stroke-linecap:round;stroke-linejoin:round;paint-order:markers fill stroke;stop-color:#000000"
           id="path256"
           cx="45"
           cy="45"
           r="5" />
        <circle
           style="fill:#000000;fill-opacity:0.998891;stroke:#000000;stroke-width:1.05833;stroke-linecap:round;stroke-linejoin:round;paint-order:markers fill stroke;stop-color:#000000"
           id="path302"
           cx="30"
           cy="30"
           r="5" />
        <circle
           style="fill:#000000;fill-opacity:0.998891;stroke:#000000;stroke-width:1.05833;stroke-linecap:round;stroke-linejoin:round;paint-order:markers fill stroke;stop-color:#000000"
           id="path304"
           cx="60"
           cy="60"
           r="5" />
      </g>
      <g
         id="g202"
         transform="matrix(0.68749843,0,0,0.68749843,21.336382,-5.1219577)">
        <rect
           style="fill:#ffcc00;fill-opacity:0.998891;stroke:#000000;stroke-width:1.15912;stroke-linecap:round;stroke-linejoin:round;paint-order:markers fill stroke;stop-color:#000000"
           id="rect188-3"
           width="54.761906"
           height="54.761906"
           x="103.08802"
           y="-24.191198"
           ry="10"
           rx="10"
           transform="rotate(45)" />
        <circle
           style="fill:#000000;fill-opacity:0.998891;stroke:#000000;stroke-width:1.15912;stroke-linecap:round;stroke-linejoin:round;paint-order:markers fill stroke;stop-color:#000000"
           id="path256-6"
           cx="141.42136"
           cy="-7.7626266"
           r="5.4761906"
           transform="rotate(45)" />
        <circle
           style="fill:#000000;fill-opacity:0.998891;stroke:#000000;stroke-width:1.15912;stroke-linecap:round;stroke-linejoin:round;paint-order:markers fill stroke;stop-color:#000000"
           id="path302-7"
           cx="119.51659"
           cy="-7.7626266"
           r="5.4761906"
           transform="rotate(45)" />
        <circle
           style="fill:#000000;fill-opacity:0.998891;stroke:#000000;stroke-width:1.15912;stroke-linecap:round;stroke-linejoin:round;paint-order:markers fill stroke;stop-color:#000000"
           id="path302-7-3"
           cx="119.51659"
           cy="14.142136"
           r="5.4761906"
           transform="rotate(45)" />
        <circle
           style="fill:#000000;fill-opacity:0.998891;stroke:#000000;stroke-width:1.15912;stroke-linecap:round;stroke-linejoin:round;paint-order:markers fill stroke;stop-color:#000000"
           id="path304-5"
           cx="141.42136"
           cy="14.142136"
           r="5.4761906"
           transform="rotate(45)" />
      </g>
      <g
         aria-label="+ skill"
         id="text1613"
         style="font-size:44.6444px;line-height:1.25;font-family:Anton;-inkscape-font-specification:Anton;font-variant-ligatures:none;stroke-width:2.39166">
        <path
           d="m 16.40481,122.91564 v -4.55373 h -4.509085 v -5.04482 h 4.509085 v -4.50908 h 5.044817 v 4.50908 h 4.553729 v 5.04482 h -4.553729 v 4.55373 z"
           style="fill:#ffffff"
           id="path8198" />
        <path
           d="m 47.834414,129.83552 q -9.687835,0 -9.687835,-9.82177 l 0.04464,-2.58938 h 7.81277 l 0.04464,3.83942 q 0,1.16076 0.446444,1.78578 0.446444,0.58038 1.473265,0.58038 1.562554,0 1.562554,-2.54473 0,-1.87507 -0.758955,-2.94653 -0.71431,-1.07147 -2.321509,-2.27687 l -4.151929,-3.2144 q -2.142931,-1.65184 -3.080464,-3.39297 -0.937532,-1.78578 -0.937532,-5.00017 0,-2.50009 1.294688,-4.24122 1.339332,-1.785778 3.526907,-2.678666 2.187576,-0.892888 4.86624,-0.892888 9.509258,0 9.509258,9.464614 v 0.62502 h -8.080637 v -1.25004 q 0,-1.16076 -0.4018,-1.96436 -0.357155,-0.84824 -1.250043,-0.84824 -0.803599,0 -1.250043,0.49109 -0.4018,0.44644 -0.4018,1.25004 0,1.78578 1.383977,2.76795 l 4.821595,3.52691 q 2.589375,1.91971 3.973352,4.19658 1.383976,2.23222 1.383976,5.66984 0,4.55372 -2.589375,7.00917 -2.589375,2.45544 -7.232393,2.45544 z"
           style="fill:#ffffff"
           id="path8200" />
        <path
           d="M 60.066913,129.47836 V 90.9056 h 7.723482 v 17.14345 l 3.750129,-11.250389 h 8.080637 l -4.910884,14.196919 6.250216,18.48278 h -8.303858 l -4.86624,-15.40232 v 15.40232 z"
           style="fill:#ffffff"
           id="path8202" />
        <path
           d="m 81.942637,94.611085 v -5.446617 h 7.81277 v 5.446617 z m 0,34.867275 V 96.798661 h 7.81277 v 32.679699 z"
           style="fill:#ffffff"
           id="path8204" />
        <path
           d="M 92.835785,129.47836 V 90.9056 h 7.946705 v 38.57276 z"
           style="fill:#ffffff"
           id="path8206" />
        <path
           d="M 103.90756,129.47836 V 90.9056 h 7.94671 v 38.57276 z"
           style="fill:#ffffff"
           id="path8208" />
      </g>
    </g>
  </g>
</svg>
