<?xml version="1.0" encoding="UTF-8" standalone="no"?>
<svg
   width="512"
   height="512"
   viewBox="0 0 135.46666 135.46667"
   version="1.1"
   id="svg8"
   sodipodi:docname="creature.svg"
   inkscape:version="1.1.2 (0a00cf5339, 2022-02-04)"
   xmlns:inkscape="http://www.inkscape.org/namespaces/inkscape"
   xmlns:sodipodi="http://sodipodi.sourceforge.net/DTD/sodipodi-0.dtd"
   xmlns="http://www.w3.org/2000/svg"
   xmlns:svg="http://www.w3.org/2000/svg"
   xmlns:rdf="http://www.w3.org/1999/02/22-rdf-syntax-ns#"
   xmlns:cc="http://creativecommons.org/ns#"
   xmlns:dc="http://purl.org/dc/elements/1.1/">
  <defs
     id="defs2">
    <marker
       style="overflow:visible;"
       id="Arrow1Mend"
       refX="0.0"
       refY="0.0"
       orient="auto"
       inkscape:stockid="Arrow1Mend"
       inkscape:isstock="true">
      <path
         transform="scale(0.4) rotate(180) translate(10,0)"
         style="fill-rule:evenodd;stroke:#ffffff;stroke-width:1pt;stroke-opacity:1;fill:#ffffff;fill-opacity:1"
         d="M 0.0,0.0 L 5.0,-5.0 L -12.5,0.0 L 5.0,5.0 L 0.0,0.0 z "
         id="path868" />
    </marker>
    <marker
       style="overflow:visible;"
       id="marker1227"
       refX="0.0"
       refY="0.0"
       orient="auto"
       inkscape:stockid="Arrow1Lend"
       inkscape:isstock="true">
      <path
         transform="scale(0.8) rotate(180) translate(12.5,0)"
         style="fill-rule:evenodd;stroke:#ffffff;stroke-width:1pt;stroke-opacity:1;fill:#ffffff;fill-opacity:1"
         d="M 0.0,0.0 L 5.0,-5.0 L -12.5,0.0 L 5.0,5.0 L 0.0,0.0 z "
         id="path1225" />
    </marker>
    <marker
       style="overflow:visible;"
       id="Arrow1Lend"
       refX="0.0"
       refY="0.0"
       orient="auto"
       inkscape:stockid="Arrow1Lend"
       inkscape:isstock="true">
      <path
         transform="scale(0.8) rotate(180) translate(12.5,0)"
         style="fill-rule:evenodd;stroke:#ffffff;stroke-width:1pt;stroke-opacity:1;fill:#ffffff;fill-opacity:1"
         d="M 0.0,0.0 L 5.0,-5.0 L -12.5,0.0 L 5.0,5.0 L 0.0,0.0 z "
         id="path862" />
    </marker>
  </defs>
  <sodipodi:namedview
     id="base"
     pagecolor="#ffffff"
     bordercolor="#666666"
     borderopacity="1.0"
     inkscape:pageopacity="0"
     inkscape:pageshadow="2"
     inkscape:zoom="1.4"
     inkscape:cx="143.92857"
     inkscape:cy="195.71429"
     inkscape:document-units="mm"
     inkscape:current-layer="layer1"
     inkscape:document-rotation="0"
     showgrid="true"
     inkscape:window-width="2560"
     inkscape:window-height="1409"
     inkscape:window-x="3760"
     inkscape:window-y="240"
     inkscape:window-maximized="1"
     inkscape:snap-grids="true"
     units="px"
     inkscape:pagecheckerboard="false">
    <inkscape:grid
       type="xygrid"
       id="grid876"
       empcolor="#ffffff"
       empopacity="0.61176471"
       color="#ffffff"
       opacity="0.1254902"
       empspacing="4"
       units="px"
       spacingx="2.1166666"
       spacingy="2.1166666" />
  </sodipodi:namedview>
  <metadata
     id="metadata5">
    <rdf:RDF>
      <cc:Work
         rdf:about="">
        <dc:format>image/svg+xml</dc:format>
        <dc:type
           rdf:resource="http://purl.org/dc/dcmitype/StillImage" />
      </cc:Work>
    </rdf:RDF>
  </metadata>
  <g
     inkscape:groupmode="layer"
     id="layer2"
     inkscape:label="Background"
     sodipodi:insensitive="true"
     style="display:none">
    <rect
       style="fill:#f1511b;fill-opacity:1;stroke:#000000;stroke-width:2.11667;stroke-linecap:round;stroke-linejoin:round;stroke-miterlimit:4;stroke-dasharray:none;stroke-opacity:1;stop-color:#000000"
       id="rect14474"
       width="131.233"
       height="131.23332"
       x="2.1166813"
       y="2.1166666"
       ry="66.674995"
       rx="66.611931" />
  </g>
  <g
     inkscape:label="Icon"
     inkscape:groupmode="layer"
     id="layer1">
    <path
       style="fill:#ffffff;stroke:#000000;stroke-width:1;stroke-linecap:butt;stroke-linejoin:miter;stroke-miterlimit:4;stroke-dasharray:none;stroke-opacity:1"
       d="M 50.8,33.866666 C 59.988243,23.811594 66.928947,21.830236 79.802163,20.713983 83.393942,20.402535 73.834356,25.056913 71.48687,27.793187 68.455142,31.327028 65.588709,35.661772 63.499998,38.1"
       id="path4302-0"
       sodipodi:nodetypes="cssc" />
    <path
       style="fill:#ffffff;stroke:#000000;stroke-width:1;stroke-linecap:butt;stroke-linejoin:miter;stroke-miterlimit:4;stroke-dasharray:none;stroke-opacity:1"
       d="M 82.549997,38.099999 C 94.291427,25.63314 104.77294,40.251649 107.95,46.566666"
       id="path3079" />
    <path
       style="fill:#ffffff;stroke:#000000;stroke-width:1;stroke-linecap:butt;stroke-linejoin:miter;stroke-miterlimit:4;stroke-dasharray:none;stroke-opacity:1"
       d="M 40.216666,29.633334 C 46.833473,21.389909 22.298192,28.468393 12.82165,32.868036 9.5750015,34.375347 7.3598947,37.86951 9.3891731,37.152749 12.7,35.983332 17.803703,34.628064 21.420791,34.828835 c 5.241404,0.29093 10.104777,2.203885 14.562542,3.271166"
       id="path5701"
       sodipodi:nodetypes="csssc" />
    <path
       style="fill:#ffffff;stroke:#000000;stroke-width:1;stroke-linecap:butt;stroke-linejoin:miter;stroke-miterlimit:4;stroke-dasharray:none;stroke-opacity:1"
       d="M 31.749999,44.449998 C 23.728854,40.063603 5.2403006,48.148992 4.7024442,56.635605 c 3.7642222,-1.602273 4.8579892,-1.778759 7.2965278,-2.641473 6.410344,-2.26787 13.032577,-2.43909 17.63436,-1.077468"
       id="path5703"
       sodipodi:nodetypes="ccsc" />
    <path
       style="fill:#ffffff;stroke:#000000;stroke-width:1;stroke-linecap:butt;stroke-linejoin:miter;stroke-miterlimit:4;stroke-dasharray:none;stroke-opacity:1"
       d="M 23.283333,63.499998 C 16.232677,61.908875 5.6476177,71.019832 2.7786506,78.035751 2.5455583,78.605766 18.045474,67.51778 23.283333,74.083331"
       id="path5705"
       sodipodi:nodetypes="csc" />
    <path
       style="fill:#ffffff;stroke:#000000;stroke-width:1;stroke-linecap:butt;stroke-linejoin:miter;stroke-miterlimit:4;stroke-dasharray:none;stroke-opacity:1"
       d="M 21.166666,78.316664 C 18.016305,81.446574 6.3499998,86.783331 5.8031522,91.516827 8.4666664,91.016664 15.852151,86.732417 19.049999,88.899997"
       id="path5707"
       sodipodi:nodetypes="ccc" />
    <path
       style="fill:#ffffff;stroke:#000000;stroke-width:1;stroke-linecap:butt;stroke-linejoin:miter;stroke-miterlimit:4;stroke-dasharray:none;stroke-opacity:1"
       d="m 103.71666,93.13333 c 0.0629,-1.560325 1.6005,-2.572999 1.93323,-3.903888 0.82701,-3.308056 1.60639,-6.253808 1.60639,-9.710858 0,-0.06852 2.27471,2.685438 2.91755,5.899657 0.57008,2.850359 1.25649,8.331343 -0.009,11.008384 -1.35343,2.863428 -6.07839,-1.794613 -6.44832,-3.293295 z"
       id="path7037" />
    <path
       style="fill:#ffffff;stroke:#000000;stroke-width:1;stroke-linecap:butt;stroke-linejoin:miter;stroke-miterlimit:4;stroke-dasharray:none;stroke-opacity:1"
       d="m 93.13348,91.016664 c 0.0629,-1.560325 1.6005,-2.572999 1.93323,-3.903888 0.82701,-3.308056 1.60639,-6.253808 1.60639,-9.710858 0,-0.06852 2.27471,2.685438 2.91755,5.899657 0.57008,2.850359 1.25649,8.331343 -0.009,11.008384 -1.35343,2.863428 -6.07839,-1.794613 -6.44832,-3.293295 z"
       id="path7037-6" />
    <path
       style="fill:#ffffff;stroke:#000000;stroke-width:1;stroke-linecap:butt;stroke-linejoin:miter;stroke-miterlimit:4;stroke-dasharray:none;stroke-opacity:1"
       d="m 82.549997,88.899997 c 0.0629,-1.560325 1.6005,-2.572999 1.93323,-3.903888 0.82701,-3.308056 1.60639,-6.253808 1.60639,-9.710858 0,-0.06852 2.27471,2.685438 2.91755,5.899657 0.570083,2.850359 1.256493,8.331343 -0.009,11.008384 -1.35343,2.863428 -6.07839,-1.794613 -6.44832,-3.293295 z"
       id="path7037-2" />
    <path
       style="fill:#ffffff;stroke:#000000;stroke-width:1;stroke-linecap:butt;stroke-linejoin:miter;stroke-miterlimit:4;stroke-dasharray:none;stroke-opacity:1"
       d="m 71.966814,86.783331 c 0.0629,-1.560325 1.6005,-2.572999 1.93323,-3.903888 0.82701,-3.308056 1.60639,-6.253808 1.60639,-9.710858 0,-0.06852 2.27471,2.685438 2.91755,5.899657 0.57008,2.850359 1.25649,8.331343 -0.009,11.008384 -1.35343,2.863428 -6.07839,-1.794613 -6.44832,-3.293295 z"
       id="path7037-9" />
    <path
       style="fill:#ffffff;stroke:#000000;stroke-width:1;stroke-linecap:butt;stroke-linejoin:miter;stroke-miterlimit:4;stroke-dasharray:none;stroke-opacity:1"
       d="m 63.499998,84.666664 c 0.0629,-1.560325 1.6005,-2.572999 1.93323,-3.903888 0.82701,-3.308056 1.60639,-6.253808 1.60639,-9.710858 0,-0.06852 2.27471,2.685438 2.91755,5.899657 0.57008,2.850359 1.25649,8.331343 -0.009,11.008384 -1.35343,2.863428 -6.07839,-1.794613 -6.44832,-3.293295 z"
       id="path7037-9-1" />
    <path
       style="fill:#ffffff;stroke:#000000;stroke-width:1;stroke-linecap:butt;stroke-linejoin:miter;stroke-miterlimit:4;stroke-dasharray:none;stroke-opacity:1"
       d="m 118.53333,67.733331 c -1.03433,1.169923 -0.62511,2.964989 -1.30589,4.156004 -1.69215,2.96037 -3.16798,5.626234 -5.56026,8.121873 -0.0474,0.04946 3.50044,-0.364517 6.18874,-2.240011 2.38398,-1.663175 6.67234,-5.144893 7.61129,-7.953162 1.00445,-3.003676 -5.62985,-2.910712 -6.93399,-2.084807 z"
       id="path7037-90" />
    <path
       style="fill:#ffffff;stroke:#000000;stroke-width:1;stroke-linecap:butt;stroke-linejoin:miter;stroke-miterlimit:4;stroke-dasharray:none;stroke-opacity:1"
       d="m 107.95011,63.500101 c -1.03433,1.169923 -0.62511,2.964989 -1.30589,4.156004 -1.69215,2.96037 -3.16798,5.626234 -5.56026,8.121873 -0.0474,0.04946 3.50044,-0.364517 6.18874,-2.240011 2.38398,-1.663175 6.67234,-5.144893 7.61129,-7.953162 1.00445,-3.003676 -5.62985,-2.910712 -6.93399,-2.084807 z"
       id="path7037-90-8" />
    <path
       style="fill:#ffffff;stroke:#000000;stroke-width:1;stroke-linecap:butt;stroke-linejoin:miter;stroke-miterlimit:4;stroke-dasharray:none;stroke-opacity:1"
       d="m 97.366664,59.266665 c -1.03433,1.169923 -0.62511,2.964989 -1.30589,4.156004 -1.69215,2.96037 -3.16798,5.626234 -5.56026,8.121873 -0.0474,0.04946 3.50044,-0.364517 6.18874,-2.240011 2.38398,-1.663175 6.672336,-5.144893 7.611286,-7.953162 1.00445,-3.003676 -5.629846,-2.910712 -6.933986,-2.084807 z"
       id="path7037-90-1" />
    <path
       style="fill:#ffffff;stroke:#000000;stroke-width:1;stroke-linecap:butt;stroke-linejoin:miter;stroke-miterlimit:4;stroke-dasharray:none;stroke-opacity:1"
       d="m 88.900107,55.033435 c -1.03433,1.169923 -0.62511,2.964989 -1.30589,4.156004 -1.69215,2.96037 -3.16798,5.626234 -5.56026,8.121873 -0.0474,0.04946 3.50044,-0.364517 6.18874,-2.240011 2.38398,-1.663175 6.672336,-5.144893 7.611286,-7.953162 1.00445,-3.003676 -5.629846,-2.910712 -6.933986,-2.084807 z"
       id="path7037-90-3" />
    <path
       style="opacity:0.997213;fill:#ffffff;fill-opacity:0.996642;stroke:#000000;stroke-width:1;stroke-linecap:round;stroke-linejoin:round;stroke-miterlimit:4;stroke-dasharray:none;stop-color:#000000"
       d="m 61.383332,93.133331 c -4.233334,2.116666 -7.932834,20.328629 -2.694866,35.513899 2.285524,6.62591 -47.97129,3.98499 -47.852542,2.56818 2.603721,-31.06559 10.330742,-86.76541 23.030742,-99.465409 11.745413,-11.745412 19.581357,-3.366631 35.983331,0 16.401974,3.366631 46.566663,14.816665 59.266663,25.399997 4.63104,3.859204 -6.35,16.933333 -6.35,16.933333 C 108.7666,69.883313 88.375999,62.669365 74.886386,62.144167 67.981078,61.875319 62.816652,65.583349 61.38333,67.733331 58.615913,71.884456 71.966664,78.316664 71.966664,78.316664 93.13333,91.016664 107.95,88.899997 114.3,95.249997 l -8.46667,14.816663 c -20.475283,-8.03552 -43.693744,-15.241233 -57.15,-25.399996 -0.979088,-9.769245 -2.116665,-16.933332 4.233333,-25.4"
       id="path2791"
       sodipodi:nodetypes="cssszscssccccc" />
    <path
       style="fill:#ffffff;stroke:#000000;stroke-width:1;stroke-linecap:butt;stroke-linejoin:miter;stroke-miterlimit:4;stroke-dasharray:none;stroke-opacity:1"
       d="m 63.499998,40.216669 c 5.91489,-15.699071 35.87334,-11.396929 27.516666,6.349997"
       id="path3077" />
    <g
       id="g3341"
       transform="matrix(0.72855547,0.23797055,-0.2349319,0.73797872,41.975675,14.312577)"
       inkscape:transform-center-x="12.686799"
       inkscape:transform-center-y="-17.483232"
       style="stroke-width:1.29797">
      <ellipse
         style="opacity:0.997213;fill:#000000;fill-opacity:0.996642;stroke:#000000;stroke-width:1.29797;stroke-linecap:round;stroke-linejoin:round;stroke-miterlimit:4;stroke-dasharray:none;stop-color:#000000"
         id="path3201"
         cx="59.149364"
         cy="14.816667"
         rx="8.3493633"
         ry="6.3499999" />
      <ellipse
         style="opacity:0.997213;fill:#ffffff;fill-opacity:0.996642;stroke:none;stroke-width:1.29797;stroke-linecap:round;stroke-linejoin:round;stroke-miterlimit:4;stroke-dasharray:none;stop-color:#000000"
         id="path3203"
         cx="59.023624"
         cy="14.839858"
         rx="3.175"
         ry="6.4588614" />
    </g>
    <path
       style="fill:#ffffff;stroke:#000000;stroke-width:1;stroke-linecap:butt;stroke-linejoin:miter;stroke-miterlimit:4;stroke-dasharray:none;stroke-opacity:1"
       d="m 42.333334,31.749999 c 9.188243,-10.055072 16.128947,-12.03643 29.002163,-13.152683 3.591779,-0.311448 -5.967807,4.34293 -8.315293,7.079204 -3.031728,3.533841 -5.898161,7.868585 -7.986872,10.306813"
       id="path4302"
       sodipodi:nodetypes="cssc" />
    <path
       style="fill:none;stroke:#000000;stroke-width:1;stroke-linecap:butt;stroke-linejoin:miter;stroke-miterlimit:4;stroke-dasharray:none;stroke-opacity:1"
       d="m 40.216666,29.633334 c 1.369195,10.169453 11.455085,9.021342 19.049997,8.466667"
       id="path4639" />
  </g>
</svg>
