<?xml version="1.0" encoding="UTF-8" standalone="no"?>
<svg xmlns="http://www.w3.org/2000/svg" xmlns:xlink="http://www.w3.org/1999/xlink" width="512px" height="512px" viewBox="0 0 512 512" version="1.1">
  <g id="background-layer" transform="scale(3.7795277450554994, 3.7795274660549345)">
    
  <ns2:namedview id="namedview7" pagecolor="#ffffff" bordercolor="#666666" borderopacity="1.0" pageshadow="2" pageopacity="0.0" pagecheckerboard="0" document-units="mm" showgrid="true" units="px" width="512px" zoom="2.0000001" cx="141.74999" cy="231.24999" window-width="2560" window-height="1343" window-x="1200" window-y="240" window-maximized="1" current-layer="layer4" snap-object-midpoints="true" snap-midpoints="true" snap-smooth-nodes="true" snap-center="true" showpageshadow="2" deskcolor="#d1d1d1">
    <grid type="xygrid" id="grid21" units="px" spacingx="1.0583333" spacingy="1.0583333" empspacing="4" originx="0" originy="0" />
  </ns2:namedview>
  <defs id="defs2">
    <filter collect="always" style="color-interpolation-filters:sRGB" id="filter3401" x="-0.032155986" y="-0.032155983" width="1.064312" height="1.064312">
      <feGaussianBlur collect="always" stdDeviation="1.0541065" id="feGaussianBlur3403" />
    </filter>
  </defs>
  <g groupmode="layer" id="layer4" label="Background" style="display:inline">
    <rect style="display:inline;mix-blend-mode:normal;fill:#000000;fill-opacity:0.981791;stroke:#000000;stroke-width:0.79375;stroke-linejoin:round;stroke-miterlimit:0;paint-order:markers fill stroke;filter:url(#filter3401);stop-color:#000000" id="rect91" width="91.016663" height="91.01667" x="22.224998" y="22.224998" ry="45.508335" rx="45.508331" />
    <rect style="display:inline;fill:#ffffff;fill-opacity:0.981791;stroke:none;stroke-width:0.79375;stroke-linejoin:round;stroke-miterlimit:0;paint-order:markers fill stroke;stop-color:#000000" id="background-circle" width="84.666649" height="84.666649" x="25.400015" y="25.400003" ry="42.316967" rx="42.333324" />
  </g>

  </g>
  <g id="middle-layer" transform="translate(102.4, 102.4) scale(2.2677166470332994, 2.2677164796329605)">
    
  <ns2:namedview id="namedview7" pagecolor="#ffffff" bordercolor="#666666" borderopacity="1.0" pageshadow="2" pageopacity="0.0" pagecheckerboard="0" document-units="mm" showgrid="true" units="px" width="512px" zoom="2.0000001" cx="258.99999" cy="280.99999" window-width="2560" window-height="1343" window-x="1200" window-y="240" window-maximized="1" current-layer="layer1" snap-object-midpoints="true" snap-grids="false" snap-smooth-nodes="true">
    <grid type="xygrid" id="grid21" units="px" spacingx="1.0583333" spacingy="1.0583333" empspacing="4" />
  </ns2:namedview>
  <defs id="defs2" />
  <g groupmode="layer" id="layer3" label="Image" style="display:none;opacity:0.364314" ns2:insensitive="true" />
  <g groupmode="layer" id="layer2" label="Edge" style="display:none" ns2:insensitive="true">
    <circle style="fill:none;fill-opacity:0.981791;stroke:#999999;stroke-width:0.264583;stroke-linejoin:round;stroke-miterlimit:0;stroke-dasharray:none;paint-order:markers fill stroke;stop-color:#000000" id="path5140" cx="67.73333" cy="67.73333" r="67.73333" />
  </g>
  <g label="Bwap" groupmode="layer" id="layer1">
    <path id="path237" style="fill:none;fill-opacity:0.981791;stroke:#000000;stroke-width:1.5875;stroke-linecap:round;stroke-linejoin:round;stroke-miterlimit:0;paint-order:markers fill stroke;stop-color:#000000" d="m 42.333332,42.333332 c 0,-7.706788 7.136451,-15.612051 21.166666,-16.933333 1.38336,-0.130277 2.713576,-3.175 4.233333,-3.175 1.526556,0 2.844398,3.043583 4.233333,3.175 14.017841,1.326329 21.166666,9.229944 21.166666,16.933333 m -4.233333,21.166666 c -4.233333,12.699999 -12.699999,21.166666 -21.166666,21.166666 -8.466666,0 -16.933333,-8.466667 -21.166666,-21.166666" ns2:nodetypes="cssscccc" />
    <path id="path1514" style="fill:#000000;fill-opacity:0.981791;stroke:#000000;stroke-width:1.5875;stroke-linecap:round;stroke-linejoin:round;stroke-miterlimit:0;paint-order:markers fill stroke;stop-color:#000000" d="m 46.566665,63.499998 c -8.466666,-4.233333 -8.466666,-16.933333 -4.233333,-21.166666 8.466666,4.233333 8.466666,16.933333 4.233333,21.166666 z" ns2:nodetypes="ccc" />
    <path id="path1514-3" style="fill:#000000;fill-opacity:0.981791;stroke:#000000;stroke-width:1.5875;stroke-linecap:round;stroke-linejoin:round;stroke-miterlimit:0;paint-order:markers fill stroke;stop-color:#000000" d="m 88.899997,63.499998 c 8.466666,-4.233333 8.466666,-16.933333 4.233333,-21.166666 -8.466666,4.233333 -8.466666,16.933333 -4.233333,21.166666 z" ns2:nodetypes="ccc" />
    <path style="fill:none;fill-opacity:0.981791;stroke:#000000;stroke-width:1.5875;stroke-linecap:round;stroke-linejoin:round;stroke-miterlimit:0;stroke-dasharray:none;paint-order:markers fill stroke;stop-color:#000000" d="M 81.387466,97.170401 C 90.125447,91.537163 98.92699,86.04836 103.71666,68.791664 H 107.95 l 19.05,11.641667 8.46666,16.933333" id="path1633" ns2:nodetypes="ccccc" />
    <path style="fill:none;fill-opacity:0.981791;stroke:#000000;stroke-width:1.5875;stroke-linecap:round;stroke-linejoin:round;stroke-miterlimit:0;stroke-dasharray:none;paint-order:markers fill stroke;stop-color:#000000" d="m 55.033332,78.316664 c 0.218972,4.626439 0.16789,9.703999 -0.33391,14.30909 -0.180414,1.655685 0.639243,3.250296 0.33391,4.74091 -6.56941,-0.233855 -29.633333,0 -29.633333,8.466666 0,12.7 -8.466667,12.7 0,25.4" id="path6193" ns2:nodetypes="csccc" />
    <path style="fill:none;fill-opacity:0.981791;stroke:#000000;stroke-width:1.5875;stroke-linecap:round;stroke-linejoin:round;stroke-miterlimit:0;stroke-dasharray:none;paint-order:markers fill stroke;stop-color:#000000" d="m 80.433331,78.316664 c -1.115453,5.941667 -1.681982,12.969006 0,19.05 9.220253,0.131357 17.257727,-4.577721 29.633329,8.466666 6.85777,6.83563 -0.29528,16.59919 0,25.4" id="path6195" ns2:nodetypes="cccc" />
    <path style="fill:none;fill-opacity:0.981791;stroke:#000000;stroke-width:0.79375;stroke-linecap:round;stroke-linejoin:round;stroke-miterlimit:0;stroke-dasharray:none;paint-order:markers fill stroke;stop-color:#000000" d="m 50.799998,67.733331 c 3.186577,6.373154 9.525,10.583333 11.641667,15.875 m 10.583333,0 c 3.175,-5.291667 5.291666,-8.466667 11.641666,-15.875" id="path7845" ns2:nodetypes="cccc" />
    <ellipse style="fill:none;fill-opacity:0.981791;stroke:#000000;stroke-width:1.5875;stroke-linecap:round;stroke-linejoin:round;stroke-miterlimit:0;stroke-dasharray:none;paint-order:markers fill stroke;stop-color:#000000" id="path12236" cx="62.970833" cy="65.087494" rx="0.52916664" ry="1.5875" />
    <ellipse style="fill:none;fill-opacity:0.981791;stroke:#000000;stroke-width:1.5875;stroke-linecap:round;stroke-linejoin:round;stroke-miterlimit:0;stroke-dasharray:none;paint-order:markers fill stroke;stop-color:#000000" id="path12236-6" cx="71.966667" cy="65.087494" rx="0.52916664" ry="1.5875" />
    <path style="fill:none;fill-opacity:0.981791;stroke:#000000;stroke-width:1.5875;stroke-linecap:round;stroke-linejoin:round;stroke-miterlimit:0;stroke-dasharray:none;paint-order:markers fill stroke;stop-color:#000000" d="m 103.71666,68.791663 v -5.291666 c 3.93357,-4.324362 4.23334,-4.233332 9.525,-3.174999 l 4.23334,5.291667 c -6.25905,-1.070062 -9.52501,-4.375032 -9.525,3.174998" id="path14123" ns2:nodetypes="ccccc" />
    <path style="fill:none;fill-opacity:0.981791;stroke:#000000;stroke-width:1.5875;stroke-linecap:round;stroke-linejoin:round;stroke-miterlimit:0;stroke-dasharray:none;paint-order:markers fill stroke;stop-color:#000000" d="M 55.033332,97.366664 C 46.295352,91.733426 37.493812,86.244623 32.704142,68.987927 h -4.23334 L 9.4208006,80.629594 0.9541406,97.562927" id="path1633-7" ns2:nodetypes="ccccc" />
    <path style="fill:none;fill-opacity:0.981791;stroke:#000000;stroke-width:1.5875;stroke-linecap:round;stroke-linejoin:round;stroke-miterlimit:0;stroke-dasharray:none;paint-order:markers fill stroke;stop-color:#000000" d="M 32.704142,68.987926 V 63.69626 c -3.93357,-4.324362 -4.23334,-4.233332 -9.525,-3.174999 l -4.23334,5.291667 c 6.25905,-1.070062 9.52501,-4.375032 9.525,3.174998" id="path14123-5" ns2:nodetypes="ccccc" />
    <path style="fill:none;fill-opacity:0.981791;stroke:#000000;stroke-width:0.79375;stroke-linecap:round;stroke-linejoin:round;stroke-miterlimit:0;stroke-dasharray:none;paint-order:markers fill stroke;stop-color:#000000" d="M 50.799998,63.499998 C 56.808439,54.683945 55.033332,42.333332 46.566665,38.099999" id="path16591" ns2:nodetypes="cc" />
    <path style="fill:none;fill-opacity:0.981791;stroke:#000000;stroke-width:0.79375;stroke-linecap:round;stroke-linejoin:round;stroke-miterlimit:0;stroke-dasharray:none;paint-order:markers fill stroke;stop-color:#000000" d="M 84.666664,63.499998 C 78.793526,54.822867 80.433331,42.333332 88.899997,38.099999" id="path16593" ns2:nodetypes="cc" />
    <path style="fill:none;fill-opacity:0.981791;stroke:#000000;stroke-width:0.79375;stroke-linecap:round;stroke-linejoin:round;stroke-miterlimit:0;stroke-dasharray:none;paint-order:markers fill stroke;stop-color:#000000" d="m 63.499997,29.633333 c 1.261062,10.840855 0.264648,22.060213 -4.233334,33.866664" id="path16989" ns2:nodetypes="cc" />
    <path style="fill:none;fill-opacity:0.981791;stroke:#000000;stroke-width:0.79375;stroke-linecap:round;stroke-linejoin:round;stroke-miterlimit:0;stroke-dasharray:none;paint-order:markers fill stroke;stop-color:#000000" d="m 71.966663,29.633333 c -1.799549,13.78911 0.968732,24.021138 4.233335,33.866665" id="path16991" ns2:nodetypes="cc" />
    <path style="fill:none;fill-opacity:0.981791;stroke:#000000;stroke-width:0.79375;stroke-linecap:round;stroke-linejoin:round;stroke-miterlimit:0;stroke-dasharray:none;paint-order:markers fill stroke;stop-color:#000000" d="M 9.5249997,80.433331 C 11.641666,99.48333 28.035213,91.003731 28.574999,101.6" id="path20405" ns2:nodetypes="cc" />
    <path style="fill:none;fill-opacity:0.981791;stroke:#000000;stroke-width:0.79375;stroke-linecap:round;stroke-linejoin:round;stroke-miterlimit:0;stroke-dasharray:none;paint-order:markers fill stroke;stop-color:#000000" d="m 127,81.491664 c -2.11667,19.050006 -15.875,12.7 -21.16667,20.108336" id="path20405-3" ns2:nodetypes="cc" />
    <path style="fill:none;fill-opacity:0.981791;stroke:#000000;stroke-width:1.5875;stroke-linecap:round;stroke-linejoin:round;stroke-miterlimit:0;stroke-dasharray:none;paint-order:markers fill stroke;stop-color:#000000" d="m 11.641666,116.41666 c 4.901135,-4.8393 5.737207,-8.00391 12.7,-5.29166" id="path21165" ns2:nodetypes="cc" />
    <path style="fill:none;fill-opacity:0.981791;stroke:#000000;stroke-width:1.5875;stroke-linecap:round;stroke-linejoin:round;stroke-miterlimit:0;stroke-dasharray:none;paint-order:markers fill stroke;stop-color:#000000" d="m 127,117.44489 c -4.90114,-4.8393 -5.73721,-8.00391 -12.7,-5.29166" id="path21165-5" ns2:nodetypes="cc" />
    <path style="fill:none;fill-opacity:0.981791;stroke:#000000;stroke-width:0.79375;stroke-linecap:round;stroke-linejoin:round;stroke-miterlimit:0;stroke-dasharray:none;paint-order:markers fill stroke;stop-color:#000000" d="m 48.683332,105.83333 c 6.35,-1.05833 8.268418,1.26131 11.641665,3.175" id="path21705" ns2:nodetypes="cc" />
    <path style="fill:none;fill-opacity:0.981791;stroke:#000000;stroke-width:0.79375;stroke-linecap:round;stroke-linejoin:round;stroke-miterlimit:0;stroke-dasharray:none;paint-order:markers fill stroke;stop-color:#000000" d="m 88.899998,105.49397 c -9.177501,-0.30915 -11.40295,1.44023 -14.816667,3.175" id="path21705-6" ns2:nodetypes="cc" />
    <path style="fill:none;fill-opacity:0.981791;stroke:#000000;stroke-width:0.79375;stroke-linecap:round;stroke-linejoin:round;stroke-miterlimit:0;stroke-dasharray:none;paint-order:markers fill stroke;stop-color:#000000" d="m 62.441663,88.899996 c 0.372224,5.431334 -0.03642,9.95231 -1.058333,13.758334" id="path22001" ns2:nodetypes="cc" />
    <path style="fill:none;fill-opacity:0.981791;stroke:#000000;stroke-width:0.79375;stroke-linecap:round;stroke-linejoin:round;stroke-miterlimit:0;stroke-dasharray:none;paint-order:markers fill stroke;stop-color:#000000" d="m 73.024996,88.899996 c -1.758066,4.707862 0.03688,9.242961 1.058335,13.758334" id="path22003" ns2:nodetypes="cc" />
    <path style="fill:none;fill-opacity:0.981791;stroke:#000000;stroke-width:0.79375;stroke-linecap:round;stroke-linejoin:round;stroke-miterlimit:0;stroke-dasharray:none;paint-order:markers fill stroke;stop-color:#000000" d="m 40.216665,98.424997 c 4.134393,3.838653 9.363487,8.237703 13.758333,11.641663 m 12.193335,9.06032 c 8.169195,5.34221 17.188337,9.93772 26.458332,14.81667" id="path22171" ns2:nodetypes="cccc" />
    <path style="fill:none;fill-opacity:0.981791;stroke:#000000;stroke-width:0.79375;stroke-linecap:round;stroke-linejoin:round;stroke-miterlimit:0;stroke-dasharray:none;paint-order:markers fill stroke;stop-color:#000000" d="m 31.75,100.54166 c 5.34908,5.65141 11.592595,11.37144 17.391571,15.91363 m 12.520117,8.34426 c 6.201958,3.81938 13.252851,7.7727 19.829975,10.66711" id="path22173" ns2:nodetypes="cccc" />
    <g id="g23712" transform="rotate(-53.330822,72.017039,145.63866)">
      <path style="fill:none;fill-opacity:0.981791;stroke:#000000;stroke-width:0.79375;stroke-linecap:round;stroke-linejoin:round;stroke-miterlimit:0;stroke-dasharray:none;paint-order:markers fill stroke;stop-color:#000000" d="m 80.43333,110.06666 h 10.583334 v 14.81667 H 80.433331 Z" id="path22873" ns2:nodetypes="ccccc" />
      <path style="fill:none;fill-opacity:0.981791;stroke:#000000;stroke-width:0.79375;stroke-linecap:round;stroke-linejoin:round;stroke-miterlimit:0;stroke-dasharray:none;paint-order:markers fill stroke;stop-color:#000000" d="M 80.43333,110.06666 82.549996,114.3 h 6.350001 l 2.116667,-4.23334" id="path22875" ns2:nodetypes="cccc" />
      <circle style="fill:#000000;fill-opacity:0.981791;stroke:#000000;stroke-width:0.79375;stroke-linecap:round;stroke-linejoin:round;stroke-miterlimit:0;stroke-dasharray:none;paint-order:markers fill stroke;stop-color:#000000" id="path23526" cx="84.137497" cy="112.7125" r="0.52916664" />
      <circle style="fill:#000000;fill-opacity:0.981791;stroke:#000000;stroke-width:0.79375;stroke-linecap:round;stroke-linejoin:round;stroke-miterlimit:0;stroke-dasharray:none;paint-order:markers fill stroke;stop-color:#000000" id="path23528" cx="87.3125" cy="112.7125" r="0.52916664" />
    </g>
    <path style="fill:#000000;fill-opacity:0.981791;stroke:#000000;stroke-width:1.5875;stroke-linecap:round;stroke-linejoin:round;stroke-miterlimit:0;stroke-dasharray:none;paint-order:markers fill stroke;stop-color:#000000" d="m 42.171228,135.24572 -1.385442,-9.58578" id="path24640" ns2:nodetypes="cc" />
    <path style="fill:#000000;fill-opacity:0.981791;stroke:#000000;stroke-width:1.5875;stroke-linecap:round;stroke-linejoin:round;stroke-miterlimit:0;stroke-dasharray:none;paint-order:markers fill stroke;stop-color:#000000" d="m 92.626665,133.94365 0.555741,-9.58578" id="path24640-2" ns2:nodetypes="cc" />
  </g>

  </g>
  <g id="frame-layer" transform="scale(3.7795277450554994, 3.7795274660549345)">
    
  <ns2:namedview id="namedview7" pagecolor="#ffffff" bordercolor="#666666" borderopacity="1.0" pageshadow="2" pageopacity="0.0" pagecheckerboard="0" document-units="mm" showgrid="true" units="px" width="512px" zoom="2.0000001" cx="-32.249998" cy="223.74999" window-width="2560" window-height="1343" window-x="1200" window-y="240" window-maximized="1" current-layer="layer3" snap-object-midpoints="true" snap-midpoints="true" snap-smooth-nodes="true" snap-center="true" showpageshadow="2" deskcolor="#d1d1d1">
    <grid type="xygrid" id="grid21" units="px" spacingx="1.0583333" spacingy="1.0583333" empspacing="4" originx="0" originy="0" />
  </ns2:namedview>
  <defs id="defs2" />
  <g groupmode="layer" id="layer4" label="Background" style="display:inline" />
  <g groupmode="layer" id="layer2" label="Edge" style="display:inline" />
  <g label="Android" groupmode="layer" id="layer1" />
  <g groupmode="layer" id="layer3" label="Frame">
    <rect style="fill:none;fill-opacity:0.981791;stroke:#404040;stroke-width:6.35;stroke-linejoin:round;stroke-miterlimit:0;stroke-dasharray:none;paint-order:markers fill stroke;stop-color:#000000" id="frame-side" width="84.666664" height="84.666664" x="25.4" y="25.4" rx="42.333332" ry="42.333332" />
    <rect style="fill:none;fill-opacity:0.981791;stroke:#ffffff;stroke-width:4.23333;stroke-linejoin:round;stroke-miterlimit:0;stroke-dasharray:none;paint-order:markers fill stroke;stop-color:#000000" id="frame-top" width="84.666664" height="84.666664" x="25.4" y="25.4" rx="42.333332" ry="42.333332" />
    <path ns2:type="star" style="fill:#000000;fill-opacity:0.981791;stroke:#666666;stroke-width:4.18698;stroke-linejoin:round;stroke-miterlimit:0;stroke-dasharray:none;paint-order:markers fill stroke;stop-color:#000000" id="path1782" flatsided="true" ns2:sides="6" ns2:cx="444" ns2:cy="191.99998" ns2:r1="8.944272" ns2:r2="7.7459664" ns2:arg1="1.1071487" ns2:arg2="1.6307475" rounded="0" randomized="0" d="m 448,199.99998 -8.9282,-0.53589 -4,-8 4.9282,-7.46411 8.9282,0.5359 4,8 z" transform="matrix(-0.01713397,0.18879978,-0.18879978,-0.01713397,153.9237,-12.804049)" transform-center-x="-42.333332" />
    <path ns2:type="star" style="fill:#000000;fill-opacity:0.981791;stroke:#666666;stroke-width:4.18698;stroke-linejoin:round;stroke-miterlimit:0;stroke-dasharray:none;paint-order:markers fill stroke;stop-color:#000000" id="path1782-9" flatsided="true" ns2:sides="6" ns2:cx="444" ns2:cy="191.99998" ns2:r1="8.944272" ns2:r2="7.7459664" ns2:arg1="1.1071487" ns2:arg2="1.6307475" rounded="0" randomized="0" transform="matrix(-0.10923834,0.15493842,-0.15493842,-0.10923834,182.64507,41.081098)" transform-center-x="-36.661742" d="m 448,199.99998 -8.9282,-0.53589 -4,-8 4.9282,-7.46411 8.9282,0.5359 4,8 z" transform-center-y="21.166666" />
    <path ns2:type="star" style="fill:#000000;fill-opacity:0.981791;stroke:#666666;stroke-width:4.18698;stroke-linejoin:round;stroke-miterlimit:0;stroke-dasharray:none;paint-order:markers fill stroke;stop-color:#000000" id="path1782-5-2" flatsided="true" ns2:sides="6" ns2:cx="444" ns2:cy="191.99998" ns2:r1="8.944272" ns2:r2="7.7459664" ns2:arg1="1.1071487" ns2:arg2="1.6307475" rounded="0" randomized="0" transform="matrix(-0.17207239,0.07956144,-0.07956144,-0.17207239,180.57593,102.10769)" transform-center-x="-21.166663" d="m 448,199.99998 -8.9282,-0.53589 -4,-8 4.9282,-7.46411 8.9282,0.5359 4,8 z" transform-center-y="36.661743" />
    <path ns2:type="star" style="fill:#000000;fill-opacity:0.981791;stroke:#666666;stroke-width:4.18698;stroke-linejoin:round;stroke-miterlimit:0;stroke-dasharray:none;paint-order:markers fill stroke;stop-color:#000000" id="path1782-5-9" flatsided="true" ns2:sides="6" ns2:cx="444" ns2:cy="191.99998" ns2:r1="8.944272" ns2:r2="7.7459664" ns2:arg1="1.1071487" ns2:arg2="1.6307475" rounded="0" randomized="0" transform="matrix(-0.18879978,-0.01713397,0.01713397,-0.18879978,148.27071,153.9237)" transform-center-x="1.8239663e-06" d="m 448,199.99998 -8.9282,-0.53589 -4,-8 4.9282,-7.46411 8.9282,0.5359 4,8 z" transform-center-y="42.333332" />
    <path ns2:type="star" style="fill:#000000;fill-opacity:0.981791;stroke:#666666;stroke-width:4.18698;stroke-linejoin:round;stroke-miterlimit:0;stroke-dasharray:none;paint-order:markers fill stroke;stop-color:#000000" id="path1782-5-1" flatsided="true" ns2:sides="6" ns2:cx="444" ns2:cy="191.99998" ns2:r1="8.944272" ns2:r2="7.7459664" ns2:arg1="1.1071487" ns2:arg2="1.6307475" rounded="0" randomized="0" transform="matrix(-0.15493842,-0.10923834,0.10923834,-0.15493842,94.385565,182.64507)" transform-center-x="21.166666" d="m 448,199.99998 -8.9282,-0.53589 -4,-8 4.9282,-7.46411 8.9282,0.5359 4,8 z" transform-center-y="36.661742" />
    <path ns2:type="star" style="fill:#000000;fill-opacity:0.981791;stroke:#666666;stroke-width:4.18698;stroke-linejoin:round;stroke-miterlimit:0;stroke-dasharray:none;paint-order:markers fill stroke;stop-color:#000000" id="path1782-5-27" flatsided="true" ns2:sides="6" ns2:cx="444" ns2:cy="191.99998" ns2:r1="8.944272" ns2:r2="7.7459664" ns2:arg1="1.1071487" ns2:arg2="1.6307475" rounded="0" randomized="0" transform="matrix(-0.07956144,-0.17207239,0.17207239,-0.07956144,33.358973,180.57593)" transform-center-x="36.661742" d="m 448,199.99998 -8.9282,-0.53589 -4,-8 4.9282,-7.46411 8.9282,0.5359 4,8 z" transform-center-y="21.166663" />
    <path ns2:type="star" style="fill:#000000;fill-opacity:0.981791;stroke:#666666;stroke-width:4.18698;stroke-linejoin:round;stroke-miterlimit:0;stroke-dasharray:none;paint-order:markers fill stroke;stop-color:#000000" id="path1782-5-0" flatsided="true" ns2:sides="6" ns2:cx="444" ns2:cy="191.99998" ns2:r1="8.944272" ns2:r2="7.7459664" ns2:arg1="1.1071487" ns2:arg2="1.6307475" rounded="0" randomized="0" transform="matrix(0.01713397,-0.18879978,0.18879978,0.01713397,-18.457037,148.27071)" transform-center-x="42.333332" d="m 448,199.99998 -8.9282,-0.53589 -4,-8 4.9282,-7.46411 8.9282,0.5359 4,8 z" transform-center-y="-1.6828873e-06" />
    <path ns2:type="star" style="fill:#000000;fill-opacity:0.981791;stroke:#666666;stroke-width:4.18698;stroke-linejoin:round;stroke-miterlimit:0;stroke-dasharray:none;paint-order:markers fill stroke;stop-color:#000000" id="path1782-5" flatsided="true" ns2:sides="6" ns2:cx="444" ns2:cy="191.99998" ns2:r1="8.944272" ns2:r2="7.7459664" ns2:arg1="1.1071487" ns2:arg2="1.6307475" rounded="0" randomized="0" transform="matrix(0.10923834,-0.15493842,0.15493842,0.10923834,-47.178407,94.385564)" transform-center-x="36.661742" d="m 448,199.99998 -8.9282,-0.53589 -4,-8 4.9282,-7.46411 8.9282,0.5359 4,8 z" transform-center-y="-21.166667" />
    <path ns2:type="star" style="fill:#000000;fill-opacity:0.981791;stroke:#666666;stroke-width:4.18698;stroke-linejoin:round;stroke-miterlimit:0;stroke-dasharray:none;paint-order:markers fill stroke;stop-color:#000000" id="path1782-5-3" flatsided="true" ns2:sides="6" ns2:cx="444" ns2:cy="191.99998" ns2:r1="8.944272" ns2:r2="7.7459664" ns2:arg1="1.1071487" ns2:arg2="1.6307475" rounded="0" randomized="0" transform="matrix(0.17207239,-0.07956144,0.07956144,0.17207239,-45.10927,33.358973)" transform-center-x="21.166666" d="m 448,199.99998 -8.9282,-0.53589 -4,-8 4.9282,-7.46411 8.9282,0.5359 4,8 z" transform-center-y="-36.661742" />
    <path ns2:type="star" style="fill:#000000;fill-opacity:0.981791;stroke:#666666;stroke-width:4.18698;stroke-linejoin:round;stroke-miterlimit:0;stroke-dasharray:none;paint-order:markers fill stroke;stop-color:#000000" id="path1782-5-5" flatsided="true" ns2:sides="6" ns2:cx="444" ns2:cy="191.99998" ns2:r1="8.944272" ns2:r2="7.7459664" ns2:arg1="1.1071487" ns2:arg2="1.6307475" rounded="0" randomized="0" transform="matrix(0.18879978,0.01713397,-0.01713397,0.18879978,-12.804049,-18.457037)" d="m 448,199.99998 -8.9282,-0.53589 -4,-8 4.9282,-7.46411 8.9282,0.5359 4,8 z" transform-center-y="-42.333332" />
    <path ns2:type="star" style="fill:#000000;fill-opacity:0.981791;stroke:#666666;stroke-width:4.18698;stroke-linejoin:round;stroke-miterlimit:0;stroke-dasharray:none;paint-order:markers fill stroke;stop-color:#000000" id="path1782-5-6" flatsided="true" ns2:sides="6" ns2:cx="444" ns2:cy="191.99998" ns2:r1="8.944272" ns2:r2="7.7459664" ns2:arg1="1.1071487" ns2:arg2="1.6307475" rounded="0" randomized="0" transform="matrix(0.15493842,0.10923834,-0.10923834,0.15493842,41.081098,-47.178408)" transform-center-x="-21.166666" d="m 448,199.99998 -8.9282,-0.53589 -4,-8 4.9282,-7.46411 8.9282,0.5359 4,8 z" transform-center-y="-36.661743" />
    <path ns2:type="star" style="fill:#000000;fill-opacity:0.981791;stroke:#666666;stroke-width:4.18698;stroke-linejoin:round;stroke-miterlimit:0;stroke-dasharray:none;paint-order:markers fill stroke;stop-color:#000000" id="path1782-6" flatsided="true" ns2:sides="6" ns2:cx="444" ns2:cy="191.99998" ns2:r1="8.944272" ns2:r2="7.7459664" ns2:arg1="1.1071487" ns2:arg2="1.6307475" rounded="0" randomized="0" transform="matrix(0.07956144,0.17207239,-0.17207239,0.07956144,102.10769,-45.10927)" transform-center-x="-36.661743" d="m 448,199.99998 -8.9282,-0.53589 -4,-8 4.9282,-7.46411 8.9282,0.5359 4,8 z" transform-center-y="-21.166665" />
  </g>

  </g>
</svg>
