<?xml version="1.0" encoding="UTF-8" standalone="no"?>
<svg xmlns="http://www.w3.org/2000/svg" xmlns:xlink="http://www.w3.org/1999/xlink" width="512px" height="512px" viewBox="0 0 512 512" version="1.1">
  <g id="background-layer" transform="scale(3.7795277450554994, 3.7795274660549345)">
    
  <ns2:namedview id="namedview7" pagecolor="#ffffff" bordercolor="#666666" borderopacity="1.0" pageshadow="2" pageopacity="0.0" pagecheckerboard="0" document-units="mm" showgrid="true" units="px" width="512px" zoom="2.0000001" cx="141.74999" cy="231.24999" window-width="2560" window-height="1343" window-x="1200" window-y="240" window-maximized="1" current-layer="layer4" snap-object-midpoints="true" snap-midpoints="true" snap-smooth-nodes="true" snap-center="true" showpageshadow="2" deskcolor="#d1d1d1">
    <grid type="xygrid" id="grid21" units="px" spacingx="1.0583333" spacingy="1.0583333" empspacing="4" originx="0" originy="0" />
  </ns2:namedview>
  <defs id="defs2">
    <filter collect="always" style="color-interpolation-filters:sRGB" id="filter3401" x="-0.032155986" y="-0.032155983" width="1.064312" height="1.064312">
      <feGaussianBlur collect="always" stdDeviation="1.0541065" id="feGaussianBlur3403" />
    </filter>
  </defs>
  <g groupmode="layer" id="layer4" label="Background" style="display:inline">
    <rect style="display:inline;mix-blend-mode:normal;fill:#000000;fill-opacity:0.981791;stroke:#000000;stroke-width:0.79375;stroke-linejoin:round;stroke-miterlimit:0;paint-order:markers fill stroke;filter:url(#filter3401);stop-color:#000000" id="rect91" width="91.016663" height="91.01667" x="22.224998" y="22.224998" ry="45.508335" rx="45.508331" />
    <rect style="display:inline;fill:#ffffff;fill-opacity:0.981791;stroke:none;stroke-width:0.79375;stroke-linejoin:round;stroke-miterlimit:0;paint-order:markers fill stroke;stop-color:#000000" id="background-circle" width="84.666649" height="84.666649" x="25.400015" y="25.400003" ry="42.316967" rx="42.333324" />
  </g>

  </g>
  <g id="middle-layer" transform="translate(102.4, 102.4) scale(2.2677166470332994, 2.2677164796329605)">
    <ns2:namedview id="namedview7" pagecolor="#ffffff" bordercolor="#666666" borderopacity="1.0" pageshadow="2" pageopacity="0.0" pagecheckerboard="0" document-units="mm" showgrid="true" units="px" width="512px" zoom="1" cx="-184.5" cy="67.499998" window-width="2560" window-height="1343" window-x="1200" window-y="240" window-maximized="1" current-layer="layer1" snap-object-midpoints="true" snap-smooth-nodes="true" showpageshadow="2" deskcolor="#d1d1d1"><grid type="xygrid" id="grid21" units="px" spacingx="1.0583333" spacingy="1.0583333" empspacing="4" originx="0" originy="0" /></ns2:namedview><defs id="defs2" /><g groupmode="layer" id="layer2" label="Image" style="display:none;opacity:0.43899" ns2:insensitive="true"><image width="131.23334" height="131.23334" preserveAspectRatio="none" ns3:href="../../../../Incoming/notasnark_androgenous_human_citizen_of_a_high_tech_culture_we_e77d839d-741a-440c-86cf-f8c68b4732ae_2.png" id="image1" x="4.2333331" y="4.2333331" /></g><g groupmode="layer" id="layer3" label="Border" ns2:insensitive="true" style="display:none"><circle style="fill:none;fill-opacity:0.981791;stroke:#000000;stroke-width:0.264583;stroke-linecap:round;stroke-linejoin:round;stroke-miterlimit:0;stroke-dasharray:none;paint-order:markers fill stroke;stop-color:#000000" id="path66" cx="67.73333" cy="67.73333" r="67.73333" /></g><g label="Human" groupmode="layer" id="layer1"><path style="fill:none;fill-opacity:0.981791;stroke:#000000;stroke-width:1.5875;stroke-linecap:butt;stroke-linejoin:round;stroke-miterlimit:0;paint-order:markers fill stroke" d="m 49.59539,34.72599 c 0.146276,0.905815 0.09927,0.988906 0.07742,1.251614 -0.820366,9.864344 -0.07333,19.77768 3.24386,29.771351 4.93889,3.483679 9.877778,5.556248 14.816666,6.217705 5.997224,-1.058333 11.28889,-2.469444 15.875,-4.233333 2.469446,-7.805207 4.233335,-14.375691 5.291667,-19.711453 1.076425,-6.101831 -1.058337,-12.038543 -3.175,-18.388544 C 84.135213,25.399998 77.218368,19.476196 73.025,17.991665" id="path1" ns2:nodetypes="cscccccc" /><path style="fill:none;fill-opacity:0.981791;stroke:#000000;stroke-width:1.5875;stroke-linejoin:round;stroke-miterlimit:0;paint-order:markers fill stroke" d="M 50.678464,85.88669 C 38.347858,89.964874 25.434151,94.942153 13.758333,97.366658 l -3.175,9.525002" id="path2" ns2:nodetypes="ccc" /><path style="fill:none;fill-opacity:0.981791;stroke:#000000;stroke-width:1.5875;stroke-linejoin:round;stroke-miterlimit:0;paint-order:markers fill stroke" d="m 87.3125,87.312493 c 11.41866,4.818709 25.18061,6.580317 36.5125,8.334378 l 2.11667,8.466669" id="path3" ns2:nodetypes="ccc" /><path style="fill:none;stroke:#000000;stroke-width:0.264583px;stroke-linecap:butt;stroke-linejoin:miter;stroke-opacity:1" d="m 61.383333,59.266662 12.7,-10e-7" id="path4" ns2:nodetypes="cc" /><path style="fill:none;stroke:#000000;stroke-width:0.264583px;stroke-linecap:butt;stroke-linejoin:miter;stroke-opacity:1" d="m 61.383333,59.266662 c 4.233334,2.116668 7.408334,2.116668 12.7,0" id="path5" ns2:nodetypes="cc" /><path style="fill:none;stroke:#000000;stroke-width:0.264583px;stroke-linecap:butt;stroke-linejoin:miter;stroke-opacity:1" d="m 61.383333,59.266662 c 1.444191,-0.74737 0.409526,-1.64776 4.233333,-2.116666 0.507128,0.568957 3.230683,0.778079 4.233334,0 2.469445,-0.0441 2.480469,1.3615 4.233333,2.116665" id="path6" ns2:nodetypes="cccc" /><path style="fill:none;stroke:#000000;stroke-width:0.79375;stroke-linecap:butt;stroke-linejoin:miter;stroke-dasharray:none;stroke-opacity:1" d="m 62.970832,50.799997 c 3.704168,-4.233334 5.683688,-4.233334 9.525001,-10e-7" id="path7" ns2:nodetypes="cc" /><path style="fill:none;stroke:#000000;stroke-width:0.79375;stroke-linecap:butt;stroke-linejoin:miter;stroke-dasharray:none;stroke-opacity:1" d="m 67.733333,38.099997 v 9.524999" id="path9" ns2:nodetypes="cc" /><path style="fill:none;stroke:#000000;stroke-width:0.79375;stroke-linecap:round;stroke-linejoin:miter;stroke-dasharray:none;stroke-opacity:1" d="m 71.437498,39.687498 c 3.100327,-3.404466 8.466667,-3.175 11.641667,-1.058333" id="path10" ns2:nodetypes="cc" /><path style="fill:none;stroke:#000000;stroke-width:0.79375;stroke-linecap:round;stroke-linejoin:miter;stroke-dasharray:none;stroke-opacity:1" d="m 65.616666,40.216664 c -1.897405,-3.592282 -10.987952,-4.13743 -12.7,-1.058334" id="path11" ns2:nodetypes="cc" /><path style="fill:none;fill-opacity:0.981791;stroke:#000000;stroke-width:0.79375;stroke-linejoin:round;stroke-miterlimit:0;stroke-dasharray:none;paint-order:markers fill stroke" d="m 50.270833,57.149995 c -1.937526,0.585704 -3.890121,1.344711 -5.291667,-4.233334 0,-9.87778 1.907208,-12.699992 4.729428,-8.466664" id="path12" ns2:nodetypes="ccc" /><path style="fill:none;fill-opacity:0.981791;stroke:#000000;stroke-width:1.5875;stroke-linejoin:round;stroke-miterlimit:0;stroke-dasharray:none;paint-order:markers fill stroke" d="M 45.508333,47.09583 44.929473,46.929292 44.45,40.216664 c 1.573793,-7.619782 2.116667,-11.641666 5.291666,-16.933332 13.139923,-13.354168 24.208379,-13.137154 37.041667,-3.175 4.807723,6.473879 5.291667,10.583332 6.35,17.991665 l 0,4.233333 -0.529167,0.529167" id="path14" ns2:nodetypes="cccccccc" /><path style="fill:none;fill-opacity:0.981791;stroke:#000000;stroke-width:0.79375;stroke-linejoin:round;stroke-miterlimit:0;stroke-dasharray:none;paint-order:markers fill stroke" d="m 58.208333,87.84166 c 8.602933,5.171299 14.822879,3.193636 20.6375,0" id="path15" ns2:nodetypes="cc" /><path style="fill:none;fill-opacity:0.981791;stroke:#000000;stroke-width:0.79375;stroke-linejoin:round;stroke-miterlimit:0;stroke-dasharray:none;paint-order:markers fill stroke" d="m 56.620833,80.433327 c 8.892544,4.082817 15.875,3.175 24.341667,0" id="path16" ns2:nodetypes="cc" /><path style="fill:none;fill-opacity:0.981791;stroke:#000000;stroke-width:1.5875;stroke-linejoin:round;stroke-miterlimit:0;paint-order:markers fill stroke" d="m 55.033333,67.733328 v 6.35 l -7.408334,6.349999 10.583334,19.049997 v 34.924996" id="path17" ns2:nodetypes="ccccc" /><path style="fill:none;fill-opacity:0.981791;stroke:#000000;stroke-width:1.5875;stroke-linejoin:round;stroke-miterlimit:0;paint-order:markers fill stroke" d="m 82.55,68.791661 0,5.291667 9.524999,5.291666 -13.758333,20.10833 -2.116667,35.983326" id="path18" ns2:nodetypes="ccccc" /><path style="fill:none;fill-opacity:0.981791;stroke:#000000;stroke-width:0.79375;stroke-linejoin:round;stroke-miterlimit:0;stroke-dasharray:none;paint-order:markers fill stroke" d="m 55.033333,73.024994 5.291667,24.341665 -1e-6,38.099991" id="path19" ns2:nodetypes="ccc" /><path style="fill:none;fill-opacity:0.981791;stroke:#000000;stroke-width:0.79375;stroke-linejoin:round;stroke-miterlimit:0;stroke-dasharray:none;paint-order:markers fill stroke" d="M 82.55,74.083328 76.199999,99.483324 74.083332,135.46665" id="path20" ns2:nodetypes="ccc" /><path style="fill:none;fill-opacity:0.981791;stroke:#000000;stroke-width:0.79375;stroke-linejoin:round;stroke-miterlimit:0;stroke-dasharray:none;paint-order:markers fill stroke" d="m 67.733333,83.07916 -10e-7,52.38749" id="path21" ns2:nodetypes="cc" /><path style="fill:none;fill-opacity:0.981791;stroke:#000000;stroke-width:0.79375;stroke-linejoin:round;stroke-miterlimit:0;stroke-dasharray:none;paint-order:markers fill stroke" d="m 63.499999,42.33333 c -1.195817,-1.345392 -2.377783,-2.709252 -4.233333,-3.175 -2.822223,-0.705556 -4.233332,10e-7 -4.233333,2.116667 2.822223,1.058333 5.644445,1.411111 8.466666,1.058333 z" id="path22" ns2:nodetypes="cccc" /><path style="fill:none;fill-opacity:0.981791;stroke:#000000;stroke-width:1.5875;stroke-linecap:round;stroke-linejoin:round;stroke-miterlimit:0;stroke-dasharray:none;paint-order:markers fill stroke" d="m 49.744646,34.924997 c 3.940168,-0.49702 6.9451,-2.0156 10.580353,-4.233333 2.165251,-7.783363 7.456693,-9.688523 12.231505,-12.252765 0.231031,-0.124071 0.437987,-0.635392 0.667277,-0.762946" id="path24" ns2:nodetypes="ccsc" /><path style="fill:none;fill-opacity:0.981791;stroke:#000000;stroke-width:0.79375;stroke-linecap:butt;stroke-linejoin:round;stroke-miterlimit:0;stroke-dasharray:none;paint-order:markers fill stroke" d="m 50.270833,52.916661 c -1.425849,-0.793047 -3.703452,3.175002 -3.538802,-4.233331 0.352778,-4.586111 1.179601,-4.58611 2.94349,-2.116666" id="path25" ns2:nodetypes="ccc" /><path style="fill:none;fill-opacity:0.981791;stroke:#000000;stroke-width:0.79375;stroke-linejoin:round;stroke-miterlimit:0;stroke-dasharray:none;paint-order:markers fill stroke" d="m 87.841666,56.091662 c 1.937526,0.585704 4.551579,1.600649 5.953125,-3.977396 0,-9.87778 -1.907208,-12.699992 -4.729428,-8.466664" id="path12-0" ns2:nodetypes="ccc" /><path style="fill:none;fill-opacity:0.981791;stroke:#000000;stroke-width:0.79375;stroke-linecap:butt;stroke-linejoin:round;stroke-miterlimit:0;stroke-dasharray:none;paint-order:markers fill stroke" d="m 88.503124,52.114266 c 1.425849,-0.793047 3.703452,3.175002 3.538802,-4.233331 -0.352778,-4.586111 -1.179601,-4.58611 -2.94349,-2.116666" id="path25-6" ns2:nodetypes="ccc" /><ellipse style="fill:#000000;fill-opacity:0.981791;stroke:#000000;stroke-width:0.79375;stroke-linecap:butt;stroke-linejoin:round;stroke-miterlimit:0;stroke-dasharray:none;paint-order:markers fill stroke" id="path26" cx="59.266666" cy="40.745831" rx="1.0583333" ry="1.5874999" /><path style="fill:none;fill-opacity:0.981791;stroke:#000000;stroke-width:0.79375;stroke-linejoin:round;stroke-miterlimit:0;stroke-dasharray:none;paint-order:markers fill stroke" d="m 72.495833,42.33333 c 1.195817,-1.345392 2.377783,-2.709252 4.233333,-3.175 2.822223,-0.705556 4.233332,10e-7 4.233333,2.116667 -2.822223,1.058333 -5.644445,1.411111 -8.466666,1.058333 z" id="path22-5" ns2:nodetypes="cccc" /><ellipse style="fill:#000000;fill-opacity:0.981791;stroke:#000000;stroke-width:0.79375;stroke-linecap:butt;stroke-linejoin:round;stroke-miterlimit:0;stroke-dasharray:none;paint-order:markers fill stroke" id="path26-5" cx="-76.729164" cy="40.745831" rx="1.0583333" ry="1.5874999" transform="scale(-1,1)" /><ellipse style="fill:#000000;fill-opacity:0.981791;stroke:#000000;stroke-width:0.79375;stroke-linecap:butt;stroke-linejoin:round;stroke-miterlimit:0;stroke-dasharray:none;paint-order:markers fill stroke" id="path27-7-5" cx="32.730019" cy="76.150864" rx="1.0583333" ry="0.52916664" transform="rotate(-29.601486)" transform-center-x="-0.079468785" transform-center-y="-0.12542307" /><ellipse style="fill:#000000;fill-opacity:0.981791;stroke:#000000;stroke-width:0.79375;stroke-linecap:butt;stroke-linejoin:round;stroke-miterlimit:0;stroke-dasharray:none;paint-order:markers fill stroke" id="path27-7-5-9" cx="-84.96685" cy="9.2200089" rx="1.0583333" ry="0.52916664" transform="matrix(-0.86948212,-0.49396442,-0.49396442,0.86948212,0,0)" transform-center-x="0.079469084" transform-center-y="-0.12542352" /><ellipse style="fill:#000000;fill-opacity:0.981791;stroke:#000000;stroke-width:0.79375;stroke-linecap:butt;stroke-linejoin:round;stroke-miterlimit:0;stroke-dasharray:none;paint-order:markers fill stroke" id="path27" cx="66.021805" cy="85.0718" rx="0.25631437" ry="0.25631732" /><ellipse style="fill:#000000;fill-opacity:0.981791;stroke:#000000;stroke-width:0.79375;stroke-linecap:butt;stroke-linejoin:round;stroke-miterlimit:0;stroke-dasharray:none;paint-order:markers fill stroke" id="path27-7" cx="66.021805" cy="88.246803" rx="0.25631437" ry="0.25631732" /><circle style="fill:none;fill-opacity:0.981791;stroke:#000000;stroke-width:0.264583;stroke-linecap:butt;stroke-linejoin:round;stroke-miterlimit:0;stroke-dasharray:none;paint-order:markers fill stroke" id="path28" cx="66.145828" cy="95.249992" r="0.52916664" /><circle style="fill:none;fill-opacity:0.981791;stroke:#000000;stroke-width:0.264583;stroke-linecap:butt;stroke-linejoin:round;stroke-miterlimit:0;stroke-dasharray:none;paint-order:markers fill stroke" id="path28-54" cx="66.145828" cy="112.18333" r="0.52916664" /><circle style="fill:none;fill-opacity:0.981791;stroke:#000000;stroke-width:0.264583;stroke-linecap:butt;stroke-linejoin:round;stroke-miterlimit:0;stroke-dasharray:none;paint-order:markers fill stroke" id="path28-4" cx="66.145828" cy="120.64999" r="0.52916664" /><circle style="fill:none;fill-opacity:0.981791;stroke:#000000;stroke-width:0.264583;stroke-linecap:butt;stroke-linejoin:round;stroke-miterlimit:0;stroke-dasharray:none;paint-order:markers fill stroke" id="path28-3" cx="66.145828" cy="129.11664" r="0.52916664" /><circle style="fill:none;fill-opacity:0.981791;stroke:#000000;stroke-width:0.264583;stroke-linecap:butt;stroke-linejoin:round;stroke-miterlimit:0;stroke-dasharray:none;paint-order:markers fill stroke" id="path28-5" cx="66.145828" cy="103.71667" r="0.52916664" /><rect style="fill:none;fill-opacity:0.981791;stroke:#000000;stroke-width:0.79375;stroke-linecap:butt;stroke-linejoin:round;stroke-miterlimit:0;stroke-dasharray:none;paint-order:markers fill stroke" id="rect29" width="12.560044" height="13.618392" x="89.039955" y="106.63473" rx="45.672894" ry="0" /><path style="fill:none;fill-opacity:0.981791;stroke:#000000;stroke-width:0.79375;stroke-linecap:butt;stroke-linejoin:round;stroke-miterlimit:0;stroke-dasharray:none;paint-order:markers fill stroke" d="M 88.900001,109.66978 H 101.6" id="path29" /></g>
  </g>
  <g id="frame-layer" transform="scale(3.7795277450554994, 3.7795274660549345)">
    
  <ns2:namedview id="namedview7" pagecolor="#ffffff" bordercolor="#666666" borderopacity="1.0" pageshadow="2" pageopacity="0.0" pagecheckerboard="0" document-units="mm" showgrid="true" units="px" width="512px" zoom="2.0000001" cx="-32.249998" cy="223.74999" window-width="2560" window-height="1343" window-x="1200" window-y="240" window-maximized="1" current-layer="layer3" snap-object-midpoints="true" snap-midpoints="true" snap-smooth-nodes="true" snap-center="true" showpageshadow="2" deskcolor="#d1d1d1">
    <grid type="xygrid" id="grid21" units="px" spacingx="1.0583333" spacingy="1.0583333" empspacing="4" originx="0" originy="0" />
  </ns2:namedview>
  <defs id="defs2" />
  <g groupmode="layer" id="layer4" label="Background" style="display:inline" />
  <g groupmode="layer" id="layer2" label="Edge" style="display:inline" />
  <g label="Android" groupmode="layer" id="layer1" />
  <g groupmode="layer" id="layer3" label="Frame">
    <rect style="fill:none;fill-opacity:0.981791;stroke:#404040;stroke-width:6.35;stroke-linejoin:round;stroke-miterlimit:0;stroke-dasharray:none;paint-order:markers fill stroke;stop-color:#000000" id="frame-side" width="84.666664" height="84.666664" x="25.4" y="25.4" rx="42.333332" ry="42.333332" />
    <rect style="fill:none;fill-opacity:0.981791;stroke:#ffffff;stroke-width:4.23333;stroke-linejoin:round;stroke-miterlimit:0;stroke-dasharray:none;paint-order:markers fill stroke;stop-color:#000000" id="frame-top" width="84.666664" height="84.666664" x="25.4" y="25.4" rx="42.333332" ry="42.333332" />
    <path ns2:type="star" style="fill:#000000;fill-opacity:0.981791;stroke:#666666;stroke-width:4.18698;stroke-linejoin:round;stroke-miterlimit:0;stroke-dasharray:none;paint-order:markers fill stroke;stop-color:#000000" id="path1782" flatsided="true" ns2:sides="6" ns2:cx="444" ns2:cy="191.99998" ns2:r1="8.944272" ns2:r2="7.7459664" ns2:arg1="1.1071487" ns2:arg2="1.6307475" rounded="0" randomized="0" d="m 448,199.99998 -8.9282,-0.53589 -4,-8 4.9282,-7.46411 8.9282,0.5359 4,8 z" transform="matrix(-0.01713397,0.18879978,-0.18879978,-0.01713397,153.9237,-12.804049)" transform-center-x="-42.333332" />
    <path ns2:type="star" style="fill:#000000;fill-opacity:0.981791;stroke:#666666;stroke-width:4.18698;stroke-linejoin:round;stroke-miterlimit:0;stroke-dasharray:none;paint-order:markers fill stroke;stop-color:#000000" id="path1782-9" flatsided="true" ns2:sides="6" ns2:cx="444" ns2:cy="191.99998" ns2:r1="8.944272" ns2:r2="7.7459664" ns2:arg1="1.1071487" ns2:arg2="1.6307475" rounded="0" randomized="0" transform="matrix(-0.10923834,0.15493842,-0.15493842,-0.10923834,182.64507,41.081098)" transform-center-x="-36.661742" d="m 448,199.99998 -8.9282,-0.53589 -4,-8 4.9282,-7.46411 8.9282,0.5359 4,8 z" transform-center-y="21.166666" />
    <path ns2:type="star" style="fill:#000000;fill-opacity:0.981791;stroke:#666666;stroke-width:4.18698;stroke-linejoin:round;stroke-miterlimit:0;stroke-dasharray:none;paint-order:markers fill stroke;stop-color:#000000" id="path1782-5-2" flatsided="true" ns2:sides="6" ns2:cx="444" ns2:cy="191.99998" ns2:r1="8.944272" ns2:r2="7.7459664" ns2:arg1="1.1071487" ns2:arg2="1.6307475" rounded="0" randomized="0" transform="matrix(-0.17207239,0.07956144,-0.07956144,-0.17207239,180.57593,102.10769)" transform-center-x="-21.166663" d="m 448,199.99998 -8.9282,-0.53589 -4,-8 4.9282,-7.46411 8.9282,0.5359 4,8 z" transform-center-y="36.661743" />
    <path ns2:type="star" style="fill:#000000;fill-opacity:0.981791;stroke:#666666;stroke-width:4.18698;stroke-linejoin:round;stroke-miterlimit:0;stroke-dasharray:none;paint-order:markers fill stroke;stop-color:#000000" id="path1782-5-9" flatsided="true" ns2:sides="6" ns2:cx="444" ns2:cy="191.99998" ns2:r1="8.944272" ns2:r2="7.7459664" ns2:arg1="1.1071487" ns2:arg2="1.6307475" rounded="0" randomized="0" transform="matrix(-0.18879978,-0.01713397,0.01713397,-0.18879978,148.27071,153.9237)" transform-center-x="1.8239663e-06" d="m 448,199.99998 -8.9282,-0.53589 -4,-8 4.9282,-7.46411 8.9282,0.5359 4,8 z" transform-center-y="42.333332" />
    <path ns2:type="star" style="fill:#000000;fill-opacity:0.981791;stroke:#666666;stroke-width:4.18698;stroke-linejoin:round;stroke-miterlimit:0;stroke-dasharray:none;paint-order:markers fill stroke;stop-color:#000000" id="path1782-5-1" flatsided="true" ns2:sides="6" ns2:cx="444" ns2:cy="191.99998" ns2:r1="8.944272" ns2:r2="7.7459664" ns2:arg1="1.1071487" ns2:arg2="1.6307475" rounded="0" randomized="0" transform="matrix(-0.15493842,-0.10923834,0.10923834,-0.15493842,94.385565,182.64507)" transform-center-x="21.166666" d="m 448,199.99998 -8.9282,-0.53589 -4,-8 4.9282,-7.46411 8.9282,0.5359 4,8 z" transform-center-y="36.661742" />
    <path ns2:type="star" style="fill:#000000;fill-opacity:0.981791;stroke:#666666;stroke-width:4.18698;stroke-linejoin:round;stroke-miterlimit:0;stroke-dasharray:none;paint-order:markers fill stroke;stop-color:#000000" id="path1782-5-27" flatsided="true" ns2:sides="6" ns2:cx="444" ns2:cy="191.99998" ns2:r1="8.944272" ns2:r2="7.7459664" ns2:arg1="1.1071487" ns2:arg2="1.6307475" rounded="0" randomized="0" transform="matrix(-0.07956144,-0.17207239,0.17207239,-0.07956144,33.358973,180.57593)" transform-center-x="36.661742" d="m 448,199.99998 -8.9282,-0.53589 -4,-8 4.9282,-7.46411 8.9282,0.5359 4,8 z" transform-center-y="21.166663" />
    <path ns2:type="star" style="fill:#000000;fill-opacity:0.981791;stroke:#666666;stroke-width:4.18698;stroke-linejoin:round;stroke-miterlimit:0;stroke-dasharray:none;paint-order:markers fill stroke;stop-color:#000000" id="path1782-5-0" flatsided="true" ns2:sides="6" ns2:cx="444" ns2:cy="191.99998" ns2:r1="8.944272" ns2:r2="7.7459664" ns2:arg1="1.1071487" ns2:arg2="1.6307475" rounded="0" randomized="0" transform="matrix(0.01713397,-0.18879978,0.18879978,0.01713397,-18.457037,148.27071)" transform-center-x="42.333332" d="m 448,199.99998 -8.9282,-0.53589 -4,-8 4.9282,-7.46411 8.9282,0.5359 4,8 z" transform-center-y="-1.6828873e-06" />
    <path ns2:type="star" style="fill:#000000;fill-opacity:0.981791;stroke:#666666;stroke-width:4.18698;stroke-linejoin:round;stroke-miterlimit:0;stroke-dasharray:none;paint-order:markers fill stroke;stop-color:#000000" id="path1782-5" flatsided="true" ns2:sides="6" ns2:cx="444" ns2:cy="191.99998" ns2:r1="8.944272" ns2:r2="7.7459664" ns2:arg1="1.1071487" ns2:arg2="1.6307475" rounded="0" randomized="0" transform="matrix(0.10923834,-0.15493842,0.15493842,0.10923834,-47.178407,94.385564)" transform-center-x="36.661742" d="m 448,199.99998 -8.9282,-0.53589 -4,-8 4.9282,-7.46411 8.9282,0.5359 4,8 z" transform-center-y="-21.166667" />
    <path ns2:type="star" style="fill:#000000;fill-opacity:0.981791;stroke:#666666;stroke-width:4.18698;stroke-linejoin:round;stroke-miterlimit:0;stroke-dasharray:none;paint-order:markers fill stroke;stop-color:#000000" id="path1782-5-3" flatsided="true" ns2:sides="6" ns2:cx="444" ns2:cy="191.99998" ns2:r1="8.944272" ns2:r2="7.7459664" ns2:arg1="1.1071487" ns2:arg2="1.6307475" rounded="0" randomized="0" transform="matrix(0.17207239,-0.07956144,0.07956144,0.17207239,-45.10927,33.358973)" transform-center-x="21.166666" d="m 448,199.99998 -8.9282,-0.53589 -4,-8 4.9282,-7.46411 8.9282,0.5359 4,8 z" transform-center-y="-36.661742" />
    <path ns2:type="star" style="fill:#000000;fill-opacity:0.981791;stroke:#666666;stroke-width:4.18698;stroke-linejoin:round;stroke-miterlimit:0;stroke-dasharray:none;paint-order:markers fill stroke;stop-color:#000000" id="path1782-5-5" flatsided="true" ns2:sides="6" ns2:cx="444" ns2:cy="191.99998" ns2:r1="8.944272" ns2:r2="7.7459664" ns2:arg1="1.1071487" ns2:arg2="1.6307475" rounded="0" randomized="0" transform="matrix(0.18879978,0.01713397,-0.01713397,0.18879978,-12.804049,-18.457037)" d="m 448,199.99998 -8.9282,-0.53589 -4,-8 4.9282,-7.46411 8.9282,0.5359 4,8 z" transform-center-y="-42.333332" />
    <path ns2:type="star" style="fill:#000000;fill-opacity:0.981791;stroke:#666666;stroke-width:4.18698;stroke-linejoin:round;stroke-miterlimit:0;stroke-dasharray:none;paint-order:markers fill stroke;stop-color:#000000" id="path1782-5-6" flatsided="true" ns2:sides="6" ns2:cx="444" ns2:cy="191.99998" ns2:r1="8.944272" ns2:r2="7.7459664" ns2:arg1="1.1071487" ns2:arg2="1.6307475" rounded="0" randomized="0" transform="matrix(0.15493842,0.10923834,-0.10923834,0.15493842,41.081098,-47.178408)" transform-center-x="-21.166666" d="m 448,199.99998 -8.9282,-0.53589 -4,-8 4.9282,-7.46411 8.9282,0.5359 4,8 z" transform-center-y="-36.661743" />
    <path ns2:type="star" style="fill:#000000;fill-opacity:0.981791;stroke:#666666;stroke-width:4.18698;stroke-linejoin:round;stroke-miterlimit:0;stroke-dasharray:none;paint-order:markers fill stroke;stop-color:#000000" id="path1782-6" flatsided="true" ns2:sides="6" ns2:cx="444" ns2:cy="191.99998" ns2:r1="8.944272" ns2:r2="7.7459664" ns2:arg1="1.1071487" ns2:arg2="1.6307475" rounded="0" randomized="0" transform="matrix(0.07956144,0.17207239,-0.17207239,0.07956144,102.10769,-45.10927)" transform-center-x="-36.661743" d="m 448,199.99998 -8.9282,-0.53589 -4,-8 4.9282,-7.46411 8.9282,0.5359 4,8 z" transform-center-y="-21.166665" />
  </g>

  </g>
</svg>
