<?xml version="1.0" encoding="UTF-8" standalone="no"?>
<svg
   width="512"
   height="512"
   viewBox="0 0 135.46666 135.46666"
   version="1.1"
   id="svg8"
   inkscape:version="1.1.2 (0a00cf5339, 2022-02-04)"
   sodipodi:docname="D66.svg"
   inkscape:export-filename="/home/sam/rpg/traveller-models/ships/deepnight/deepnight-grey.png"
   inkscape:export-xdpi="150"
   inkscape:export-ydpi="150"
   xmlns:inkscape="http://www.inkscape.org/namespaces/inkscape"
   xmlns:sodipodi="http://sodipodi.sourceforge.net/DTD/sodipodi-0.dtd"
   xmlns="http://www.w3.org/2000/svg"
   xmlns:svg="http://www.w3.org/2000/svg"
   xmlns:rdf="http://www.w3.org/1999/02/22-rdf-syntax-ns#"
   xmlns:cc="http://creativecommons.org/ns#"
   xmlns:dc="http://purl.org/dc/elements/1.1/">
  <defs
     id="defs2" />
  <sodipodi:namedview
     id="base"
     pagecolor="#ffffff"
     bordercolor="#666666"
     borderopacity="1.0"
     inkscape:pageopacity="0.0"
     inkscape:pageshadow="2"
     inkscape:zoom="1.6855469"
     inkscape:cx="248.28737"
     inkscape:cy="336.09269"
     inkscape:document-units="mm"
     inkscape:current-layer="layer1"
     inkscape:document-rotation="0"
     showgrid="true"
     inkscape:snap-grids="true"
     objecttolerance="20"
     inkscape:window-width="2560"
     inkscape:window-height="1403"
     inkscape:window-x="3760"
     inkscape:window-y="357"
     inkscape:window-maximized="1"
     inkscape:snap-object-midpoints="true"
     gridtolerance="10"
     inkscape:snap-center="true"
     inkscape:pagecheckerboard="0"
     units="px"
     height="512px">
    <inkscape:grid
       type="xygrid"
       id="grid838" />
  </sodipodi:namedview>
  <metadata
     id="metadata5">
    <rdf:RDF>
      <cc:Work
         rdf:about="">
        <dc:format>image/svg+xml</dc:format>
        <dc:type
           rdf:resource="http://purl.org/dc/dcmitype/StillImage" />
      </cc:Work>
    </rdf:RDF>
  </metadata>
  <g
     inkscape:label="Layer 1"
     inkscape:groupmode="layer"
     id="layer1">
    <g
       id="g9149">
      <rect
         style="fill:#ffcc00;fill-opacity:0.998891;stroke:#000000;stroke-width:1.15912;stroke-linecap:round;stroke-linejoin:round;paint-order:markers fill stroke;stop-color:#000000"
         id="rect188"
         width="54.761906"
         height="54.761906"
         x="10"
         y="30"
         ry="10"
         rx="10" />
      <g
         aria-label="6"
         id="text7479"
         style="font-size:43.5204px;line-height:1.25;font-family:Anton;-inkscape-font-specification:Anton;font-variant-ligatures:none;stroke-width:2.33144">
        <path
           d="m 37.555034,76.421131 q -3.829795,0 -6.049335,-1.305612 Q 29.286158,73.809907 28.37223,71.198683 27.458301,68.587459 27.458301,64.4095 V 54.312767 q 0,-5.788213 0.696327,-9.095764 0.739846,-3.351071 2.959387,-5.091887 2.21954,-1.784336 6.658621,-1.784336 2.437143,0 4.482602,0.826887 2.045458,0.826888 3.26403,2.480663 1.218571,1.653776 1.218571,4.003877 v 4.047398 h -7.224387 v -0.783368 q 0,-1.914897 -0.348163,-2.959387 -0.304643,-1.04449 -1.523214,-1.04449 -1.218571,0 -1.740816,0.652806 -0.478724,0.652806 -0.478724,2.001939 v 7.529029 q 0.522244,-1.044489 1.610254,-1.610255 1.08801,-0.609285 2.567704,-0.609285 3.046428,0 4.700203,1.218571 1.697296,1.218571 2.350102,3.612193 0.652806,2.393622 0.652806,6.266938 0,5.962295 -2.263061,9.226325 -2.263061,3.22051 -7.485509,3.22051 z m -0.261122,-6.876224 q 1.175051,0 1.479693,-0.913928 0.348164,-0.957449 0.348164,-3.089949 v -3.002907 q 0,-3.046428 -1.740816,-3.046428 -1.958418,0 -1.958418,2.654744 v 4.613163 q 0,2.785305 1.871377,2.785305 z"
           id="path9096" />
      </g>
    </g>
    <g
       id="g9144">
      <rect
         style="fill:#ffcc00;fill-opacity:0.998891;stroke:#000000;stroke-width:1.15912;stroke-linecap:round;stroke-linejoin:round;paint-order:markers fill stroke;stop-color:#000000"
         id="rect188-6"
         width="54.761906"
         height="54.761906"
         x="70"
         y="50"
         ry="10"
         rx="10" />
      <g
         aria-label="6"
         id="text7479-2"
         style="font-size:43.5204px;line-height:1.25;font-family:Anton;-inkscape-font-specification:Anton;font-variant-ligatures:none;stroke-width:2.33144">
        <path
           d="m 97.55503,96.421131 q -3.829795,0 -6.049335,-1.305612 Q 89.286154,93.809907 88.372226,91.198683 87.458297,88.587459 87.458297,84.4095 V 74.312767 q 0,-5.788213 0.696327,-9.095764 0.739847,-3.351071 2.959387,-5.091887 2.219541,-1.784336 6.658621,-1.784336 2.437138,0 4.482598,0.826887 2.04546,0.826888 3.26403,2.480663 1.21858,1.653776 1.21858,4.003877 v 4.047398 h -7.224392 v -0.783368 q 0,-1.914897 -0.348163,-2.959387 -0.304643,-1.04449 -1.523214,-1.04449 -1.218571,0 -1.740816,0.652806 -0.478724,0.652806 -0.478724,2.001939 v 7.529029 q 0.522245,-1.044489 1.610255,-1.610255 1.08801,-0.609285 2.567703,-0.609285 3.046431,0 4.700201,1.218571 1.6973,1.218571 2.3501,3.612193 0.65281,2.393622 0.65281,6.266938 0,5.962295 -2.26306,9.226325 -2.26306,3.22051 -7.48551,3.22051 z m -0.261122,-6.876224 q 1.175051,0 1.479694,-0.913928 0.348163,-0.957449 0.348163,-3.089949 v -3.002907 q 0,-3.046428 -1.740816,-3.046428 -1.958418,0 -1.958418,2.654744 v 4.613163 q 0,2.785305 1.871377,2.785305 z"
           id="path9120" />
      </g>
    </g>
  </g>
</svg>
