<?xml version="1.0" encoding="UTF-8" standalone="no"?>
<svg
   width="512"
   height="512"
   viewBox="0 0 135.46666 135.46667"
   version="1.1"
   id="svg8"
   sodipodi:docname="melee-blade.svg"
   inkscape:version="1.1.2 (0a00cf5339, 2022-02-04)"
   xmlns:inkscape="http://www.inkscape.org/namespaces/inkscape"
   xmlns:sodipodi="http://sodipodi.sourceforge.net/DTD/sodipodi-0.dtd"
   xmlns="http://www.w3.org/2000/svg"
   xmlns:svg="http://www.w3.org/2000/svg"
   xmlns:rdf="http://www.w3.org/1999/02/22-rdf-syntax-ns#"
   xmlns:cc="http://creativecommons.org/ns#"
   xmlns:dc="http://purl.org/dc/elements/1.1/">
  <defs
     id="defs2">
    <marker
       style="overflow:visible;"
       id="Arrow1Mend"
       refX="0.0"
       refY="0.0"
       orient="auto"
       inkscape:stockid="Arrow1Mend"
       inkscape:isstock="true">
      <path
         transform="scale(0.4) rotate(180) translate(10,0)"
         style="fill-rule:evenodd;stroke:#ffffff;stroke-width:1pt;stroke-opacity:1;fill:#ffffff;fill-opacity:1"
         d="M 0.0,0.0 L 5.0,-5.0 L -12.5,0.0 L 5.0,5.0 L 0.0,0.0 z "
         id="path868" />
    </marker>
    <marker
       style="overflow:visible;"
       id="marker1227"
       refX="0.0"
       refY="0.0"
       orient="auto"
       inkscape:stockid="Arrow1Lend"
       inkscape:isstock="true">
      <path
         transform="scale(0.8) rotate(180) translate(12.5,0)"
         style="fill-rule:evenodd;stroke:#ffffff;stroke-width:1pt;stroke-opacity:1;fill:#ffffff;fill-opacity:1"
         d="M 0.0,0.0 L 5.0,-5.0 L -12.5,0.0 L 5.0,5.0 L 0.0,0.0 z "
         id="path1225" />
    </marker>
    <marker
       style="overflow:visible;"
       id="Arrow1Lend"
       refX="0.0"
       refY="0.0"
       orient="auto"
       inkscape:stockid="Arrow1Lend"
       inkscape:isstock="true">
      <path
         transform="scale(0.8) rotate(180) translate(12.5,0)"
         style="fill-rule:evenodd;stroke:#ffffff;stroke-width:1pt;stroke-opacity:1;fill:#ffffff;fill-opacity:1"
         d="M 0.0,0.0 L 5.0,-5.0 L -12.5,0.0 L 5.0,5.0 L 0.0,0.0 z "
         id="path862" />
    </marker>
  </defs>
  <sodipodi:namedview
     id="base"
     pagecolor="#ffffff"
     bordercolor="#666666"
     borderopacity="1.0"
     inkscape:pageopacity="0"
     inkscape:pageshadow="2"
     inkscape:zoom="0.49497475"
     inkscape:cx="-341.43156"
     inkscape:cy="-169.70563"
     inkscape:document-units="mm"
     inkscape:current-layer="layer1"
     inkscape:document-rotation="0"
     showgrid="true"
     inkscape:window-width="1821"
     inkscape:window-height="987"
     inkscape:window-x="1608"
     inkscape:window-y="328"
     inkscape:window-maximized="0"
     inkscape:snap-grids="true"
     units="px"
     inkscape:pagecheckerboard="false">
    <inkscape:grid
       type="xygrid"
       id="grid876"
       empcolor="#ffffff"
       empopacity="0.61176471"
       color="#ffffff"
       opacity="0.1254902"
       empspacing="4"
       units="px"
       spacingx="2.1166666"
       spacingy="2.1166666" />
  </sodipodi:namedview>
  <metadata
     id="metadata5">
    <rdf:RDF>
      <cc:Work
         rdf:about="">
        <dc:format>image/svg+xml</dc:format>
        <dc:type
           rdf:resource="http://purl.org/dc/dcmitype/StillImage" />
      </cc:Work>
    </rdf:RDF>
  </metadata>
  <g
     inkscape:groupmode="layer"
     id="layer2"
     inkscape:label="Background"
     sodipodi:insensitive="true">
    <rect
       style="fill:#2a8eff;fill-opacity:1;stroke:#000000;stroke-width:2.11667;stroke-linecap:round;stroke-linejoin:round;stroke-miterlimit:4;stroke-dasharray:none;stroke-opacity:1;stop-color:#000000"
       id="rect14474"
       width="131.233"
       height="131.23332"
       x="2.1166813"
       y="2.1166666"
       ry="66.674995"
       rx="66.611931" />
  </g>
  <g
     inkscape:label="Icon"
     inkscape:groupmode="layer"
     id="layer1">
    <g
       id="g1012"
       style="fill:#000000;stroke-width:1.31927"
       transform="matrix(0.20055354,0,0,0.20055354,16.927389,14.828313)" />
    <g
       id="g1014"
       style="fill:#000000;stroke-width:1.31927"
       transform="matrix(0.20055354,0,0,0.20055354,16.927389,14.828313)" />
    <g
       id="g1016"
       style="fill:#000000;stroke-width:1.31927"
       transform="matrix(0.20055354,0,0,0.20055354,16.927389,14.828313)" />
    <g
       id="g1018"
       style="fill:#000000;stroke-width:1.31927"
       transform="matrix(0.20055354,0,0,0.20055354,16.927389,14.828313)" />
    <g
       id="g1020"
       style="fill:#000000;stroke-width:1.31927"
       transform="matrix(0.20055354,0,0,0.20055354,16.927389,14.828313)" />
    <g
       id="g1022"
       style="fill:#000000;stroke-width:1.31927"
       transform="matrix(0.20055354,0,0,0.20055354,16.927389,14.828313)" />
    <g
       id="g1024"
       style="fill:#000000;stroke-width:1.31927"
       transform="matrix(0.20055354,0,0,0.20055354,16.927389,14.828313)" />
    <g
       id="g1026"
       style="fill:#000000;stroke-width:1.31927"
       transform="matrix(0.20055354,0,0,0.20055354,16.927389,14.828313)" />
    <g
       id="g1028"
       style="fill:#000000;stroke-width:1.31927"
       transform="matrix(0.20055354,0,0,0.20055354,16.927389,14.828313)" />
    <g
       id="g1030"
       style="fill:#000000;stroke-width:1.31927"
       transform="matrix(0.20055354,0,0,0.20055354,16.927389,14.828313)" />
    <g
       id="g1032"
       style="fill:#000000;stroke-width:1.31927"
       transform="matrix(0.20055354,0,0,0.20055354,16.927389,14.828313)" />
    <g
       id="g1034"
       style="fill:#000000;stroke-width:1.31927"
       transform="matrix(0.20055354,0,0,0.20055354,16.927389,14.828313)" />
    <g
       id="g1036"
       style="fill:#000000;stroke-width:1.31927"
       transform="matrix(0.20055354,0,0,0.20055354,16.927389,14.828313)" />
    <g
       id="g1038"
       style="fill:#000000;stroke-width:1.31927"
       transform="matrix(0.20055354,0,0,0.20055354,16.927389,14.828313)" />
    <g
       id="g1040"
       style="fill:#000000;stroke-width:1.31927"
       transform="matrix(0.20055354,0,0,0.20055354,16.927389,14.828313)" />
    <path
       d="M 107.75566,25.201165 102.68871,40.40201 56.788496,82.128327 54.498866,78.600464 50.799998,76.199998 92.554816,30.268114 Z m -49.710246,74.819815 3.58297,-3.582962 -9.872946,-15.207175 -15.207174,-9.872948 -3.582971,3.582966 9.939448,9.939453 -10.849595,11.936779 c -1.413678,-0.185581 -2.893857,0.259682 -3.980095,1.345579 -1.855125,1.855138 -1.855125,4.862688 0,6.717828 1.855137,1.85514 4.862689,1.85514 6.717827,0 1.085591,-1.08559 1.530856,-2.56514 1.345908,-3.97819 L 48.076199,90.052086 Z"
       id="path1087"
       style="fill:#ffffff;stroke:#000000;stroke-width:1;stroke-miterlimit:4;stroke-dasharray:none" />
  </g>
</svg>
