<?xml version="1.0" encoding="UTF-8" standalone="no"?>
<svg
   width="512"
   height="512"
   viewBox="0 0 135.46666 135.46667"
   version="1.1"
   id="svg8"
   sodipodi:docname="maintenance.svg"
   inkscape:version="1.1.2 (0a00cf5339, 2022-02-04)"
   xmlns:inkscape="http://www.inkscape.org/namespaces/inkscape"
   xmlns:sodipodi="http://sodipodi.sourceforge.net/DTD/sodipodi-0.dtd"
   xmlns="http://www.w3.org/2000/svg"
   xmlns:svg="http://www.w3.org/2000/svg"
   xmlns:rdf="http://www.w3.org/1999/02/22-rdf-syntax-ns#"
   xmlns:cc="http://creativecommons.org/ns#"
   xmlns:dc="http://purl.org/dc/elements/1.1/">
  <defs
     id="defs2">
    <marker
       style="overflow:visible;"
       id="Arrow1Mend"
       refX="0.0"
       refY="0.0"
       orient="auto"
       inkscape:stockid="Arrow1Mend"
       inkscape:isstock="true">
      <path
         transform="scale(0.4) rotate(180) translate(10,0)"
         style="fill-rule:evenodd;stroke:#ffffff;stroke-width:1pt;stroke-opacity:1;fill:#ffffff;fill-opacity:1"
         d="M 0.0,0.0 L 5.0,-5.0 L -12.5,0.0 L 5.0,5.0 L 0.0,0.0 z "
         id="path868" />
    </marker>
    <marker
       style="overflow:visible;"
       id="marker1227"
       refX="0.0"
       refY="0.0"
       orient="auto"
       inkscape:stockid="Arrow1Lend"
       inkscape:isstock="true">
      <path
         transform="scale(0.8) rotate(180) translate(12.5,0)"
         style="fill-rule:evenodd;stroke:#ffffff;stroke-width:1pt;stroke-opacity:1;fill:#ffffff;fill-opacity:1"
         d="M 0.0,0.0 L 5.0,-5.0 L -12.5,0.0 L 5.0,5.0 L 0.0,0.0 z "
         id="path1225" />
    </marker>
    <marker
       style="overflow:visible;"
       id="Arrow1Lend"
       refX="0.0"
       refY="0.0"
       orient="auto"
       inkscape:stockid="Arrow1Lend"
       inkscape:isstock="true">
      <path
         transform="scale(0.8) rotate(180) translate(12.5,0)"
         style="fill-rule:evenodd;stroke:#ffffff;stroke-width:1pt;stroke-opacity:1;fill:#ffffff;fill-opacity:1"
         d="M 0.0,0.0 L 5.0,-5.0 L -12.5,0.0 L 5.0,5.0 L 0.0,0.0 z "
         id="path862" />
    </marker>
  </defs>
  <sodipodi:namedview
     id="base"
     pagecolor="#ffffff"
     bordercolor="#666666"
     borderopacity="1.0"
     inkscape:pageopacity="0"
     inkscape:pageshadow="2"
     inkscape:zoom="1.979899"
     inkscape:cx="105.56094"
     inkscape:cy="205.56604"
     inkscape:document-units="mm"
     inkscape:current-layer="layer1"
     inkscape:document-rotation="0"
     showgrid="true"
     inkscape:window-width="2560"
     inkscape:window-height="1343"
     inkscape:window-x="1200"
     inkscape:window-y="381"
     inkscape:window-maximized="1"
     inkscape:snap-grids="true"
     units="px"
     inkscape:pagecheckerboard="false"
     inkscape:snap-smooth-nodes="true">
    <inkscape:grid
       type="xygrid"
       id="grid876"
       empcolor="#ffffff"
       empopacity="0.61176471"
       color="#ffffff"
       opacity="0.1254902"
       empspacing="4"
       units="px"
       spacingx="2.1166666"
       spacingy="2.1166666" />
  </sodipodi:namedview>
  <metadata
     id="metadata5">
    <rdf:RDF>
      <cc:Work
         rdf:about="">
        <dc:format>image/svg+xml</dc:format>
        <dc:type
           rdf:resource="http://purl.org/dc/dcmitype/StillImage" />
      </cc:Work>
    </rdf:RDF>
  </metadata>
  <g
     inkscape:groupmode="layer"
     id="layer2"
     inkscape:label="Background"
     sodipodi:insensitive="true">
    <rect
       style="fill:#ff6600;fill-opacity:1;stroke:#000000;stroke-width:2.11667;stroke-linecap:round;stroke-linejoin:round;stroke-miterlimit:4;stroke-dasharray:none;stroke-opacity:1;stop-color:#000000"
       id="rect14474"
       width="131.233"
       height="131.23332"
       x="2.1166813"
       y="2.1166666"
       ry="66.674995"
       rx="66.611931" />
  </g>
  <g
     inkscape:label="Icon"
     inkscape:groupmode="layer"
     id="layer1">
    <path
       style="fill:#ffffff;fill-opacity:0.998891;stroke:#000000;stroke-width:0.52916698;stroke-linecap:round;stroke-linejoin:round;stroke-dashoffset:49.5999;paint-order:markers fill stroke;stop-color:#000000;stroke-miterlimit:4;stroke-dasharray:none"
       d="M 48.683332,80.433331 82.549998,46.566665 C 80.433331,42.333332 80.433331,35.983332 84.666664,31.749999 88.899997,27.516666 95.249997,27.516666 99.48333,29.633333 l -8.466666,8.466666 8.466666,8.466666 8.46667,-8.466666 c 2.11666,4.233333 2.11666,10.583333 -2.11667,14.816666 C 101.6,57.149998 95.249997,57.149998 91.016664,55.033332 L 57.149998,88.899997 C 61.383332,99.483327 46.566665,112.18333 35.983332,101.6 c -10.583336,-10.583336 2.116667,-25.400002 12.7,-21.166669 z m 0,16.933336 c 1.995612,-1.995616 1.995612,-6.471057 0,-8.46667 -1.995612,-1.995612 -6.471054,-1.995612 -8.466666,0 -1.995613,1.995613 -1.995613,6.471054 0,8.46667 1.995612,1.99561 6.471054,1.99561 8.466666,0 z"
       id="path143-6"
       sodipodi:nodetypes="cccccccccczczzzzz" />
    <path
       style="fill:#ffffff;fill-opacity:0.996073;stroke:#000000;stroke-width:0.52916667;stroke-linecap:round;stroke-linejoin:round;paint-order:markers fill stroke;stop-color:#000000;stroke-miterlimit:4;stroke-dasharray:none"
       d="M 97.366664,105.83333 104.56251,98.63749 46.995742,41.070715 c 4.253432,-5.004211 7.323212,-9.344716 16.190651,-12.59273 -12.592729,-1.79896 -23.386496,8.994807 -30.582342,16.190653 -2.417246,2.417245 -5.396885,5.396885 -7.195847,3.597922 l -5.396884,5.396885 8.994807,8.994807 5.396885,-5.396884 c -2.373369,-2.706091 2.021134,-5.886119 5.396884,-8.994806 z"
       id="path51"
       sodipodi:nodetypes="ccccscccccc" />
  </g>
</svg>
