<svg xmlns="http://www.w3.org/2000/svg" viewBox="0 0 512 512" style="height: 512px; width: 512px;"><defs><filter id="shadow-1" height="300%" width="300%" x="-100%" y="-100%"><feFlood flood-color="rgba(0, 0, 0, 1)" result="flood"></feFlood><feComposite in="flood" in2="SourceGraphic" operator="atop" result="composite"></feComposite><feGaussianBlur in="composite" stdDeviation="9" result="blur"></feGaussianBlur><feOffset dx="0" dy="0" result="offset"></feOffset><feComposite in="SourceGraphic" in2="offset" operator="over"></feComposite></filter></defs><path d="M0 0h512v512H0z" fill="#ffffff" fill-opacity="1"></path><g class="" transform="translate(-3,10)" style=""><path d="M217 25v30h30V25h-30zm48 0v30h30V25h-30zm48 0v30h30V25h-30zm-96 48v46h30V73h-30zm48 0v46h30V73h-30zm48 0v46h30V73h-30zm-96 64v46h30v-46h-30zm48 0v46h30v-46h-30zm48 0v46h30v-46h-30zm174 6.508l-94 53.715V215h94v-71.492zM217 201v46h30v-46h-30zm48 0v46h30v-46h-30zm48 0v46h30v-46h-30zm80 32v110h94V233h-94zM39 256v23h18v-23H39zm178 9v46h30v-46h-30zm48 0v46h30v-46h-30zm48 0v46h30v-46h-30zM37.562 297l-7 14h146.875l-7-14H37.563zM25 329v158h23v-23h32v23h48v-23h32v23h23V329H25zm192 0v46h30v-46h-30zm48 0v46h30v-46h-30zm48 0v46h30v-46h-30zM48 352h32v16H48v-16zm80 0h32v16h-32v-16zm265 9v126h31v-23h32v23h31V361h-94zM48 384h32v16H48v-16zm80 0h32v16h-32v-16zm89 9v46h30v-46h-30zm48 0v46h30v-46h-30zm48 0v46h30v-46h-30zM48 416h32v16H48v-16zm80 0h32v16h-32v-16zm89 41v30h30v-30h-30zm48 0v30h30v-30h-30zm48 0v30h30v-30h-30z" fill="#ff7e00" fill-opacity="1" stroke="#040404" stroke-opacity="1" stroke-width="8" filter="url(#shadow-1)"></path></g></svg>