<?xml version="1.0" encoding="UTF-8" standalone="no"?>
<svg
   width="512"
   height="512"
   viewBox="0 0 512 512"
   style="height: 512px; width: 512px;"
   version="1.1"
   id="svg21"
   sodipodi:docname="citizen.svg"
   inkscape:version="1.1.2 (0a00cf5339, 2022-02-04)"
   xmlns:inkscape="http://www.inkscape.org/namespaces/inkscape"
   xmlns:sodipodi="http://sodipodi.sourceforge.net/DTD/sodipodi-0.dtd"
   xmlns="http://www.w3.org/2000/svg"
   xmlns:svg="http://www.w3.org/2000/svg">
  <sodipodi:namedview
     id="namedview23"
     pagecolor="#ffffff"
     bordercolor="#666666"
     borderopacity="1.0"
     inkscape:pageshadow="2"
     inkscape:pageopacity="0.0"
     inkscape:pagecheckerboard="0"
     showgrid="false"
     inkscape:zoom="1.2929688"
     inkscape:cx="256"
     inkscape:cy="256"
     inkscape:window-width="2560"
     inkscape:window-height="1343"
     inkscape:window-x="1200"
     inkscape:window-y="381"
     inkscape:window-maximized="1"
     inkscape:current-layer="svg21" />
  <defs
     id="defs13">
    <filter
       id="shadow-1"
       height="1.1108225"
       width="1.1108225"
       x="-0.055411255"
       y="-0.055411255">
      <feFlood
         flood-color="rgba(0, 0, 0, 1)"
         result="flood"
         id="feFlood2" />
      <feComposite
         in="flood"
         in2="SourceGraphic"
         operator="atop"
         result="composite"
         id="feComposite4" />
      <feGaussianBlur
         in="composite"
         stdDeviation="9"
         result="blur"
         id="feGaussianBlur6" />
      <feOffset
         dx="0"
         dy="0"
         result="offset"
         id="feOffset8" />
      <feComposite
         in="SourceGraphic"
         in2="offset"
         operator="over"
         id="feComposite10" />
    </filter>
  </defs>
  <path
     d="M0 0h512v512H0z"
     fill="#ffffff"
     fill-opacity="1"
     id="path15" />
  <g
     class=""
     transform="translate(-3,10)"
     style=""
     id="g19">
    <path
       d="M217 25v30h30V25h-30zm48 0v30h30V25h-30zm48 0v30h30V25h-30zm-96 48v46h30V73h-30zm48 0v46h30V73h-30zm48 0v46h30V73h-30zm-96 64v46h30v-46h-30zm48 0v46h30v-46h-30zm48 0v46h30v-46h-30zm174 6.508l-94 53.715V215h94v-71.492zM217 201v46h30v-46h-30zm48 0v46h30v-46h-30zm48 0v46h30v-46h-30zm80 32v110h94V233h-94zM39 256v23h18v-23H39zm178 9v46h30v-46h-30zm48 0v46h30v-46h-30zm48 0v46h30v-46h-30zM37.562 297l-7 14h146.875l-7-14H37.563zM25 329v158h23v-23h32v23h48v-23h32v23h23V329H25zm192 0v46h30v-46h-30zm48 0v46h30v-46h-30zm48 0v46h30v-46h-30zM48 352h32v16H48v-16zm80 0h32v16h-32v-16zm265 9v126h31v-23h32v23h31V361h-94zM48 384h32v16H48v-16zm80 0h32v16h-32v-16zm89 9v46h30v-46h-30zm48 0v46h30v-46h-30zm48 0v46h30v-46h-30zM48 416h32v16H48v-16zm80 0h32v16h-32v-16zm89 41v30h30v-30h-30zm48 0v30h30v-30h-30zm48 0v30h30v-30h-30z"
       fill="#ff7e00"
       fill-opacity="1"
       stroke="#040404"
       stroke-opacity="1"
       stroke-width="8"
       filter="url(#shadow-1)"
       id="path17" />
  </g>
</svg>
