<?xml version="1.0" encoding="UTF-8" standalone="no"?>
<svg
   width="512"
   height="512"
   viewBox="0 0 512 512"
   style="height: 512px; width: 512px;"
   version="1.1"
   id="svg21"
   sodipodi:docname="military-academy.svg"
   inkscape:version="1.1.2 (0a00cf5339, 2022-02-04)"
   xmlns:inkscape="http://www.inkscape.org/namespaces/inkscape"
   xmlns:sodipodi="http://sodipodi.sourceforge.net/DTD/sodipodi-0.dtd"
   xmlns="http://www.w3.org/2000/svg"
   xmlns:svg="http://www.w3.org/2000/svg">
  <sodipodi:namedview
     id="namedview23"
     pagecolor="#ffffff"
     bordercolor="#666666"
     borderopacity="1.0"
     inkscape:pageshadow="2"
     inkscape:pageopacity="0.0"
     inkscape:pagecheckerboard="0"
     showgrid="false"
     inkscape:zoom="1.2929688"
     inkscape:cx="256"
     inkscape:cy="256"
     inkscape:window-width="2560"
     inkscape:window-height="1343"
     inkscape:window-x="1200"
     inkscape:window-y="381"
     inkscape:window-maximized="1"
     inkscape:current-layer="svg21" />
  <defs
     id="defs13">
    <filter
       id="shadow-1"
       height="1.1174528"
       width="1.1918022"
       x="-0.095901107"
       y="-0.061702492">
      <feFlood
         flood-color="rgba(0, 0, 0, 1)"
         result="flood"
         id="feFlood2" />
      <feComposite
         in="flood"
         in2="SourceGraphic"
         operator="atop"
         result="composite"
         id="feComposite4" />
      <feGaussianBlur
         in="composite"
         stdDeviation="9"
         result="blur"
         id="feGaussianBlur6" />
      <feOffset
         dx="0"
         dy="0"
         result="offset"
         id="feOffset8" />
      <feComposite
         in="SourceGraphic"
         in2="offset"
         operator="over"
         id="feComposite10" />
    </filter>
  </defs>
  <path
     d="M0 0h512v512H0z"
     fill="#ffffff"
     fill-opacity="1"
     id="path15" />
  <g
     class=""
     transform="translate(-3,10)"
     style=""
     id="g19">
    <path
       d="M338.8 31.81c-5 19.51-9.9 38.69-14.9 57.64-45.3 7.27-90.5 7.28-135.8 0-5-18.95-9.9-38.13-14.9-57.64 54.9 22.58 110.7 22.58 165.6 0zm17.3 4.59l34.4 45.95c-14 96.25-40 204.15-77.5 302.95-10.7-12.4-25.2-21.3-41.8-24.7 28.3-111.3 56.6-212.3 84.9-324.2zm-200.2 0c28.3 111.9 56.6 212.9 84.9 324.2-16.6 3.4-31.1 12.3-41.8 24.7-37.5-98.8-63.5-206.7-77.5-302.95zM256 377c31.6 0 57 25.4 57 57s-25.4 57-57 57-57-25.4-57-57 25.4-57 57-57z"
       fill="#ff7e00"
       fill-opacity="1"
       stroke="#040404"
       stroke-opacity="1"
       stroke-width="8"
       filter="url(#shadow-1)"
       id="path17" />
  </g>
</svg>
