<?xml version="1.0" encoding="UTF-8" standalone="no"?>
<svg
   width="512"
   height="512"
   viewBox="0 0 512 512"
   style="height: 512px; width: 512px;"
   version="1.1"
   id="svg21"
   sodipodi:docname="scholar.svg"
   inkscape:version="1.1.2 (0a00cf5339, 2022-02-04)"
   xmlns:inkscape="http://www.inkscape.org/namespaces/inkscape"
   xmlns:sodipodi="http://sodipodi.sourceforge.net/DTD/sodipodi-0.dtd"
   xmlns="http://www.w3.org/2000/svg"
   xmlns:svg="http://www.w3.org/2000/svg">
  <sodipodi:namedview
     id="namedview23"
     pagecolor="#ffffff"
     bordercolor="#666666"
     borderopacity="1.0"
     inkscape:pageshadow="2"
     inkscape:pageopacity="0.0"
     inkscape:pagecheckerboard="0"
     showgrid="false"
     inkscape:zoom="1.2929688"
     inkscape:cx="256"
     inkscape:cy="256"
     inkscape:window-width="2560"
     inkscape:window-height="1343"
     inkscape:window-x="1200"
     inkscape:window-y="381"
     inkscape:window-maximized="1"
     inkscape:current-layer="svg21" />
  <defs
     id="defs13">
    <filter
       id="shadow-1"
       height="1.1201999"
       width="1.1115241"
       x="-0.054434382"
       y="-0.059353923">
      <feFlood
         flood-color="rgba(0, 0, 0, 1)"
         result="flood"
         id="feFlood2" />
      <feComposite
         in="flood"
         in2="SourceGraphic"
         operator="atop"
         result="composite"
         id="feComposite4" />
      <feGaussianBlur
         in="composite"
         stdDeviation="9"
         result="blur"
         id="feGaussianBlur6" />
      <feOffset
         dx="0"
         dy="0"
         result="offset"
         id="feOffset8" />
      <feComposite
         in="SourceGraphic"
         in2="offset"
         operator="over"
         id="feComposite10" />
    </filter>
  </defs>
  <path
     d="M0 0h512v512H0z"
     fill="#ffffff"
     fill-opacity="1"
     id="path15" />
  <g
     class=""
     transform="translate(-3,10)"
     style=""
     id="g19">
    <path
       d="M169 57v430h78V57h-78zM25 105v190h46V105H25zm158 23h18v320h-18V128zm128.725 7.69l-45.276 8.124 61.825 344.497 45.276-8.124-61.825-344.497zM89 153v270h62V153H89zm281.502 28.68l-27.594 11.773 5.494 12.877 27.594-11.773-5.494-12.877zm12.56 29.433l-27.597 11.772 5.494 12.877 27.593-11.772-5.492-12.877zm12.555 29.434l-27.594 11.77 99.674 233.628 27.594-11.773-99.673-233.625zM25 313v30h46v-30H25zm190 7h18v128h-18V320zM25 361v126h46V361H25zm64 80v46h62v-46H89z"
       fill="#ff7e00"
       fill-opacity="1"
       stroke="#040404"
       stroke-opacity="1"
       stroke-width="8"
       filter="url(#shadow-1)"
       id="path17" />
  </g>
</svg>
