<?xml version="1.0" encoding="UTF-8" standalone="no"?>
<svg
   width="512"
   height="512"
   viewBox="0 0 135.46666 135.46667"
   version="1.1"
   id="svg8"
   sodipodi:docname="common_manufactured_goods.svg"
   inkscape:version="1.1.2 (0a00cf5339, 2022-02-04)"
   xmlns:inkscape="http://www.inkscape.org/namespaces/inkscape"
   xmlns:sodipodi="http://sodipodi.sourceforge.net/DTD/sodipodi-0.dtd"
   xmlns="http://www.w3.org/2000/svg"
   xmlns:svg="http://www.w3.org/2000/svg"
   xmlns:rdf="http://www.w3.org/1999/02/22-rdf-syntax-ns#"
   xmlns:cc="http://creativecommons.org/ns#"
   xmlns:dc="http://purl.org/dc/elements/1.1/">
  <defs
     id="defs2"><marker
   style="overflow:visible;"
   id="Arrow1Mend"
   refX="0.0"
   refY="0.0"
   orient="auto"
   inkscape:stockid="Arrow1Mend"
   inkscape:isstock="true">
  <path
     transform="scale(0.4) rotate(180) translate(10,0)"
     style="fill-rule:evenodd;stroke:#ffffff;stroke-width:1pt;stroke-opacity:1;fill:#ffffff;fill-opacity:1"
     d="M 0.0,0.0 L 5.0,-5.0 L -12.5,0.0 L 5.0,5.0 L 0.0,0.0 z "
     id="path868" />
</marker>
<marker
   style="overflow:visible;"
   id="marker1227"
   refX="0.0"
   refY="0.0"
   orient="auto"
   inkscape:stockid="Arrow1Lend"
   inkscape:isstock="true">
  <path
     transform="scale(0.8) rotate(180) translate(12.5,0)"
     style="fill-rule:evenodd;stroke:#ffffff;stroke-width:1pt;stroke-opacity:1;fill:#ffffff;fill-opacity:1"
     d="M 0.0,0.0 L 5.0,-5.0 L -12.5,0.0 L 5.0,5.0 L 0.0,0.0 z "
     id="path1225" />
</marker>
<marker
   style="overflow:visible;"
   id="Arrow1Lend"
   refX="0.0"
   refY="0.0"
   orient="auto"
   inkscape:stockid="Arrow1Lend"
   inkscape:isstock="true">
  <path
     transform="scale(0.8) rotate(180) translate(12.5,0)"
     style="fill-rule:evenodd;stroke:#ffffff;stroke-width:1pt;stroke-opacity:1;fill:#ffffff;fill-opacity:1"
     d="M 0.0,0.0 L 5.0,-5.0 L -12.5,0.0 L 5.0,5.0 L 0.0,0.0 z "
     id="path862" />
</marker>

	
	
	
	
	
	
	
	
	
	
	
	
	
	
	
	
	
	
	
	
	
	
	
	
	
	
	
	
	
	
	
	
	
	
	
	
	
	
	
	
	
	
	
	
	
	
	
	
	
	
	
	
	
	
	
	
	
	
</defs>
  <sodipodi:namedview
     id="base"
     pagecolor="#ffffff"
     bordercolor="#666666"
     borderopacity="1.0"
     inkscape:pageopacity="0"
     inkscape:pageshadow="2"
     inkscape:zoom="0.98994949"
     inkscape:cx="374.26152"
     inkscape:cy="157.07872"
     inkscape:document-units="mm"
     inkscape:current-layer="layer1"
     inkscape:document-rotation="0"
     showgrid="true"
     inkscape:window-width="2560"
     inkscape:window-height="1343"
     inkscape:window-x="1200"
     inkscape:window-y="240"
     inkscape:window-maximized="1"
     inkscape:snap-grids="false"
     units="px"
     inkscape:pagecheckerboard="false">
    <inkscape:grid
       type="xygrid"
       id="grid876"
       empcolor="#000000"
       empopacity="0.39607843"
       color="#757575"
       opacity="0.28627451"
       empspacing="4"
       units="px"
       spacingx="2.1166666"
       spacingy="2.1166666" />
  </sodipodi:namedview>
  <metadata
     id="metadata5">
    <rdf:RDF>
      <cc:Work
         rdf:about="">
        <dc:format>image/svg+xml</dc:format>
        <dc:type
           rdf:resource="http://purl.org/dc/dcmitype/StillImage" />
      </cc:Work>
    </rdf:RDF>
  </metadata>
  <g
     inkscape:groupmode="layer"
     id="layer2"
     inkscape:label="Background"
     sodipodi:insensitive="true">
    <rect
       style="opacity:0.997213;fill:#000000;stroke:#b3b3b3;stroke-width:2.11667;stroke-miterlimit:4;stroke-dasharray:none;stroke-opacity:0.999964;stop-color:#000000"
       id="rect957"
       width="118.53333"
       height="118.53333"
       x="8.4666662"
       y="8.4666662"
       rx="8.46667"
       ry="8.4666662" />
    <rect
       style="opacity:0.997213;fill:#000000;stroke:#b3b3b3;stroke-width:2.11667;stroke-miterlimit:4;stroke-dasharray:none;stroke-opacity:0.999964;stop-color:#000000"
       id="rect1598"
       width="110.06667"
       height="110.06667"
       x="12.7"
       y="12.7"
       rx="2.1166666"
       ry="2.1166666" />
    <rect
       style="opacity:0.997213;fill:#000000;stroke:#b3b3b3;stroke-width:2.11667;stroke-miterlimit:4;stroke-dasharray:none;stroke-opacity:0.999964;stop-color:#000000"
       id="rect1295"
       width="16.933332"
       height="16.933332"
       x="4.2333336"
       y="4.2333336"
       rx="2.1166663"
       ry="2.1166666" />
    <rect
       style="opacity:0.997213;fill:#000000;stroke:#b3b3b3;stroke-width:2.11667;stroke-miterlimit:4;stroke-dasharray:none;stroke-opacity:0.999964;stop-color:#000000"
       id="rect1295-0"
       width="16.933332"
       height="16.933332"
       x="114.3"
       y="4.2333336"
       rx="2.1166663"
       ry="2.1166666" />
    <rect
       style="opacity:0.997213;fill:#000000;stroke:#b3b3b3;stroke-width:2.11667;stroke-miterlimit:4;stroke-dasharray:none;stroke-opacity:0.999964;stop-color:#000000"
       id="rect1295-6"
       width="16.933332"
       height="16.933332"
       x="4.2333331"
       y="114.3"
       rx="2.1166663"
       ry="2.1166666" />
    <rect
       style="opacity:0.997213;fill:#000000;stroke:#b3b3b3;stroke-width:2.11667;stroke-miterlimit:4;stroke-dasharray:none;stroke-opacity:0.999964;stop-color:#000000"
       id="rect1295-2"
       width="16.933332"
       height="16.933332"
       x="114.3"
       y="114.3"
       rx="2.1166663"
       ry="2.1166666" />
  </g>
  <g
     inkscape:label="Icon"
     inkscape:groupmode="layer"
     id="layer1">
    <g
       id="g1115"
       transform="matrix(0.39592661,0,0,0.39592661,107.78703,32.276795)"
       style="stroke-width:2.52572">
      <path
         style="fill:#0088aa;stroke-width:1.11377"
         d="m -193.31913,103.06668 13.92943,-2.1105 2.53251,-47.275309 2.5325,-30.391364 c 0,0 1.63468,11.796006 2.11049,17.728406 0.27032,3.369027 0.51418,6.752166 0.42201,10.130455 -0.43921,16.108278 -4.64299,48.119328 -4.64299,48.119328 0,0 1.94072,2.689934 3.37696,3.376974 7.14904,3.41885 16.1096,5.00724 23.63788,2.5325 2.17575,-0.71526 3.80471,-2.73094 5.065,-4.643 1.64086,-2.489284 2.95496,-8.441974 2.95496,-8.441974 0,0 1.63645,5.69957 3.37696,8.019964 1.74052,2.3204 3.98242,4.63109 6.75349,5.48746 4.85643,1.50019 10.39636,0.40746 15.19546,-1.26647 2.39492,-0.8352 6.33148,-4.22099 6.33148,-4.22099 0.81712,-19.206984 -4.64167,-40.676161 -4.64299,-58.672237 0.082,-8.237361 3.37696,-24.481896 3.37696,-24.481896 l 2.5325,31.235386 0.84402,52.762767 14.773456,1.68849 0.84402,-53.184785 C -92.743951,26.760399 -97.738843,5.1192456 -102.9895,-16.810302 l -26.86976,-7.844897 -2.97612,-4.519524 -22.32025,0.272962 -3.35139,4.915959 -24.26008,8.441972 c -7.12611,18.2822666 -8.49489,37.270972 -10.55247,56.561743 l -1.26603,28.280433 z"
         id="path197" />
      <path
         style="fill:#221727;stroke-width:1.11377"
         d="m -155.10139,-24.723549 h 22.53456 l -3.28304,29.3493466 -7.76022,19.7489414 -7.61118,-17.9660904 z"
         id="path199" />
      <g
         id="g209"
         transform="matrix(0.44097222,0,0,0.44097222,-194.5856,-307.35146)"
         style="stroke-width:2.52572">
		<path
   style="fill:#ca4638;stroke-width:2.52572"
   d="M 114.865,754.586 69.876,664.609 82.32,655.994 h -9.572 l 17.23,-24.887 z"
   id="path201" />

		<path
   style="fill:#ca4638;stroke-width:2.52572"
   d="m 114.865,754.586 44.989,-89.977 -12.444,-8.615 h 9.572 l -17.23,-24.887 z"
   id="path203" />

		<path
   style="fill:#ca4638;stroke-width:2.52572"
   d="m 113.891,752.344 1.913,-0.074 5.735,153.464 -1.913,0.074 z"
   id="path205" />

		<path
   style="fill:#ca4638;stroke-width:2.52572"
   d="m 147.096,702.574 12.117,-14.271 15.64,15.495 z"
   id="path207" />

	</g>
      <path
         style="fill:#3b3c3d;stroke-width:1.11377"
         d="m -130.9661,2.2979056 13.92899,-0.06482 0.008,1.786379 -13.92899,0.06482 z"
         id="path211" />
    </g>
    <g
       id="g1015"
       transform="matrix(0.50144504,0,0,0.50144504,105.22922,34.966026)"
       style="stroke-width:1.99424">
      <g
         id="g217"
         transform="matrix(0.44097222,0,0,0.44097222,-157.07078,-273.32164)"
         style="stroke-width:1.99424">
		<path
   style="fill:#85562a;stroke-width:1.99424"
   d="m 372.329,882.637 4.315,-1.726 -3.452,-53.512 -12.083,-94.941 -11.867,-75.953 c -2.903,-18.58 -89.726,91.385 -25.246,71.637 l 15.536,108.75 18.125,46.607 z"
   id="path213" />

		<path
   style="fill:#85562a;stroke-width:1.99424"
   d="m 177.588,881.477 -4.257,-1.865 5.188,-53.372 15.159,-94.498 14.327,-75.527 c 3.505,-18.476 86.712,94.25 22.906,72.419 l -19.058,108.188 -19.629,45.994 z"
   id="path215" />

	</g>
      <path
         style="fill:#a16938;stroke-width:0.879402"
         d="m -45.503485,0.28883432 h 19.030156 l 2.283795,6.37513538 -21.694069,1.1416771 z"
         id="path219" />
      <path
         style="fill:#9d6533;stroke-width:0.879402"
         d="m -82.42168,130.35976 c 0,0 16.482219,-38.178489 25.119542,-57.090023 1.108163,-2.426229 3.233649,-4.571118 3.425472,-7.231504 0.248267,-3.442229 -1.866194,-6.652066 -3.044913,-9.895416 -1.786379,-4.9164 -4.906257,-9.367573 -6.089386,-14.463007 -1.983934,-8.541191 -1.522236,-26.26166 -1.522236,-26.26166 l 11.418094,-5.328267 9.514858,-4.5671494 15.604684,0.761118 11.418093,3.8060314 12.9403301,4.947708 c 0,0 -4.238184,14.924264 -6.0898263,22.455629 -2.3883058,9.714618 -7.4334688,19.348979 -6.4703858,29.306131 0.306476,3.167063 2.476059,5.863167 3.806032,8.75374 8.3718572,18.195837 26.261659,54.045559 26.261659,54.045559 l -13.70144765,7.61206 -17.12692035,0.38056 0.761118,3.80603 -43.00802,-1.14168 1.522236,-4.56715 -13.701448,-1.14167 z"
         id="path221" />
      <path
         style="fill:#8e5b2e;stroke-width:0.879402"
         d="M -18.201131,134.97895 -6.8976905,132.82568 -24.122065,82.230292 Z"
         id="path223" />
      <path
         style="fill:#754824;stroke-width:0.879402"
         d="m -43.124881,6.3786607 h 14.938816 v 0.856368 h -14.938816 z"
         id="path225" />
      <g
         shape-rendering="auto"
         image-rendering="auto"
         color-rendering="auto"
         color-interpolation="sRGB"
         id="g231"
         transform="matrix(0.44097222,0,0,0.44097222,-157.07078,-273.32164)"
         style="stroke-width:3.97698">
		<path
   style="fill:#7b4e22;stroke-width:1.99424"
   d="m 264.439,653.297 c -3.649,0 -6.662,3.013 -6.662,6.662 0,3.649 3.013,6.66 6.662,6.66 3.649,0 6.66,-3.012 6.66,-6.66 0,-3.648 -3.011,-6.662 -6.66,-6.662 z"
   id="path227" />

		<path
   style="fill:#654b32;stroke-width:1.99424"
   d="m 264.439,658.42 c 0.88,0 1.537,0.659 1.537,1.539 0,0.88 -0.657,1.537 -1.537,1.537 -0.88,0 -1.539,-0.657 -1.539,-1.537 0,-0.88 0.66,-1.539 1.539,-1.539 z"
   id="path229" />

	</g>
      <path
         style="fill:#7f522b;stroke-width:0.879402"
         d="m -53.876666,10.470001 8.373181,-10.27641668 6.850944,13.32088868 c 0,0 -2.802378,6.239757 -5.708826,7.231504 -0.989983,0.337784 -2.092855,-0.327202 -3.044914,-0.761118 -1.408906,-0.642497 -2.850003,-1.445948 -3.806031,-2.664355 -1.512975,-1.927048 -2.664354,-6.850503 -2.664354,-6.850503 z"
         id="path233" />
      <g
         shape-rendering="auto"
         image-rendering="auto"
         color-rendering="auto"
         color-interpolation="sRGB"
         id="g239"
         transform="matrix(0.44097222,0,0,0.44097222,-157.07078,-273.32164)"
         style="stroke-width:3.97698">
		<path
   style="fill:#7b4e22;stroke-width:1.99424"
   d="m 284.748,653.297 c -3.649,0 -6.66,3.013 -6.66,6.662 0,3.649 3.012,6.66 6.66,6.66 3.648,0 6.662,-3.012 6.662,-6.66 0,-3.648 -3.013,-6.662 -6.662,-6.662 z"
   id="path235" />

		<path
   style="fill:#654b32;stroke-width:1.99424"
   d="m 284.748,658.42 c 0.88,0 1.539,0.659 1.539,1.539 0,0.88 -0.659,1.537 -1.539,1.537 -0.88,0 -1.537,-0.657 -1.537,-1.537 0,-0.88 0.657,-1.539 1.537,-1.539 z"
   id="path237" />

	</g>
      <path
         style="fill:#7f522b;stroke-width:0.879402"
         d="M -18.100149,10.470001 -26.473329,0.19358432 -33.324274,13.514473 c 0,0 2.802379,6.239757 5.708827,7.231504 0.989982,0.337784 2.092854,-0.327202 3.044913,-0.761118 1.408906,-0.642497 2.850003,-1.445948 3.806031,-2.664355 1.512976,-1.927048 2.664354,-6.850503 2.664354,-6.850503 z"
         id="path241" />
      <g
         shape-rendering="auto"
         image-rendering="auto"
         color-rendering="auto"
         color-interpolation="sRGB"
         id="g247"
         transform="matrix(0.44097222,0,0,0.44097222,-157.07078,-273.32164)"
         style="stroke-width:3.97698">
		<path
   style="fill:#1c0e09;stroke-width:1.99424"
   d="m 270.863,646.471 c -2.747,0 -5.039,2.292 -5.039,5.039 v 12.58 c 0,2.747 2.292,5.039 5.039,5.039 h 7.65 c 2.747,0 5.039,-2.292 5.039,-5.039 v -12.58 c 0,-2.747 -2.292,-5.039 -5.039,-5.039 z m 0.084,5.125 h 7.482 v 12.41 h -7.482 z"
   id="path243" />

		<path
   style="fill:#85562a;stroke-width:1.99424"
   d="m 253.096,664.921 v 1 l -0.25,272.775 3.295,0.088 0.25,-273.863 z m 40.281,0 v 1 l -0.06,273.85 3.295,0.088 0.06,-274.938 z"
   id="path245" />

	</g>
      <path
         style="fill:#7b4e22;stroke-width:0.879402"
         d="m -54.560614,62.584098 c 0,0 6.360583,1.662024 9.616281,2.01833 4.025195,0.440531 12.147021,0.134496 12.147021,0.134496 l 11.767344,-0.80742 4.808361,-0.134496 1.897944,8.342753 -8.730368,0.80742 -9.489722,0.268993 c 0,0 -8.548246,0.10892 -12.779375,-0.40393 -3.852774,-0.466549 -11.387666,-2.422261 -11.387666,-2.422261 z"
         id="path249" />
      <path
         shape-rendering="auto"
         image-rendering="auto"
         color-rendering="auto"
         color-interpolation="sRGB"
         style="fill:#1c0e09;stroke-width:0.879402"
         d="m -36.66111,63.896431 c -1.270882,0 -2.329657,1.058775 -2.329657,2.329656 v 6.093355 c 0,1.270882 1.058775,2.329656 2.329657,2.329656 h 3.724892 c 1.270882,0 2.328774,-1.058774 2.328774,-2.329656 v -6.093355 c 0,-1.270881 -1.057892,-2.329656 -2.328774,-2.329656 z m 0,2.259983 h 3.724892 c 0.05865,0 0.06967,0.01147 0.06967,0.06967 v 6.093355 c 0,0.05865 -0.01147,0.07055 -0.06967,0.07055 h -3.724892 c -0.05821,0 -0.07056,-0.01235 -0.07056,-0.07055 v -6.093355 c 0,-0.05865 0.01191,-0.06967 0.07056,-0.06967 z"
         id="path251" />
      <path
         style="fill:#8e5b2e;stroke-width:0.879402"
         d="m -57.418555,134.97895 -11.303441,-2.15327 17.223934,-50.595829 z"
         id="path253" />
      <g
         id="g263"
         transform="matrix(0.44097222,0,0,0.44097222,-157.07078,-273.32164)"
         style="stroke-width:1.99424">
		<path
   style="fill:#633e1c;stroke-width:1.99424"
   d="m 252.024,775.65 c -0.095,1.565 -1.441,2.757 -3.007,2.662 -1.566,-0.095 -2.757,-1.441 -2.662,-3.007 v 0 c 0.095,-1.565 1.441,-2.757 3.007,-2.662 v 0 c 1.565,0.095 2.757,1.442 2.662,3.007 z"
   id="path255" />

		<path
   style="fill:#633e1c;stroke-width:1.99424"
   d="m 264.718,776.422 c -0.095,1.565 -1.441,2.757 -3.007,2.662 -1.566,-0.095 -2.757,-1.441 -2.662,-3.007 v 0 c 0.095,-1.565 1.441,-2.757 3.007,-2.662 v 0 c 1.565,0.095 2.757,1.441 2.662,3.007 z"
   id="path257" />

		<path
   style="fill:#633e1c;stroke-width:1.99424"
   d="m 293.454,775.673 c 0.107,1.565 -1.074,2.92 -2.639,3.028 0,0 0,0 0,0 -1.565,0.107 -2.92,-1.074 -3.028,-2.639 v 0 c -0.107,-1.565 1.074,-2.92 2.639,-3.028 0,0 0,0 0,0 1.565,-0.107 2.921,1.074 3.028,2.639 z"
   id="path259" />

		<path
   style="fill:#633e1c;stroke-width:1.99424"
   d="m 306.142,774.802 c 0.107,1.565 -1.074,2.92 -2.639,3.028 0,0 0,0 0,0 -1.565,0.107 -2.92,-1.074 -3.028,-2.639 v 0 c -0.107,-1.565 1.074,-2.92 2.639,-3.028 0,0 0,0 0,0 1.565,-0.107 2.921,1.074 3.028,2.639 z"
   id="path261" />

	</g>
      <path
         id="SVGCleanerId_0"
         style="fill:#9d6533;stroke-width:0.879402"
         d="m -62.876027,13.271938 7.418476,-2.246312 c 0.190059,-0.05777 0.389819,0.04895 0.447586,0.239007 0.05777,0.190059 -0.04895,0.389378 -0.239006,0.447146 l -7.418476,2.246312 c -0.190059,0.05777 -0.38982,-0.04895 -0.447587,-0.239007 -0.05777,-0.190059 0.04895,-0.389378 0.239007,-0.447146 z" />
      <path
         id="SVGCleanerId_1"
         style="fill:#9d6533;stroke-width:0.879402"
         d="m -61.865319,13.419664 h 0.467872 c 0.371298,0 0.669837,0.298979 0.669837,0.669837 v 0.348809 c 0,0.371299 -0.29898,0.669837 -0.669837,0.669837 h -0.467872 c -0.371298,0 -0.669836,-0.298979 -0.669836,-0.669837 v -0.348809 c 0,-0.370858 0.298538,-0.669837 0.669836,-0.669837 z" />
      <g
         id="g268"
         transform="matrix(0.44097222,0,0,0.44097222,-157.07078,-273.32164)"
         style="stroke-width:1.99424">
		<path
   id="SVGCleanerId_0_1_"
   style="fill:#9d6533;stroke-width:1.99424"
   d="m 213.607,649.913 16.823,-5.094 c 0.431,-0.131 0.884,0.111 1.015,0.542 0.131,0.431 -0.111,0.883 -0.542,1.014 l -16.823,5.094 c -0.431,0.131 -0.884,-0.111 -1.015,-0.542 -0.131,-0.431 0.111,-0.883 0.542,-1.014 z" />

	</g>
      <g
         id="g271"
         transform="matrix(0.44097222,0,0,0.44097222,-157.07078,-273.32164)"
         style="stroke-width:1.99424">
		<path
   id="SVGCleanerId_1_1_"
   style="fill:#9d6533;stroke-width:1.99424"
   d="m 215.899,650.248 h 1.061 c 0.842,0 1.519,0.678 1.519,1.519 v 0.791 c 0,0.842 -0.678,1.519 -1.519,1.519 h -1.061 c -0.842,0 -1.519,-0.678 -1.519,-1.519 v -0.791 c 0,-0.841 0.677,-1.519 1.519,-1.519 z" />

	</g>
      <g
         id="g277"
         transform="matrix(0.44097222,0,0,0.44097222,-157.07078,-273.32164)"
         style="stroke-width:1.99424">
		<path
   style="fill:#9d6533;stroke-width:1.99424"
   d="m 340.948,648.349 -16.823,-5.094 c -0.431,-0.131 -0.884,0.111 -1.015,0.542 -0.131,0.431 0.111,0.883 0.542,1.014 l 16.823,5.094 c 0.431,0.131 0.884,-0.111 1.015,-0.542 0.131,-0.432 -0.11,-0.884 -0.542,-1.014 z"
   id="path273" />

		<path
   style="fill:#9d6533;stroke-width:1.99424"
   d="m 338.657,648.684 h -1.061 c -0.842,0 -1.519,0.678 -1.519,1.519 v 0.791 c 0,0.842 0.678,1.519 1.519,1.519 h 1.061 c 0.842,0 1.519,-0.678 1.519,-1.519 v -0.791 c 0,-0.842 -0.678,-1.519 -1.519,-1.519 z"
   id="path275" />

	</g>
      <path
         style="fill:#784e26;stroke-width:0.879402"
         d="m -4.6601974,93.67308 -5.8640486,-53.005301 -3.263194,9.971263 5.3207704,34.027622 z"
         id="path279" />
      <path
         style="fill:#7b4e22;stroke-width:0.879402"
         d="m -38.183347,51.703549 c 0,1.05216 -0.85284,1.905 -1.905,1.905 -1.052159,0 -1.905,-0.85284 -1.905,-1.905 0,-1.052159 0.852841,-1.905 1.905,-1.905 1.05216,0 1.905,0.853282 1.905,1.905 z"
         id="path387" />
      <path
         style="fill:#543518;stroke-width:0.879402"
         d="m -38.927267,51.703549 c 0,0.641174 -0.519906,1.16108 -1.16108,1.16108 v 0 c -0.641173,0 -1.161079,-0.519906 -1.161079,-1.16108 v 0 c 0,-0.641173 0.519906,-1.16108 1.161079,-1.16108 0.641174,0 1.16108,0.519907 1.16108,1.16108 z"
         id="path389" />
      <path
         style="fill:#7b4e22;stroke-width:0.879402"
         d="m -29.683166,51.703549 c 0,1.05216 -0.85284,1.905 -1.905,1.905 -1.05216,0 -1.905,-0.85284 -1.905,-1.905 0,-1.052159 0.85284,-1.905 1.905,-1.905 1.05216,0 1.905,0.853282 1.905,1.905 z"
         id="path391" />
      <path
         style="fill:#543518;stroke-width:0.879402"
         d="m -30.427086,51.703549 c 0,0.641174 -0.519906,1.16108 -1.16108,1.16108 v 0 c -0.641174,0 -1.16108,-0.519906 -1.16108,-1.16108 v 0 c 0,-0.641173 0.519906,-1.16108 1.16108,-1.16108 0.641174,0 1.16108,0.519907 1.16108,1.16108 z"
         id="path393" />
      <path
         style="fill:#7b4e22;stroke-width:0.879402"
         d="m -38.183347,35.970542 c 0,1.05216 -0.85284,1.905 -1.905,1.905 -1.052159,0 -1.905,-0.85284 -1.905,-1.905 0,-1.052159 0.852841,-1.905 1.905,-1.905 1.05216,0 1.905,0.852841 1.905,1.905 z"
         id="path395" />
      <path
         style="fill:#543518;stroke-width:0.879402"
         d="m -38.927267,35.970542 c 0,0.641174 -0.519906,1.16108 -1.16108,1.16108 v 0 c -0.641173,0 -1.161079,-0.519906 -1.161079,-1.16108 v 0 c 0,-0.641173 0.519906,-1.161079 1.161079,-1.161079 0.641174,0 1.16108,0.519906 1.16108,1.161079 z"
         id="path397" />
      <path
         style="fill:#7b4e22;stroke-width:0.879402"
         d="m -29.683166,35.970542 c 0,1.05216 -0.85284,1.905 -1.905,1.905 -1.05216,0 -1.905,-0.85284 -1.905,-1.905 0,-1.052159 0.85284,-1.905 1.905,-1.905 1.05216,0 1.905,0.852841 1.905,1.905 z"
         id="path399" />
      <path
         style="fill:#543518;stroke-width:0.879402"
         d="m -30.427086,35.970542 c 0,0.641174 -0.519906,1.16108 -1.16108,1.16108 v 0 c -0.641174,0 -1.16108,-0.519906 -1.16108,-1.16108 v 0 c 0,-0.641173 0.519906,-1.161079 1.16108,-1.161079 0.641174,0 1.16108,0.519906 1.16108,1.161079 z"
         id="path401" />
      <path
         style="fill:#7b4e22;stroke-width:0.879402"
         d="m -38.183347,77.684751 c 0,1.052159 -0.85284,1.905 -1.905,1.905 -1.052159,0 -1.905,-0.852841 -1.905,-1.905 0,-1.05216 0.852841,-1.905 1.905,-1.905 1.05216,0 1.905,0.853281 1.905,1.905 z"
         id="path403" />
      <path
         style="fill:#543518;stroke-width:0.879402"
         d="m -38.927267,77.684751 c 0,0.641173 -0.519906,1.161079 -1.16108,1.161079 v 0 c -0.641173,0 -1.161079,-0.519906 -1.161079,-1.161079 v 0 c 0,-0.641174 0.519906,-1.16108 1.161079,-1.16108 0.641174,0 1.16108,0.519906 1.16108,1.16108 z"
         id="path405" />
      <path
         style="fill:#7b4e22;stroke-width:0.879402"
         d="m -29.683166,77.684751 c 0,1.052159 -0.85284,1.905 -1.905,1.905 -1.05216,0 -1.905,-0.852841 -1.905,-1.905 0,-1.05216 0.85284,-1.905 1.905,-1.905 1.05216,0 1.905,0.853281 1.905,1.905 z"
         id="path407" />
      <path
         style="fill:#543518;stroke-width:0.879402"
         d="m -30.427086,77.684751 c 0,0.641173 -0.519906,1.161079 -1.16108,1.161079 v 0 c -0.641174,0 -1.16108,-0.519906 -1.16108,-1.161079 v 0 c 0,-0.641174 0.519906,-1.16108 1.16108,-1.16108 0.641174,0 1.16108,0.519906 1.16108,1.16108 z"
         id="path409" />
      <path
         style="fill:#784e26;stroke-width:0.879402"
         d="m -65.675319,90.949195 5.328268,-41.866344 3.806031,7.612063 -5.328267,27.022778 z"
         id="path411" />
    </g>
    <g
       id="g964"
       transform="matrix(0.43055974,0,0,0.43055974,-38.341441,33.069141)"
       style="stroke-width:2.32256">
      <path
         style="fill:#9ccc65;stroke-width:1.02418"
         d="m 197.50792,110.16676 h 62.85574 c 1.92485,0 3.47398,1.54958 3.47398,3.47398 v 78.7475 c 0,1.92484 -1.54957,3.47398 -3.47398,3.47398 h -62.85574 c -1.92484,0 -3.47398,-1.54958 -3.47398,-3.47398 v -78.7475 c 0,-1.9244 1.54958,-3.47398 3.47398,-3.47398 z"
         id="path281" />
      <path
         style="fill:#89b358;stroke-width:1.02418"
         d="m 228.17269,119.77026 v 76.09196 h 1.52709 v -76.09196 z"
         id="path283" />
      <g
         id="g311"
         transform="matrix(0.44097222,0,0,0.44097222,52.171417,-218.85628)"
         style="stroke-width:2.32256">
		<path
   style="fill:#75994c;stroke-width:2.32256"
   d="m 321.703,758.708 v 13.125 H 480 v -13.125 z"
   id="path285" />

		<path
   style="fill:#75994c;stroke-width:2.32256"
   d="m 321.703,784.958 v 13.125 H 480 v -13.125 z"
   id="path287" />

		<path
   style="fill:#75994c;stroke-width:2.32256"
   d="m 321.703,811.208 v 13.125 H 480 v -13.125 z"
   id="path289" />

		<path
   style="fill:#75994c;stroke-width:2.32256"
   d="m 321.703,837.458 v 13.125 H 480 v -13.125 z"
   id="path291" />

		<path
   style="fill:#75994c;stroke-width:2.32256"
   d="m 321.703,863.708 v 13.125 H 480 v -13.125 z"
   id="path293" />

		<path
   style="fill:#75994c;stroke-width:2.32256"
   d="m 321.703,889.958 v 13.125 H 480 v -13.125 z"
   id="path295" />

		<path
   style="fill:#75994c;stroke-width:2.32256"
   d="m 321.703,916.208 v 13.125 H 480 v -13.125 z"
   id="path297" />

		<path
   style="fill:#75994c;stroke-width:2.32256"
   d="m 329.582,746.132 c -0.436,0 -0.859,0.042 -1.275,0.109 v 194.113 c 0.416,0.067 0.84,0.109 1.275,0.109 h 11.85 V 746.132 Z"
   id="path299" />

		<path
   style="fill:#75994c;stroke-width:2.32256"
   d="m 354.557,746.132 v 194.332 h 13.125 V 746.132 Z"
   id="path301" />

		<path
   style="fill:#75994c;stroke-width:2.32256"
   d="m 380.807,746.132 v 194.332 h 13.125 V 746.132 Z"
   id="path303" />

		<path
   style="fill:#75994c;stroke-width:2.32256"
   d="m 407.057,746.132 v 194.332 h 13.125 V 746.132 Z"
   id="path305" />

		<path
   style="fill:#75994c;stroke-width:2.32256"
   d="m 433.307,746.132 v 194.332 h 13.125 V 746.132 Z"
   id="path307" />

		<path
   style="fill:#75994c;stroke-width:2.32256"
   d="m 459.557,746.132 v 194.332 h 12.564 c 0.189,0 0.375,-0.014 0.561,-0.027 V 746.159 c -0.186,-0.013 -0.371,-0.027 -0.561,-0.027 z"
   id="path309" />

	</g>
      <path
         style="fill:#587339;stroke-width:1.02418"
         d="m 210.36094,102.44887 h 37.06239 l -18.38898,17.87701 z"
         id="path313" />
      <path
         style="fill:#dadfe1;stroke-width:1.02418"
         d="m 230.45605,143.66257 c 0,0.83961 -0.68043,1.52003 -1.52004,1.52003 -0.83961,0 -1.52003,-0.68042 -1.52003,-1.52003 0,-0.83961 0.68042,-1.52003 1.52003,-1.52003 0.83961,0 1.52004,0.68042 1.52004,1.52003 z"
         id="path315" />
      <g
         shape-rendering="auto"
         image-rendering="auto"
         color-rendering="auto"
         color-interpolation="sRGB"
         id="g325"
         transform="matrix(0.44097222,0,0,0.44097222,52.171417,-218.85628)"
         style="stroke-width:4.78751">
		<path
   style="fill:#abb7b7;stroke-width:2.32256"
   d="m 400.852,819.801 c -1.261,0 -2.289,1.028 -2.289,2.289 0,1.261 1.028,2.289 2.289,2.289 1.261,0 2.289,-1.028 2.289,-2.289 0,-1.261 -1.029,-2.289 -2.289,-2.289 z m 0,0.527 c 0.977,0 1.764,0.785 1.764,1.762 0,0.977 -0.787,1.764 -1.764,1.764 -0.977,0 -1.762,-0.787 -1.762,-1.764 0,-0.977 0.785,-1.762 1.762,-1.762 z"
   id="path317" />

		<g
   id="g323"
   style="stroke-width:2.32256">
			<path
   style="fill:#75994c;stroke-width:2.32256"
   d="m 400.115,821.197 c -0.096,0.009 -0.167,0.094 -0.158,0.191 0.005,0.054 0.035,0.102 0.08,0.132 0,0 0.539,0.365 0.727,0.557 0.218,0.223 0.617,0.844 0.617,0.844 0.052,0.082 0.161,0.106 0.242,0.053 0.081,-0.052 0.105,-0.159 0.054,-0.241 0,0 -0.376,-0.607 -0.662,-0.9 -0.257,-0.263 -0.785,-0.605 -0.785,-0.605 -0.033,-0.024 -0.074,-0.035 -0.115,-0.031 z"
   id="path319" />

			<path
   style="fill:#75994c;stroke-width:2.32256"
   d="m 401.582,821.273 c -0.034,0.002 -0.066,0.013 -0.094,0.033 0,0 -0.468,0.314 -0.701,0.541 -0.285,0.278 -0.697,0.857 -0.697,0.857 -0.062,0.074 -0.052,0.185 0.022,0.247 0.074,0.062 0.185,0.052 0.247,-0.022 0.005,-0.006 0.01,-0.013 0.015,-0.02 0,0 0.43,-0.589 0.658,-0.811 0.176,-0.171 0.656,-0.504 0.656,-0.504 0.081,-0.052 0.105,-0.161 0.052,-0.242 -0.034,-0.052 -0.095,-0.082 -0.158,-0.079 z"
   id="path321" />

		</g>

	</g>
      <path
         style="fill:#dadfe1;stroke-width:1.02418"
         d="m 230.45605,132.06633 c 0,0.83961 -0.68043,1.52003 -1.52004,1.52003 -0.83961,0 -1.52003,-0.68042 -1.52003,-1.52003 0,-0.83962 0.68042,-1.52004 1.52003,-1.52004 0.83961,0 1.52004,0.68087 1.52004,1.52004 z"
         id="path327" />
      <g
         shape-rendering="auto"
         image-rendering="auto"
         color-rendering="auto"
         color-interpolation="sRGB"
         id="g337"
         transform="matrix(0.44097222,0,0,0.44097222,52.171417,-218.85628)"
         style="stroke-width:4.78751">
		<path
   style="fill:#abb7b7;stroke-width:2.32256"
   d="m 400.852,793.504 c -1.261,0 -2.289,1.028 -2.289,2.289 0,1.261 1.028,2.289 2.289,2.289 1.261,0 2.289,-1.028 2.289,-2.289 0,-1.261 -1.029,-2.289 -2.289,-2.289 z m 0,0.527 c 0.977,0 1.764,0.785 1.764,1.762 0,0.977 -0.787,1.764 -1.764,1.764 -0.977,0 -1.762,-0.787 -1.762,-1.764 0,-0.977 0.785,-1.762 1.762,-1.762 z"
   id="path329" />

		<g
   id="g335"
   style="stroke-width:2.32256">
			<path
   style="fill:#75994c;stroke-width:2.32256"
   d="m 400.115,794.9 c -0.096,0.009 -0.167,0.094 -0.158,0.191 0.005,0.054 0.035,0.102 0.08,0.132 0,0 0.539,0.365 0.727,0.557 0.218,0.223 0.617,0.844 0.617,0.844 0.052,0.082 0.161,0.106 0.242,0.053 0.081,-0.052 0.105,-0.159 0.054,-0.241 0,0 -0.376,-0.607 -0.662,-0.9 -0.257,-0.263 -0.785,-0.605 -0.785,-0.605 -0.033,-0.024 -0.074,-0.035 -0.115,-0.031 z"
   id="path331" />

			<path
   style="fill:#75994c;stroke-width:2.32256"
   d="m 401.582,794.976 c -0.034,0.002 -0.066,0.013 -0.094,0.033 0,0 -0.468,0.314 -0.701,0.541 -0.285,0.278 -0.697,0.857 -0.697,0.857 -0.062,0.074 -0.052,0.185 0.022,0.247 0.074,0.062 0.185,0.052 0.247,-0.022 0.005,-0.006 0.01,-0.013 0.015,-0.02 0,0 0.43,-0.589 0.658,-0.811 0.176,-0.171 0.656,-0.504 0.656,-0.504 0.081,-0.052 0.105,-0.161 0.052,-0.242 -0.034,-0.052 -0.095,-0.082 -0.158,-0.079 z"
   id="path333" />

		</g>

	</g>
      <path
         style="fill:#dadfe1;stroke-width:1.02418"
         d="m 230.45605,178.45087 c 0,0.83961 -0.68043,1.52003 -1.52004,1.52003 -0.83961,0 -1.52003,-0.68042 -1.52003,-1.52003 0,-0.83961 0.68042,-1.52003 1.52003,-1.52003 0.83961,0 1.52004,0.68086 1.52004,1.52003 z"
         id="path339" />
      <g
         shape-rendering="auto"
         image-rendering="auto"
         color-rendering="auto"
         color-interpolation="sRGB"
         id="g349"
         transform="matrix(0.44097222,0,0,0.44097222,52.171417,-218.85628)"
         style="stroke-width:4.78751">
		<path
   style="fill:#abb7b7;stroke-width:2.32256"
   d="m 400.852,898.691 c -1.261,0 -2.289,1.028 -2.289,2.289 0,1.261 1.028,2.289 2.289,2.289 1.261,0 2.289,-1.028 2.289,-2.289 0,-1.261 -1.029,-2.289 -2.289,-2.289 z m 0,0.526 c 0.977,0 1.764,0.787 1.764,1.764 0,0.977 -0.787,1.764 -1.764,1.764 -0.977,0 -1.762,-0.787 -1.762,-1.764 0,-0.977 0.785,-1.764 1.762,-1.764 z"
   id="path341" />

		<g
   id="g347"
   style="stroke-width:2.32256">
			<path
   style="fill:#75994c;stroke-width:2.32256"
   d="m 400.133,900.086 c -0.097,-0.002 -0.177,0.075 -0.179,0.172 -0.001,0.062 0.03,0.12 0.083,0.152 0,0 0.539,0.365 0.727,0.557 0.218,0.223 0.617,0.844 0.617,0.844 0.052,0.082 0.161,0.106 0.242,0.053 0.081,-0.052 0.105,-0.159 0.054,-0.241 0,0 -0.376,-0.607 -0.662,-0.9 -0.257,-0.263 -0.785,-0.605 -0.785,-0.605 -0.028,-0.021 -0.062,-0.032 -0.097,-0.032 z"
   id="path343" />

			<path
   style="fill:#75994c;stroke-width:2.32256"
   d="m 401.582,900.164 c -0.034,10e-4 -0.066,0.012 -0.094,0.031 0,0 -0.468,0.315 -0.701,0.543 -0.285,0.278 -0.697,0.857 -0.697,0.857 -0.062,0.074 -0.052,0.185 0.022,0.247 0.074,0.062 0.185,0.052 0.247,-0.022 0.005,-0.006 0.01,-0.013 0.015,-0.02 0,0 0.43,-0.589 0.658,-0.811 0.176,-0.171 0.656,-0.504 0.656,-0.504 0.081,-0.052 0.105,-0.161 0.052,-0.242 -0.034,-0.052 -0.095,-0.083 -0.158,-0.079 z"
   id="path345" />

		</g>

	</g>
      <path
         style="fill:#dadfe1;stroke-width:1.02418"
         d="m 230.45605,166.85507 c 0,0.83961 -0.68043,1.52003 -1.52004,1.52003 -0.83961,0 -1.52003,-0.68042 -1.52003,-1.52003 0,-0.83962 0.68042,-1.52004 1.52003,-1.52004 0.83961,0 1.52004,0.68042 1.52004,1.52004 z"
         id="path351" />
      <g
         shape-rendering="auto"
         image-rendering="auto"
         color-rendering="auto"
         color-interpolation="sRGB"
         id="g361"
         transform="matrix(0.44097222,0,0,0.44097222,52.171417,-218.85628)"
         style="stroke-width:4.78751">
		<path
   style="fill:#abb7b7;stroke-width:2.32256"
   d="m 400.852,872.394 c -1.261,0 -2.289,1.028 -2.289,2.289 0,1.261 1.028,2.289 2.289,2.289 1.261,0 2.289,-1.028 2.289,-2.289 0,-1.261 -1.029,-2.289 -2.289,-2.289 z m 0,0.526 c 0.977,0 1.764,0.787 1.764,1.764 0,0.977 -0.787,1.764 -1.764,1.764 -0.977,0 -1.762,-0.787 -1.762,-1.764 0,-0.977 0.785,-1.764 1.762,-1.764 z"
   id="path353" />

		<g
   id="g359"
   style="stroke-width:2.32256">
			<path
   style="fill:#75994c;stroke-width:2.32256"
   d="m 400.133,873.789 c -0.097,-0.002 -0.177,0.075 -0.179,0.172 -0.001,0.062 0.03,0.12 0.083,0.152 0,0 0.539,0.365 0.727,0.557 0.218,0.223 0.617,0.844 0.617,0.844 0.052,0.082 0.161,0.106 0.242,0.053 0.081,-0.052 0.105,-0.159 0.054,-0.241 0,0 -0.376,-0.607 -0.662,-0.9 -0.257,-0.263 -0.785,-0.605 -0.785,-0.605 -0.028,-0.021 -0.062,-0.032 -0.097,-0.032 z"
   id="path355" />

			<path
   style="fill:#75994c;stroke-width:2.32256"
   d="m 401.582,873.867 c -0.034,0.001 -0.066,0.012 -0.094,0.031 0,0 -0.468,0.315 -0.701,0.543 -0.285,0.278 -0.697,0.857 -0.697,0.857 -0.062,0.074 -0.052,0.185 0.022,0.247 0.074,0.062 0.185,0.052 0.247,-0.022 0.005,-0.006 0.01,-0.013 0.015,-0.02 0,0 0.43,-0.589 0.658,-0.811 0.176,-0.171 0.656,-0.504 0.656,-0.504 0.081,-0.052 0.105,-0.161 0.052,-0.242 -0.034,-0.052 -0.095,-0.083 -0.158,-0.079 z"
   id="path357" />

		</g>

	</g>
      <path
         style="fill:#dadfe1;stroke-width:1.02418"
         d="m 230.45605,155.25882 c 0,0.83961 -0.68043,1.52003 -1.52004,1.52003 -0.83961,0 -1.52003,-0.68042 -1.52003,-1.52003 0,-0.83961 0.68042,-1.52003 1.52003,-1.52003 0.83961,0 1.52004,0.68042 1.52004,1.52003 z"
         id="path363" />
      <g
         shape-rendering="auto"
         image-rendering="auto"
         color-rendering="auto"
         color-interpolation="sRGB"
         id="g373"
         transform="matrix(0.44097222,0,0,0.44097222,52.171417,-218.85628)"
         style="stroke-width:4.78751">
		<path
   style="fill:#abb7b7;stroke-width:2.32256"
   d="m 400.852,846.098 c -1.261,0 -2.289,1.028 -2.289,2.289 0,1.261 1.028,2.289 2.289,2.289 1.261,0 2.289,-1.028 2.289,-2.289 0,-1.261 -1.029,-2.289 -2.289,-2.289 z m 0,0.527 c 0.977,0 1.764,0.785 1.764,1.762 0,0.977 -0.787,1.764 -1.764,1.764 -0.977,0 -1.762,-0.787 -1.762,-1.764 0,-0.977 0.785,-1.762 1.762,-1.762 z"
   id="path365" />

		<g
   id="g371"
   style="stroke-width:2.32256">
			<path
   style="fill:#75994c;stroke-width:2.32256"
   d="m 400.133,847.492 c -0.097,-0.002 -0.177,0.075 -0.179,0.172 -0.001,0.062 0.03,0.12 0.083,0.152 0,0 0.539,0.365 0.727,0.557 0.218,0.223 0.617,0.844 0.617,0.844 0.052,0.082 0.161,0.106 0.242,0.053 0.081,-0.052 0.105,-0.159 0.054,-0.241 0,0 -0.376,-0.607 -0.662,-0.9 -0.257,-0.263 -0.785,-0.605 -0.785,-0.605 -0.028,-0.021 -0.062,-0.031 -0.097,-0.032 z"
   id="path367" />

			<path
   style="fill:#75994c;stroke-width:2.32256"
   d="m 401.582,847.57 c -0.034,0.002 -0.066,0.013 -0.094,0.033 0,0 -0.468,0.314 -0.701,0.541 -0.285,0.278 -0.697,0.857 -0.697,0.857 -0.062,0.074 -0.052,0.185 0.022,0.247 0.074,0.062 0.185,0.052 0.247,-0.022 0.005,-0.006 0.01,-0.013 0.015,-0.02 0,0 0.43,-0.589 0.658,-0.811 0.176,-0.171 0.656,-0.504 0.656,-0.504 0.081,-0.052 0.105,-0.161 0.052,-0.242 -0.034,-0.052 -0.095,-0.083 -0.158,-0.079 z"
   id="path369" />

		</g>

	</g>
      <path
         style="fill:#dadfe1;stroke-width:1.02418"
         d="m 230.45605,190.04712 c 0,0.83961 -0.68043,1.52003 -1.52004,1.52003 -0.83961,0 -1.52003,-0.68042 -1.52003,-1.52003 0,-0.83961 0.68042,-1.52003 1.52003,-1.52003 0.83961,0 1.52004,0.68086 1.52004,1.52003 z"
         id="path375" />
      <g
         shape-rendering="auto"
         image-rendering="auto"
         color-rendering="auto"
         color-interpolation="sRGB"
         id="g385"
         transform="matrix(0.44097222,0,0,0.44097222,52.171417,-218.85628)"
         style="stroke-width:4.78751">
		<path
   style="fill:#abb7b7;stroke-width:2.32256"
   d="m 400.852,924.988 c -1.261,0 -2.289,1.028 -2.289,2.289 0,1.261 1.028,2.289 2.289,2.289 1.261,0 2.289,-1.028 2.289,-2.289 0,-1.261 -1.029,-2.289 -2.289,-2.289 z m 0,0.526 c 0.977,0 1.764,0.787 1.764,1.764 0,0.977 -0.787,1.764 -1.764,1.764 -0.977,0 -1.762,-0.787 -1.762,-1.764 0,-0.977 0.785,-1.764 1.762,-1.764 z"
   id="path377" />

		<g
   id="g383"
   style="stroke-width:2.32256">
			<path
   style="fill:#75994c;stroke-width:2.32256"
   d="m 400.133,926.383 c -0.097,-0.002 -0.177,0.075 -0.179,0.172 -0.001,0.062 0.03,0.12 0.083,0.152 0,0 0.539,0.365 0.727,0.557 0.218,0.223 0.617,0.844 0.617,0.844 0.052,0.082 0.161,0.106 0.242,0.053 0.081,-0.052 0.105,-0.159 0.054,-0.241 0,0 -0.376,-0.607 -0.662,-0.9 -0.257,-0.263 -0.785,-0.605 -0.785,-0.605 -0.028,-0.021 -0.062,-0.032 -0.097,-0.032 z"
   id="path379" />

			<path
   style="fill:#75994c;stroke-width:2.32256"
   d="m 401.582,926.461 c -0.034,10e-4 -0.066,0.012 -0.094,0.031 0,0 -0.468,0.315 -0.701,0.543 -0.285,0.278 -0.697,0.857 -0.697,0.857 -0.062,0.074 -0.052,0.185 0.022,0.247 0.074,0.062 0.185,0.052 0.247,-0.022 0.005,-0.006 0.01,-0.013 0.015,-0.02 0,0 0.43,-0.589 0.658,-0.811 0.176,-0.171 0.656,-0.506 0.656,-0.506 0.08,-0.054 0.101,-0.163 0.047,-0.243 -0.034,-0.05 -0.092,-0.079 -0.153,-0.076 z"
   id="path381" />

		</g>

	</g>
      <g
         id="g497"
         transform="matrix(0.44097222,0,0,0.44097222,52.171417,-218.85628)"
         style="stroke-width:2.32256">
		<path
   style="fill:#587339;stroke-width:2.32256"
   d="m 328.307,916.208 v 13.125 h 13.125 v -13.125 z"
   id="path413" />

		<path
   style="fill:#587339;stroke-width:2.32256"
   d="m 354.557,916.208 v 13.125 h 13.125 v -13.125 z"
   id="path415" />

		<path
   style="fill:#587339;stroke-width:2.32256"
   d="m 380.807,916.208 v 13.125 h 13.125 v -13.125 z"
   id="path417" />

		<path
   style="fill:#587339;stroke-width:2.32256"
   d="m 407.057,916.208 v 13.125 h 13.125 v -13.125 z"
   id="path419" />

		<path
   style="fill:#587339;stroke-width:2.32256"
   d="m 433.307,916.208 v 13.125 h 13.125 v -13.125 z"
   id="path421" />

		<path
   style="fill:#587339;stroke-width:2.32256"
   d="m 459.557,916.208 v 13.125 h 13.125 v -13.125 z"
   id="path423" />

		<path
   style="fill:#587339;stroke-width:2.32256"
   d="m 328.307,889.958 v 13.125 h 13.125 v -13.125 z"
   id="path425" />

		<path
   style="fill:#587339;stroke-width:2.32256"
   d="m 354.557,889.958 v 13.125 h 13.125 v -13.125 z"
   id="path427" />

		<path
   style="fill:#587339;stroke-width:2.32256"
   d="m 380.807,889.958 v 13.125 h 13.125 v -13.125 z"
   id="path429" />

		<path
   style="fill:#587339;stroke-width:2.32256"
   d="m 407.057,889.958 v 13.125 h 13.125 v -13.125 z"
   id="path431" />

		<path
   style="fill:#587339;stroke-width:2.32256"
   d="m 433.307,889.958 v 13.125 h 13.125 v -13.125 z"
   id="path433" />

		<path
   style="fill:#587339;stroke-width:2.32256"
   d="m 459.557,889.958 v 13.125 h 13.125 v -13.125 z"
   id="path435" />

		<path
   style="fill:#587339;stroke-width:2.32256"
   d="m 328.307,863.708 v 13.125 h 13.125 v -13.125 z"
   id="path437" />

		<path
   style="fill:#587339;stroke-width:2.32256"
   d="m 354.557,863.708 v 13.125 h 13.125 v -13.125 z"
   id="path439" />

		<path
   style="fill:#587339;stroke-width:2.32256"
   d="m 380.807,863.708 v 13.125 h 13.125 v -13.125 z"
   id="path441" />

		<path
   style="fill:#587339;stroke-width:2.32256"
   d="m 407.057,863.708 v 13.125 h 13.125 v -13.125 z"
   id="path443" />

		<path
   style="fill:#587339;stroke-width:2.32256"
   d="m 433.307,863.708 v 13.125 h 13.125 v -13.125 z"
   id="path445" />

		<path
   style="fill:#587339;stroke-width:2.32256"
   d="m 459.557,863.708 v 13.125 h 13.125 v -13.125 z"
   id="path447" />

		<path
   style="fill:#587339;stroke-width:2.32256"
   d="m 328.307,837.458 v 13.125 h 13.125 v -13.125 z"
   id="path449" />

		<path
   style="fill:#587339;stroke-width:2.32256"
   d="m 354.557,837.458 v 13.125 h 13.125 v -13.125 z"
   id="path451" />

		<path
   style="fill:#587339;stroke-width:2.32256"
   d="m 380.807,837.458 v 13.125 h 13.125 v -13.125 z"
   id="path453" />

		<path
   style="fill:#587339;stroke-width:2.32256"
   d="m 407.057,837.458 v 13.125 h 13.125 v -13.125 z"
   id="path455" />

		<path
   style="fill:#587339;stroke-width:2.32256"
   d="m 433.307,837.458 v 13.125 h 13.125 v -13.125 z"
   id="path457" />

		<path
   style="fill:#587339;stroke-width:2.32256"
   d="m 459.557,837.458 v 13.125 h 13.125 v -13.125 z"
   id="path459" />

		<path
   style="fill:#587339;stroke-width:2.32256"
   d="m 328.307,811.208 v 13.125 h 13.125 v -13.125 z"
   id="path461" />

		<path
   style="fill:#587339;stroke-width:2.32256"
   d="m 354.557,811.208 v 13.125 h 13.125 v -13.125 z"
   id="path463" />

		<path
   style="fill:#587339;stroke-width:2.32256"
   d="m 380.807,811.208 v 13.125 h 13.125 v -13.125 z"
   id="path465" />

		<path
   style="fill:#587339;stroke-width:2.32256"
   d="m 407.057,811.208 v 13.125 h 13.125 v -13.125 z"
   id="path467" />

		<path
   style="fill:#587339;stroke-width:2.32256"
   d="m 433.307,811.208 v 13.125 h 13.125 v -13.125 z"
   id="path469" />

		<path
   style="fill:#587339;stroke-width:2.32256"
   d="m 459.557,811.208 v 13.125 h 13.125 v -13.125 z"
   id="path471" />

		<path
   style="fill:#587339;stroke-width:2.32256"
   d="m 328.307,784.958 v 13.125 h 13.125 v -13.125 z"
   id="path473" />

		<path
   style="fill:#587339;stroke-width:2.32256"
   d="m 354.557,784.958 v 13.125 h 13.125 v -13.125 z"
   id="path475" />

		<path
   style="fill:#587339;stroke-width:2.32256"
   d="m 380.807,784.958 v 13.125 h 13.125 v -13.125 z"
   id="path477" />

		<path
   style="fill:#587339;stroke-width:2.32256"
   d="m 407.057,784.958 v 13.125 h 13.125 v -13.125 z"
   id="path479" />

		<path
   style="fill:#587339;stroke-width:2.32256"
   d="m 433.307,784.958 v 13.125 h 13.125 v -13.125 z"
   id="path481" />

		<path
   style="fill:#587339;stroke-width:2.32256"
   d="m 459.557,784.958 v 13.125 h 13.125 v -13.125 z"
   id="path483" />

		<path
   style="fill:#587339;stroke-width:2.32256"
   d="m 328.307,758.708 v 13.125 h 13.125 v -13.125 z"
   id="path485" />

		<path
   style="fill:#587339;stroke-width:2.32256"
   d="m 354.557,758.708 v 13.125 h 13.125 v -13.125 z"
   id="path487" />

		<path
   style="fill:#587339;stroke-width:2.32256"
   d="m 380.807,758.708 v 13.125 h 13.125 v -13.125 z"
   id="path489" />

		<path
   style="fill:#587339;stroke-width:2.32256"
   d="m 407.057,758.708 v 13.125 h 13.125 v -13.125 z"
   id="path491" />

		<path
   style="fill:#587339;stroke-width:2.32256"
   d="m 433.307,758.708 v 13.125 h 13.125 v -13.125 z"
   id="path493" />

		<path
   style="fill:#587339;stroke-width:2.32256"
   d="m 459.557,758.708 v 13.125 h 13.125 v -13.125 z"
   id="path495" />

	</g>
      <g
         id="g503"
         transform="matrix(0.44097222,0,0,0.44097222,52.171417,-218.85628)"
         style="stroke-width:2.32256">
		<path
   style="fill:#9ccc65;stroke-width:2.32256"
   d="m 458.091,746.25 -15.317,-17.621 -28.86,27.715 18.697,21.584 z"
   id="path499" />

		<path
   style="fill:#9ccc65;stroke-width:2.32256"
   d="m 343.614,746.25 15.316,-17.621 28.86,27.715 -18.697,21.584 z"
   id="path501" />

	</g>
      <g
         id="g507"
         transform="matrix(0.44097222,0,0,0.44097222,52.171417,-218.85628)"
         style="stroke-width:2.32256">
		<path
   style="fill:#75994c;stroke-width:2.32256"
   d="m 369.489,746.125 h 69.158 v 34.883 h -69.158 z"
   id="path505" />

	</g>
      <path
         style="fill:#dadfe1;stroke-width:1.02418"
         d="m 230.45605,120.47052 c 0,0.83961 -0.68043,1.52003 -1.52004,1.52003 -0.83961,0 -1.52003,-0.68042 -1.52003,-1.52003 0,-0.83961 0.68042,-1.52003 1.52003,-1.52003 0.83961,0 1.52004,0.68042 1.52004,1.52003 z"
         id="path509" />
      <g
         shape-rendering="auto"
         image-rendering="auto"
         color-rendering="auto"
         color-interpolation="sRGB"
         id="g519"
         transform="matrix(0.44097222,0,0,0.44097222,52.171417,-218.85628)"
         style="stroke-width:4.78751">
		<path
   style="fill:#abb7b7;stroke-width:2.32256"
   d="m 400.852,767.209 c -1.261,0 -2.289,1.026 -2.289,2.287 0,1.261 1.028,2.289 2.289,2.289 1.261,0 2.289,-1.028 2.289,-2.289 0,-1.261 -1.029,-2.287 -2.289,-2.287 z m 0,0.525 c 0.977,0 1.764,0.785 1.764,1.762 0,0.977 -0.787,1.764 -1.764,1.764 -0.977,0 -1.762,-0.787 -1.762,-1.764 0,-0.977 0.785,-1.762 1.762,-1.762 z"
   id="path511" />

		<g
   id="g517"
   style="stroke-width:2.32256">
			<path
   style="fill:#75994c;stroke-width:2.32256"
   d="m 400.115,768.603 c -0.096,0.009 -0.167,0.094 -0.158,0.191 0.005,0.054 0.035,0.102 0.08,0.132 0,0 0.539,0.367 0.727,0.559 0.218,0.223 0.617,0.842 0.617,0.842 0.047,0.085 0.154,0.115 0.238,0.068 0.085,-0.047 0.115,-0.154 0.068,-0.238 -0.003,-0.005 -0.006,-0.01 -0.009,-0.015 0,0 -0.376,-0.609 -0.662,-0.902 -0.257,-0.263 -0.785,-0.605 -0.785,-0.605 -0.034,-0.025 -0.075,-0.036 -0.116,-0.032 z"
   id="path513" />

			<path
   style="fill:#75994c;stroke-width:2.32256"
   d="m 401.582,768.68 c -0.034,0.002 -0.066,0.013 -0.094,0.033 0,0 -0.468,0.314 -0.701,0.541 -0.285,0.278 -0.697,0.857 -0.697,0.857 -0.062,0.074 -0.052,0.185 0.022,0.247 0.074,0.062 0.185,0.052 0.247,-0.022 0.005,-0.006 0.01,-0.013 0.015,-0.02 0,0 0.43,-0.589 0.658,-0.811 0.176,-0.171 0.656,-0.504 0.656,-0.504 0.081,-0.052 0.105,-0.161 0.052,-0.242 -0.034,-0.053 -0.095,-0.083 -0.158,-0.079 z"
   id="path515" />

		</g>

	</g>
    </g>
  </g>
</svg>
