<?xml version="1.0" encoding="UTF-8" standalone="no"?>
<svg
   width="512"
   height="512"
   viewBox="0 0 135.46666 135.46667"
   version="1.1"
   id="svg8"
   sodipodi:docname="crystals_and_gems.svg"
   inkscape:version="1.1.2 (0a00cf5339, 2022-02-04)"
   xmlns:inkscape="http://www.inkscape.org/namespaces/inkscape"
   xmlns:sodipodi="http://sodipodi.sourceforge.net/DTD/sodipodi-0.dtd"
   xmlns="http://www.w3.org/2000/svg"
   xmlns:svg="http://www.w3.org/2000/svg"
   xmlns:rdf="http://www.w3.org/1999/02/22-rdf-syntax-ns#"
   xmlns:cc="http://creativecommons.org/ns#"
   xmlns:dc="http://purl.org/dc/elements/1.1/">
  <defs
     id="defs2">
    <marker
       style="overflow:visible;"
       id="Arrow1Mend"
       refX="0.0"
       refY="0.0"
       orient="auto"
       inkscape:stockid="Arrow1Mend"
       inkscape:isstock="true">
      <path
         transform="scale(0.4) rotate(180) translate(10,0)"
         style="fill-rule:evenodd;stroke:#ffffff;stroke-width:1pt;stroke-opacity:1;fill:#ffffff;fill-opacity:1"
         d="M 0.0,0.0 L 5.0,-5.0 L -12.5,0.0 L 5.0,5.0 L 0.0,0.0 z "
         id="path868" />
    </marker>
    <marker
       style="overflow:visible;"
       id="marker1227"
       refX="0.0"
       refY="0.0"
       orient="auto"
       inkscape:stockid="Arrow1Lend"
       inkscape:isstock="true">
      <path
         transform="scale(0.8) rotate(180) translate(12.5,0)"
         style="fill-rule:evenodd;stroke:#ffffff;stroke-width:1pt;stroke-opacity:1;fill:#ffffff;fill-opacity:1"
         d="M 0.0,0.0 L 5.0,-5.0 L -12.5,0.0 L 5.0,5.0 L 0.0,0.0 z "
         id="path1225" />
    </marker>
    <marker
       style="overflow:visible;"
       id="Arrow1Lend"
       refX="0.0"
       refY="0.0"
       orient="auto"
       inkscape:stockid="Arrow1Lend"
       inkscape:isstock="true">
      <path
         transform="scale(0.8) rotate(180) translate(12.5,0)"
         style="fill-rule:evenodd;stroke:#ffffff;stroke-width:1pt;stroke-opacity:1;fill:#ffffff;fill-opacity:1"
         d="M 0.0,0.0 L 5.0,-5.0 L -12.5,0.0 L 5.0,5.0 L 0.0,0.0 z "
         id="path862" />
    </marker>
  </defs>
  <sodipodi:namedview
     id="base"
     pagecolor="#ffffff"
     bordercolor="#666666"
     borderopacity="1.0"
     inkscape:pageopacity="0"
     inkscape:pageshadow="2"
     inkscape:zoom="0.7"
     inkscape:cx="350.71429"
     inkscape:cy="297.85714"
     inkscape:document-units="mm"
     inkscape:current-layer="layer1"
     inkscape:document-rotation="0"
     showgrid="true"
     inkscape:window-width="1452"
     inkscape:window-height="849"
     inkscape:window-x="2035"
     inkscape:window-y="525"
     inkscape:window-maximized="0"
     inkscape:snap-grids="true"
     units="px"
     inkscape:pagecheckerboard="false">
    <inkscape:grid
       type="xygrid"
       id="grid876"
       empcolor="#000000"
       empopacity="0.39607843"
       color="#757575"
       opacity="0.28627451"
       empspacing="4"
       units="px"
       spacingx="2.1166666"
       spacingy="2.1166666" />
  </sodipodi:namedview>
  <metadata
     id="metadata5">
    <rdf:RDF>
      <cc:Work
         rdf:about="">
        <dc:format>image/svg+xml</dc:format>
        <dc:type
           rdf:resource="http://purl.org/dc/dcmitype/StillImage" />
      </cc:Work>
    </rdf:RDF>
  </metadata>
  <g
     inkscape:groupmode="layer"
     id="layer2"
     inkscape:label="Background"
     sodipodi:insensitive="true">
    <rect
       style="opacity:0.997213;fill:#606060;fill-opacity:1;stroke:#b3b3b3;stroke-width:2.11667;stroke-miterlimit:4;stroke-dasharray:none;stroke-opacity:0.999964;stop-color:#000000"
       id="rect957"
       width="118.53333"
       height="118.53333"
       x="8.4666662"
       y="8.4666662"
       rx="8.46667"
       ry="8.4666662" />
    <rect
       style="opacity:0.997213;fill:#606060;fill-opacity:1;stroke:#b3b3b3;stroke-width:2.11667;stroke-miterlimit:4;stroke-dasharray:none;stroke-opacity:0.999964;stop-color:#000000"
       id="rect1598"
       width="110.06667"
       height="110.06667"
       x="12.7"
       y="12.7"
       rx="2.1166666"
       ry="2.1166666" />
    <rect
       style="opacity:0.997213;fill:#606060;fill-opacity:1;stroke:#b3b3b3;stroke-width:2.11667;stroke-miterlimit:4;stroke-dasharray:none;stroke-opacity:0.999964;stop-color:#000000"
       id="rect1295"
       width="16.933332"
       height="16.933332"
       x="4.2333336"
       y="4.2333336"
       rx="2.1166663"
       ry="2.1166666" />
    <rect
       style="opacity:0.997213;fill:#606060;fill-opacity:1;stroke:#b3b3b3;stroke-width:2.11667;stroke-miterlimit:4;stroke-dasharray:none;stroke-opacity:0.999964;stop-color:#000000"
       id="rect1295-0"
       width="16.933332"
       height="16.933332"
       x="114.3"
       y="4.2333336"
       rx="2.1166663"
       ry="2.1166666" />
    <rect
       style="opacity:0.997213;fill:#606060;fill-opacity:1;stroke:#b3b3b3;stroke-width:2.11667;stroke-miterlimit:4;stroke-dasharray:none;stroke-opacity:0.999964;stop-color:#000000"
       id="rect1295-6"
       width="16.933332"
       height="16.933332"
       x="4.2333331"
       y="114.3"
       rx="2.1166663"
       ry="2.1166666" />
    <rect
       style="opacity:0.997213;fill:#606060;fill-opacity:1;stroke:#b3b3b3;stroke-width:2.11667;stroke-miterlimit:4;stroke-dasharray:none;stroke-opacity:0.999964;stop-color:#000000"
       id="rect1295-2"
       width="16.933332"
       height="16.933332"
       x="114.3"
       y="114.3"
       rx="2.1166663"
       ry="2.1166666" />
  </g>
  <g
     inkscape:label="Icon"
     inkscape:groupmode="layer"
     id="layer1">
    <g
       id="g111"
       transform="matrix(0.1356229,0,0,0.1356229,31.609087,33.310476)"
       style="stroke-width:3.04824">
      <path
         style="fill:#e28883;stroke-width:3.04824"
         d="m 382.873,451.189 c -3.093,0 -6.186,-1.174 -8.546,-3.521 l -97.859,-97.372 c -2.265,-2.255 -3.539,-5.313 -3.539,-8.502 0,-3.189 1.274,-6.247 3.539,-8.502 l 97.859,-97.37 c 2.36,-2.348 5.453,-3.521 8.546,-3.521 3.092,0 6.185,1.173 8.545,3.521 l 97.859,97.37 c 2.265,2.255 3.539,5.313 3.539,8.502 0,3.189 -1.274,6.247 -3.539,8.502 l -97.859,97.372 c -2.36,2.347 -5.453,3.521 -8.545,3.521 z"
         id="path25" />
      <path
         style="opacity:0.1;stroke-width:3.04824;enable-background:new"
         d="m 309.235,350.296 c -2.265,-2.255 -3.539,-5.313 -3.539,-8.502 0,-3.189 1.274,-6.247 3.539,-8.502 l 90.021,-89.572 -7.838,-7.799 c -2.36,-2.348 -5.453,-3.521 -8.545,-3.521 -3.093,0 -6.186,1.173 -8.546,3.521 l -97.859,97.37 c -2.265,2.255 -3.539,5.313 -3.539,8.502 0,3.189 1.274,6.247 3.539,8.502 l 97.859,97.372 c 2.36,2.348 5.453,3.521 8.546,3.521 3.092,0 6.185,-1.174 8.545,-3.521 l 7.838,-7.799 z"
         id="path27" />
      <g
         id="g33"
         style="stroke-width:3.04824">
	<path
   style="fill:#e8a09c;stroke-width:3.04824"
   d="m 340.961,346.045 c -0.959,-0.956 -1.559,-2.202 -1.72,-3.529 h -66.277 c 0.178,2.925 1.411,5.696 3.504,7.779 l 97.859,97.372 c 2.175,2.164 4.974,3.318 7.819,3.487 l 10e-4,-65.968 c -1.296,-0.155 -2.553,-0.702 -3.547,-1.692 z"
   id="path29" />

	<path
   style="fill:#e8a09c;stroke-width:3.04824"
   d="M 489.277,333.291 391.418,235.92 c -2.255,-2.243 -5.181,-3.402 -8.133,-3.503 v 65.953 c 1.405,0.095 2.786,0.653 3.861,1.722 l 37.638,37.45 c 1.035,1.03 1.65,2.397 1.749,3.842 h 66.264 c -0.106,-3.039 -1.352,-5.935 -3.52,-8.093 z"
   id="path31" />

</g>
      <path
         style="fill:#bf6060;stroke-width:3.04824"
         d="m 382.873,385.256 c -1.546,0 -3.093,-0.587 -4.274,-1.761 l -37.638,-37.45 c -1.133,-1.128 -1.769,-2.657 -1.769,-4.252 0,-1.595 0.636,-3.123 1.769,-4.251 l 37.638,-37.45 c 1.181,-1.173 2.726,-1.761 4.274,-1.761 1.545,0 3.092,0.587 4.273,1.761 l 37.638,37.45 c 1.133,1.127 1.769,2.657 1.769,4.251 0,1.595 -0.636,3.123 -1.769,4.252 l -37.638,37.45 c -1.181,1.174 -2.728,1.761 -4.273,1.761 z"
         id="path35" />
      <path
         style="fill:#e5ae36;stroke-width:3.04824"
         d="m 119.73,504.163 c -3.201,0 -6.399,-1.158 -8.904,-3.473 L 23.294,419.752 c -2.625,-2.425 -4.111,-5.814 -4.111,-9.36 V 233.49 c 0,-3.581 1.517,-7 4.187,-9.43 l 87.532,-79.656 c 2.493,-2.27 5.659,-3.402 8.827,-3.402 3.167,0 6.333,1.134 8.824,3.402 l 87.532,79.656 c 2.668,2.43 4.19,5.849 4.19,9.43 v 176.902 c 0,3.547 -1.49,6.936 -4.115,9.36 l -87.53,80.938 c -2.502,2.315 -5.702,3.473 -8.9,3.473 z"
         id="path37" />
      <polygon
         style="fill:#fdf276;stroke-width:3.04824"
         points="71.237,250.166 19.183,233.49 19.183,410.392 71.237,393.535 "
         id="polygon39" />
      <g
         id="g45"
         style="stroke-width:3.04824">
	<path
   style="fill:#bf953e;stroke-width:3.04824"
   d="m 168.22,393.716 -48.49,44.839 v 65.608 c 3.198,0 6.398,-1.158 8.9,-3.473 l 87.532,-80.938 c 2.625,-2.425 4.115,-5.814 4.115,-9.36 z"
   id="path41" />

	<path
   style="fill:#bf953e;stroke-width:3.04824"
   d="m 119.73,141.001 c -3.168,0 -6.335,1.134 -8.827,3.402 l -87.532,79.656 c -2.67,2.43 -4.187,5.849 -4.187,9.43 l 52.054,16.858 48.493,-44.129 v -65.217 z"
   id="path43" />

</g>
      <g
         id="g51"
         style="stroke-width:3.04824">
	<path
   style="fill:#ffc753;stroke-width:3.04824"
   d="m 216.088,224.06 -87.532,-79.656 c -2.492,-2.27 -5.657,-3.402 -8.824,-3.402 v 65.218 l 48.49,44.129 52.057,-16.858 c -0.001,-3.582 -1.525,-7.001 -4.191,-9.431 z"
   id="path47" />

	<path
   style="fill:#ffc753;stroke-width:3.04824"
   d="m 19.183,410.392 c 0,3.547 1.487,6.936 4.111,9.36 l 87.532,80.938 c 2.504,2.314 5.704,3.473 8.904,3.473 V 438.555 L 71.237,393.716 Z"
   id="path49" />

</g>
      <polygon
         style="fill:#fefac8;stroke-width:3.04824"
         points="168.22,393.716 119.73,438.555 71.237,393.716 71.237,250.348 119.73,206.219 168.22,250.348 "
         id="polygon53" />
      <path
         style="opacity:0.1;stroke-width:3.04824;enable-background:new"
         d="m 55.882,419.752 c -2.625,-2.425 -4.112,-5.814 -4.112,-9.36 V 233.49 c 0,-3.581 1.517,-7 4.187,-9.43 l 63.772,-58.035 v -25.024 c -3.168,0 -6.335,1.134 -8.827,3.402 L 23.37,224.059 c -2.67,2.43 -4.187,5.849 -4.187,9.43 v 176.902 c 0,3.547 1.487,6.936 4.111,9.36 l 87.532,80.938 c 2.504,2.314 5.702,3.473 8.904,3.473 v -25.373 z"
         id="path55" />
      <polygon
         style="fill:#fdf276;stroke-width:3.04824"
         points="220.278,410.392 220.278,233.49 168.22,250.348 168.22,393.716 "
         id="polygon57" />
      <path
         style="fill:#37c4b3;stroke-width:3.04824"
         d="m 296.8,230.324 c -3.651,0 -7.116,-1.647 -9.441,-4.49 L 175.529,89.171 c -3.427,-4.188 -3.745,-10.144 -0.783,-14.679 l 39.911,-61.1 c 2.264,-3.467 6.108,-5.555 10.221,-5.555 h 143.841 c 4.115,0 7.956,2.088 10.224,5.555 l 39.907,61.1 c 2.963,4.535 2.646,10.491 -0.782,14.679 L 306.239,225.833 c -2.326,2.844 -5.787,4.491 -9.439,4.491 z"
         id="path59" />
      <g
         id="g67"
         style="stroke-width:3.04824">
	<path
   style="fill:#53e7d3;stroke-width:3.04824"
   d="m 219.317,9.202 c -1.856,0.956 -3.474,2.376 -4.657,4.188 l -39.913,61.101 c -1.51,2.313 -2.164,4.998 -1.99,7.63 h 75.449 l 9.372,-14.347 z"
   id="path61" />

	<path
   style="fill:#53e7d3;stroke-width:3.04824"
   d="M 418.851,74.493 378.939,13.392 c -1.183,-1.812 -2.799,-3.233 -4.658,-4.188 l -38.261,58.57 9.373,14.349 h 75.45 c 0.174,-2.633 -0.477,-5.318 -1.992,-7.63 z"
   id="path63" />

	<polygon
   style="fill:#53e7d3;stroke-width:3.04824"
   points="296.8,230.35 345.394,82.123 248.507,82.123 "
   id="polygon65" />

</g>
      <polygon
         style="fill:#b9f5ed;stroke-width:3.04824"
         points="345.394,82.123 296.869,7.837 296.729,7.837 248.206,82.123 "
         id="polygon69" />
      <path
         style="opacity:0.1;stroke-width:3.04824;enable-background:new"
         d="M 279.027,175.799 208.14,89.171 c -3.427,-4.188 -3.745,-10.144 -0.783,-14.679 l 39.911,-61.1 c 2.264,-3.467 6.108,-5.555 10.221,-5.555 h -32.61 c -4.113,0 -7.957,2.088 -10.221,5.555 l -39.911,61.1 c -2.962,4.535 -2.645,10.491 0.783,14.679 l 111.829,136.662 c 2.324,2.842 5.785,4.487 9.432,4.49 z"
         id="path71" />
      <path
         d="m 500.633,341.391 c 0,-0.002 0,-0.004 0,-0.006 0,-0.133 -0.014,-0.262 -0.02,-0.394 -0.2,-5.008 -2.229,-9.691 -5.809,-13.256 l -25.344,-25.22 c -3.067,-3.051 -8.029,-3.042 -11.083,0.027 -3.053,3.068 -3.041,8.03 0.027,11.082 l 20.019,19.921 h -46.781 c -0.406,-0.544 -0.842,-1.072 -1.332,-1.561 l -37.64,-37.453 c -0.485,-0.482 -1.008,-0.91 -1.55,-1.31 v -46.543 l 48.481,48.239 c 3.068,3.053 8.03,3.041 11.082,-0.027 3.053,-3.069 3.041,-8.03 -0.027,-11.082 l -53.712,-53.443 c -3.594,-3.576 -8.323,-5.595 -13.373,-5.769 -0.096,-0.003 -0.191,-0.015 -0.288,-0.015 -0.002,0 -0.003,0 -0.005,0 -0.136,-0.002 -0.27,-0.02 -0.405,-0.02 -5.314,0 -10.312,2.061 -14.074,5.803 l -97.861,97.371 c -3.77,3.753 -5.846,8.746 -5.846,14.057 0,5.311 2.076,10.303 5.848,14.058 l 97.86,97.373 c 3.589,3.568 8.307,5.586 13.346,5.767 v 0 c 0.002,0 0.003,0 0.005,0 0.24,0.008 0.479,0.034 0.721,0.034 5.312,0 10.31,-2.061 14.073,-5.803 l 97.861,-97.372 c 3.77,-3.753 5.846,-8.746 5.846,-14.057 0.001,-0.133 -0.016,-0.266 -0.019,-0.401 z M 375.447,245.86 v 46.792 c -0.847,0.538 -1.647,1.161 -2.375,1.885 l -37.639,37.451 c -0.82,0.817 -1.511,1.725 -2.093,2.692 h -47.156 z m -1.137,190.735 -8.579,-8.536 -78.095,-77.706 h 46.7 c 0.342,0.432 0.702,0.853 1.098,1.247 l 37.639,37.452 c 0.392,0.39 0.808,0.744 1.236,1.08 z m 8.562,-59.904 -35.072,-34.898 35.072,-34.898 35.072,34.898 z m 7.112,61.348 0.001,-46.916 c 0.964,-0.577 1.872,-1.261 2.69,-2.073 l 37.64,-37.452 c 0.731,-0.728 1.36,-1.528 1.903,-2.376 h 47.031 z"
         id="path73"
         style="stroke-width:3.04824" />
      <path
         d="m 281.292,230.794 c 3.829,4.681 9.48,7.367 15.507,7.367 6.026,0 11.678,-2.684 15.505,-7.364 l 63.384,-77.457 c 2.742,-3.35 2.248,-8.287 -1.102,-11.028 -3.348,-2.741 -8.287,-2.247 -11.028,1.102 l -50.07,61.189 37.584,-114.643 h 56.227 l -27.494,33.601 c -2.742,3.35 -2.248,8.287 1.102,11.028 3.349,2.742 8.287,2.249 11.028,-1.102 l 32.201,-39.351 c 5.625,-6.873 6.139,-16.49 1.278,-23.927 L 385.504,9.101 C 381.774,3.402 375.5,0 368.72,0 H 224.879 c -6.786,0 -13.059,3.404 -16.782,9.106 l -39.911,61.1 c -4.86,7.439 -4.346,17.055 1.279,23.927 z M 186.301,89.959 h 56.516 l 37.39,114.76 z m 188.943,-67.901 34.113,52.228 h -59.721 l -4.254,-6.512 z m -14.55,-6.385 -24.673,37.771 -24.672,-37.771 z m -29.781,58.613 h -16.4 c -4.328,0 -7.837,3.509 -7.837,7.837 0,4.328 3.509,7.837 7.837,7.837 h 20.063 L 296.822,205.123 259.301,89.959 h 27 c 4.328,0 7.837,-3.509 7.837,-7.837 0,-4.328 -3.509,-7.837 -7.837,-7.837 H 262.684 L 296.798,22.059 Z M 282.249,15.673 257.577,53.444 232.905,15.673 Z m -63.893,6.388 29.861,45.713 -4.253,6.511 h -59.721 z"
         id="path75"
         style="stroke-width:3.04824" />
      <path
         d="m 133.831,138.61 c -3.856,-3.512 -8.863,-5.445 -14.101,-5.445 -5.238,0 -10.246,1.934 -14.102,5.444 l -87.533,79.657 c -4.288,3.904 -6.748,9.453 -6.748,15.225 v 176.902 c 0,5.714 2.417,11.223 6.628,15.114 l 87.533,80.938 c 3.874,3.582 8.927,5.555 14.222,5.555 5.298,0 10.349,-1.974 14.22,-5.556 l 87.531,-80.936 c 4.215,-3.894 6.633,-9.404 6.633,-15.117 v -83.339 c 0,-4.328 -3.509,-7.837 -7.837,-7.837 -4.328,0 -7.837,3.509 -7.837,7.837 v 72.6 l -36.383,-11.655 v -131.95 l 36.383,-11.782 v 53.53 c 0,4.328 3.509,7.837 7.837,7.837 4.328,0 7.837,-3.509 7.837,-7.837 V 233.49 c 0,-5.767 -2.46,-11.316 -6.752,-15.226 z m -21.938,15.487 v 48.658 L 69.326,241.491 29.892,228.72 Z M 27.02,244.266 63.4,256.048 v 131.95 l -36.38,11.654 c 0,0 0,-155.386 0,-155.386 z M 111.893,491.003 29.9,415.188 69.274,402.575 111.893,441.982 Z M 209.557,415.187 127.567,491 v -49.018 l 42.616,-39.407 z M 170.132,241.492 158.871,231.244 c -3.199,-2.912 -8.156,-2.679 -11.071,0.521 -2.913,3.201 -2.679,8.158 0.521,11.071 l 12.062,10.977 V 390.29 L 119.73,427.882 79.074,390.29 V 253.813 l 40.656,-36.998 8.746,7.958 c 3.201,2.912 8.158,2.679 11.071,-0.521 2.913,-3.202 2.679,-8.158 -0.521,-11.071 l -11.457,-10.427 v -48.655 l 81.999,74.62 z"
         id="path77"
         style="stroke-width:3.04824" />
    </g>
  </g>
</svg>
