<?xml version="1.0" encoding="UTF-8" standalone="no"?>
<svg
   width="512"
   height="512"
   viewBox="0 0 135.46666 135.46667"
   version="1.1"
   id="svg8"
   sodipodi:docname="pharmaceuticals.svg"
   inkscape:version="1.1.2 (0a00cf5339, 2022-02-04)"
   xmlns:inkscape="http://www.inkscape.org/namespaces/inkscape"
   xmlns:sodipodi="http://sodipodi.sourceforge.net/DTD/sodipodi-0.dtd"
   xmlns="http://www.w3.org/2000/svg"
   xmlns:svg="http://www.w3.org/2000/svg"
   xmlns:rdf="http://www.w3.org/1999/02/22-rdf-syntax-ns#"
   xmlns:cc="http://creativecommons.org/ns#"
   xmlns:dc="http://purl.org/dc/elements/1.1/">
  <defs
     id="defs2"><marker
   style="overflow:visible;"
   id="Arrow1Mend"
   refX="0.0"
   refY="0.0"
   orient="auto"
   inkscape:stockid="Arrow1Mend"
   inkscape:isstock="true">
  <path
     transform="scale(0.4) rotate(180) translate(10,0)"
     style="fill-rule:evenodd;stroke:#ffffff;stroke-width:1pt;stroke-opacity:1;fill:#ffffff;fill-opacity:1"
     d="M 0.0,0.0 L 5.0,-5.0 L -12.5,0.0 L 5.0,5.0 L 0.0,0.0 z "
     id="path868" />
</marker>
<marker
   style="overflow:visible;"
   id="marker1227"
   refX="0.0"
   refY="0.0"
   orient="auto"
   inkscape:stockid="Arrow1Lend"
   inkscape:isstock="true">
  <path
     transform="scale(0.8) rotate(180) translate(12.5,0)"
     style="fill-rule:evenodd;stroke:#ffffff;stroke-width:1pt;stroke-opacity:1;fill:#ffffff;fill-opacity:1"
     d="M 0.0,0.0 L 5.0,-5.0 L -12.5,0.0 L 5.0,5.0 L 0.0,0.0 z "
     id="path1225" />
</marker>
<marker
   style="overflow:visible;"
   id="Arrow1Lend"
   refX="0.0"
   refY="0.0"
   orient="auto"
   inkscape:stockid="Arrow1Lend"
   inkscape:isstock="true">
  <path
     transform="scale(0.8) rotate(180) translate(12.5,0)"
     style="fill-rule:evenodd;stroke:#ffffff;stroke-width:1pt;stroke-opacity:1;fill:#ffffff;fill-opacity:1"
     d="M 0.0,0.0 L 5.0,-5.0 L -12.5,0.0 L 5.0,5.0 L 0.0,0.0 z "
     id="path862" />
</marker>

	
	
</defs>
  <sodipodi:namedview
     id="base"
     pagecolor="#ffffff"
     bordercolor="#666666"
     borderopacity="1.0"
     inkscape:pageopacity="0"
     inkscape:pageshadow="2"
     inkscape:zoom="0.98994949"
     inkscape:cx="487.90368"
     inkscape:cy="316.17775"
     inkscape:document-units="mm"
     inkscape:current-layer="layer1"
     inkscape:document-rotation="0"
     showgrid="true"
     inkscape:window-width="1519"
     inkscape:window-height="842"
     inkscape:window-x="2241"
     inkscape:window-y="278"
     inkscape:window-maximized="0"
     inkscape:snap-grids="true"
     units="px"
     inkscape:pagecheckerboard="false">
    <inkscape:grid
       type="xygrid"
       id="grid876"
       empcolor="#000000"
       empopacity="0.39607843"
       color="#757575"
       opacity="0.28627451"
       empspacing="4"
       units="px"
       spacingx="2.1166666"
       spacingy="2.1166666" />
  </sodipodi:namedview>
  <metadata
     id="metadata5">
    <rdf:RDF>
      <cc:Work
         rdf:about="">
        <dc:format>image/svg+xml</dc:format>
        <dc:type
           rdf:resource="http://purl.org/dc/dcmitype/StillImage" />
      </cc:Work>
    </rdf:RDF>
  </metadata>
  <g
     inkscape:groupmode="layer"
     id="layer2"
     inkscape:label="Background"
     sodipodi:insensitive="true">
    <rect
       style="opacity:0.997213;fill:#606060;fill-opacity:1;stroke:#b3b3b3;stroke-width:2.11667;stroke-miterlimit:4;stroke-dasharray:none;stroke-opacity:0.999964;stop-color:#000000"
       id="rect957"
       width="118.53333"
       height="118.53333"
       x="8.4666662"
       y="8.4666662"
       rx="8.46667"
       ry="8.4666662" />
    <rect
       style="opacity:0.997213;fill:#606060;fill-opacity:1;stroke:#b3b3b3;stroke-width:2.11667;stroke-miterlimit:4;stroke-dasharray:none;stroke-opacity:0.999964;stop-color:#000000"
       id="rect1598"
       width="110.06667"
       height="110.06667"
       x="12.7"
       y="12.7"
       rx="2.1166666"
       ry="2.1166666" />
    <rect
       style="opacity:0.997213;fill:#606060;fill-opacity:1;stroke:#b3b3b3;stroke-width:2.11667;stroke-miterlimit:4;stroke-dasharray:none;stroke-opacity:0.999964;stop-color:#000000"
       id="rect1295"
       width="16.933332"
       height="16.933332"
       x="4.2333336"
       y="4.2333336"
       rx="2.1166663"
       ry="2.1166666" />
    <rect
       style="opacity:0.997213;fill:#606060;fill-opacity:1;stroke:#b3b3b3;stroke-width:2.11667;stroke-miterlimit:4;stroke-dasharray:none;stroke-opacity:0.999964;stop-color:#000000"
       id="rect1295-0"
       width="16.933332"
       height="16.933332"
       x="114.3"
       y="4.2333336"
       rx="2.1166663"
       ry="2.1166666" />
    <rect
       style="opacity:0.997213;fill:#606060;fill-opacity:1;stroke:#b3b3b3;stroke-width:2.11667;stroke-miterlimit:4;stroke-dasharray:none;stroke-opacity:0.999964;stop-color:#000000"
       id="rect1295-6"
       width="16.933332"
       height="16.933332"
       x="4.2333331"
       y="114.3"
       rx="2.1166663"
       ry="2.1166666" />
    <rect
       style="opacity:0.997213;fill:#606060;fill-opacity:1;stroke:#b3b3b3;stroke-width:2.11667;stroke-miterlimit:4;stroke-dasharray:none;stroke-opacity:0.999964;stop-color:#000000"
       id="rect1295-2"
       width="16.933332"
       height="16.933332"
       x="114.3"
       y="114.3"
       rx="2.1166663"
       ry="2.1166666" />
  </g>
  <g
     inkscape:label="Icon"
     inkscape:groupmode="layer"
     id="layer1">
    <path
       style="fill:#74d6d0;stroke-width:0.264584"
       d="m 72.347156,49.399961 -0.577337,0.0014 c -2.636687,0.0067 -4.779263,-2.125264 -4.785775,-4.761952 l -0.01286,-5.150283 -20.594304,0.05178 0.01287,5.150283 c 0.0067,2.63637 -2.125106,4.779264 -4.761952,4.785775 l -0.48871,0.0013 c -5.392495,0.0135 -9.753091,4.396014 -9.739749,9.788509 l 0.0783,31.25382 c 0.0135,5.392495 4.396014,9.753087 9.788508,9.739747 l 31.207919,-0.078 c 5.392495,-0.0135 9.752932,-4.396016 9.739273,-9.788511 l -0.0783,-31.25382 c -0.01318,-5.392813 -4.395379,-9.753567 -9.787873,-9.740067 z"
       id="path52" />
    <path
       style="fill:#ccf7f5;stroke-width:0.264584"
       d="M 56.750026,39.514886 H 46.452794 v 5.150283 c 0,2.63637 -2.137017,4.773864 -4.773863,4.773864 H 41.19022 c -5.392495,0 -9.764208,4.371554 -9.764208,9.764208 v 31.25382 c 0,5.392654 4.371713,9.764049 9.764208,9.764049 h 15.559806 z"
       id="path54" />
    <rect
       x="31.42617"
       y="63.672634"
       style="fill:#e0e0e0;stroke-width:0.264584"
       width="32.93977"
       height="22.266117"
       id="rect56" />
    <rect
       x="31.42617"
       y="63.672634"
       style="fill:#f4f4f4;stroke-width:0.264584"
       width="25.323696"
       height="22.266117"
       id="rect58" />
    <g
       id="g951"
       transform="translate(-79.722056,0.7361974)">
      <path
         style="fill:#e03905;stroke-width:0.264584"
         d="m 164.38872,92.397133 c 3.54597,0 6.42058,2.874292 6.42058,6.420582 v 0 c 0,3.545815 -2.87461,6.420425 -6.42058,6.420425 h -15.1575 c -3.54597,0 -6.42058,-2.87461 -6.42058,-6.420425 v 0 c 0,-3.545972 2.87461,-6.420582 6.42058,-6.420582 z"
         id="path62-3" />
      <path
         style="fill:#ffff00;stroke:#ffff00;stroke-width:0.264584"
         d="m 158.26799,92.467739 6.76142,-0.0706 c 3.54578,-0.037 6.42058,2.87429 6.42058,6.42058 v 0 c 0,3.545811 -2.8748,6.457351 -6.42058,6.420421 l -6.76143,-0.0704"
         id="path62-3-6"
         sodipodi:nodetypes="cssssc" />
    </g>
    <g
       id="g973"
       transform="rotate(45,158.28047,36.665597)">
      <path
         style="fill:#008080;stroke-width:0.264584"
         d="m 162.75406,112.11272 c 3.54597,0 6.42058,2.8743 6.42058,6.42059 v 0 c 0,3.54581 -2.87461,6.42042 -6.42058,6.42042 h -15.1575 c -3.54597,0 -6.42058,-2.87461 -6.42058,-6.42042 v 0 c 0,-3.54598 2.87461,-6.42059 6.42058,-6.42059 z"
         id="path62-3-7" />
      <path
         style="fill:#00ffff;stroke:#00ffff;stroke-width:0.264584"
         d="m 156.63333,112.18333 6.76142,-0.0706 c 3.54578,-0.037 6.42058,2.87429 6.42058,6.42058 v 0 c 0,3.54581 -2.8748,6.45735 -6.42058,6.42042 l -6.76143,-0.0704"
         id="path62-3-6-5"
         sodipodi:nodetypes="cssssc" />
    </g>
    <path
       style="fill:#e03905;stroke-width:0.264584"
       d="m 71.820962,36.56801 c 0,2.636687 -2.137335,4.773863 -4.773864,4.773863 H 46.541261 c -2.63637,0 -4.773864,-2.137335 -4.773864,-4.773863 v -7.875597 c 1.59e-4,-2.636528 2.137335,-4.773863 4.773864,-4.773863 h 20.505837 c 2.63637,0 4.773864,2.137335 4.773864,4.773863 z"
       id="path64" />
    <path
       style="fill:#ff8546;stroke-width:0.264584"
       d="M 56.750026,23.91855 H 46.541261 c -2.636529,0 -4.774023,2.137335 -4.774023,4.773863 v 7.875755 c 0,2.636688 2.137335,4.773864 4.773864,4.773864 H 56.749867 V 23.91855 Z"
       id="path68" />
  </g>
</svg>
