<?xml version="1.0" encoding="UTF-8" standalone="no"?>
<svg
   width="512"
   height="512"
   viewBox="0 0 135.46666 135.46667"
   version="1.1"
   id="svg8"
   sodipodi:docname="spices.svg"
   inkscape:version="1.1.2 (0a00cf5339, 2022-02-04)"
   xmlns:inkscape="http://www.inkscape.org/namespaces/inkscape"
   xmlns:sodipodi="http://sodipodi.sourceforge.net/DTD/sodipodi-0.dtd"
   xmlns="http://www.w3.org/2000/svg"
   xmlns:svg="http://www.w3.org/2000/svg"
   xmlns:rdf="http://www.w3.org/1999/02/22-rdf-syntax-ns#"
   xmlns:cc="http://creativecommons.org/ns#"
   xmlns:dc="http://purl.org/dc/elements/1.1/">
  <defs
     id="defs2">
    <marker
       style="overflow:visible;"
       id="Arrow1Mend"
       refX="0.0"
       refY="0.0"
       orient="auto"
       inkscape:stockid="Arrow1Mend"
       inkscape:isstock="true">
      <path
         transform="scale(0.4) rotate(180) translate(10,0)"
         style="fill-rule:evenodd;stroke:#ffffff;stroke-width:1pt;stroke-opacity:1;fill:#ffffff;fill-opacity:1"
         d="M 0.0,0.0 L 5.0,-5.0 L -12.5,0.0 L 5.0,5.0 L 0.0,0.0 z "
         id="path868" />
    </marker>
    <marker
       style="overflow:visible;"
       id="marker1227"
       refX="0.0"
       refY="0.0"
       orient="auto"
       inkscape:stockid="Arrow1Lend"
       inkscape:isstock="true">
      <path
         transform="scale(0.8) rotate(180) translate(12.5,0)"
         style="fill-rule:evenodd;stroke:#ffffff;stroke-width:1pt;stroke-opacity:1;fill:#ffffff;fill-opacity:1"
         d="M 0.0,0.0 L 5.0,-5.0 L -12.5,0.0 L 5.0,5.0 L 0.0,0.0 z "
         id="path1225" />
    </marker>
    <marker
       style="overflow:visible;"
       id="Arrow1Lend"
       refX="0.0"
       refY="0.0"
       orient="auto"
       inkscape:stockid="Arrow1Lend"
       inkscape:isstock="true">
      <path
         transform="scale(0.8) rotate(180) translate(12.5,0)"
         style="fill-rule:evenodd;stroke:#ffffff;stroke-width:1pt;stroke-opacity:1;fill:#ffffff;fill-opacity:1"
         d="M 0.0,0.0 L 5.0,-5.0 L -12.5,0.0 L 5.0,5.0 L 0.0,0.0 z "
         id="path862" />
    </marker>
  </defs>
  <sodipodi:namedview
     id="base"
     pagecolor="#ffffff"
     bordercolor="#666666"
     borderopacity="1.0"
     inkscape:pageopacity="0"
     inkscape:pageshadow="2"
     inkscape:zoom="0.7"
     inkscape:cx="562.85714"
     inkscape:cy="190"
     inkscape:document-units="mm"
     inkscape:current-layer="layer1"
     inkscape:document-rotation="0"
     showgrid="true"
     inkscape:window-width="1519"
     inkscape:window-height="842"
     inkscape:window-x="2441"
     inkscape:window-y="342"
     inkscape:window-maximized="0"
     inkscape:snap-grids="true"
     units="px"
     inkscape:pagecheckerboard="false">
    <inkscape:grid
       type="xygrid"
       id="grid876"
       empcolor="#000000"
       empopacity="0.39607843"
       color="#757575"
       opacity="0.28627451"
       empspacing="4"
       units="px"
       spacingx="2.1166666"
       spacingy="2.1166666" />
  </sodipodi:namedview>
  <metadata
     id="metadata5">
    <rdf:RDF>
      <cc:Work
         rdf:about="">
        <dc:format>image/svg+xml</dc:format>
        <dc:type
           rdf:resource="http://purl.org/dc/dcmitype/StillImage" />
      </cc:Work>
    </rdf:RDF>
  </metadata>
  <g
     inkscape:groupmode="layer"
     id="layer2"
     inkscape:label="Background"
     sodipodi:insensitive="true">
    <rect
       style="opacity:0.997213;fill:#008000;fill-opacity:1;stroke:#b3b3b3;stroke-width:2.11667;stroke-miterlimit:4;stroke-dasharray:none;stroke-opacity:0.999964;stop-color:#000000"
       id="rect957"
       width="118.53333"
       height="118.53333"
       x="8.4666662"
       y="8.4666662"
       rx="8.46667"
       ry="8.4666662" />
    <rect
       style="opacity:0.997213;fill:#008000;fill-opacity:1;stroke:#b3b3b3;stroke-width:2.11667;stroke-miterlimit:4;stroke-dasharray:none;stroke-opacity:0.999964;stop-color:#000000"
       id="rect1598"
       width="110.06667"
       height="110.06667"
       x="12.7"
       y="12.7"
       rx="2.1166666"
       ry="2.1166666" />
    <rect
       style="opacity:0.997213;fill:#008000;fill-opacity:1;stroke:#b3b3b3;stroke-width:2.11667;stroke-miterlimit:4;stroke-dasharray:none;stroke-opacity:0.999964;stop-color:#000000"
       id="rect1295"
       width="16.933332"
       height="16.933332"
       x="4.2333336"
       y="4.2333336"
       rx="2.1166663"
       ry="2.1166666" />
    <rect
       style="opacity:0.997213;fill:#008000;fill-opacity:1;stroke:#b3b3b3;stroke-width:2.11667;stroke-miterlimit:4;stroke-dasharray:none;stroke-opacity:0.999964;stop-color:#000000"
       id="rect1295-0"
       width="16.933332"
       height="16.933332"
       x="114.3"
       y="4.2333336"
       rx="2.1166663"
       ry="2.1166666" />
    <rect
       style="opacity:0.997213;fill:#008000;fill-opacity:1;stroke:#b3b3b3;stroke-width:2.11667;stroke-miterlimit:4;stroke-dasharray:none;stroke-opacity:0.999964;stop-color:#000000"
       id="rect1295-6"
       width="16.933332"
       height="16.933332"
       x="4.2333331"
       y="114.3"
       rx="2.1166663"
       ry="2.1166666" />
    <rect
       style="opacity:0.997213;fill:#008000;fill-opacity:1;stroke:#b3b3b3;stroke-width:2.11667;stroke-miterlimit:4;stroke-dasharray:none;stroke-opacity:0.999964;stop-color:#000000"
       id="rect1295-2"
       width="16.933332"
       height="16.933332"
       x="114.3"
       y="114.3"
       rx="2.1166663"
       ry="2.1166666" />
  </g>
  <g
     inkscape:label="Icon"
     inkscape:groupmode="layer"
     id="layer1">
    <g
       id="spices"
       transform="matrix(0.15903673,0,0,0.15903673,30.259057,23.014878)"
       style="stroke-width:1.66366">
	<path
   fill="#e5e8ec"
   d="M 448.836,158.495 343.245,52.903 C 238.169,157.964 251.09,129.979 163.561,217.494 76.047,305.016 196.998,425.419 284.245,338.171 371.493,250.93 342.683,264.649 448.836,158.495 Z"
   id="path50"
   style="stroke-width:3.58665" />

	<g
   id="g54"
   style="stroke-width:1.66366">
		<polygon
   fill="#a9b1bc"
   points="288.87,227.946 273.776,212.869 380.946,105.699 396.024,120.792 "
   id="polygon52"
   style="stroke-width:3.58665" />

	</g>

	<path
   fill="#fb6d51"
   d="m 284.245,338.171 c 69.562,-69.568 65.343,-74.943 114.576,-128.068 l -228.62,0.781 c -2.141,2.125 -4.359,4.328 -6.64,6.609 -87.514,87.523 33.437,207.926 120.684,120.678 z"
   id="path56"
   style="stroke-width:3.58665" />

	<path
   fill="#fb6d51"
   d="m 117.827,501.324 c 0,5.891 -4.781,10.672 -10.671,10.672 -5.89,0 -10.672,-4.781 -10.672,-10.672 0,-5.891 4.781,-10.671 10.672,-10.671 5.891,0 10.671,4.781 10.671,10.671 z"
   id="path58"
   style="stroke-width:3.58665" />

	<path
   fill="#fb6d51"
   d="m 203.154,501.324 c 0,5.891 -4.781,10.672 -10.672,10.672 -5.89,0 -10.656,-4.781 -10.656,-10.672 0,-5.891 4.766,-10.671 10.656,-10.671 5.891,0 10.672,4.781 10.672,10.671 z"
   id="path60"
   style="stroke-width:3.58665" />

	<path
   fill="#fb6d51"
   d="m 32.485,501.324 c 0,5.891 -4.766,10.672 -10.656,10.672 -5.89,0 -10.671,-4.781 -10.671,-10.672 0,-5.891 4.781,-10.671 10.671,-10.671 5.89,0 10.656,4.781 10.656,10.671 z"
   id="path62"
   style="stroke-width:3.58665" />

	<path
   fill="#fb6d51"
   d="m 117.827,415.998 c 0,5.874 -4.781,10.655 -10.671,10.655 -5.89,0 -10.672,-4.781 -10.672,-10.655 0,-5.906 4.781,-10.672 10.672,-10.672 5.891,0 10.671,4.766 10.671,10.672 z"
   id="path64"
   style="stroke-width:3.58665" />

	<path
   fill="#fb6d51"
   d="m 75.156,458.653 c 0,5.891 -4.781,10.672 -10.672,10.672 -5.89,0 -10.656,-4.781 -10.656,-10.672 0,-5.891 4.766,-10.656 10.656,-10.656 5.891,0 10.672,4.766 10.672,10.656 z"
   id="path66"
   style="stroke-width:3.58665" />

	<path
   fill="#fb6d51"
   d="m 160.483,458.653 c 0,5.891 -4.766,10.672 -10.656,10.672 -5.89,0 -10.671,-4.781 -10.671,-10.672 0,-5.891 4.781,-10.656 10.671,-10.656 5.89,0 10.656,4.766 10.656,10.656 z"
   id="path68"
   style="stroke-width:3.58665" />

	<path
   opacity="0.2"
   fill="#ffffff"
   d="m 448.836,158.495 -15.093,-15.078 c -106.154,106.154 -77.343,92.42 -164.592,179.661 -40.014,40.016 -87.106,36.359 -117.934,12.219 28.515,36.438 85.717,50.172 133.028,2.875 87.248,-87.242 58.438,-73.523 164.591,-179.677 z"
   id="path70"
   style="stroke-width:3.58665" />

	<g
   id="g74"
   style="stroke-width:1.66366">
		<path
   fill="#a85d5d"
   d="M 433.806,173.635 328.089,67.934 363.354,2.623 c 0,0 32.108,-18.172 91.498,41.218 59.405,59.405 44.265,94.545 44.265,94.545 z"
   id="path72"
   style="stroke-width:3.58665" />

	</g>

	<path
   fill="#965353"
   d="m 448.836,158.495 v 0 L 343.245,52.903 h -0.016 c -4.156,-4.156 -10.906,-4.156 -15.078,0 -4.156,4.172 -4.156,10.922 0,15.093 0,0 0,0 0.016,0 l 105.576,105.576 v 0.016 c 4.172,4.156 10.922,4.156 15.093,0 4.156,-4.172 4.156,-10.921 0,-15.093 z"
   id="path76"
   style="stroke-width:3.58665" />

	<g
   id="g80"
   style="stroke-width:1.66366">
		<polygon
   fill="#646c77"
   points="290.433,331.968 169.764,211.291 114.609,266.446 235.294,387.124 "
   id="polygon78"
   style="stroke-width:3.58665" />

	</g>

	<g
   id="g84"
   style="stroke-width:1.66366">
		<path
   fill="#424953"
   d="m 260.277,377.218 c 4.156,-4.156 4.156,-10.922 0,-15.078 L 139.593,241.461 c -4.156,-4.156 -10.922,-4.156 -15.078,0 L 79.25,286.719 c -4.156,4.156 -4.156,10.906 0,15.078 l 120.685,120.669 c 4.156,4.172 10.922,4.172 15.078,0 z"
   id="path82"
   style="stroke-width:3.58665" />

	</g>

	<path
   fill="#646c77"
   d="m 116.968,324.421 c -4.171,-4.172 -10.921,-4.172 -15.078,0 l 15.078,15.078 c 4.172,-4.156 4.172,-10.906 0,-15.078 z"
   id="path86"
   style="stroke-width:3.58665" />

	<path
   fill="#646c77"
   d="m 147.139,354.593 c -4.172,-4.172 -10.921,-4.172 -15.093,0 l 15.093,15.078 c 4.156,-4.156 4.156,-10.906 0,-15.078 z"
   id="path88"
   style="stroke-width:3.58665" />

	<path
   fill="#646c77"
   d="m 177.311,384.765 c -4.172,-4.172 -10.921,-4.172 -15.093,0 l 15.093,15.077 c 4.156,-4.156 4.156,-10.921 0,-15.077 z"
   id="path90"
   style="stroke-width:3.58665" />

	<g
   id="g94"
   style="stroke-width:1.66366">
		<path
   fill="#424953"
   d="m 282.901,350.171 c -2.734,0 -5.469,-1.031 -7.547,-3.125 L 154.686,226.384 c -4.172,-4.172 -4.172,-10.921 0,-15.093 4.156,-4.156 10.906,-4.156 15.078,0 l 120.669,120.677 c 4.172,4.156 4.172,10.922 0,15.078 -2.079,2.078 -4.813,3.125 -7.532,3.125 z"
   id="path92"
   style="stroke-width:3.58665" />

	</g>

</g>
  </g>
</svg>
